<svg id="Camada_1" data-name="Camada 1" xmlns="http://www.w3.org/2000/svg" xmlns:xlink="http://www.w3.org/1999/xlink" viewBox="0 0 400 350"><defs><style>.cls-1,.cls-19,.cls-2{fill:none;}.cls-15,.cls-16,.cls-2,.cls-20,.cls-21,.cls-8,.cls-9{stroke:#3c50ff;}.cls-10,.cls-2,.cls-8,.cls-9{stroke-linecap:round;stroke-linejoin:round;}.cls-10,.cls-18,.cls-20,.cls-22,.cls-3,.cls-9{fill:#3c50ff;}.cls-15,.cls-4,.cls-7,.cls-8{fill:#f5f0f0;}.cls-5{clip-path:url(#clip-path);}.cls-21,.cls-6{fill:#d2d7ff;}.cls-7{opacity:0.4;}.cls-18,.cls-23,.cls-7{isolation:isolate;}.cls-10,.cls-19{stroke:#f5f0f0;}.cls-11{clip-path:url(#clip-path-2);}.cls-12{fill:#7a88ff;}.cls-13{fill:#96a0ff;}.cls-14{fill:#d8dcff;}.cls-15,.cls-16,.cls-19,.cls-20,.cls-21,.cls-22{stroke-miterlimit:10;}.cls-15,.cls-16,.cls-19,.cls-20,.cls-21{stroke-width:0.97px;}.cls-16{fill:#8c98ff;}.cls-17{fill:#afb7ff;}.cls-18,.cls-23{opacity:0.3;}.cls-22{stroke:#808dff;stroke-width:0.48px;}.cls-23{fill:#fff;}</style><clipPath id="clip-path"><path class="cls-1" d="M36.85,134.71l4.49,36.44c0,5.84,10.9,10.58,24.35,10.58S90,177,90,171.15l4.49-36.44Z"/></clipPath><clipPath id="clip-path-2"><rect class="cls-1" x="119.04" y="19.65" width="204.54" height="134.21"/></clipPath></defs><title>Prancheta 1</title><g id="freepik--Desk--inject-2"><line class="cls-2" x1="8.47" y1="148.9" x2="387.47" y2="148.9"/></g><g id="freepik--Plant--inject-2"><ellipse class="cls-3" cx="55.65" cy="172.36" rx="32.2" ry="11.95"/><path class="cls-4" d="M36.85,134.71l4.49,36.44c0,5.84,10.9,10.58,24.35,10.58S90,177,90,171.15l4.49-36.44Z"/><g class="cls-5"><path class="cls-6" d="M61.47,134.71H36.85l4.49,36.44c0,5.84,10.9,10.58,24.35,10.58q1.31,0,2.58-.06C60.6,168.08,60.47,148.11,61.47,134.71Z"/><path class="cls-7" d="M61.47,134.71H36.85l4.49,36.44c0,5.84,10.9,10.58,24.35,10.58q1.31,0,2.58-.06C60.6,168.08,60.47,148.11,61.47,134.71Z"/></g><path class="cls-2" d="M36.85,134.71l4.49,36.44c0,5.84,10.9,10.58,24.35,10.58S90,177,90,171.15l4.49-36.44Z"/><ellipse class="cls-8" cx="65.69" cy="134.71" rx="28.84" ry="12.53"/><ellipse class="cls-9" cx="65.69" cy="134.38" rx="25.77" ry="10.9"/><path class="cls-2" d="M67.65,135.51S65.35,114.29,51,98.23,40.2,84.15,40.2,84.15"/><path class="cls-2" d="M93.47,72.42S76.27,89.64,73.4,109.14s-1,22.64-1,22.64"/><path class="cls-2" d="M70.47,134.34s-3.36-12-6.8-36.11S62,61.53,62,61.53"/><path class="cls-6" d="M41.69,90.7s-4.81,5.22-12.21-5-4.94-22.14-4.94-22.14,3.77,5.75,9.48,8.17S48.07,87.9,41.69,90.7Z"/><path class="cls-6" d="M61.91,67.26S55,69,54.46,56.37s8-21.22,8-21.22,0,6.88,3.44,12S68.8,68.41,61.91,67.26Z"/><path class="cls-6" d="M90.3,78.79S83.6,76.46,90,65.6s18.34-13.36,18.34-13.36-3.77,5.76-3.72,12S95.47,83.52,90.3,78.79Z"/><path class="cls-6" d="M69.94,129.37S74.53,108.72,84.28,99a31.34,31.34,0,0,1,21.79-9.18S94.6,94.39,91.16,103.56,82,132.81,82,132.81H53.32s-3.45-7.45-13.2-16.06-25.81-14.33-25.81-14.33,17.78-6.31,30.4-1.15,21.79,27,21.79,27Z"/><path class="cls-6" d="M71.68,132.18s-8.07-5.54-16.89-4.62-9.55,8.09-9.94,10.16a25.61,25.61,0,0,0-.36,3.7,188.9,188.9,0,0,1,18.36-4.62C69.85,135.65,72.78,138.88,71.68,132.18Z"/><path class="cls-6" d="M68.67,132.18s5.09-5.54,10.65-4.62,6,8.09,6.23,10.16c.14,1.23.22,2.47.24,3.7a86.45,86.45,0,0,0-11.55-4.62C69.85,135.65,68,138.88,68.67,132.18Z"/></g><g id="freepik--Device--inject-2"><path class="cls-9" d="M113.08,7H329.54a8.14,8.14,0,0,1,8.14,8.14h0V166.48H104.94V15.15A8.15,8.15,0,0,1,113.08,7Z"/><polygon class="cls-8" points="372.58 236.97 70.03 236.97 104.94 166.49 337.67 166.49 372.58 236.97"/><polygon class="cls-10" points="211.6 188.81 212 180.22 199.71 180.22 198.89 188.81 211.6 188.81"/><polygon class="cls-10" points="237.02 188.81 236.6 180.22 224.3 180.22 224.31 188.81 237.02 188.81"/><polygon class="cls-10" points="303.21 197.99 316.35 197.99 313.27 188.81 300.56 188.81 303.21 197.99"/><polygon class="cls-10" points="198.89 188.81 199.71 180.22 187.41 180.22 186.19 188.81 198.89 188.81"/><polygon class="cls-10" points="173.48 188.81 175.11 180.22 162.82 180.22 160.77 188.81 173.48 188.81"/><polygon class="cls-10" points="287.85 188.81 285.79 180.22 273.49 180.22 275.14 188.81 287.85 188.81"/><polygon class="cls-10" points="300.56 188.81 298.08 180.22 285.79 180.22 287.85 188.81 300.56 188.81"/><polygon class="cls-10" points="160.77 188.81 162.82 180.22 150.52 180.22 148.06 188.81 160.77 188.81"/><polygon class="cls-10" points="249.73 188.81 248.9 180.22 236.6 180.22 237.02 188.81 249.73 188.81"/><polygon class="cls-10" points="313.27 188.81 310.38 180.22 298.08 180.22 300.56 188.81 313.27 188.81"/><polygon class="cls-10" points="275.14 188.81 273.49 180.22 261.19 180.22 262.43 188.81 275.14 188.81"/><polygon class="cls-10" points="262.43 188.81 261.19 180.22 248.9 180.22 249.73 188.81 262.43 188.81"/><polygon class="cls-10" points="224.31 188.81 224.3 180.22 212 180.22 211.6 188.81 224.31 188.81"/><polygon class="cls-10" points="135.35 188.81 122.64 188.81 119.13 197.99 132.28 197.99 135.35 188.81"/><polygon class="cls-10" points="138.22 180.22 125.93 180.22 122.64 188.81 135.35 188.81 138.22 180.22"/><polygon class="cls-10" points="148.06 188.81 150.52 180.22 138.22 180.22 135.35 188.81 148.06 188.81"/><polygon class="cls-10" points="115.37 207.82 111.33 218.41 125.46 218.41 128.99 207.82 115.37 207.82"/><polygon class="cls-10" points="132.28 197.99 119.13 197.99 115.37 207.82 128.99 207.82 132.28 197.99"/><polygon class="cls-10" points="128.99 207.82 125.46 218.41 139.59 218.41 142.61 207.82 128.99 207.82"/><polygon class="cls-10" points="186.19 188.81 187.41 180.22 175.11 180.22 173.48 188.81 186.19 188.81"/><polygon class="cls-10" points="184.87 197.99 186.19 188.81 173.48 188.81 171.73 197.99 184.87 197.99"/><polygon class="cls-10" points="171.73 197.99 173.48 188.81 160.77 188.81 158.58 197.99 171.73 197.99"/><polygon class="cls-10" points="198.02 197.99 198.89 188.81 186.19 188.81 184.87 197.99 198.02 197.99"/><polygon class="cls-10" points="148.06 188.81 135.35 188.81 132.28 197.99 145.43 197.99 148.06 188.81"/><polygon class="cls-10" points="306.04 207.82 319.66 207.82 316.35 197.99 303.21 197.99 306.04 207.82"/><polygon class="cls-10" points="158.58 197.99 160.77 188.81 148.06 188.81 145.43 197.99 158.58 197.99"/><polygon class="cls-10" points="132.28 197.99 128.99 207.82 142.61 207.82 145.43 197.99 132.28 197.99"/><polygon class="cls-10" points="276.91 197.99 275.14 188.81 262.43 188.81 263.76 197.99 276.91 197.99"/><polygon class="cls-10" points="263.76 197.99 262.43 188.81 249.73 188.81 250.61 197.99 263.76 197.99"/><polygon class="cls-10" points="303.21 197.99 300.56 188.81 287.85 188.81 290.06 197.99 303.21 197.99"/><polygon class="cls-10" points="224.32 197.99 224.31 188.81 211.6 188.81 211.17 197.99 224.32 197.99"/><polygon class="cls-10" points="250.61 197.99 249.73 188.81 237.02 188.81 237.47 197.99 250.61 197.99"/><polygon class="cls-10" points="237.47 197.99 237.02 188.81 224.31 188.81 224.32 197.99 237.47 197.99"/><polygon class="cls-10" points="211.17 197.99 211.6 188.81 198.89 188.81 198.02 197.99 211.17 197.99"/><polygon class="cls-10" points="250.61 197.99 251.57 207.82 265.18 207.82 263.76 197.99 250.61 197.99"/><polygon class="cls-10" points="263.76 197.99 265.18 207.82 278.8 207.82 276.91 197.99 263.76 197.99"/><polygon class="cls-10" points="145.43 197.99 142.61 207.82 156.23 207.82 158.58 197.99 145.43 197.99"/><polygon class="cls-10" points="276.91 197.99 278.8 207.82 292.42 207.82 290.06 197.99 276.91 197.99"/><polygon class="cls-10" points="224.32 197.99 224.33 207.82 237.95 207.82 237.47 197.99 224.32 197.99"/><polygon class="cls-10" points="290.06 197.99 292.42 207.82 306.04 207.82 303.21 197.99 290.06 197.99"/><polygon class="cls-10" points="237.47 197.99 237.95 207.82 251.57 207.82 250.61 197.99 237.47 197.99"/><polygon class="cls-10" points="171.73 197.99 169.85 207.82 183.47 207.82 184.87 197.99 171.73 197.99"/><polygon class="cls-10" points="158.58 197.99 156.23 207.82 169.85 207.82 171.73 197.99 158.58 197.99"/><polygon class="cls-10" points="211.17 197.99 210.71 207.82 224.33 207.82 224.32 197.99 211.17 197.99"/><polygon class="cls-10" points="198.02 197.99 197.09 207.82 210.71 207.82 211.17 197.99 198.02 197.99"/><polygon class="cls-10" points="184.87 197.99 183.47 207.82 197.09 207.82 198.02 197.99 184.87 197.99"/><polygon class="cls-10" points="290.06 197.99 287.85 188.81 275.14 188.81 276.91 197.99 290.06 197.99"/><polygon class="cls-10" points="138.22 180.22 141.16 171.41 129.28 171.41 125.93 180.22 138.22 180.22"/><polygon class="cls-10" points="125.93 180.22 114.57 180.22 110.91 188.81 122.64 188.81 125.93 180.22"/><polygon class="cls-10" points="129.28 171.41 118.32 171.41 114.57 180.22 125.93 180.22 129.28 171.41"/><polygon class="cls-10" points="122.64 188.81 110.91 188.81 107 197.99 119.13 197.99 122.64 188.81"/><polygon class="cls-10" points="119.13 197.99 107 197.99 102.8 207.82 115.37 207.82 119.13 197.99"/><polygon class="cls-10" points="115.37 207.82 102.8 207.82 98.29 218.41 111.33 218.41 115.37 207.82"/><polygon class="cls-10" points="325.97 188.81 329.5 197.99 341.13 197.99 337.22 188.81 325.97 188.81"/><polygon class="cls-10" points="333.28 207.82 345.33 207.82 341.13 197.99 329.5 197.99 333.28 207.82"/><polygon class="cls-10" points="337.34 218.41 349.84 218.41 345.33 207.82 333.28 207.82 337.34 218.41"/><polygon class="cls-10" points="236.6 180.22 236.17 171.41 224.29 171.41 224.3 180.22 236.6 180.22"/><polygon class="cls-10" points="325.97 188.81 337.22 188.81 333.56 180.22 322.68 180.22 325.97 188.81"/><polygon class="cls-10" points="319.66 207.82 333.28 207.82 329.5 197.99 316.35 197.99 319.66 207.82"/><polygon class="cls-10" points="150.52 180.22 153.04 171.41 141.16 171.41 138.22 180.22 150.52 180.22"/><polygon class="cls-10" points="310.38 180.22 313.27 188.81 325.97 188.81 322.68 180.22 310.38 180.22"/><polygon class="cls-10" points="333.56 180.22 329.81 171.41 319.3 171.41 322.68 180.22 333.56 180.22"/><polygon class="cls-10" points="322.68 180.22 319.3 171.41 307.43 171.41 310.38 180.22 322.68 180.22"/><polygon class="cls-10" points="278.8 207.82 280.84 218.41 294.96 218.41 292.42 207.82 278.8 207.82"/><polygon class="cls-10" points="323.21 218.41 337.34 218.41 333.28 207.82 319.66 207.82 323.21 218.41"/><polygon class="cls-10" points="310.38 180.22 307.43 171.41 295.55 171.41 298.08 180.22 310.38 180.22"/><polygon class="cls-10" points="306.04 207.82 309.09 218.41 323.21 218.41 319.66 207.82 306.04 207.82"/><polygon class="cls-10" points="292.42 207.82 294.96 218.41 309.09 218.41 306.04 207.82 292.42 207.82"/><polygon class="cls-10" points="316.35 197.99 329.5 197.99 325.97 188.81 313.27 188.81 316.35 197.99"/><polygon class="cls-10" points="199.71 180.22 200.54 171.41 188.66 171.41 187.41 180.22 199.71 180.22"/><polygon class="cls-10" points="298.08 180.22 295.55 171.41 283.67 171.41 285.79 180.22 298.08 180.22"/><polygon class="cls-10" points="187.41 180.22 188.66 171.41 176.79 171.41 175.11 180.22 187.41 180.22"/><polygon class="cls-10" points="224.3 180.22 224.29 171.41 212.42 171.41 212 180.22 224.3 180.22"/><polygon class="cls-10" points="175.11 180.22 176.79 171.41 164.91 171.41 162.82 180.22 175.11 180.22"/><polygon class="cls-10" points="162.82 180.22 164.91 171.41 153.04 171.41 150.52 180.22 162.82 180.22"/><polygon class="cls-10" points="212 180.22 212.42 171.41 200.54 171.41 199.71 180.22 212 180.22"/><polygon class="cls-10" points="285.79 180.22 283.67 171.41 271.8 171.41 273.49 180.22 285.79 180.22"/><polygon class="cls-10" points="273.49 180.22 271.8 171.41 259.92 171.41 261.19 180.22 273.49 180.22"/><polygon class="cls-10" points="248.9 180.22 248.04 171.41 236.17 171.41 236.6 180.22 248.9 180.22"/><polygon class="cls-10" points="278.8 207.82 265.18 207.82 251.57 207.82 237.95 207.82 224.33 207.82 210.71 207.82 197.09 207.82 183.47 207.82 169.85 207.82 156.23 207.82 142.61 207.82 139.59 218.41 153.71 218.41 167.84 218.41 181.96 218.41 196.09 218.41 210.21 218.41 224.34 218.41 238.46 218.41 252.59 218.41 266.71 218.41 280.84 218.41 278.8 207.82"/><polygon class="cls-10" points="261.19 180.22 259.92 171.41 248.04 171.41 248.9 180.22 261.19 180.22"/><rect class="cls-9" x="70.03" y="236.98" width="302.69" height="4.3"/><g class="cls-11"><rect class="cls-8" x="53.18" y="-8.47" width="347.5" height="212.5"/><rect class="cls-4" x="127.89" y="101.43" width="66.41" height="27.78"/><path class="cls-3" d="M194.06,101.68V129H128.14V101.68h65.92m.5-.5H127.64v28.28h66.92V101.18Z"/><rect class="cls-3" x="127.64" y="99.59" width="66.91" height="4.78"/><path class="cls-6" d="M130.57,102a.75.75,0,1,1-1.5,0,.74.74,0,0,1,.74-.75h0a.75.75,0,0,1,.75.74Z"/><path class="cls-6" d="M133.94,102a.74.74,0,0,1-.74.76.75.75,0,0,1,0-1.5h0A.75.75,0,0,1,133.94,102Z"/><circle class="cls-6" cx="136.54" cy="102.01" r="0.74"/><rect class="cls-6" x="135.61" y="107.88" width="14.34" height="5.98"/><rect class="cls-12" x="131.23" y="112.06" width="23.1" height="11.95"/><rect class="cls-13" x="135.61" y="112.06" width="14.34" height="3.98"/><rect class="cls-3" x="135.61" y="118.04" width="14.34" height="5.98"/><rect class="cls-6" x="135.61" y="121.42" width="14.34" height="5.98"/><rect class="cls-14" x="158.71" y="117.64" width="14.74" height="5.18"/><rect class="cls-6" x="175.84" y="117.64" width="14.74" height="5.18"/><path class="cls-3" d="M159.49,109.72c.64,0,.9.41.9,1v.46c0,.67-.31,1-1,1h-.52v1.72h-.27v-4.19Zm-.07,2.22c.48,0,.69-.22.69-.73v-.49c0-.45-.16-.75-.61-.75h-.62v2Z"/><path class="cls-3" d="M161.67,109.72c.62,0,.9.36.9,1V111a.93.93,0,0,0-.55,1.18.94.94,0,0,0,.55.54v.66a.88.88,0,0,0,.11.5h-.29a1,1,0,0,1-.1-.5v-.66c0-.56-.3-.72-.78-.72h-.43v1.88h-.28v-4.19Zm-.15,2.1c.49,0,.77-.14.77-.7v-.4c0-.45-.17-.72-.61-.72h-.62v1.82Z"/><path class="cls-3" d="M163.38,109.72v4.19h-.27v-4.19Z"/><path class="cls-3" d="M164.1,113.91h-.25v-4.19h.36l1.26,3.54v-3.54h.25v4.19h-.31l-1.31-3.74Z"/><path class="cls-3" d="M166.91,113.91V110h-.85v-.25h2V110h-.86v3.94Z"/><path class="cls-3" d="M169.8,111.66v.25h-1.14v1.76H170v.25h-1.62v-4.19h1.65V110h-1.4v1.69Z"/><path class="cls-3" d="M171.36,109.72c.61,0,.89.36.89,1V111a.91.91,0,0,0-.54,1.18.9.9,0,0,0,.54.54v.66a1,1,0,0,0,.11.5h-.29a.88.88,0,0,1-.09-.5v-.66c0-.56-.3-.72-.79-.72h-.43v1.88h-.28v-4.19Zm-.16,2.07c.49,0,.78-.14.78-.7v-.4c0-.45-.18-.72-.62-.72h-.61v1.85Z"/><rect class="cls-3" x="210.1" y="34.07" width="86.24" height="53.58"/><rect class="cls-4" x="210.35" y="34.32" width="85.74" height="49.24"/><path class="cls-3" d="M295.84,34.57V83.32H210.6V34.57h85.24m.5-.5H210.1V83.82h86.24V34.07Z"/><rect class="cls-14" x="210.1" y="34.07" width="20.16" height="49.74"/><rect class="cls-3" x="210.1" y="32.97" width="86.24" height="13.95"/><path class="cls-6" d="M214.42,35.61a.83.83,0,1,1-.83-.83.83.83,0,0,1,.83.83Z"/><circle class="cls-6" cx="217.32" cy="35.61" r="0.83"/><circle class="cls-6" cx="221.05" cy="35.61" r="0.83"/><path class="cls-15" d="M291.41,42.2H273.3a2.4,2.4,0,0,1-2.4-2.4h0a2.39,2.39,0,0,1,2.4-2.4h18.11a2.41,2.41,0,0,1,2.4,2.4h0a2.41,2.41,0,0,1-2.4,2.4Z"/><rect class="cls-16" x="260.92" y="37.77" width="5.17" height="3.69"/><rect class="cls-16" x="250.63" y="37.77" width="5.17" height="3.69"/><rect class="cls-16" x="212.15" y="37.77" width="5.17" height="3.69"/><rect class="cls-16" x="217.69" y="37.77" width="5.17" height="3.69"/><path class="cls-14" d="M233.91,52.17h7.75a.47.47,0,0,1,.48.47v4.88h-8.7V52.64A.47.47,0,0,1,233.91,52.17Z"/><rect class="cls-14" x="234.7" y="51.15" width="3.86" height="2.01" rx="0.23" ry="0.23"/><path class="cls-14" d="M252.48,52.17h7.73a.47.47,0,0,1,.47.47v4.88H252V52.64a.48.48,0,0,1,.48-.47Z"/><rect class="cls-14" x="253.27" y="51.15" width="3.86" height="2.01" rx="0.23" ry="0.23"/><path class="cls-14" d="M271,52.17h7.74a.47.47,0,0,1,.47.47v4.88h-8.66V52.64A.47.47,0,0,1,271,52.17Z"/><rect class="cls-14" x="271.83" y="51.15" width="3.86" height="2.01" rx="0.23" ry="0.23"/><path class="cls-14" d="M233.91,64.36h7.75a.47.47,0,0,1,.48.47v4.88h-8.7V64.83A.47.47,0,0,1,233.91,64.36Z"/><rect class="cls-14" x="234.7" y="63.34" width="3.86" height="2.01" rx="0.23" ry="0.23"/><path class="cls-14" d="M252.48,64.36h7.73a.47.47,0,0,1,.47.47v4.88H252V64.83a.48.48,0,0,1,.48-.47Z"/><rect class="cls-14" x="253.27" y="63.34" width="3.86" height="2.01" rx="0.23" ry="0.23"/><path class="cls-6" d="M291,85.89H275.75a.41.41,0,0,1-.42-.41h0a.42.42,0,0,1,.42-.42H291a.42.42,0,0,1,.42.42h0A.42.42,0,0,1,291,85.89Z"/><path class="cls-3" d="M279.1,85.47a.54.54,0,0,1-.54.55.55.55,0,0,1-.55-.54.55.55,0,0,1,.54-.56h0a.55.55,0,0,1,.54.55Z"/><rect class="cls-3" x="232.88" y="100.87" width="85.03" height="41.01"/><rect class="cls-4" x="233.13" y="101.12" width="84.53" height="36.73"/><path class="cls-3" d="M317.41,101.37V137.6h-84V101.37h84m.5-.5h-85V138.1h85V100.87Z"/><rect class="cls-3" x="232.88" y="99.78" width="85.03" height="13.76"/><path class="cls-6" d="M237.15,102.39a.82.82,0,1,1-.82-.82h0A.83.83,0,0,1,237.15,102.39Z"/><path class="cls-6" d="M240.83,102.39a.82.82,0,1,1-.82-.82h0A.83.83,0,0,1,240.83,102.39Z"/><path class="cls-6" d="M244.51,102.39a.82.82,0,1,1-.82-.82h0A.83.83,0,0,1,244.51,102.39Z"/><rect class="cls-15" x="292.83" y="104.15" width="22.58" height="4.73" rx="2.2" ry="2.2"/><rect class="cls-16" x="234.9" y="104.52" width="5.1" height="3.64"/><rect class="cls-16" x="240.37" y="104.52" width="5.1" height="3.64"/><rect class="cls-16" x="246.38" y="104.52" width="9.58" height="3.64"/><polygon class="cls-17" points="255.35 134.71 247.96 134.71 249.47 132.5 249.47 130.48 253.84 130.48 253.84 132.57 255.35 134.71"/><rect class="cls-14" x="240.93" y="114.82" width="21.44" height="17.22"/><rect class="cls-3" x="240.93" y="114.82" width="21.44" height="14.16"/><rect class="cls-6" x="242.21" y="116.35" width="18.89" height="11.1"/><rect class="cls-17" x="270.66" y="121.19" width="41.53" height="1.64" rx="0.76" ry="0.76"/><circle class="cls-14" cx="305.08" cy="122.02" r="2.19"/><rect class="cls-3" x="127.64" y="32.53" width="59.86" height="62.07"/><rect class="cls-4" x="127.89" y="32.78" width="59.36" height="4.47"/><path class="cls-3" d="M187,33v4H128.14V33H187m.5-.5H127.64v5H187.5v-5Z"/><path class="cls-6" d="M133.15,41.68h-1.74a.43.43,0,1,1,0-.86h1.75a.43.43,0,0,1,0,.86Zm.43,1.57a.43.43,0,0,0-.43-.43h-1.74a.43.43,0,1,0,0,.86h1.75a.41.41,0,0,0,.43-.42Zm0,2a.43.43,0,0,0-.43-.43h-1.74a.44.44,0,0,0-.49.38.43.43,0,0,0,.38.48h1.85a.43.43,0,0,0,.43-.43Zm0,2a.43.43,0,0,0-.43-.43h-1.74a.44.44,0,0,0-.44.43.44.44,0,0,0,.43.43h1.75a.43.43,0,0,0,.43-.43Zm0,2a.44.44,0,0,0-.43-.44h-1.74a.44.44,0,1,0-.11.87h1.85A.43.43,0,0,0,133.58,49.25Zm0,2a.43.43,0,0,0-.43-.43h-1.74a.43.43,0,1,0,0,.86h1.75a.41.41,0,0,0,.43-.42Zm0,2a.43.43,0,0,0-.43-.43h-1.74a.43.43,0,1,0,0,.86h1.75a.43.43,0,0,0,.43-.43Zm0,2a.43.43,0,0,0-.43-.43h-1.74a.44.44,0,0,0-.44.43.44.44,0,0,0,.43.43h1.75a.43.43,0,0,0,.43-.43Zm6.52-14a.43.43,0,0,0-.43-.43h-4.6a.43.43,0,0,0-.43.43.44.44,0,0,0,.43.43h4.6A.43.43,0,0,0,140.1,41.25Zm0,2a.43.43,0,0,0-.43-.43h-4.6a.43.43,0,0,0-.43.43.43.43,0,0,0,.43.43h4.6A.43.43,0,0,0,140.1,43.25Zm0,2a.43.43,0,0,0-.43-.43h-4.6a.42.42,0,0,0-.38.48.44.44,0,0,0,.38.38h4.6a.43.43,0,0,0,.43-.43Zm0,2a.43.43,0,0,0-.43-.43h-4.6a.43.43,0,1,0,0,.86h4.6A.44.44,0,0,0,140.1,47.25Zm0,2a.44.44,0,0,0-.43-.44h-4.6a.44.44,0,0,0-.38.49.45.45,0,0,0,.38.38h4.6A.43.43,0,0,0,140.1,49.25Zm5.49,2a.43.43,0,0,0-.43-.43h-4.59a.43.43,0,0,0-.43.43.43.43,0,0,0,.43.43h4.59a.42.42,0,0,0,.47-.38.07.07,0,0,0,0,0Zm0,2a.43.43,0,0,0-.43-.43h-4.59a.43.43,0,0,0-.43.43.43.43,0,0,0,.43.43h4.59a.42.42,0,0,0,.47-.38.07.07,0,0,0,0,0Zm0,2a.43.43,0,0,0-.43-.43h-4.59a.43.43,0,0,0-.43.43.43.43,0,0,0,.43.43h4.59a.43.43,0,0,0,.47-.38.11.11,0,0,0,0,0Zm-3.47-14a.51.51,0,0,0-.51-.49.5.5,0,1,0,.53.52v0Zm1.49,0a.5.5,0,0,0-1,0,.52.52,0,0,0,1,0v0Zm1.5,0a.5.5,0,0,0-.5-.5.5.5,0,0,0-.51.5.51.51,0,0,0,.51.51h0a.51.51,0,0,0,.52-.49v0Zm1.5,0a.5.5,0,0,0-1,0,.51.51,0,0,0,.5.5.5.5,0,0,0,.52-.48v0Zm1.5,0a.51.51,0,0,0-.5-.5.5.5,0,0,0-.5.5.5.5,0,0,0,.5.5.51.51,0,0,0,.5-.5Zm1.5,0a.51.51,0,0,0-.51-.49.5.5,0,1,0,.53.52v0Zm-7.49,4a.5.5,0,1,0-1,0,.49.49,0,0,0,.5.49.5.5,0,0,0,.52-.47v0Zm1.49,0a.5.5,0,0,0-.5-.5.5.5,0,1,0,.53.53v0Zm1.5,0a.5.5,0,0,0-.5-.51.51.51,0,0,0-.51.51.5.5,0,0,0,.51.5h0a.51.51,0,0,0,.52-.48v0Zm1.5,0a.5.5,0,1,0-.5.5.49.49,0,0,0,.52-.47v0Zm1.5,0a.51.51,0,0,0-.5-.5.5.5,0,0,0-.5.5.5.5,0,0,0,.5.5.51.51,0,0,0,.5-.5Zm1.5,0a.5.5,0,1,0-1,0,.51.51,0,0,0,1,0v0ZM147.23,51a.5.5,0,0,0-.5-.5.5.5,0,1,0,0,1h0a.5.5,0,0,0,.53-.48h0Zm1.5,0a.5.5,0,1,0-.5.49h0a.5.5,0,0,0,.53-.48h0Zm1.5,0a.5.5,0,0,0-.5-.5.5.5,0,1,0,0,1h0a.5.5,0,0,0,.52-.48h0Zm1.5,0a.52.52,0,0,0-.5-.52.51.51,0,0,0-.51.5.5.5,0,0,0,.5.51h0a.5.5,0,0,0,.53-.48h0Zm1.5,0a.5.5,0,0,0-.5-.5.5.5,0,1,0,0,1h0a.5.5,0,0,0,.52-.48h0Zm1.49,0a.5.5,0,1,0-.5.49h0a.5.5,0,0,0,.53-.48h0Zm-7.49,4.11a.5.5,0,0,0-.5-.5.51.51,0,0,0-.5.5.5.5,0,0,0,.5.5h0a.5.5,0,0,0,.53-.47v0Zm1.5,0a.5.5,0,1,0-1,0,.49.49,0,0,0,.49.5h0a.5.5,0,0,0,.53-.47v0Zm1.5,0a.5.5,0,0,0-.5-.5.51.51,0,0,0-.5.5.5.5,0,0,0,.5.5h0a.49.49,0,0,0,.52-.47v0Zm1.5,0a.51.51,0,1,0-1,0,.5.5,0,0,0,.5.51h0a.5.5,0,0,0,.53-.47v0Zm1.5,0a.51.51,0,0,0-.5-.5.5.5,0,0,0-.5.5.5.5,0,0,0,.5.5h0a.49.49,0,0,0,.52-.47v0Zm1.49,0a.5.5,0,1,0-1,0,.49.49,0,0,0,.49.5h0a.5.5,0,0,0,.53-.47v0Z"/><path class="cls-6" d="M133.15,57.65h-1.74a.43.43,0,1,1,0-.86h1.75a.43.43,0,0,1,0,.86Zm.43,1.57a.43.43,0,0,0-.43-.43h-1.74a.43.43,0,1,0,0,.86h1.75a.43.43,0,0,0,.43-.41Zm0,2a.43.43,0,0,0-.43-.43h-1.74a.43.43,0,1,0,0,.86h1.75a.42.42,0,0,0,.43-.41Zm0,2a.43.43,0,0,0-.43-.43h-1.74a.44.44,0,0,0-.44.43.45.45,0,0,0,.43.44h1.75a.43.43,0,0,0,.43-.42Zm0,2a.43.43,0,0,0-.43-.43h-1.74a.43.43,0,1,0,0,.86h1.75a.43.43,0,0,0,.43-.41Zm0,2a.43.43,0,0,0-.43-.43h-1.74a.43.43,0,1,0,0,.86h1.75a.43.43,0,0,0,.43-.41Zm0,2a.44.44,0,0,0-.43-.44h-1.74a.45.45,0,0,0-.49.38.44.44,0,0,0,.38.49h1.85a.43.43,0,0,0,.43-.41Zm0,2a.43.43,0,0,0-.43-.43h-1.74a.44.44,0,0,0-.44.43.45.45,0,0,0,.43.44h1.75a.43.43,0,0,0,.43-.42Zm6.52-14a.43.43,0,0,0-.43-.43h-4.6a.43.43,0,0,0-.43.43.44.44,0,0,0,.43.43h4.6A.43.43,0,0,0,140.1,57.24Zm0,2a.43.43,0,0,0-.43-.43h-4.6a.43.43,0,0,0-.43.43.44.44,0,0,0,.43.43h4.6A.43.43,0,0,0,140.1,59.24Zm0,2a.43.43,0,0,0-.43-.43h-4.6a.43.43,0,1,0,0,.86h4.6A.43.43,0,0,0,140.1,61.23Zm0,2a.43.43,0,0,0-.43-.43h-4.6a.43.43,0,1,0,0,.86h4.6A.43.43,0,0,0,140.1,63.23Zm0,2a.43.43,0,0,0-.43-.43h-4.6a.43.43,0,0,0-.43.43.44.44,0,0,0,.43.43h4.6a.43.43,0,0,0,.43-.43Zm5.49,2a.43.43,0,0,0-.43-.43h-4.59a.43.43,0,0,0,0,.86h4.59a.42.42,0,0,0,.47-.38.09.09,0,0,0,0,0Zm0,2a.44.44,0,0,0-.43-.44h-4.59a.44.44,0,0,0-.38.49.43.43,0,0,0,.38.38h4.59a.42.42,0,0,0,.47-.38.09.09,0,0,0,0,0Zm0,2a.43.43,0,0,0-.43-.43h-4.59a.43.43,0,0,0-.43.43.43.43,0,0,0,.43.43h4.59a.42.42,0,0,0,.47-.38.07.07,0,0,0,0,0Zm-3.47-14a.5.5,0,0,0-.5-.5.5.5,0,0,0-.5.5.5.5,0,0,0,.5.5h0a.5.5,0,0,0,.52-.48v0Zm1.49,0a.5.5,0,0,0-.5-.5.5.5,0,0,0-.5.5.51.51,0,0,0,.5.5h0a.51.51,0,0,0,.53-.48v0Zm1.5,0a.5.5,0,0,0-.49-.51.51.51,0,1,0,0,1h0a.51.51,0,0,0,.52-.49h0Zm1.5,0a.5.5,0,0,0-.5-.5.5.5,0,0,0-.5.5.51.51,0,0,0,.5.5h0a.5.5,0,0,0,.52-.48v0Zm1.5,0a.5.5,0,0,0-.5-.5.5.5,0,0,0-.5.5.5.5,0,0,0,.5.5h0a.5.5,0,0,0,.52-.48v0Zm1.5,0a.5.5,0,0,0-.5-.5.5.5,0,0,0-.5.5.5.5,0,0,0,.5.5h0a.5.5,0,0,0,.52-.48v0Zm-7.49,4a.51.51,0,0,0-.51-.49.5.5,0,1,0,.53.52v0Zm1.49,0a.5.5,0,0,0-1,0,.52.52,0,0,0,1,0v0Zm1.5,0a.5.5,0,0,0-.5-.5.5.5,0,0,0-.51.5.51.51,0,0,0,.51.51h0a.51.51,0,0,0,.52-.49v0Zm1.5,0a.5.5,0,0,0-1,0,.51.51,0,0,0,.5.5.5.5,0,0,0,.52-.48v0Zm1.5,0a.51.51,0,0,0-.5-.5.51.51,0,0,0-.5.5.5.5,0,0,0,.5.5.51.51,0,0,0,.5-.5Zm1.5,0a.51.51,0,0,0-.51-.49.5.5,0,1,0,.53.52v0ZM147.23,67a.5.5,0,0,0-.5-.5.5.5,0,0,0-.5.5.51.51,0,0,0,.5.5.5.5,0,0,0,.5-.5Zm1.5,0a.5.5,0,0,0-.5-.5.5.5,0,0,0,0,1,.51.51,0,0,0,.53-.47v0Zm1.5,0a.5.5,0,1,0-.5.5.49.49,0,0,0,.52-.47v0Zm1.5,0a.5.5,0,0,0-.5-.51.51.51,0,1,0,0,1h0a.51.51,0,0,0,.53-.49h0Zm1.5,0a.5.5,0,1,0-1,0,.51.51,0,0,0,1,0v0Zm1.49,0a.49.49,0,0,0-.49-.5.49.49,0,0,0-.5.49h0a.5.5,0,1,0,1,0Zm-7.49,4.12a.5.5,0,0,0-.5-.5.5.5,0,0,0-.5.5.51.51,0,0,0,.5.5h0a.51.51,0,0,0,.53-.48v0Zm1.5,0a.5.5,0,1,0-.5.5h0a.51.51,0,0,0,.53-.48v0Zm1.5,0a.5.5,0,0,0-.5-.5.5.5,0,0,0-.5.5.51.51,0,0,0,.5.5h0a.5.5,0,0,0,.52-.48v0Zm1.5,0a.5.5,0,0,0-.5-.51.51.51,0,1,0,0,1h0a.51.51,0,0,0,.53-.48v0Zm1.5,0a.5.5,0,0,0-.5-.5.5.5,0,0,0-.5.5.5.5,0,0,0,.5.5h0a.5.5,0,0,0,.52-.48v0Zm1.49,0a.5.5,0,1,0-.5.5h0a.51.51,0,0,0,.53-.48v0Z"/><path class="cls-6" d="M133.15,74h-1.74a.43.43,0,1,1,0-.86h1.75a.43.43,0,1,1,0,.86Zm.43,1.57a.44.44,0,0,0-.43-.44h-1.74a.44.44,0,1,0,0,.87h1.75a.43.43,0,0,0,.43-.43Zm0,2a.43.43,0,0,0-.43-.43h-1.74a.43.43,0,0,0-.44.42.44.44,0,0,0,.43.44h1.75a.43.43,0,0,0,.43-.43Zm0,2a.44.44,0,0,0-.43-.44h-1.74a.44.44,0,0,0-.11.87h1.85A.43.43,0,0,0,133.58,79.61Zm0,2a.43.43,0,0,0-.43-.43h-1.74a.43.43,0,1,0,0,.86h1.75a.41.41,0,0,0,.43-.42Zm0,2a.43.43,0,0,0-.43-.43h-1.74a.43.43,0,1,0,0,.86h1.75A.43.43,0,0,0,133.58,83.6Zm0,2a.44.44,0,0,0-.43-.44h-1.74a.44.44,0,1,0,0,.87h1.75a.43.43,0,0,0,.43-.43Zm0,2a.43.43,0,0,0-.43-.43h-1.74a.43.43,0,0,0-.44.43.44.44,0,0,0,.43.43h1.75a.43.43,0,0,0,.43-.43Zm6.52-14a.43.43,0,0,0-.43-.43h-4.6a.43.43,0,0,0-.43.43.44.44,0,0,0,.43.43h4.6A.43.43,0,0,0,140.1,73.61Zm0,2a.44.44,0,0,0-.43-.44h-4.6a.44.44,0,0,0,0,.87h4.6A.44.44,0,0,0,140.1,75.61Zm0,2a.43.43,0,0,0-.43-.43h-4.6a.43.43,0,0,0-.43.43.45.45,0,0,0,.43.43h4.6A.44.44,0,0,0,140.1,77.61Zm0,2a.44.44,0,0,0-.43-.44h-4.6a.44.44,0,0,0-.38.49.45.45,0,0,0,.38.38h4.6A.44.44,0,0,0,140.1,79.61Zm0,2a.43.43,0,0,0-.43-.43h-4.6a.43.43,0,0,0-.43.43.44.44,0,0,0,.43.43h4.6A.43.43,0,0,0,140.1,81.6Zm5.49,2a.43.43,0,0,0-.43-.43h-4.59a.43.43,0,1,0,0,.86h4.59a.42.42,0,0,0,.47-.38.07.07,0,0,0,0-.05Zm0,2a.44.44,0,0,0-.43-.44h-4.59a.44.44,0,0,0-.43.44.43.43,0,0,0,.43.43h4.59a.43.43,0,0,0,.47-.38.11.11,0,0,0,0-.05Zm0,2a.43.43,0,0,0-.43-.43h-4.59a.43.43,0,0,0-.43.43.43.43,0,0,0,.43.43h4.59a.43.43,0,0,0,.47-.38.11.11,0,0,0,0-.05Zm-3.47-14a.51.51,0,0,0-.5-.5.5.5,0,0,0-.5.5.5.5,0,0,0,.5.5h0a.5.5,0,0,0,.52-.47v0Zm1.49,0a.5.5,0,0,0-.5-.5.51.51,0,0,0-.5.5.5.5,0,0,0,.5.5h0a.51.51,0,0,0,.53-.47v0Zm1.5,0a.5.5,0,0,0-.49-.51.52.52,0,0,0-.52.5.5.5,0,0,0,.5.51h0a.51.51,0,0,0,.52-.47v0Zm1.5,0a.5.5,0,0,0-.5-.5.51.51,0,0,0-.5.5.5.5,0,0,0,.5.5h0a.49.49,0,0,0,.52-.47v0Zm1.5,0a.51.51,0,0,0-.5-.5.5.5,0,0,0-.5.5.5.5,0,0,0,.5.5h0a.5.5,0,0,0,.52-.47v0Zm1.5,0a.51.51,0,0,0-.5-.5.5.5,0,0,0-.5.5.5.5,0,0,0,.5.5h0a.5.5,0,0,0,.52-.47v0Zm-7.49,4a.5.5,0,0,0-.5-.5.5.5,0,1,0,0,1h0a.49.49,0,0,0,.52-.47v0Zm1.49,0a.5.5,0,0,0-.5-.5.5.5,0,1,0,0,1h0a.5.5,0,0,0,.53-.47v0Zm1.5,0a.5.5,0,0,0-.49-.51.5.5,0,1,0,0,1h0a.49.49,0,0,0,.52-.47v0Zm1.5,0a.5.5,0,0,0-.5-.5.5.5,0,1,0,0,1h0a.48.48,0,0,0,.52-.47v0Zm1.5,0a.5.5,0,0,0-.5-.5.5.5,0,1,0,0,1h0a.49.49,0,0,0,.52-.47v0Zm1.5,0a.5.5,0,0,0-.5-.5.5.5,0,1,0,0,1h0a.49.49,0,0,0,.52-.47v0Zm-2.38,5.74a.5.5,0,0,0-.5-.5.5.5,0,0,0-.5.5.51.51,0,0,0,.5.5h0a.51.51,0,0,0,.53-.48v0Zm1.5,0a.5.5,0,1,0-.5.5h0a.51.51,0,0,0,.53-.48v0Zm1.5,0a.5.5,0,0,0-.5-.5.5.5,0,0,0-.5.5.51.51,0,0,0,.5.5h0a.5.5,0,0,0,.52-.48v0Zm1.5,0a.51.51,0,1,0-1,0,.51.51,0,0,0,.5.51h0a.51.51,0,0,0,.53-.48v0Zm1.5,0a.5.5,0,0,0-.5-.5.5.5,0,0,0-.5.5.5.5,0,0,0,.5.5h0a.5.5,0,0,0,.52-.48v0Zm1.49,0a.5.5,0,1,0-.5.5h0a.51.51,0,0,0,.53-.48v0Zm-7.49,4.12a.5.5,0,0,0-.5-.5.5.5,0,0,0-.5.5.51.51,0,0,0,.5.5h0a.51.51,0,0,0,.53-.48v0Zm1.5,0a.5.5,0,1,0-.5.5h0a.51.51,0,0,0,.53-.48v0Zm1.5,0a.5.5,0,0,0-.5-.5.5.5,0,0,0-.5.5.51.51,0,0,0,.5.5h0a.5.5,0,0,0,.52-.48v0Zm1.5,0a.51.51,0,0,0-1,0,.52.52,0,0,0,.5.52h0a.51.51,0,0,0,.53-.49h0Zm1.5,0a.5.5,0,0,0-.5-.5.5.5,0,0,0-.5.5.5.5,0,0,0,.5.5h0a.5.5,0,0,0,.52-.48v0Zm1.49,0a.5.5,0,1,0-.5.5h0a.51.51,0,0,0,.53-.48v0Z"/><path class="cls-6" d="M160,41.68h-1.75a.43.43,0,0,1-.43-.43.42.42,0,0,1,.43-.43H160a.43.43,0,0,1,.43.43.43.43,0,0,1-.43.43Zm.43,1.57a.43.43,0,0,0-.43-.43h-1.75a.43.43,0,0,0-.43.43.42.42,0,0,0,.43.43H160a.42.42,0,0,0,.42-.43Zm0,2a.43.43,0,0,0-.43-.43h-1.75a.43.43,0,0,0,0,.86H160a.43.43,0,0,0,.42-.43h0Zm0,2a.43.43,0,0,0-.43-.43h-1.75a.43.43,0,1,0,0,.86H160a.44.44,0,0,0,.42-.43Zm0,2a.44.44,0,0,0-.43-.44h-1.75a.44.44,0,0,0,0,.87H160a.44.44,0,0,0,.42-.43Zm0,2a.43.43,0,0,0-.43-.43h-1.75a.43.43,0,0,0-.43.43.43.43,0,0,0,.43.43H160a.42.42,0,0,0,.42-.43Zm0,2a.43.43,0,0,0-.43-.43h-1.75a.43.43,0,0,0-.43.43.43.43,0,0,0,.43.43H160a.42.42,0,0,0,.42-.43Zm0,2a.43.43,0,0,0-.43-.43h-1.75a.43.43,0,0,0-.43.43.43.43,0,0,0,.43.43H160a.44.44,0,0,0,.42-.43Zm6.54-14a.44.44,0,0,0-.44-.43h-4.58a.44.44,0,0,0-.44.43.43.43,0,0,0,.43.43h4.59a.42.42,0,0,0,.44-.42Zm0,2a.43.43,0,0,0-.43-.43h-4.59a.44.44,0,0,0-.44.43.43.43,0,0,0,.43.43h4.59a.42.42,0,0,0,.44-.42Zm0,2a.44.44,0,0,0-.44-.43h-4.58a.44.44,0,0,0-.39.48.45.45,0,0,0,.39.38h4.58a.44.44,0,0,0,.44-.43Zm0,2a.43.43,0,0,0-.43-.43h-4.59a.43.43,0,1,0,0,.86h4.58a.44.44,0,0,0,.44-.43Zm0,2a.44.44,0,0,0-.44-.44h-4.58a.44.44,0,0,0,0,.87h4.58a.44.44,0,0,0,.44-.43Zm5.49,2a.43.43,0,0,0-.43-.43h-4.59a.43.43,0,0,0-.43.43.43.43,0,0,0,.43.43H172a.43.43,0,0,0,.43-.43Zm0,2a.43.43,0,0,0-.43-.43h-4.59a.43.43,0,0,0-.43.43.43.43,0,0,0,.43.43H172a.43.43,0,0,0,.43-.43Zm0,2a.43.43,0,0,0-.43-.43h-4.59a.43.43,0,1,0,0,.86H172a.43.43,0,0,0,.43-.43Zm-3.47-14a.51.51,0,0,0-1,0,.51.51,0,1,0,1,0Zm1.49,0a.49.49,0,0,0-.5-.49.49.49,0,0,0-.49.5.5.5,0,1,0,1,0Zm1.5,0a.5.5,0,0,0-1,0,.51.51,0,0,0,.5.5.5.5,0,0,0,.5-.5Zm1.5,0a.5.5,0,0,0-.5-.49.49.49,0,0,0-.49.5.49.49,0,0,0,.49.5.51.51,0,0,0,.5-.51Zm1.5,0a.51.51,0,0,0-.51-.49.5.5,0,1,0,.51.5Zm1.5,0a.51.51,0,0,0-1,0,.51.51,0,1,0,1,0Zm-7.49,4a.51.51,0,1,0-1,0,.51.51,0,0,0,1,0Zm1.49,0a.5.5,0,1,0-.49.5.5.5,0,0,0,.49-.5Zm1.5,0a.5.5,0,0,0-.5-.5.5.5,0,1,0,0,1,.5.5,0,0,0,.5-.5Zm1.5,0a.5.5,0,0,0-.5-.5.5.5,0,0,0,0,1,.5.5,0,0,0,.5-.5Zm1.5,0a.5.5,0,1,0-1,0,.5.5,0,0,0,1,0Zm1.5,0a.51.51,0,1,0-1,0,.51.51,0,0,0,1,0ZM174.09,51a.5.5,0,1,0-.49.49h0a.49.49,0,0,0,.49-.49Zm1.51,0a.52.52,0,0,0-.5-.52.5.5,0,0,0-.51.5.5.5,0,0,0,.5.51h0a.51.51,0,0,0,.51-.49Zm1.49,0a.5.5,0,0,0-.5-.5.5.5,0,1,0,0,1h0a.49.49,0,0,0,.5-.49Zm1.5,0a.5.5,0,0,0-.5-.5.5.5,0,1,0,0,1h0a.51.51,0,0,0,.5-.49Zm1.5,0a.52.52,0,0,0-.5-.52.51.51,0,0,0,0,1h0a.5.5,0,0,0,.52-.49h0Zm1.5,0a.5.5,0,0,0-.5-.5.5.5,0,1,0,0,1h0a.51.51,0,0,0,.5-.49Zm-7.5,4.11a.5.5,0,1,0-.49.5h0a.49.49,0,0,0,.49-.5Zm1.51,0a.51.51,0,0,0-.5-.51.5.5,0,0,0-.51.5.5.5,0,0,0,.5.51h0a.51.51,0,0,0,.51-.5Zm1.49,0a.49.49,0,0,0-.5-.49.5.5,0,1,0,0,1h0a.5.5,0,0,0,.5-.5Zm1.5,0a.5.5,0,0,0-.5-.49.5.5,0,1,0,0,1h0a.5.5,0,0,0,.5-.5Zm1.5,0a.51.51,0,0,0-.5-.51.51.51,0,1,0,0,1h0a.5.5,0,0,0,.52-.48v0Zm1.5,0a.5.5,0,0,0-.5-.49.5.5,0,1,0,0,1h0a.5.5,0,0,0,.5-.5Z"/><path class="cls-6" d="M160,58.06h-1.75a.44.44,0,0,1,0-.87H160a.44.44,0,0,1,.43.43.44.44,0,0,1-.43.44Zm.43,1.57a.44.44,0,0,0-.43-.44h-1.75a.44.44,0,0,0-.43.44.43.43,0,0,0,.43.43H160a.44.44,0,0,0,.42-.43Zm0,2a.43.43,0,0,0-.43-.43h-1.75a.43.43,0,1,0,0,.86H160a.42.42,0,0,0,.42-.43Zm0,2a.43.43,0,0,0-.43-.43h-1.75a.43.43,0,1,0,0,.86H160a.42.42,0,0,0,.42-.43Zm0,2a.44.44,0,0,0-.43-.43h-1.75a.44.44,0,0,0,0,.87H160a.44.44,0,0,0,.42-.44Zm0,2a.44.44,0,0,0-.43-.44h-1.75a.44.44,0,0,0,0,.87H160a.44.44,0,0,0,.42-.43Zm0,2a.43.43,0,0,0-.43-.43h-1.75a.43.43,0,0,0-.43.43.42.42,0,0,0,.43.43H160a.42.42,0,0,0,.42-.43Zm0,2a.43.43,0,0,0-.43-.43h-1.75a.43.43,0,0,0-.43.43.42.42,0,0,0,.43.43H160a.42.42,0,0,0,.42-.43Zm6.54-14a.43.43,0,0,0-.43-.43h-4.59a.43.43,0,1,0,0,.86h4.58a.43.43,0,0,0,.44-.42Zm0,2a.43.43,0,0,0-.43-.43h-4.59a.43.43,0,1,0,0,.86h4.58a.44.44,0,0,0,.44-.44h0Zm0,2a.43.43,0,0,0-.43-.43h-4.59a.44.44,0,0,0-.43.44.44.44,0,0,0,.43.43h4.58a.44.44,0,0,0,.44-.43v0Zm0,2a.44.44,0,0,0-.43-.44h-4.59a.44.44,0,0,0,0,.87h4.58a.44.44,0,0,0,.44-.44v0Zm0,2a.43.43,0,0,0-.43-.43h-4.59a.44.44,0,0,0-.44.43.43.43,0,0,0,.43.43h4.59a.43.43,0,0,0,.44-.42v0Zm5.49,2a.43.43,0,0,0-.43-.43h-4.59a.43.43,0,0,0-.43.43.43.43,0,0,0,.43.43H172a.43.43,0,0,0,.43-.43v0Zm0,2a.43.43,0,0,0-.43-.43h-4.59a.44.44,0,0,0,0,.87H172a.43.43,0,0,0,.43-.43v0Zm0,2a.44.44,0,0,0-.43-.44h-4.59a.44.44,0,0,0-.43.43.44.44,0,0,0,.43.44H172a.43.43,0,0,0,.43-.43v0Zm-3.47-14a.51.51,0,1,0-1,0,.51.51,0,0,0,.5.51h0A.5.5,0,0,0,169,57.65Zm1.49,0a.5.5,0,1,0-.49.5h0a.49.49,0,0,0,.49-.5Zm1.5,0a.5.5,0,0,0-.5-.5.5.5,0,0,0,0,1h0a.5.5,0,0,0,.5-.5Zm1.5,0a.5.5,0,1,0-.5.5h0a.5.5,0,0,0,.5-.5Zm1.5,0a.5.5,0,1,0-.5.5h0a.5.5,0,0,0,.5-.5Zm1.5,0a.51.51,0,1,0-1,0,.51.51,0,0,0,.5.51h0a.5.5,0,0,0,.5-.5Zm-7.49,4a.52.52,0,0,0-.5-.51.51.51,0,1,0,0,1h0a.5.5,0,0,0,.51-.5v0Zm1.49,0a.5.5,0,1,0-.49.5h0a.5.5,0,0,0,.5-.49,0,0,0,0,0,0,0Zm1.5,0a.49.49,0,0,0-.5-.49.5.5,0,1,0,0,1h0a.49.49,0,0,0,.5-.49v0Zm1.5,0a.5.5,0,1,0-.5.5h0a.49.49,0,0,0,.5-.49v0Zm1.5,0a.5.5,0,1,0-.5.5h0a.49.49,0,0,0,.5-.49v0Zm1.5,0a.52.52,0,0,0-.5-.51.51.51,0,1,0,0,1h0a.5.5,0,0,0,.5-.5v0Zm-2.38,5.75a.5.5,0,1,0-1,0,.5.5,0,0,0,.5.5h0a.5.5,0,0,0,.49-.5v0Zm1.51,0a.5.5,0,0,0-.5-.51.5.5,0,0,0-.51.5.51.51,0,0,0,.5.51h0a.51.51,0,0,0,.51-.51v0Zm1.49,0a.5.5,0,0,0-.5-.5.5.5,0,0,0-.5.5.51.51,0,0,0,.5.5h0a.5.5,0,0,0,.5-.5v0Zm1.5,0a.5.5,0,0,0-.5-.5.5.5,0,0,0-.5.5.5.5,0,0,0,.5.5h0a.51.51,0,0,0,.5-.5v0Zm1.5,0a.5.5,0,0,0-.5-.51.5.5,0,0,0-.51.5.52.52,0,0,0,.5.51h0a.5.5,0,0,0,.52-.48v0Zm1.5,0a.5.5,0,0,0-.5-.5.5.5,0,0,0-.5.5.5.5,0,0,0,.5.5h0a.51.51,0,0,0,.5-.5v0Zm-7.5,4.12a.5.5,0,0,0-.5-.5.5.5,0,0,0,0,1,.51.51,0,0,0,.5-.5s0,0,0,0Zm1.51,0a.51.51,0,0,0-.51-.51.51.51,0,1,0,.51.51v0Zm1.49,0a.5.5,0,0,0-.5-.5.5.5,0,1,0,0,1,.5.5,0,0,0,.5-.5v0Zm1.5,0a.5.5,0,1,0-1,0,.5.5,0,0,0,1,0v0Zm1.5,0a.51.51,0,1,0-.51.5h0a.5.5,0,0,0,.52-.49v0Zm1.5,0a.51.51,0,0,0-.51-.5.5.5,0,0,0-.49.51.49.49,0,0,0,.5.49.5.5,0,0,0,.5-.5v0Z"/><path class="cls-3" d="M132.59,35.26a.83.83,0,1,1-.83-.83h0A.83.83,0,0,1,132.59,35.26Z"/><path class="cls-3" d="M136.32,35.26a.83.83,0,1,1-.83-.83h0A.83.83,0,0,1,136.32,35.26Z"/><circle class="cls-3" cx="139.22" cy="35.26" r="0.83"/><rect class="cls-18" x="182.71" y="63.48" width="86.24" height="49.74"/><rect class="cls-15" x="181.38" y="62.16" width="86.24" height="49.74"/><path class="cls-3" d="M225.54,90.33l-.91-.06a5.5,5.5,0,0,0-.08-.91l.87-.24a.26.26,0,0,0,.19-.3h0l-.11-.41a.25.25,0,0,0-.31-.18l-.87.23a6.94,6.94,0,0,0-.39-.83l.75-.51a.26.26,0,0,0,.07-.36l-.23-.35a.28.28,0,0,0-.36-.07l-.75.51a6.56,6.56,0,0,0-.62-.67l.55-.72a.26.26,0,0,0-.05-.36l-.34-.25a.27.27,0,0,0-.36,0l-.55.72a5.52,5.52,0,0,0-.8-.42l.27-.86a.26.26,0,0,0-.16-.33h0l-.4-.13a.27.27,0,0,0-.33.17h0l-.28.86a6.85,6.85,0,0,0-.81-.13v-.9a.25.25,0,0,0-.26-.26h-.41a.25.25,0,0,0-.26.26v.9a5.57,5.57,0,0,0-.91.15l-.29-.86a.27.27,0,0,0-.33-.16l-.4.14a.26.26,0,0,0-.16.33l.3.86a5.57,5.57,0,0,0-.8.43l-.57-.71a.26.26,0,0,0-.36,0l-.33.25a.27.27,0,0,0,0,.37h0l.55.71a6.67,6.67,0,0,0-.62.68l-.76-.49a.25.25,0,0,0-.35.06h0l-.22.35a.26.26,0,0,0,.07.36l.76.49a6.24,6.24,0,0,0-.36.84l-.88-.22a.26.26,0,0,0-.31.19h0l-.11.41a.26.26,0,0,0,.19.31h0l.88.23a5.26,5.26,0,0,0-.07.89h0l-.91.08a.25.25,0,0,0-.23.27l0,.43a.25.25,0,0,0,.28.23h0l.9-.08a5.54,5.54,0,0,0,.23.89l-.83.37a.24.24,0,0,0-.13.33h0l.17.39a.26.26,0,0,0,.34.12l.83-.36a6.3,6.3,0,0,0,.51.76l-.67.61a.25.25,0,0,0,0,.36h0l.29.31a.25.25,0,0,0,.36,0h0l.66-.62A5.58,5.58,0,0,0,216,95l-.43.8a.25.25,0,0,0,.11.35l.37.2a.26.26,0,0,0,.35-.1h0l.42-.8a6.34,6.34,0,0,0,.87.29l-.14.89a.25.25,0,0,0,.21.29h0l.42.07a.26.26,0,0,0,.3-.21h0l.14-.9h.41a4.17,4.17,0,0,0,.5,0l.16.9a.27.27,0,0,0,.3.21h0l.42-.07a.27.27,0,0,0,.21-.3h0l-.15-.9a5.15,5.15,0,0,0,.86-.3l.44.79a.25.25,0,0,0,.34.1h0l.37-.2a.26.26,0,0,0,.06-.31l-.44-.78a5.89,5.89,0,0,0,.72-.58l.68.62a.25.25,0,0,0,.35,0h0l.28-.31a.27.27,0,0,0,0-.37l-.68-.61A6.44,6.44,0,0,0,224,93l.83.36a.26.26,0,0,0,.34-.14l.17-.39a.27.27,0,0,0-.14-.34h0l-.83-.35a6.77,6.77,0,0,0,.21-.89l.9.06a.26.26,0,0,0,.28-.23h0l0-.42a.26.26,0,0,0-.19-.31ZM219,93.49a3.14,3.14,0,1,1,3.14-3.14A3.14,3.14,0,0,1,219,93.49Z"/><circle class="cls-19" cx="219.05" cy="90.36" r="4.39"/><path class="cls-3" d="M233.66,94.89l-.61,0a4.34,4.34,0,0,0-.06-.62l.57-.15a.17.17,0,0,0,.12-.2h0l-.07-.27a.16.16,0,0,0-.2-.11h0l-.57.14a4.34,4.34,0,0,0-.25-.54l.49-.33a.16.16,0,0,0,.05-.23l-.15-.24a.19.19,0,0,0-.24,0l-.49.33a4.26,4.26,0,0,0-.42-.43l.36-.48a.16.16,0,0,0,0-.23h0l-.22-.17a.18.18,0,0,0-.24,0l-.36.48a3.84,3.84,0,0,0-.53-.28l.18-.57a.16.16,0,0,0-.09-.2h0l-.26-.08a.16.16,0,0,0-.21.1h0l-.19.56a3.08,3.08,0,0,0-.53-.08v-.62a.16.16,0,0,0-.16-.16h-.28a.17.17,0,0,0-.17.16v.62a2.67,2.67,0,0,0-.62.1l-.19-.56a.16.16,0,0,0-.21-.11h0l-.27.09a.17.17,0,0,0-.1.21l.2.56a3,3,0,0,0-.53.29l-.37-.47a.18.18,0,0,0-.24,0l-.21.18a.15.15,0,0,0,0,.23h0l.36.47a4.18,4.18,0,0,0-.4.44l-.5-.32a.16.16,0,0,0-.23,0h0l-.16.23a.17.17,0,0,0,.05.23h0l.5.33a4.56,4.56,0,0,0-.24.55l-.57-.15a.18.18,0,0,0-.21.13l-.07.27a.18.18,0,0,0,.12.2l.58.14a3.92,3.92,0,0,0,0,.59h0l-.61.05a.18.18,0,0,0-.16.18h0v.27a.18.18,0,0,0,.19.15l.61-.05a5.47,5.47,0,0,0,.15.58l-.54.25a.18.18,0,0,0-.09.22l.12.25a.16.16,0,0,0,.22.09h0l.54-.24a5.5,5.5,0,0,0,.34.5l-.44.4a.18.18,0,0,0,0,.24l.19.2a.18.18,0,0,0,.24,0l.43-.41a3.41,3.41,0,0,0,.48.37l-.28.52a.18.18,0,0,0,.07.23l.24.13a.17.17,0,0,0,.23-.06h0l.28-.52a4.23,4.23,0,0,0,.57.19l-.09.58a.19.19,0,0,0,.14.2l.27,0a.19.19,0,0,0,.2-.14l.09-.58h.6l.1.61a.18.18,0,0,0,.19.14h0l.27,0a.18.18,0,0,0,.14-.19h0l-.09-.58a4.18,4.18,0,0,0,.56-.2l.29.52a.16.16,0,0,0,.23.06l.24-.13a.18.18,0,0,0,.07-.23l-.29-.52a5.45,5.45,0,0,0,.47-.37l.44.39a.16.16,0,0,0,.22,0l0,0,.18-.2a.16.16,0,0,0,0-.24l-.44-.4a3.36,3.36,0,0,0,.32-.51l.55.24a.16.16,0,0,0,.22-.09h0l.11-.26a.18.18,0,0,0-.09-.22l-.55-.23a3.77,3.77,0,0,0,.14-.58l.62,0a.18.18,0,0,0,.18-.16V95A.17.17,0,0,0,233.66,94.89ZM229.4,97a2.07,2.07,0,1,1,2.06-2.06A2.06,2.06,0,0,1,229.4,97Z"/><path class="cls-19" d="M232.28,94.9A2.89,2.89,0,1,1,229.39,92h0A2.89,2.89,0,0,1,232.28,94.9Z"/><path class="cls-3" d="M186.76,74.58a2.17,2.17,0,1,1,4.34,0v4.73a2.17,2.17,0,1,1-4.34,0Zm1.43,4.82c0,.62.28.9.74.9s.74-.25.74-.9V74.48c0-.65-.29-.9-.74-.9s-.74.25-.74.9Z"/><path class="cls-3" d="M196.25,74.65v1.18c0,1.46-.7,2.25-2.13,2.25h-.67V81.5H192V72.42h2.1C195.55,72.42,196.25,73.19,196.25,74.65Zm-2.8-1v3.07h.67c.46,0,.71-.2.71-.85V74.56c0-.65-.25-.86-.71-.86Z"/><path class="cls-3" d="M198.41,76.23h2v1.3h-2v2.66h2.47V81.5H197V72.42h3.9v1.3h-2.47Z"/><path class="cls-3" d="M204.73,81.5a2.85,2.85,0,0,1-.13-1.12V79c0-.85-.29-1.16-.93-1.16h-.5v3.69h-1.43V72.42h2.16c1.48,0,2.12.69,2.12,2.1v.71a1.82,1.82,0,0,1-.94,1.85c.72.29.95,1,.95,1.93v1.4a2.77,2.77,0,0,0,.15,1.11Zm-1.56-7.8v2.79h.56c.53,0,.85-.23.85-1v-.9c0-.64-.21-.93-.72-.93Z"/><path class="cls-3" d="M211.61,81.5h-1.44l-.24-1.65h-1.76l-.24,1.65h-1.32l1.46-9.08h2.09Zm-3.26-2.89h1.38L209,74Z"/><path class="cls-3" d="M211.86,72.42h4.42v1.3h-1.5v7.8h-1.43V73.7h-1.5Z"/><path class="cls-3" d="M216.9,72.42h1.43v9.1H216.9Z"/><path class="cls-3" d="M220.64,74.89v6.58h-1.28v-9h1.79l1.47,5.45V72.42h1.27v9.1h-1.47Z"/><path class="cls-3" d="M227.06,76.43h2v2.88a2,2,0,0,1-2.13,2.28c-1.41,0-2.13-.83-2.13-2.28V74.58a2.14,2.14,0,1,1,4.26,0v.88h-1.35v-1c0-.65-.28-.9-.74-.9s-.74.25-.74.9v4.93c0,.61.28.88.74.88s.74-.24.74-.88V77.74h-.65Z"/><path class="cls-3" d="M233.92,72.29c1.39,0,2.11.84,2.11,2.29v.31h-1.36v-.38c0-.65-.26-.9-.71-.9s-.72.25-.72.9c0,1.85,2.8,2.22,2.8,4.82a2,2,0,0,1-2.13,2.28c-1.41,0-2.13-.83-2.13-2.28v-.56h1.35v.65c0,.62.29.88.74.88s.74-.23.74-.88c0-1.84-2.8-2.22-2.8-4.82C231.81,73.13,232.53,72.29,233.92,72.29Z"/><path class="cls-3" d="M238.11,78.48l-1.81-6.06h1.49l1.09,4.15,1.1-4.15h1.36l-1.81,6.08v3h-1.42Z"/><path class="cls-3" d="M243.74,72.29c1.4,0,2.11.84,2.11,2.29v.31H244.5v-.38c0-.65-.26-.9-.72-.9s-.71.25-.71.9c0,1.85,2.79,2.22,2.79,4.82,0,1.45-.72,2.28-2.13,2.28a2,2,0,0,1-2.13-2.28v-.56H243v.65c0,.62.28.88.74.88s.74-.23.74-.88c0-1.84-2.79-2.22-2.79-4.82C241.66,73.13,242.35,72.29,243.74,72.29Z"/><path class="cls-3" d="M246.26,72.42h4.42v1.3h-1.49v7.8h-1.43V73.7h-1.5Z"/><path class="cls-3" d="M252.74,76.23h2v1.3h-2v2.66h2.47V81.5h-3.9V72.42h3.9v1.3h-2.47Z"/><path class="cls-3" d="M259.11,78.86l1-6.44h2v9.1h-1.33V75l-1,6.52h-1.35l-1.07-6.43v6.43h-1.23v-9.1h2Z"/><rect class="cls-20" x="181.38" y="62.16" width="86.24" height="3.61"/><circle class="cls-6" cx="184.6" cy="63.69" r="0.83"/><circle class="cls-6" cx="188.33" cy="63.69" r="0.83"/><path class="cls-6" d="M192.89,63.69a.83.83,0,1,1-.83-.83.83.83,0,0,1,.83.83Z"/><path class="cls-15" d="M260.49,103.31H189.13a.92.92,0,0,1-.92-.92h0a.92.92,0,0,1,.92-.92h71.36a.93.93,0,0,1,.93.91h0A.93.93,0,0,1,260.49,103.31Z"/><path class="cls-21" d="M239.37,101.47H189.13a.93.93,0,1,0,0,1.85h50.24Z"/><polygon class="cls-3" points="307.16 42.59 316.3 42.59 315.38 33.59 308.07 33.59 307.16 42.59"/><rect class="cls-14" x="307.16" y="42.15" width="9.14" height="2.1" rx="0.17" ry="0.17"/><polygon class="cls-3" points="307.16 55.46 316.3 55.46 315.38 46.47 308.07 46.47 307.16 55.46"/><rect class="cls-14" x="307.16" y="55.03" width="9.14" height="2.1" rx="0.28" ry="0.28"/><rect class="cls-3" x="307.74" y="55.64" width="4.14" height="0.85"/><path class="cls-22" d="M315,50.66c0,1.4-1.41,2.54-3.15,2.54s-3.15-1.14-3.15-2.54,1.4-2.54,3.15-2.54S315,49.26,315,50.66Z"/><path class="cls-14" d="M308.18,63.53h7.73a.48.48,0,0,1,.48.47v4.88h-8.68V64A.47.47,0,0,1,308.18,63.53Z"/><rect class="cls-14" x="308.97" y="62.51" width="3.86" height="2.01" rx="0.23" ry="0.23"/><path class="cls-14" d="M308.18,76.27h7.73a.48.48,0,0,1,.48.47v4.92h-8.68V76.73A.46.46,0,0,1,308.18,76.27Z"/><rect class="cls-14" x="308.97" y="75.26" width="3.86" height="2.01" rx="0.23" ry="0.23"/><path class="cls-14" d="M308.18,89h7.73a.49.49,0,0,1,.48.48V94.4h-8.68V89.52A.48.48,0,0,1,308.18,89Z"/><rect class="cls-14" x="308.97" y="88.01" width="3.86" height="2.01" rx="0.23" ry="0.23"/><polygon class="cls-23" points="148.29 160.38 118.76 160.38 193.69 12.69 223.23 12.69 148.29 160.38"/><polygon class="cls-23" points="169.49 160.38 157.93 160.38 232.86 12.69 244.42 12.69 169.49 160.38"/></g></g><g id="freepik--Hands--inject-2"><path class="cls-8" d="M96.76,343s22.36-46.89,25.8-55.92,51.61-31.83,54.19-36.16,6-17.63,8.61-23.22.43-7.75,2.15-12.48,4.73-10.32.43-10.32-9.89,4.73-12.05,12.47-10.75,14.2-10.75,14.2l.43-5.16c.43-5.17,5.59-21.08,7.74-24.52s15.06-17.2,16.78-17.63,5.59,3.44,9.46,3.44,4.73-3,2.58-4.73-3.87-7.32-9-10.76-10.75,0-10.75,0a68.21,68.21,0,0,0-4.73-6.88c-2.16-2.58-6.46-6.88-12.05-8.17a11.24,11.24,0,0,0-9.46,2.15,50.39,50.39,0,0,0-6-.86c-4.3-.43-7.31,2.15-11.61,9s-11.19,20.22-11.19,20.22,1.72-12.48,1.72-17.64.43-10.75-1.72-12.9-4.3.43-5.16,8.17-10.75,34.84-12,42.15-15.05,47.74-22.37,58.08S40.93,321,40.93,321M158.69,190.73s6-17.21,7.74-17.21,8.17,4.73,8.17,4.73Z"/><path class="cls-8" d="M156.11,159.33s-12,20.65-14.62,24.95-4.73,8.17-7.75,9.89-5.16,5.59-4.3,6.88"/><path class="cls-8" d="M127.29,187.71a23.9,23.9,0,0,1-5.16,6.46c-3.44,3-7.31,5.59-8.17,9a16.94,16.94,0,0,1-3,6"/><path class="cls-8" d="M158.69,190.73s-8.6,5.58-10.75,7.3-3,5.59-3,5.59"/><line class="cls-2" x1="182.35" y1="172.23" x2="174.6" y2="178.24"/><path class="cls-8" d="M391.53,316s-39.14-38.27-42.15-46-2.15-9.46-4.73-15-10.32-15.11-10.75-22S330,209.78,330,204.19s-1.29-13.76-3-15.05-11.19-3.45-11.19-3.45-5.16-16.34-9-17.2-11.65,3.41-11.65,3.41-1.72-3-3.87-7.73-6-4.74-10.75-3-14.2,5.59-14.2,5.59-10.75-8.18-14.19-3-7.74,14.61-8.6,18.05,5.09,3.33,6.38,2.46,6.13-4.42,6.13-4.42,9.42,7.12,11.14,11,5.16,21.93,5.59,25.37-1.29,14.19-1.29,14.19-8.17-14.62-12-18.92-9.46-6.88-13.76-6.88-7.31,4.73-3.87,6.88,7.31,4.73,8.17,7.74,9.46,18.5,10.32,24.09,6.88,16.77,12.47,20.21,26.24,7.74,30.11,11.62,31.4,58.49,31.4,58.49M274.11,174.9H281l7.31,14.21Z"/><path class="cls-8" d="M295.19,171.9l6,11.18s2.45,5.87,4.93,8.34,4.64,4.33,5.57,7.43,1.23,4.64,1.23,4.64"/><line class="cls-2" x1="315.83" y1="185.7" x2="321.86" y2="198.17"/><line class="cls-2" x1="266.37" y1="166.77" x2="274.11" y2="174.95"/><path class="cls-8" d="M323.47,201.05a55.85,55.85,0,0,0,.93,7.73"/><path class="cls-8" d="M292.53,193.9s3.71,2.78,4.33,6.49"/><path class="cls-8" d="M256.09,179.9s-3.4-1.35-3.4-4.07"/><path class="cls-8" d="M281,174.9s-2.46-1.89-2.46-4.26"/></g></svg>