<?xml version="1.0" encoding="utf-8"?>
<!-- Generator: Adobe Illustrator 22.0.1, SVG Export Plug-In . SVG Version: 6.00 Build 0)  -->
<svg version="1.1" id="Camada_1" xmlns="http://www.w3.org/2000/svg" xmlns:xlink="http://www.w3.org/1999/xlink" x="0px" y="0px"
	 viewBox="0 0 425.2 368.5" style="enable-background:new 0 0 425.2 368.5;" xml:space="preserve">
<style type="text/css">
	.st0{fill:#87EBC8;}
	.st1{opacity:0.8;fill:#FFFFFF;enable-background:new    ;}
	.st2{opacity:0.8;fill:#87EBC8;enable-background:new    ;}
	.st3{fill:#27303F;stroke:#27303F;stroke-width:1.0305;stroke-miterlimit:10;}
	.st4{clip-path:url(#SVGID_2_);}
	.st5{opacity:0.1;fill:#27303F;enable-background:new    ;}
	.st6{fill:none;stroke:#27303F;stroke-width:1.0305;stroke-miterlimit:10;}
	.st7{fill:#FFFFFF;}
	.st8{opacity:0.5;fill:#FFFFFF;enable-background:new    ;}
	.st9{clip-path:url(#SVGID_4_);}
	.st10{fill:#DBF9EE;}
	.st11{fill:#FFFFFF;stroke:#27303F;stroke-width:1.0305;stroke-miterlimit:10;}
</style>
<g id="freepik--background-simple--inject-1--inject-33">
	<path class="st0" d="M340.5,17.3c-55.1-37.7-104-6.7-128.4,26.4s-42.6,66.4-73.3,72.5c-30.7,6.1-77.2-9.4-111.9,19.8
		s-34.5,106.7-7.1,150.6s98.5,65,180.4,79.1c29.4,5.3,59.4,3.3,88.1-5.8l37.2-16.1c18.2-9.9,33.4-21.1,46.3-30.2
		c19.6-13.8,26.5-47.6,30.3-72.3c5.4-37,5-75-1.4-111.8C392.6,82.9,373.8,40,340.5,17.3z"/>
	<path class="st1" d="M340.5,17.3c-55.1-37.7-104-6.7-128.4,26.4s-42.6,66.4-73.3,72.5c-30.7,6.1-77.2-9.4-111.9,19.8
		s-34.5,106.7-7.1,150.6s98.5,65,180.4,79.1c29.4,5.3,59.4,3.3,88.1-5.8l37.2-16.1c18.2-9.9,33.4-21.1,46.3-30.2
		c19.6-13.8,26.5-47.6,30.3-72.3c5.4-37,5-75-1.4-111.8C392.6,82.9,373.8,40,340.5,17.3z"/>
	<path class="st2" d="M424.8,63.4c-1.2-24.6-15.3-32.7-24.2-21c-4.3,5.8-5.6,14-3.2,21.3c3.1,10.1,8.5,28,11.7,42.1
		c4.7,20.7,3.1,36.7,8.7,28.3S426.4,94.5,424.8,63.4z"/>
	<path class="st1" d="M424.8,63.4c-1.2-24.6-15.3-32.7-24.2-21c-4.3,5.8-5.6,14-3.2,21.3c3.1,10.1,8.5,28,11.7,42.1
		c4.7,20.7,3.1,36.7,8.7,28.3S426.4,94.5,424.8,63.4z"/>
	<path class="st0" d="M186.9,59.6c8.7-1.9,19.7-26.4,33.9-36.7C234.9,12.5,222.3,5,209,12.5c0,0-10.2,2.8-18.1,21.7
		C183,53,178.2,61.5,186.9,59.6z"/>
	<path class="st1" d="M186.9,59.6c8.7-1.9,19.7-26.4,33.9-36.7C234.9,12.5,222.3,5,209,12.5c0,0-10.2,2.8-18.1,21.7
		C183,53,178.2,61.5,186.9,59.6z"/>
	<path class="st0" d="M172.7,46.4c7-3.4,14.7-26.2,6.7-25.1c-2.1,0.4-3.8,2-4.6,4.3C172.2,32.4,166.4,49.5,172.7,46.4z"/>
	<path class="st1" d="M172.7,46.4c7-3.4,14.7-26.2,6.7-25.1c-2.1,0.4-3.8,2-4.6,4.3C172.2,32.4,166.4,49.5,172.7,46.4z"/>
</g>
<g id="freepik--character-1--inject-1--inject-33">
	<path class="st3" d="M342.7,243.9L78.4,205.2c-1.7-0.3-3-1.9-2.7-3.6l22-150.2c0.3-1.7,1.9-3,3.6-2.7c0,0,0,0,0,0l5,0.7
		c1.3,0.2,2.6-0.4,3.2-1.6l6.6-11.5c0.2-0.4,0.5-0.7,0.8-0.9c1.6-1.1,3.5-1.6,5.4-1.3l66.6,9.8c1.5,0.2,2.9,0.9,4,1.9
		c0.3,0.3,0.5,0.6,0.7,1l5.9,14.7c0.4,1.1,1.4,1.8,2.5,2l163.5,24c1.7,0.3,3,1.9,2.7,3.6l-22,150.1
		C346.1,243,344.5,244.2,342.7,243.9z"/>
	<path class="st0" d="M345.5,243.2h-262c-3.2,0-5.8-2.6-5.8-5.8V90.8c0-3.2,2.6-5.8,5.8-5.8h0.7c2.4,0,4.5-1.4,5.4-3.6l4-10
		c0.4-1.2,1.3-2.1,2.3-2.8c1.1-0.7,2.4-1,3.8-1H167c0.9,0,1.8,0.2,2.6,0.5c1.2,0.5,2.2,1.3,2.8,2.4l6.9,11.7c1,1.8,2.9,2.9,5,2.9
		h161.2c3.2,0,5.8,2.6,5.8,5.8v146.6C351.3,240.6,348.7,243.2,345.5,243.2z"/>
	<g>
		<defs>
			<path id="SVGID_1_" d="M345.5,243.2h-262c-3.2,0-5.8-2.6-5.8-5.8V90.8c0-3.2,2.6-5.8,5.8-5.8h0.7c2.4,0,4.5-1.4,5.4-3.6l4-10
				c0.4-1.2,1.3-2.1,2.3-2.8c1.1-0.7,2.4-1,3.8-1H167c0.9,0,1.8,0.2,2.6,0.5c1.2,0.5,2.2,1.3,2.8,2.4l6.9,11.7c1,1.8,2.9,2.9,5,2.9
				h161.2c3.2,0,5.8,2.6,5.8,5.8v146.6C351.3,240.6,348.7,243.2,345.5,243.2z"/>
		</defs>
		<clipPath id="SVGID_2_">
			<use xlink:href="#SVGID_1_"  style="overflow:visible;"/>
		</clipPath>
		<g class="st4">
			<path class="st5" d="M345.5,243.2h-262c-3.2,0-5.8-2.6-5.8-5.8V90.8c0-3.2,2.6-5.8,5.8-5.8h0.7c2.4,0,4.5-1.4,5.4-3.6l4-10
				c0.4-1.2,1.3-2.1,2.3-2.8c1.1-0.7,2.4-1,3.8-1H167c0.9,0,1.8,0.2,2.6,0.5c1.2,0.5,2.2,1.3,2.8,2.4l6.9,11.7c1,1.8,2.9,2.9,5,2.9
				h161.2c3.2,0,5.8,2.6,5.8,5.8v146.6C351.3,240.6,348.7,243.2,345.5,243.2z"/>
		</g>
	</g>
	<path class="st6" d="M345.5,243.2h-262c-3.2,0-5.8-2.6-5.8-5.8V90.8c0-3.2,2.6-5.8,5.8-5.8h0.7c2.4,0,4.5-1.4,5.4-3.6l4-10
		c0.4-1.2,1.3-2.1,2.3-2.8c1.1-0.7,2.4-1,3.8-1H167c0.9,0,1.8,0.2,2.6,0.5c1.2,0.5,2.2,1.3,2.8,2.4l6.9,11.7c1,1.8,2.9,2.9,5,2.9
		h161.2c3.2,0,5.8,2.6,5.8,5.8v146.6C351.3,240.6,348.7,243.2,345.5,243.2z"/>
	<path class="st7" d="M151.8,84.5h-41.9c-2.1,0-3.8-1.7-3.8-3.8l0,0l0,0c0-2.1,1.7-3.8,3.8-3.8c0,0,0,0,0,0h41.9
		c2.1,0,3.8,1.7,3.8,3.8l0,0C155.6,82.8,153.9,84.5,151.8,84.5C151.8,84.5,151.8,84.5,151.8,84.5z"/>
	<path class="st3" d="M345.5,268.8h-262c-3.2,0-5.8-2.6-5.8-5.8V116.4c0-3.2,2.6-5.8,5.8-5.8h0.7c2.4,0,4.5-1.4,5.4-3.6l4-10
		c0.4-1.2,1.3-2.1,2.3-2.8c1.1-0.7,2.4-1,3.8-1H167c0.9,0,1.8,0.2,2.6,0.5c1.2,0.5,2.2,1.3,2.8,2.4l6.9,11.7c1,1.8,2.9,2.9,5,2.9
		h161.2c3.2,0,5.8,2.6,5.8,5.8V263C351.3,266.2,348.7,268.8,345.5,268.8z"/>
	<path class="st0" d="M171.9,54.3l-41.6-5.2c-2.1-0.3-3.5-2.1-3.3-4.2l0,0c0.3-2.1,2.2-3.5,4.2-3.3l41.6,5.2
		c2.1,0.3,3.5,2.1,3.3,4.2l0,0C175.8,53.1,173.9,54.6,171.9,54.3C171.9,54.3,171.9,54.3,171.9,54.3z"/>
	<path class="st8" d="M171.9,54.3l-41.6-5.2c-2.1-0.3-3.5-2.1-3.3-4.2l0,0c0.3-2.1,2.2-3.5,4.2-3.3l41.6,5.2
		c2.1,0.3,3.5,2.1,3.3,4.2l0,0C175.8,53.1,173.9,54.6,171.9,54.3C171.9,54.3,171.9,54.3,171.9,54.3z"/>
	<path class="st0" d="M151.8,110.1h-41.9c-2.1,0-3.8-1.7-3.8-3.8c0,0,0,0,0,0l0,0c0-2.1,1.7-3.8,3.8-3.8h41.9c2.1,0,3.8,1.7,3.8,3.8
		l0,0C155.6,108.4,153.9,110.1,151.8,110.1z"/>
	<path class="st8" d="M151.8,110.1h-41.9c-2.1,0-3.8-1.7-3.8-3.8c0,0,0,0,0,0l0,0c0-2.1,1.7-3.8,3.8-3.8h41.9c2.1,0,3.8,1.7,3.8,3.8
		l0,0C155.6,108.4,153.9,110.1,151.8,110.1z"/>
	<path class="st7" d="M75,154.7h279.1c3,0,5.4,2.4,5.4,5.4V329c0,3-2.4,5.4-5.4,5.4H75c-3,0-5.4-2.4-5.4-5.4V160.1
		C69.5,157.1,72,154.7,75,154.7z"/>
	<g>
		<defs>
			<path id="SVGID_3_" d="M75,154.7h279.1c3,0,5.4,2.4,5.4,5.4V329c0,3-2.4,5.4-5.4,5.4H75c-3,0-5.4-2.4-5.4-5.4V160.1
				C69.5,157.1,72,154.7,75,154.7z"/>
		</defs>
		<clipPath id="SVGID_4_">
			<use xlink:href="#SVGID_3_"  style="overflow:visible;"/>
		</clipPath>
		<g class="st9">
			<path class="st10" d="M359.5,203.1c-32.1,30-68.7,55-108.3,74.1c-58.6,28-125.5,47.3-164.6,57.3h267.4c3,0,5.4-2.4,5.4-5.4
				c0,0,0,0,0,0V203.1z"/>
		</g>
	</g>
	<path class="st6" d="M75,154.7h279.1c3,0,5.4,2.4,5.4,5.4V329c0,3-2.4,5.4-5.4,5.4H75c-3,0-5.4-2.4-5.4-5.4V160.1
		C69.5,157.1,72,154.7,75,154.7z"/>
	<path class="st6" d="M73.7,170.5v-7.2c0-3,2.4-5.4,5.4-5.4H91"/>
	<line class="st6" x1="73.7" y1="280" x2="73.7" y2="179.3"/>
	<path class="st6" d="M355.3,314.4v11.4c0,3-2.4,5.4-5.4,5.4c0,0,0,0,0,0h-9.5"/>
	<line class="st6" x1="355.3" y1="167.9" x2="355.3" y2="305.9"/>
	<path class="st3" d="M171.4,220.4h86.2c1.6,0,2.8,1.3,2.8,2.8v44c0,1.6-1.3,2.8-2.8,2.8h-86.2c-1.6,0-2.8-1.3-2.8-2.8v-44
		C168.6,221.7,169.9,220.4,171.4,220.4z"/>
	<path class="st11" d="M171.4,220.4h86.2c1.6,0,2.8,1.3,2.8,2.8v9.5c0,1.6-1.3,2.8-2.8,2.8h-86.2c-1.6,0-2.8-1.3-2.8-2.8v-9.5
		C168.6,221.7,169.9,220.4,171.4,220.4z"/>
</g>
</svg>
