<?xml version="1.0" encoding="utf-8"?>
<!-- Generator: Adobe Illustrator 22.0.1, SVG Export Plug-In . SVG Version: 6.00 Build 0)  -->
<svg version="1.1" id="Camada_1" xmlns="http://www.w3.org/2000/svg" xmlns:xlink="http://www.w3.org/1999/xlink" x="0px" y="0px"
	 viewBox="0 0 403.5 350" style="enable-background:new 0 0 403.5 350;" xml:space="preserve">
<style type="text/css">
	.st0{fill:none;stroke:#27303F;stroke-linecap:round;stroke-linejoin:round;}
	.st1{fill:#27303F;}
	.st2{fill:#87EBC8;}
	.st3{clip-path:url(#SVGID_2_);}
	.st4{opacity:0.4;clip-path:url(#SVGID_4_);fill:#FBF9F6;enable-background:new    ;}
	.st5{fill:#FBF9F6;stroke:#27303F;stroke-linecap:round;stroke-linejoin:round;}
	.st6{fill:#27303F;stroke:#27303F;stroke-linecap:round;stroke-linejoin:round;}
	.st7{fill:#CFF7E9;}
	.st8{fill:#27303F;stroke:#FBF9F6;stroke-linecap:round;stroke-linejoin:round;}
	.st9{clip-path:url(#SVGID_6_);fill:#FBF9F6;stroke:#27303F;stroke-linecap:round;stroke-linejoin:round;}
	.st10{clip-path:url(#SVGID_8_);}
	.st11{fill:#FBF9F6;}
	.st12{fill:#CDCFD3;}
	.st13{fill:#6C727C;}
	.st14{fill:#8A8F97;}
	.st15{fill:#FBF9F6;stroke:#27303F;stroke-width:0.9663;stroke-miterlimit:10;}
	.st16{fill:#80858E;stroke:#27303F;stroke-width:0.9663;stroke-miterlimit:10;}
	.st17{fill:#D4D6D9;}
	.st18{fill:#A6AAB0;}
	.st19{opacity:0.3;fill:#27303F;enable-background:new    ;}
	.st20{fill:none;stroke:#FBF9F6;stroke-width:0.9663;stroke-miterlimit:10;}
	.st21{fill:#27303F;stroke:#27303F;stroke-width:0.9663;stroke-miterlimit:10;}
	.st22{fill:#CDCFD3;stroke:#27303F;stroke-width:0.9663;stroke-miterlimit:10;}
	.st23{fill:#27303F;stroke:#737882;stroke-width:0.4832;stroke-miterlimit:10;}
	.st24{opacity:0.3;clip-path:url(#SVGID_10_);fill:#FFFFFF;enable-background:new    ;}
	.st25{opacity:0.3;clip-path:url(#SVGID_12_);fill:#FFFFFF;enable-background:new    ;}
</style>
<title>Prancheta 1</title>
<g>
	<g>
		<g id="freepik--Desk--inject-2_5_">
			<line class="st0" x1="0" y1="148.9" x2="403.5" y2="148.9"/>
		</g>
		<g id="freepik--Plant--inject-2_2_">
			<ellipse class="st1" cx="59.5" cy="172.4" rx="32.2" ry="12"/>
			<path class="st2" d="M40.7,134.7l4.5,36.4c0,5.8,10.9,10.6,24.4,10.6s24.3-4.7,24.3-10.6l4.5-36.4L40.7,134.7L40.7,134.7z"/>
			<g>
				<g>
					<defs>
						<path id="SVGID_1_" d="M40.7,134.7l4.5,36.4c0,5.8,10.9,10.6,24.4,10.6s24.3-4.7,24.3-10.6l4.5-36.4L40.7,134.7L40.7,134.7z"
							/>
					</defs>
					<clipPath id="SVGID_2_">
						<use xlink:href="#SVGID_1_"  style="overflow:visible;"/>
					</clipPath>
					<g class="st3">
						<path class="st2" d="M65.3,134.7H40.7l4.5,36.4c0,5.8,10.9,10.6,24.4,10.6c0.9,0,1.7,0,2.6-0.1
							C64.4,168.1,64.3,148.1,65.3,134.7z"/>
					</g>
				</g>
				<g>
					<defs>
						<path id="SVGID_3_" d="M40.7,134.7l4.5,36.4c0,5.8,10.9,10.6,24.4,10.6s24.3-4.7,24.3-10.6l4.5-36.4L40.7,134.7L40.7,134.7z"
							/>
					</defs>
					<clipPath id="SVGID_4_">
						<use xlink:href="#SVGID_3_"  style="overflow:visible;"/>
					</clipPath>
					<path class="st4" d="M65.3,134.7H40.7l4.5,36.4c0,5.8,10.9,10.6,24.4,10.6c0.9,0,1.7,0,2.6-0.1
						C64.4,168.1,64.3,148.1,65.3,134.7z"/>
				</g>
			</g>
			<path class="st0" d="M40.7,134.7l4.5,36.4c0,5.8,10.9,10.6,24.4,10.6s24.3-4.7,24.3-10.6l4.5-36.4L40.7,134.7L40.7,134.7z"/>
			<ellipse class="st5" cx="69.5" cy="134.7" rx="28.8" ry="12.5"/>
			<ellipse class="st6" cx="69.5" cy="134.4" rx="25.8" ry="10.9"/>
			<path class="st0" d="M71.5,135.5c0,0-2.3-21.2-16.6-37.3S44,84.1,44,84.1"/>
			<path class="st0" d="M97.3,72.4c0,0-17.2,17.2-20.1,36.7s-1,22.6-1,22.6"/>
			<path class="st0" d="M74.3,134.3c0,0-3.4-12-6.8-36.1s-1.7-36.7-1.7-36.7"/>
			<path class="st2" d="M45.5,90.7c0,0-4.8,5.2-12.2-5s-4.9-22.1-4.9-22.1s3.8,5.8,9.5,8.2C43.6,74.2,51.9,87.9,45.5,90.7z"/>
			<path class="st2" d="M65.7,67.3c0,0-6.9,1.7-7.5-10.9s8-21.2,8-21.2s0,6.9,3.4,12S72.6,68.4,65.7,67.3z"/>
			<path class="st2" d="M94.1,78.8c0,0-6.7-2.3-0.3-13.2s18.3-13.4,18.3-13.4s-3.8,5.8-3.7,12C108.5,70.5,99.3,83.5,94.1,78.8z"/>
			<path class="st7" d="M73.8,129.4c0,0,4.6-20.6,14.3-30.4c5.8-5.8,13.6-9.1,21.8-9.2c0,0-11.5,4.6-14.9,13.8s-9.2,29.3-9.2,29.3
				H57.1c0,0-3.4-7.4-13.2-16.1s-25.8-14.3-25.8-14.3s17.8-6.3,30.4-1.1s21.8,27,21.8,27L73.8,129.4z"/>
			<path class="st7" d="M75.5,132.2c0,0-8.1-5.5-16.9-4.6s-9.5,8.1-9.9,10.2c-0.2,1.2-0.3,2.5-0.4,3.7c0,0,11.4-3.5,18.4-4.6
				S76.6,138.9,75.5,132.2z"/>
			<path class="st7" d="M72.5,132.2c0,0,5.1-5.5,10.6-4.6c5.6,0.9,6,8.1,6.2,10.2c0.1,1.2,0.2,2.5,0.2,3.7c0,0-7.2-3.5-11.5-4.6
				S71.8,138.9,72.5,132.2z"/>
		</g>
		<g id="freepik--Device--inject-2_2_">
			<path class="st6" d="M116.9,7h216.5c4.5,0,8.1,3.6,8.1,8.1l0,0v151.3l0,0H108.8l0,0V15.2C108.8,10.7,112.4,7,116.9,7z"/>
			<polygon class="st5" points="376.4,237 73.9,237 108.8,166.5 341.5,166.5 			"/>
			<polygon class="st8" points="215.4,188.8 215.8,180.2 203.5,180.2 202.7,188.8 			"/>
			<polygon class="st8" points="240.8,188.8 240.4,180.2 228.1,180.2 228.1,188.8 			"/>
			<polygon class="st8" points="307,198 320.2,198 317.1,188.8 304.4,188.8 			"/>
			<polygon class="st8" points="202.7,188.8 203.5,180.2 191.2,180.2 190,188.8 			"/>
			<polygon class="st8" points="177.3,188.8 178.9,180.2 166.6,180.2 164.6,188.8 			"/>
			<polygon class="st8" points="291.7,188.8 289.6,180.2 277.3,180.2 279,188.8 			"/>
			<polygon class="st8" points="304.4,188.8 301.9,180.2 289.6,180.2 291.7,188.8 			"/>
			<polygon class="st8" points="164.6,188.8 166.6,180.2 154.3,180.2 151.9,188.8 			"/>
			<polygon class="st8" points="253.6,188.8 252.7,180.2 240.4,180.2 240.8,188.8 			"/>
			<polygon class="st8" points="317.1,188.8 314.2,180.2 301.9,180.2 304.4,188.8 			"/>
			<polygon class="st8" points="279,188.8 277.3,180.2 265,180.2 266.3,188.8 			"/>
			<polygon class="st8" points="266.3,188.8 265,180.2 252.7,180.2 253.6,188.8 			"/>
			<polygon class="st8" points="228.1,188.8 228.1,180.2 215.8,180.2 215.4,188.8 			"/>
			<polygon class="st8" points="139.2,188.8 126.5,188.8 123,198 136.1,198 			"/>
			<polygon class="st8" points="142,180.2 129.8,180.2 126.5,188.8 139.2,188.8 			"/>
			<polygon class="st8" points="151.9,188.8 154.3,180.2 142,180.2 139.2,188.8 			"/>
			<polygon class="st8" points="119.2,207.8 115.2,218.4 129.3,218.4 132.8,207.8 			"/>
			<polygon class="st8" points="136.1,198 123,198 119.2,207.8 132.8,207.8 			"/>
			<polygon class="st8" points="132.8,207.8 129.3,218.4 143.4,218.4 146.4,207.8 			"/>
			<polygon class="st8" points="190,188.8 191.2,180.2 178.9,180.2 177.3,188.8 			"/>
			<polygon class="st8" points="188.7,198 190,188.8 177.3,188.8 175.6,198 			"/>
			<polygon class="st8" points="175.6,198 177.3,188.8 164.6,188.8 162.4,198 			"/>
			<polygon class="st8" points="201.8,198 202.7,188.8 190,188.8 188.7,198 			"/>
			<polygon class="st8" points="151.9,188.8 139.2,188.8 136.1,198 149.3,198 			"/>
			<polygon class="st8" points="309.9,207.8 323.5,207.8 320.2,198 307,198 			"/>
			<polygon class="st8" points="162.4,198 164.6,188.8 151.9,188.8 149.3,198 			"/>
			<polygon class="st8" points="136.1,198 132.8,207.8 146.4,207.8 149.3,198 			"/>
			<polygon class="st8" points="280.7,198 279,188.8 266.3,188.8 267.6,198 			"/>
			<polygon class="st8" points="267.6,198 266.3,188.8 253.6,188.8 254.4,198 			"/>
			<polygon class="st8" points="307,198 304.4,188.8 291.7,188.8 293.9,198 			"/>
			<polygon class="st8" points="228.1,198 228.1,188.8 215.4,188.8 215,198 			"/>
			<polygon class="st8" points="254.4,198 253.6,188.8 240.8,188.8 241.3,198 			"/>
			<polygon class="st8" points="241.3,198 240.8,188.8 228.1,188.8 228.1,198 			"/>
			<polygon class="st8" points="215,198 215.4,188.8 202.7,188.8 201.8,198 			"/>
			<polygon class="st8" points="254.4,198 255.4,207.8 269,207.8 267.6,198 			"/>
			<polygon class="st8" points="267.6,198 269,207.8 282.6,207.8 280.7,198 			"/>
			<polygon class="st8" points="149.3,198 146.4,207.8 160.1,207.8 162.4,198 			"/>
			<polygon class="st8" points="280.7,198 282.6,207.8 296.2,207.8 293.9,198 			"/>
			<polygon class="st8" points="228.1,198 228.2,207.8 241.8,207.8 241.3,198 			"/>
			<polygon class="st8" points="293.9,198 296.2,207.8 309.9,207.8 307,198 			"/>
			<polygon class="st8" points="241.3,198 241.8,207.8 255.4,207.8 254.4,198 			"/>
			<polygon class="st8" points="175.6,198 173.7,207.8 187.3,207.8 188.7,198 			"/>
			<polygon class="st8" points="162.4,198 160.1,207.8 173.7,207.8 175.6,198 			"/>
			<polygon class="st8" points="215,198 214.5,207.8 228.2,207.8 228.1,198 			"/>
			<polygon class="st8" points="201.8,198 200.9,207.8 214.5,207.8 215,198 			"/>
			<polygon class="st8" points="188.7,198 187.3,207.8 200.9,207.8 201.8,198 			"/>
			<polygon class="st8" points="293.9,198 291.7,188.8 279,188.8 280.7,198 			"/>
			<polygon class="st8" points="142,180.2 145,171.4 133.1,171.4 129.8,180.2 			"/>
			<polygon class="st8" points="129.8,180.2 118.4,180.2 114.7,188.8 126.5,188.8 			"/>
			<polygon class="st8" points="133.1,171.4 122.1,171.4 118.4,180.2 129.8,180.2 			"/>
			<polygon class="st8" points="126.5,188.8 114.7,188.8 110.8,198 123,198 			"/>
			<polygon class="st8" points="123,198 110.8,198 106.6,207.8 119.2,207.8 			"/>
			<polygon class="st8" points="119.2,207.8 106.6,207.8 102.1,218.4 115.2,218.4 			"/>
			<polygon class="st8" points="329.8,188.8 333.3,198 345,198 341,188.8 			"/>
			<polygon class="st8" points="337.1,207.8 349.2,207.8 345,198 333.3,198 			"/>
			<polygon class="st8" points="341.2,218.4 353.7,218.4 349.2,207.8 337.1,207.8 			"/>
			<polygon class="st8" points="240.4,180.2 240,171.4 228.1,171.4 228.1,180.2 			"/>
			<polygon class="st8" points="329.8,188.8 341,188.8 337.4,180.2 326.5,180.2 			"/>
			<polygon class="st8" points="323.5,207.8 337.1,207.8 333.3,198 320.2,198 			"/>
			<polygon class="st8" points="154.3,180.2 156.9,171.4 145,171.4 142,180.2 			"/>
			<polygon class="st8" points="314.2,180.2 317.1,188.8 329.8,188.8 326.5,180.2 			"/>
			<polygon class="st8" points="337.4,180.2 333.6,171.4 323.1,171.4 326.5,180.2 			"/>
			<polygon class="st8" points="326.5,180.2 323.1,171.4 311.3,171.4 314.2,180.2 			"/>
			<polygon class="st8" points="282.6,207.8 284.7,218.4 298.8,218.4 296.2,207.8 			"/>
			<polygon class="st8" points="327,218.4 341.2,218.4 337.1,207.8 323.5,207.8 			"/>
			<polygon class="st8" points="314.2,180.2 311.3,171.4 299.4,171.4 301.9,180.2 			"/>
			<polygon class="st8" points="309.9,207.8 312.9,218.4 327,218.4 323.5,207.8 			"/>
			<polygon class="st8" points="296.2,207.8 298.8,218.4 312.9,218.4 309.9,207.8 			"/>
			<polygon class="st8" points="320.2,198 333.3,198 329.8,188.8 317.1,188.8 			"/>
			<polygon class="st8" points="203.5,180.2 204.4,171.4 192.5,171.4 191.2,180.2 			"/>
			<polygon class="st8" points="301.9,180.2 299.4,171.4 287.5,171.4 289.6,180.2 			"/>
			<polygon class="st8" points="191.2,180.2 192.5,171.4 180.6,171.4 178.9,180.2 			"/>
			<polygon class="st8" points="228.1,180.2 228.1,171.4 216.2,171.4 215.8,180.2 			"/>
			<polygon class="st8" points="178.9,180.2 180.6,171.4 168.7,171.4 166.6,180.2 			"/>
			<polygon class="st8" points="166.6,180.2 168.7,171.4 156.9,171.4 154.3,180.2 			"/>
			<polygon class="st8" points="215.8,180.2 216.2,171.4 204.4,171.4 203.5,180.2 			"/>
			<polygon class="st8" points="289.6,180.2 287.5,171.4 275.6,171.4 277.3,180.2 			"/>
			<polygon class="st8" points="277.3,180.2 275.6,171.4 263.7,171.4 265,180.2 			"/>
			<polygon class="st8" points="252.7,180.2 251.9,171.4 240,171.4 240.4,180.2 			"/>
			<polygon class="st8" points="282.6,207.8 269,207.8 255.4,207.8 241.8,207.8 228.2,207.8 214.5,207.8 200.9,207.8 187.3,207.8 
				173.7,207.8 160.1,207.8 146.4,207.8 143.4,218.4 157.5,218.4 171.7,218.4 185.8,218.4 199.9,218.4 214,218.4 228.2,218.4 
				242.3,218.4 256.4,218.4 270.5,218.4 284.7,218.4 			"/>
			<polygon class="st8" points="265,180.2 263.7,171.4 251.9,171.4 252.7,180.2 			"/>
			<rect x="73.9" y="237" class="st6" width="302.7" height="4.3"/>
			<g>
				<g>
					<defs>
						<rect id="SVGID_5_" x="122.9" y="19.6" width="204.5" height="134.2"/>
					</defs>
					<clipPath id="SVGID_6_">
						<use xlink:href="#SVGID_5_"  style="overflow:visible;"/>
					</clipPath>
					<rect x="57" y="-8.5" class="st9" width="347.5" height="212.5"/>
				</g>
				<g>
					<defs>
						<rect id="SVGID_7_" x="122.9" y="19.6" width="204.5" height="134.2"/>
					</defs>
					<clipPath id="SVGID_8_">
						<use xlink:href="#SVGID_7_"  style="overflow:visible;"/>
					</clipPath>
					<g class="st10">
						<g>
							<rect x="131.7" y="101.4" class="st11" width="66.4" height="27.8"/>
							<path class="st1" d="M197.9,101.7V129H132v-27.3H197.9 M198.4,101.2h-66.9v28.3h66.9V101.2L198.4,101.2z"/>
						</g>
						<rect x="131.5" y="99.6" class="st1" width="66.9" height="4.8"/>
						<path class="st12" d="M134.4,102c0,0.4-0.3,0.8-0.7,0.8s-0.8-0.3-0.8-0.7c0-0.4,0.3-0.8,0.7-0.8l0,0
							C134.1,101.3,134.4,101.6,134.4,102L134.4,102z"/>
						<path class="st12" d="M137.8,102c0,0.4-0.3,0.8-0.7,0.8s-0.8-0.3-0.8-0.7c0-0.4,0.3-0.8,0.7-0.8l0,0
							C137.4,101.3,137.8,101.6,137.8,102z"/>
						<circle class="st12" cx="140.4" cy="102" r="0.7"/>
						<rect x="139.4" y="107.9" class="st2" width="14.3" height="6"/>
						<rect x="135.1" y="112.1" class="st13" width="23.1" height="11.9"/>
						<rect x="139.4" y="112.1" class="st14" width="14.3" height="4"/>
						<rect x="139.4" y="118" class="st1" width="14.3" height="6"/>
						<rect x="139.4" y="121.4" class="st2" width="14.3" height="6"/>
						<rect x="162.5" y="117.6" class="st2" width="14.7" height="5.2"/>
						<rect x="179.7" y="117.6" class="st2" width="14.7" height="5.2"/>
						<path class="st1" d="M163.3,109.7c0.6,0,0.9,0.4,0.9,1v0.5c0,0.7-0.3,1-1,1h-0.5v1.7h-0.3v-4.2H163.3z M163.2,111.9
							c0.5,0,0.7-0.2,0.7-0.7v-0.5c0-0.5-0.2-0.8-0.6-0.8h-0.6v2H163.2z"/>
						<path class="st1" d="M165.5,109.7c0.6,0,0.9,0.4,0.9,0.9v0.4c-0.5,0.2-0.7,0.7-0.5,1.2c0.1,0.3,0.3,0.5,0.5,0.5v0.7
							c0,0.2,0,0.3,0.1,0.5h-0.3c-0.1-0.2-0.1-0.3-0.1-0.5v-0.7c0-0.6-0.3-0.7-0.8-0.7h-0.4v1.9h-0.3v-4.2L165.5,109.7z
							 M165.3,111.8c0.5,0,0.8-0.1,0.8-0.7v-0.4c0-0.4-0.2-0.7-0.6-0.7h-0.6v1.8C164.9,111.8,165.3,111.8,165.3,111.8z"/>
						<path class="st1" d="M167.2,109.7v4.2h-0.3v-4.2H167.2z"/>
						<path class="st1" d="M167.9,113.9h-0.3v-4.2h0.4l1.3,3.5v-3.5h0.2v4.2h-0.3l-1.3-3.7L167.9,113.9L167.9,113.9z"/>
						<path class="st1" d="M170.7,113.9V110h-0.8v-0.3h2v0.3H171v3.9H170.7z"/>
						<path class="st1" d="M173.6,111.7v0.3h-1.1v1.8h1.4v0.3h-1.6v-4.2h1.6v0.2h-1.4v1.7h1.1V111.7z"/>
						<path class="st1" d="M175.2,109.7c0.6,0,0.9,0.4,0.9,0.9v0.4c-0.5,0.2-0.7,0.7-0.5,1.2c0.1,0.3,0.3,0.5,0.5,0.5v0.7
							c0,0.2,0,0.3,0.1,0.5h-0.3c-0.1-0.2-0.1-0.3-0.1-0.5v-0.7c0-0.6-0.3-0.7-0.8-0.7h-0.4v1.9h-0.3v-4.2L175.2,109.7z M175,111.8
							c0.5,0,0.8-0.1,0.8-0.7v-0.4c0-0.4-0.2-0.7-0.6-0.7h-0.6v1.8L175,111.8z"/>
						<rect x="213.9" y="34.1" class="st1" width="86.2" height="53.6"/>
						<g>
							<rect x="214.2" y="34.3" class="st11" width="85.7" height="49.2"/>
							<path class="st1" d="M299.7,34.6v48.7h-85.2V34.6H299.7 M300.2,34.1H214v49.7h86.2V34.1L300.2,34.1z"/>
						</g>
						<rect x="213.9" y="34.1" class="st2" width="20.2" height="49.7"/>
						<rect x="213.9" y="33" class="st1" width="86.2" height="14"/>
						<path class="st12" d="M218.2,35.6c0,0.5-0.4,0.8-0.8,0.8c-0.5,0-0.8-0.4-0.8-0.8c0-0.5,0.4-0.8,0.8-0.8
							C217.9,34.8,218.2,35.1,218.2,35.6L218.2,35.6z"/>
						<circle class="st12" cx="221.2" cy="35.6" r="0.8"/>
						<circle class="st12" cx="224.9" cy="35.6" r="0.8"/>
						<path class="st15" d="M295.2,42.2h-18.1c-1.3,0-2.4-1.1-2.4-2.4l0,0c0-1.3,1.1-2.4,2.4-2.4h18.1c1.3,0,2.4,1.1,2.4,2.4l0,0
							C297.6,41.1,296.6,42.2,295.2,42.2L295.2,42.2z"/>
						<rect x="264.8" y="37.8" class="st16" width="5.2" height="3.7"/>
						<rect x="254.5" y="37.8" class="st16" width="5.2" height="3.7"/>
						<rect x="216" y="37.8" class="st16" width="5.2" height="3.7"/>
						<rect x="221.5" y="37.8" class="st16" width="5.2" height="3.7"/>
						<path class="st2" d="M237.7,52.2h7.7c0.3,0,0.5,0.2,0.5,0.5v4.9l0,0h-8.7l0,0v-4.9C237.3,52.4,237.5,52.2,237.7,52.2z"/>
						<path class="st2" d="M238.8,51.1h3.4c0.1,0,0.2,0.1,0.2,0.2v1.5c0,0.1-0.1,0.2-0.2,0.2h-3.4c-0.1,0-0.2-0.1-0.2-0.2v-1.5
							C238.5,51.3,238.6,51.1,238.8,51.1z"/>
						<path class="st2" d="M256.3,52.2h7.7c0.3,0,0.5,0.2,0.5,0.5v4.9l0,0h-8.7l0,0v-4.9C255.8,52.4,256,52.2,256.3,52.2L256.3,52.2
							z"/>
						<path class="st2" d="M257.3,51.1h3.4c0.1,0,0.2,0.1,0.2,0.2v1.5c0,0.1-0.1,0.2-0.2,0.2h-3.4c-0.1,0-0.2-0.1-0.2-0.2v-1.5
							C257.1,51.3,257.2,51.1,257.3,51.1z"/>
						<path class="st2" d="M274.9,52.2h7.7c0.3,0,0.5,0.2,0.5,0.5v4.9l0,0h-8.7l0,0v-4.9C274.4,52.4,274.6,52.2,274.9,52.2z"/>
						<path class="st2" d="M275.9,51.1h3.4c0.1,0,0.2,0.1,0.2,0.2v1.5c0,0.1-0.1,0.2-0.2,0.2h-3.4c-0.1,0-0.2-0.1-0.2-0.2v-1.5
							C275.7,51.3,275.8,51.1,275.9,51.1z"/>
						<path class="st17" d="M237.7,64.4h7.7c0.3,0,0.5,0.2,0.5,0.5v4.9l0,0h-8.7l0,0v-4.9C237.3,64.6,237.5,64.4,237.7,64.4z"/>
						<path class="st17" d="M238.8,63.3h3.4c0.1,0,0.2,0.1,0.2,0.2V65c0,0.1-0.1,0.2-0.2,0.2h-3.4c-0.1,0-0.2-0.1-0.2-0.2v-1.5
							C238.5,63.4,238.6,63.3,238.8,63.3z"/>
						<path class="st17" d="M256.3,64.4h7.7c0.3,0,0.5,0.2,0.5,0.5v4.9l0,0h-8.7l0,0v-4.9C255.8,64.6,256,64.4,256.3,64.4
							L256.3,64.4z"/>
						<path class="st17" d="M257.3,63.3h3.4c0.1,0,0.2,0.1,0.2,0.2V65c0,0.1-0.1,0.2-0.2,0.2h-3.4c-0.1,0-0.2-0.1-0.2-0.2v-1.5
							C257.1,63.4,257.2,63.3,257.3,63.3z"/>
						<path class="st12" d="M294.8,85.9h-15.2c-0.2,0-0.4-0.2-0.4-0.4l0,0c0-0.2,0.2-0.4,0.4-0.4h15.2c0.2,0,0.4,0.2,0.4,0.4l0,0
							C295.2,85.7,295,85.9,294.8,85.9z"/>
						<path class="st1" d="M282.9,85.5c0,0.3-0.2,0.6-0.5,0.6s-0.6-0.2-0.6-0.5s0.2-0.6,0.5-0.6l0,0
							C282.7,84.9,282.9,85.2,282.9,85.5L282.9,85.5z"/>
						<rect x="236.7" y="100.9" class="st1" width="85" height="41"/>
						<g>
							<rect x="237" y="101.1" class="st11" width="84.5" height="36.7"/>
							<path class="st1" d="M321.2,101.4v36.2h-84v-36.2L321.2,101.4 M321.7,100.9h-85v37.2h85V100.9L321.7,100.9z"/>
						</g>
						<rect x="236.7" y="99.8" class="st1" width="85" height="13.8"/>
						<path class="st12" d="M241,102.4c0,0.5-0.4,0.8-0.8,0.8c-0.5,0-0.8-0.4-0.8-0.8c0-0.5,0.4-0.8,0.8-0.8l0,0
							C240.6,101.6,241,101.9,241,102.4z"/>
						<path class="st12" d="M244.7,102.4c0,0.5-0.4,0.8-0.8,0.8s-0.8-0.4-0.8-0.8c0-0.5,0.4-0.8,0.8-0.8l0,0
							C244.3,101.6,244.6,101.9,244.7,102.4z"/>
						<path class="st12" d="M248.3,102.4c0,0.5-0.4,0.8-0.8,0.8c-0.5,0-0.8-0.4-0.8-0.8c0-0.5,0.4-0.8,0.8-0.8l0,0
							C248,101.6,248.3,101.9,248.3,102.4z"/>
						<path class="st15" d="M298.9,104.2H317c1.2,0,2.2,1,2.2,2.2v0.3c0,1.2-1,2.2-2.2,2.2h-18.2c-1.2,0-2.2-1-2.2-2.2v-0.3
							C296.7,105.1,297.6,104.2,298.9,104.2z"/>
						<rect x="238.7" y="104.5" class="st16" width="5.1" height="3.6"/>
						<rect x="244.2" y="104.5" class="st16" width="5.1" height="3.6"/>
						<rect x="250.2" y="104.5" class="st16" width="9.6" height="3.6"/>
						<polygon class="st18" points="259.2,134.7 251.8,134.7 253.3,132.5 253.3,130.5 257.7,130.5 257.7,132.6 						"/>
						<rect x="244.8" y="114.8" class="st17" width="21.4" height="17.2"/>
						<rect x="244.8" y="114.8" class="st1" width="21.4" height="14.2"/>
						<rect x="246" y="116.3" class="st2" width="18.9" height="11.1"/>
						<path class="st18" d="M275.2,121.2h40c0.4,0,0.8,0.3,0.8,0.8v0.1c0,0.4-0.3,0.8-0.8,0.8h-40c-0.4,0-0.8-0.3-0.8-0.8V122
							C274.5,121.5,274.8,121.2,275.2,121.2z"/>
						<circle class="st2" cx="308.9" cy="122" r="2.2"/>
						<rect x="131.5" y="32.5" class="st1" width="59.9" height="62.1"/>
						<g>
							<rect x="131.7" y="32.8" class="st11" width="59.4" height="4.5"/>
							<path class="st1" d="M190.8,33v4H132v-4H190.8 M191.3,32.5h-59.9v5h59.9L191.3,32.5L191.3,32.5z"/>
						</g>
						<path class="st2" d="M137,41.7h-1.7c-0.2,0-0.4-0.2-0.4-0.4s0.2-0.4,0.4-0.4l0,0h1.7c0.2,0,0.4,0.2,0.4,0.4
							S137.2,41.7,137,41.7L137,41.7z M137.4,43.3c0-0.2-0.2-0.4-0.4-0.4l0,0h-1.7c-0.2,0-0.4,0.2-0.4,0.4s0.2,0.4,0.4,0.4l0,0h1.7
							C137.2,43.7,137.4,43.5,137.4,43.3L137.4,43.3z M137.4,45.2c0-0.2-0.2-0.4-0.4-0.4h-1.7c-0.2,0-0.5,0.1-0.5,0.4
							c0,0.2,0.1,0.5,0.4,0.5h0.1h1.7C137.2,45.7,137.4,45.5,137.4,45.2L137.4,45.2z M137.4,47.2c0-0.2-0.2-0.4-0.4-0.4l0,0h-1.7
							c-0.2,0-0.4,0.2-0.4,0.4s0.2,0.4,0.4,0.4l0,0h1.7C137.2,47.7,137.4,47.5,137.4,47.2C137.4,47.3,137.4,47.2,137.4,47.2z
							 M137.4,49.2c0-0.2-0.2-0.4-0.4-0.4l0,0h-1.7c-0.2,0-0.5,0.1-0.5,0.4c0,0.2,0.1,0.5,0.4,0.5h0.1h1.7
							C137.2,49.7,137.4,49.5,137.4,49.2z M137.4,51.2c0-0.2-0.2-0.4-0.4-0.4l0,0h-1.7c-0.2,0-0.4,0.2-0.4,0.4s0.2,0.4,0.4,0.4l0,0
							h1.7C137.2,51.7,137.4,51.5,137.4,51.2L137.4,51.2L137.4,51.2z M137.4,53.2c0-0.2-0.2-0.4-0.4-0.4l0,0h-1.7
							c-0.2,0-0.4,0.2-0.4,0.4s0.2,0.4,0.4,0.4l0,0h1.7C137.2,53.7,137.4,53.5,137.4,53.2L137.4,53.2z M137.4,55.2
							c0-0.2-0.2-0.4-0.4-0.4l0,0h-1.7c-0.2,0-0.4,0.2-0.4,0.4s0.2,0.4,0.4,0.4l0,0h1.7C137.2,55.7,137.4,55.5,137.4,55.2
							L137.4,55.2L137.4,55.2z M143.9,41.3c0-0.2-0.2-0.4-0.4-0.4h-4.6c-0.2,0-0.4,0.2-0.4,0.4s0.2,0.4,0.4,0.4h4.6
							C143.7,41.7,143.9,41.5,143.9,41.3z M143.9,43.3c0-0.2-0.2-0.4-0.4-0.4h-4.6c-0.2,0-0.4,0.2-0.4,0.4s0.2,0.4,0.4,0.4l0,0h4.6
							C143.7,43.7,143.9,43.5,143.9,43.3z M143.9,45.2c0-0.2-0.2-0.4-0.4-0.4h-4.6c-0.2,0-0.4,0.2-0.4,0.5c0,0.2,0.2,0.4,0.4,0.4
							h4.6C143.7,45.7,143.9,45.5,143.9,45.2C143.9,45.3,143.9,45.2,143.9,45.2z M143.9,47.2c0-0.2-0.2-0.4-0.4-0.4h-4.6
							c-0.2,0-0.4,0.2-0.4,0.4s0.2,0.4,0.4,0.4l0,0h4.6C143.7,47.7,143.9,47.5,143.9,47.2z M143.9,49.2c0-0.2-0.2-0.4-0.4-0.4l0,0
							h-4.6c-0.2,0-0.4,0.2-0.4,0.5c0,0.2,0.2,0.4,0.4,0.4h4.6C143.7,49.7,143.9,49.5,143.9,49.2z M149.4,51.2
							c0-0.2-0.2-0.4-0.4-0.4h-4.6c-0.2,0-0.4,0.2-0.4,0.4s0.2,0.4,0.4,0.4h4.6C149.2,51.7,149.4,51.5,149.4,51.2
							C149.5,51.3,149.5,51.3,149.4,51.2L149.4,51.2z M149.4,53.2c0-0.2-0.2-0.4-0.4-0.4h-4.6c-0.2,0-0.4,0.2-0.4,0.4
							s0.2,0.4,0.4,0.4h4.6C149.2,53.7,149.4,53.5,149.4,53.2C149.5,53.3,149.5,53.3,149.4,53.2L149.4,53.2z M149.4,55.2
							c0-0.2-0.2-0.4-0.4-0.4h-4.6c-0.2,0-0.4,0.2-0.4,0.4s0.2,0.4,0.4,0.4h4.6C149.2,55.7,149.4,55.5,149.4,55.2
							C149.5,55.3,149.5,55.3,149.4,55.2L149.4,55.2z M145.9,41.3c0-0.3-0.2-0.5-0.5-0.5s-0.5,0.2-0.5,0.5s0.2,0.5,0.5,0.5
							S146,41.6,145.9,41.3C146,41.3,146,41.3,145.9,41.3L145.9,41.3z M147.4,41.3c0-0.3-0.2-0.5-0.5-0.5s-0.5,0.2-0.5,0.5
							s0.2,0.5,0.5,0.5S147.4,41.6,147.4,41.3C147.5,41.3,147.5,41.3,147.4,41.3L147.4,41.3z M148.9,41.3c0-0.3-0.2-0.5-0.5-0.5
							s-0.5,0.2-0.5,0.5s0.2,0.5,0.5,0.5l0,0C148.7,41.8,149,41.5,148.9,41.3C149,41.3,149,41.3,148.9,41.3L148.9,41.3z M150.4,41.3
							c0-0.3-0.2-0.5-0.5-0.5s-0.5,0.2-0.5,0.5s0.2,0.5,0.5,0.5S150.4,41.6,150.4,41.3C150.5,41.3,150.5,41.3,150.4,41.3L150.4,41.3
							z M151.9,41.3c0-0.3-0.2-0.5-0.5-0.5s-0.5,0.2-0.5,0.5s0.2,0.5,0.5,0.5S151.9,41.5,151.9,41.3L151.9,41.3z M153.4,41.3
							c0-0.3-0.2-0.5-0.5-0.5s-0.5,0.2-0.5,0.5s0.2,0.5,0.5,0.5S153.4,41.6,153.4,41.3C153.5,41.3,153.5,41.3,153.4,41.3L153.4,41.3
							z M145.9,45.2c0-0.3-0.2-0.5-0.5-0.5s-0.5,0.2-0.5,0.5s0.2,0.5,0.5,0.5C145.7,45.8,146,45.6,145.9,45.2
							C146,45.3,146,45.3,145.9,45.2L145.9,45.2z M147.4,45.2c0-0.3-0.2-0.5-0.5-0.5s-0.5,0.2-0.5,0.5s0.2,0.5,0.5,0.5
							C147.2,45.8,147.4,45.6,147.4,45.2C147.5,45.3,147.5,45.3,147.4,45.2L147.4,45.2z M148.9,45.2c0-0.3-0.2-0.5-0.5-0.5
							s-0.5,0.2-0.5,0.5s0.2,0.5,0.5,0.5l0,0C148.7,45.8,149,45.5,148.9,45.2C149,45.3,149,45.3,148.9,45.2L148.9,45.2z M150.4,45.2
							c0-0.3-0.2-0.5-0.5-0.5s-0.5,0.2-0.5,0.5s0.2,0.5,0.5,0.5C150.2,45.8,150.4,45.6,150.4,45.2C150.5,45.3,150.5,45.3,150.4,45.2
							L150.4,45.2z M151.9,45.2c0-0.3-0.2-0.5-0.5-0.5s-0.5,0.2-0.5,0.5s0.2,0.5,0.5,0.5S151.9,45.5,151.9,45.2L151.9,45.2z
							 M153.4,45.2c0-0.3-0.2-0.5-0.5-0.5s-0.5,0.2-0.5,0.5s0.2,0.5,0.5,0.5C153.2,45.8,153.4,45.6,153.4,45.2
							C153.5,45.3,153.5,45.3,153.4,45.2L153.4,45.2z M151.1,51c0-0.3-0.2-0.5-0.5-0.5s-0.5,0.2-0.5,0.5s0.2,0.5,0.5,0.5l0,0
							C150.8,51.5,151.1,51.3,151.1,51L151.1,51L151.1,51z M152.6,51c0-0.3-0.2-0.5-0.5-0.5s-0.5,0.2-0.5,0.5s0.2,0.5,0.5,0.5l0,0
							C152.3,51.5,152.6,51.3,152.6,51L152.6,51L152.6,51z M154.1,51c0-0.3-0.2-0.5-0.5-0.5s-0.5,0.2-0.5,0.5s0.2,0.5,0.5,0.5l0,0
							C153.8,51.5,154.1,51.3,154.1,51L154.1,51L154.1,51z M155.6,51c0-0.3-0.2-0.5-0.5-0.5s-0.5,0.2-0.5,0.5s0.2,0.5,0.5,0.5l0,0
							C155.3,51.5,155.6,51.3,155.6,51L155.6,51L155.6,51z M157.1,51c0-0.3-0.2-0.5-0.5-0.5s-0.5,0.2-0.5,0.5s0.2,0.5,0.5,0.5l0,0
							C156.8,51.5,157.1,51.3,157.1,51L157.1,51L157.1,51z M158.5,51c0-0.3-0.2-0.5-0.5-0.5s-0.5,0.2-0.5,0.5s0.2,0.5,0.5,0.5l0,0
							C158.3,51.5,158.6,51.3,158.5,51C158.6,51,158.6,51,158.5,51L158.5,51z M151.1,55.1c0-0.3-0.2-0.5-0.5-0.5s-0.5,0.2-0.5,0.5
							s0.2,0.5,0.5,0.5l0,0C150.8,55.6,151.1,55.4,151.1,55.1L151.1,55.1L151.1,55.1z M152.6,55.1c0-0.3-0.2-0.5-0.5-0.5
							s-0.5,0.2-0.5,0.5s0.2,0.5,0.5,0.5l0,0C152.3,55.6,152.6,55.4,152.6,55.1L152.6,55.1L152.6,55.1z M154.1,55.1
							c0-0.3-0.2-0.5-0.5-0.5s-0.5,0.2-0.5,0.5s0.2,0.5,0.5,0.5l0,0C153.8,55.6,154.1,55.4,154.1,55.1L154.1,55.1L154.1,55.1z
							 M155.6,55.1c0-0.3-0.2-0.5-0.5-0.5s-0.5,0.2-0.5,0.5s0.2,0.5,0.5,0.5l0,0C155.3,55.6,155.6,55.4,155.6,55.1L155.6,55.1
							L155.6,55.1z M157.1,55.1c0-0.3-0.2-0.5-0.5-0.5s-0.5,0.2-0.5,0.5s0.2,0.5,0.5,0.5l0,0C156.8,55.6,157.1,55.4,157.1,55.1
							L157.1,55.1L157.1,55.1z M158.5,55.1c0-0.3-0.2-0.5-0.5-0.5s-0.5,0.2-0.5,0.5s0.2,0.5,0.5,0.5l0,0
							C158.3,55.6,158.6,55.4,158.5,55.1C158.6,55.1,158.6,55.1,158.5,55.1L158.5,55.1z"/>
						<path class="st2" d="M137,57.6h-1.7c-0.2,0-0.4-0.2-0.4-0.4s0.2-0.4,0.4-0.4l0,0h1.7c0.2,0,0.4,0.2,0.4,0.4
							S137.2,57.6,137,57.6L137,57.6z M137.4,59.2c0-0.2-0.2-0.4-0.4-0.4l0,0h-1.7c-0.2,0-0.4,0.2-0.4,0.4s0.2,0.4,0.4,0.4l0,0h1.7
							C137.2,59.7,137.4,59.5,137.4,59.2L137.4,59.2z M137.4,61.2c0-0.2-0.2-0.4-0.4-0.4h-1.7c-0.2,0-0.4,0.2-0.4,0.4
							s0.2,0.4,0.4,0.4l0,0h1.7C137.2,61.6,137.4,61.5,137.4,61.2L137.4,61.2z M137.4,63.2c0-0.2-0.2-0.4-0.4-0.4l0,0h-1.7
							c-0.2,0-0.4,0.2-0.4,0.4s0.2,0.4,0.4,0.4l0,0h1.7C137.2,63.6,137.4,63.5,137.4,63.2L137.4,63.2z M137.4,65.2
							c0-0.2-0.2-0.4-0.4-0.4h-1.7c-0.2,0-0.4,0.2-0.4,0.4c0,0.2,0.2,0.4,0.4,0.4l0,0h1.7C137.2,65.6,137.4,65.5,137.4,65.2
							L137.4,65.2z M137.4,67.2c0-0.2-0.2-0.4-0.4-0.4l0,0h-1.7c-0.2,0-0.4,0.2-0.4,0.4c0,0.2,0.2,0.4,0.4,0.4l0,0h1.7
							C137.2,67.6,137.4,67.5,137.4,67.2L137.4,67.2z M137.4,69.2c0-0.2-0.2-0.4-0.4-0.4l0,0h-1.7c-0.2,0-0.5,0.1-0.5,0.4
							s0.1,0.5,0.4,0.5h0.1h1.7C137.2,69.6,137.4,69.5,137.4,69.2L137.4,69.2z M137.4,71.2c0-0.2-0.2-0.4-0.4-0.4l0,0h-1.7
							c-0.2,0-0.4,0.2-0.4,0.4c0,0.2,0.2,0.4,0.4,0.4l0,0h1.7C137.2,71.6,137.4,71.5,137.4,71.2L137.4,71.2z M143.9,57.2
							c0-0.2-0.2-0.4-0.4-0.4h-4.6c-0.2,0-0.4,0.2-0.4,0.4s0.2,0.4,0.4,0.4h4.6C143.7,57.7,143.9,57.5,143.9,57.2z M143.9,59.2
							c0-0.2-0.2-0.4-0.4-0.4h-4.6c-0.2,0-0.4,0.2-0.4,0.4s0.2,0.4,0.4,0.4h4.6C143.7,59.7,143.9,59.5,143.9,59.2z M143.9,61.2
							c0-0.2-0.2-0.4-0.4-0.4h-4.6c-0.2,0-0.4,0.2-0.4,0.4s0.2,0.4,0.4,0.4h4.6C143.7,61.7,143.9,61.5,143.9,61.2z M143.9,63.2
							c0-0.2-0.2-0.4-0.4-0.4h-4.6c-0.2,0-0.4,0.2-0.4,0.4s0.2,0.4,0.4,0.4h4.6C143.7,63.7,143.9,63.5,143.9,63.2z M143.9,65.2
							c0-0.2-0.2-0.4-0.4-0.4h-4.6c-0.2,0-0.4,0.2-0.4,0.4c0,0.2,0.2,0.4,0.4,0.4h4.6C143.7,65.7,143.9,65.5,143.9,65.2L143.9,65.2
							L143.9,65.2z M149.4,67.2c0-0.2-0.2-0.4-0.4-0.4h-4.6c-0.2,0-0.4,0.2-0.4,0.4c0,0.2,0.2,0.4,0.4,0.4h4.6
							C149.2,67.7,149.4,67.5,149.4,67.2C149.5,67.3,149.5,67.2,149.4,67.2L149.4,67.2z M149.4,69.2c0-0.2-0.2-0.4-0.4-0.4l0,0h-4.6
							c-0.2,0-0.4,0.2-0.4,0.5c0,0.2,0.2,0.4,0.4,0.4h4.6C149.2,69.7,149.4,69.5,149.4,69.2C149.5,69.3,149.5,69.2,149.4,69.2
							L149.4,69.2z M149.4,71.2c0-0.2-0.2-0.4-0.4-0.4h-4.6c-0.2,0-0.4,0.2-0.4,0.4c0,0.2,0.2,0.4,0.4,0.4h4.6
							C149.2,71.7,149.4,71.5,149.4,71.2C149.5,71.3,149.5,71.2,149.4,71.2L149.4,71.2z M145.9,57.2c0-0.3-0.2-0.5-0.5-0.5
							s-0.5,0.2-0.5,0.5s0.2,0.5,0.5,0.5l0,0C145.7,57.7,146,57.5,145.9,57.2C146,57.3,146,57.2,145.9,57.2L145.9,57.2z M147.4,57.2
							c0-0.3-0.2-0.5-0.5-0.5s-0.5,0.2-0.5,0.5s0.2,0.5,0.5,0.5l0,0C147.2,57.7,147.4,57.5,147.4,57.2
							C147.5,57.3,147.5,57.2,147.4,57.2L147.4,57.2z M148.9,57.2c0-0.3-0.2-0.5-0.5-0.5s-0.5,0.2-0.5,0.5s0.2,0.5,0.5,0.5l0,0
							C148.7,57.7,149,57.5,148.9,57.2C149,57.2,149,57.2,148.9,57.2L148.9,57.2z M150.4,57.2c0-0.3-0.2-0.5-0.5-0.5
							s-0.5,0.2-0.5,0.5s0.2,0.5,0.5,0.5l0,0C150.2,57.7,150.4,57.5,150.4,57.2C150.5,57.3,150.5,57.2,150.4,57.2L150.4,57.2z
							 M151.9,57.2c0-0.3-0.2-0.5-0.5-0.5s-0.5,0.2-0.5,0.5s0.2,0.5,0.5,0.5l0,0C151.7,57.7,151.9,57.5,151.9,57.2
							C152,57.3,152,57.2,151.9,57.2L151.9,57.2z M153.4,57.2c0-0.3-0.2-0.5-0.5-0.5s-0.5,0.2-0.5,0.5s0.2,0.5,0.5,0.5l0,0
							C153.2,57.7,153.4,57.5,153.4,57.2C153.5,57.3,153.5,57.2,153.4,57.2L153.4,57.2z M145.9,61.2c0-0.3-0.2-0.5-0.5-0.5
							s-0.5,0.2-0.5,0.5s0.2,0.5,0.5,0.5C145.7,61.8,146,61.5,145.9,61.2C146,61.3,146,61.2,145.9,61.2L145.9,61.2z M147.4,61.2
							c0-0.3-0.2-0.5-0.5-0.5s-0.5,0.2-0.5,0.5s0.2,0.5,0.5,0.5C147.2,61.8,147.4,61.5,147.4,61.2C147.5,61.3,147.5,61.2,147.4,61.2
							L147.4,61.2z M148.9,61.2c0-0.3-0.2-0.5-0.5-0.5s-0.5,0.2-0.5,0.5s0.2,0.5,0.5,0.5l0,0C148.7,61.7,149,61.5,148.9,61.2
							C149,61.2,149,61.2,148.9,61.2L148.9,61.2z M150.4,61.2c0-0.3-0.2-0.5-0.5-0.5s-0.5,0.2-0.5,0.5s0.2,0.5,0.5,0.5
							C150.2,61.8,150.4,61.5,150.4,61.2C150.5,61.3,150.5,61.2,150.4,61.2L150.4,61.2z M151.9,61.2c0-0.3-0.2-0.5-0.5-0.5
							s-0.5,0.2-0.5,0.5s0.2,0.5,0.5,0.5S151.9,61.5,151.9,61.2L151.9,61.2z M153.4,61.2c0-0.3-0.2-0.5-0.5-0.5s-0.5,0.2-0.5,0.5
							s0.2,0.5,0.5,0.5C153.2,61.8,153.4,61.5,153.4,61.2C153.5,61.3,153.5,61.2,153.4,61.2L153.4,61.2z M151.1,67
							c0-0.3-0.2-0.5-0.5-0.5s-0.5,0.2-0.5,0.5s0.2,0.5,0.5,0.5C150.8,67.5,151.1,67.3,151.1,67L151.1,67z M152.6,67
							c0-0.3-0.2-0.5-0.5-0.5s-0.5,0.2-0.5,0.5s0.2,0.5,0.5,0.5C152.3,67.5,152.6,67.3,152.6,67L152.6,67L152.6,67z M154.1,67
							c0-0.3-0.2-0.5-0.5-0.5s-0.5,0.2-0.5,0.5s0.2,0.5,0.5,0.5C153.8,67.5,154.1,67.3,154.1,67L154.1,67L154.1,67z M155.6,67
							c0-0.3-0.2-0.5-0.5-0.5s-0.5,0.2-0.5,0.5s0.2,0.5,0.5,0.5l0,0C155.3,67.5,155.6,67.3,155.6,67L155.6,67L155.6,67z M157.1,67
							c0-0.3-0.2-0.5-0.5-0.5s-0.5,0.2-0.5,0.5s0.2,0.5,0.5,0.5C156.8,67.5,157.1,67.3,157.1,67L157.1,67L157.1,67z M158.5,67
							c0-0.3-0.2-0.5-0.5-0.5s-0.5,0.2-0.5,0.5l0,0c0,0.3,0.2,0.5,0.5,0.5S158.5,67.3,158.5,67L158.5,67z M151.1,71.1
							c0-0.3-0.2-0.5-0.5-0.5s-0.5,0.2-0.5,0.5s0.2,0.5,0.5,0.5l0,0C150.8,71.6,151.1,71.4,151.1,71.1L151.1,71.1L151.1,71.1z
							 M152.6,71.1c0-0.3-0.2-0.5-0.5-0.5s-0.5,0.2-0.5,0.5s0.2,0.5,0.5,0.5l0,0C152.3,71.6,152.6,71.4,152.6,71.1L152.6,71.1
							L152.6,71.1z M154.1,71.1c0-0.3-0.2-0.5-0.5-0.5s-0.5,0.2-0.5,0.5s0.2,0.5,0.5,0.5l0,0C153.8,71.6,154.1,71.4,154.1,71.1
							L154.1,71.1L154.1,71.1z M155.6,71.1c0-0.3-0.2-0.5-0.5-0.5s-0.5,0.2-0.5,0.5s0.2,0.5,0.5,0.5l0,0
							C155.3,71.6,155.6,71.4,155.6,71.1L155.6,71.1L155.6,71.1z M157.1,71.1c0-0.3-0.2-0.5-0.5-0.5s-0.5,0.2-0.5,0.5
							s0.2,0.5,0.5,0.5l0,0C156.8,71.6,157.1,71.4,157.1,71.1L157.1,71.1L157.1,71.1z M158.5,71.1c0-0.3-0.2-0.5-0.5-0.5
							s-0.5,0.2-0.5,0.5s0.2,0.5,0.5,0.5l0,0C158.3,71.6,158.6,71.4,158.5,71.1C158.6,71.1,158.6,71.1,158.5,71.1L158.5,71.1z"/>
						<path class="st2" d="M137,74h-1.7c-0.2,0-0.4-0.2-0.4-0.4c0-0.2,0.2-0.4,0.4-0.4l0,0h1.7c0.2,0,0.4,0.2,0.4,0.4
							S137.2,74,137,74L137,74z M137.4,75.6c0-0.2-0.2-0.4-0.4-0.4h-1.7c-0.2,0-0.4,0.2-0.4,0.4c0,0.2,0.2,0.4,0.4,0.4l0,0h1.7
							C137.2,76,137.4,75.8,137.4,75.6L137.4,75.6z M137.4,77.6c0-0.2-0.2-0.4-0.4-0.4l0,0h-1.7c-0.2,0-0.4,0.2-0.4,0.4
							c0,0.2,0.2,0.4,0.4,0.4l0,0h1.7C137.2,78,137.4,77.9,137.4,77.6L137.4,77.6z M137.4,79.6c0-0.2-0.2-0.4-0.4-0.4l0,0h-1.7
							c-0.2,0-0.5,0.1-0.5,0.4c0,0.2,0.1,0.5,0.4,0.5h0.1h1.7C137.2,80,137.4,79.8,137.4,79.6z M137.4,81.6c0-0.2-0.2-0.4-0.4-0.4
							l0,0h-1.7c-0.2,0-0.4,0.2-0.4,0.4c0,0.2,0.2,0.4,0.4,0.4l0,0h1.7C137.2,82,137.4,81.8,137.4,81.6L137.4,81.6z M137.4,83.6
							c0-0.2-0.2-0.4-0.4-0.4l0,0h-1.7c-0.2,0-0.4,0.2-0.4,0.4c0,0.2,0.2,0.4,0.4,0.4l0,0h1.7C137.2,84,137.4,83.8,137.4,83.6z
							 M137.4,85.6c0-0.2-0.2-0.4-0.4-0.4l0,0h-1.7c-0.2,0-0.4,0.2-0.4,0.4c0,0.2,0.2,0.4,0.4,0.4l0,0h1.7
							C137.2,86,137.4,85.8,137.4,85.6L137.4,85.6L137.4,85.6z M137.4,87.6c0-0.2-0.2-0.4-0.4-0.4l0,0h-1.7c-0.2,0-0.4,0.2-0.4,0.4
							c0,0.2,0.2,0.4,0.4,0.4l0,0h1.7C137.2,88,137.4,87.8,137.4,87.6L137.4,87.6z M143.9,73.6c0-0.2-0.2-0.4-0.4-0.4h-4.6
							c-0.2,0-0.4,0.2-0.4,0.4c0,0.2,0.2,0.4,0.4,0.4h4.6C143.7,74,143.9,73.8,143.9,73.6z M143.9,75.6c0-0.2-0.2-0.4-0.4-0.4h-4.6
							c-0.2,0-0.4,0.2-0.4,0.4c0,0.2,0.2,0.4,0.4,0.4h4.6C143.7,76,143.9,75.8,143.9,75.6z M143.9,77.6c0-0.2-0.2-0.4-0.4-0.4h-4.6
							c-0.2,0-0.4,0.2-0.4,0.4c0,0.2,0.2,0.4,0.4,0.4h4.6C143.7,78,143.9,77.8,143.9,77.6z M143.9,79.6c0-0.2-0.2-0.4-0.4-0.4l0,0
							h-4.6c-0.2,0-0.4,0.2-0.4,0.5c0,0.2,0.2,0.4,0.4,0.4h4.6C143.7,80,143.9,79.8,143.9,79.6z M143.9,81.6c0-0.2-0.2-0.4-0.4-0.4
							h-4.6c-0.2,0-0.4,0.2-0.4,0.4c0,0.2,0.2,0.4,0.4,0.4h4.6C143.7,82,143.9,81.8,143.9,81.6z M149.4,83.6c0-0.2-0.2-0.4-0.4-0.4
							h-4.6c-0.2,0-0.4,0.2-0.4,0.4c0,0.2,0.2,0.4,0.4,0.4l0,0h4.6C149.2,84.1,149.4,83.9,149.4,83.6
							C149.5,83.6,149.5,83.6,149.4,83.6L149.4,83.6z M149.4,85.6c0-0.2-0.2-0.4-0.4-0.4h-4.6c-0.2,0-0.4,0.2-0.4,0.4
							c0,0.2,0.2,0.4,0.4,0.4h4.6C149.2,86.1,149.4,85.9,149.4,85.6C149.5,85.6,149.5,85.6,149.4,85.6L149.4,85.6z M149.4,87.6
							c0-0.2-0.2-0.4-0.4-0.4h-4.6c-0.2,0-0.4,0.2-0.4,0.4c0,0.2,0.2,0.4,0.4,0.4h4.6C149.2,88.1,149.4,87.9,149.4,87.6
							C149.5,87.6,149.5,87.6,149.4,87.6L149.4,87.6z M145.9,73.6c0-0.3-0.2-0.5-0.5-0.5s-0.5,0.2-0.5,0.5s0.2,0.5,0.5,0.5l0,0
							C145.7,74.1,146,73.9,145.9,73.6C146,73.6,146,73.6,145.9,73.6L145.9,73.6z M147.4,73.6c0-0.3-0.2-0.5-0.5-0.5
							s-0.5,0.2-0.5,0.5s0.2,0.5,0.5,0.5l0,0C147.2,74.1,147.4,73.9,147.4,73.6C147.5,73.6,147.5,73.6,147.4,73.6L147.4,73.6z
							 M148.9,73.6c0-0.3-0.2-0.5-0.5-0.5s-0.5,0.2-0.5,0.5s0.2,0.5,0.5,0.5l0,0C148.7,74.1,149,73.9,148.9,73.6
							C149,73.6,149,73.6,148.9,73.6L148.9,73.6z M150.4,73.6c0-0.3-0.2-0.5-0.5-0.5s-0.5,0.2-0.5,0.5s0.2,0.5,0.5,0.5l0,0
							C150.2,74.1,150.4,73.9,150.4,73.6C150.5,73.6,150.5,73.6,150.4,73.6L150.4,73.6z M151.9,73.6c0-0.3-0.2-0.5-0.5-0.5
							s-0.5,0.2-0.5,0.5s0.2,0.5,0.5,0.5l0,0C151.7,74.1,151.9,73.9,151.9,73.6C152,73.6,152,73.6,151.9,73.6L151.9,73.6z
							 M153.4,73.6c0-0.3-0.2-0.5-0.5-0.5s-0.5,0.2-0.5,0.5s0.2,0.5,0.5,0.5l0,0C153.2,74.1,153.4,73.9,153.4,73.6
							C153.5,73.6,153.5,73.6,153.4,73.6L153.4,73.6z M145.9,77.6c0-0.3-0.2-0.5-0.5-0.5s-0.5,0.2-0.5,0.5s0.2,0.5,0.5,0.5l0,0
							C145.7,78.1,146,77.9,145.9,77.6C146,77.6,146,77.6,145.9,77.6L145.9,77.6z M147.4,77.6c0-0.3-0.2-0.5-0.5-0.5
							s-0.5,0.2-0.5,0.5s0.2,0.5,0.5,0.5l0,0C147.2,78.1,147.4,77.9,147.4,77.6C147.5,77.6,147.5,77.6,147.4,77.6L147.4,77.6z
							 M148.9,77.6c0-0.3-0.2-0.5-0.5-0.5s-0.5,0.2-0.5,0.5s0.2,0.5,0.5,0.5l0,0C148.7,78.1,149,77.9,148.9,77.6
							C149,77.6,149,77.6,148.9,77.6L148.9,77.6z M150.4,77.6c0-0.3-0.2-0.5-0.5-0.5s-0.5,0.2-0.5,0.5s0.2,0.5,0.5,0.5l0,0
							C150.2,78.1,150.4,77.9,150.4,77.6C150.5,77.6,150.5,77.6,150.4,77.6L150.4,77.6z M151.9,77.6c0-0.3-0.2-0.5-0.5-0.5
							s-0.5,0.2-0.5,0.5s0.2,0.5,0.5,0.5l0,0C151.7,78.1,151.9,77.9,151.9,77.6C152,77.6,152,77.6,151.9,77.6L151.9,77.6z
							 M153.4,77.6c0-0.3-0.2-0.5-0.5-0.5s-0.5,0.2-0.5,0.5s0.2,0.5,0.5,0.5l0,0C153.2,78.1,153.4,77.9,153.4,77.6
							C153.5,77.6,153.5,77.6,153.4,77.6L153.4,77.6z M151.1,83.3c0-0.3-0.2-0.5-0.5-0.5s-0.5,0.2-0.5,0.5s0.2,0.5,0.5,0.5l0,0
							C150.8,83.9,151.1,83.6,151.1,83.3C151.1,83.4,151.1,83.4,151.1,83.3L151.1,83.3z M152.6,83.3c0-0.3-0.2-0.5-0.5-0.5
							s-0.5,0.2-0.5,0.5s0.2,0.5,0.5,0.5l0,0C152.3,83.9,152.6,83.6,152.6,83.3C152.6,83.4,152.6,83.4,152.6,83.3L152.6,83.3z
							 M154.1,83.3c0-0.3-0.2-0.5-0.5-0.5s-0.5,0.2-0.5,0.5s0.2,0.5,0.5,0.5l0,0C153.8,83.9,154.1,83.6,154.1,83.3
							C154.1,83.4,154.1,83.4,154.1,83.3L154.1,83.3z M155.6,83.3c0-0.3-0.2-0.5-0.5-0.5s-0.5,0.2-0.5,0.5s0.2,0.5,0.5,0.5l0,0
							C155.3,83.9,155.6,83.6,155.6,83.3C155.6,83.4,155.6,83.4,155.6,83.3L155.6,83.3z M157.1,83.3c0-0.3-0.2-0.5-0.5-0.5
							s-0.5,0.2-0.5,0.5s0.2,0.5,0.5,0.5l0,0C156.8,83.9,157.1,83.6,157.1,83.3C157.1,83.4,157.1,83.4,157.1,83.3L157.1,83.3z
							 M158.5,83.3c0-0.3-0.2-0.5-0.5-0.5s-0.5,0.2-0.5,0.5s0.2,0.5,0.5,0.5l0,0C158.3,83.9,158.6,83.6,158.5,83.3
							C158.6,83.4,158.6,83.4,158.5,83.3L158.5,83.3z M151.1,87.5c0-0.3-0.2-0.5-0.5-0.5s-0.5,0.2-0.5,0.5s0.2,0.5,0.5,0.5l0,0
							C150.8,88,151.1,87.8,151.1,87.5L151.1,87.5L151.1,87.5z M152.6,87.5c0-0.3-0.2-0.5-0.5-0.5s-0.5,0.2-0.5,0.5s0.2,0.5,0.5,0.5
							l0,0C152.3,88,152.6,87.8,152.6,87.5L152.6,87.5L152.6,87.5z M154.1,87.5c0-0.3-0.2-0.5-0.5-0.5s-0.5,0.2-0.5,0.5
							s0.2,0.5,0.5,0.5l0,0C153.8,88,154.1,87.8,154.1,87.5L154.1,87.5L154.1,87.5z M155.6,87.5c0-0.3-0.2-0.5-0.5-0.5
							s-0.5,0.2-0.5,0.5s0.2,0.5,0.5,0.5l0,0C155.3,88,155.6,87.8,155.6,87.5L155.6,87.5L155.6,87.5z M157.1,87.5
							c0-0.3-0.2-0.5-0.5-0.5s-0.5,0.2-0.5,0.5s0.2,0.5,0.5,0.5l0,0C156.8,88,157.1,87.8,157.1,87.5L157.1,87.5L157.1,87.5z
							 M158.5,87.5c0-0.3-0.2-0.5-0.5-0.5s-0.5,0.2-0.5,0.5s0.2,0.5,0.5,0.5l0,0C158.3,88,158.6,87.8,158.5,87.5
							C158.6,87.5,158.6,87.5,158.5,87.5L158.5,87.5z"/>
						<path class="st2" d="M163.8,41.7h-1.7c-0.2,0-0.4-0.2-0.4-0.4s0.2-0.4,0.4-0.4l0,0h1.7c0.2,0,0.4,0.2,0.4,0.4
							S164.1,41.7,163.8,41.7L163.8,41.7z M164.2,43.3c0-0.2-0.2-0.4-0.4-0.4h-1.7c-0.2,0-0.4,0.2-0.4,0.4s0.2,0.4,0.4,0.4l0,0h1.7
							C164,43.7,164.2,43.5,164.2,43.3L164.2,43.3z M164.2,45.2c0-0.2-0.2-0.4-0.4-0.4h-1.7c-0.2,0-0.4,0.2-0.4,0.5
							c0,0.2,0.2,0.4,0.4,0.4h1.7C164.1,45.7,164.2,45.5,164.2,45.2L164.2,45.2L164.2,45.2z M164.2,47.2c0-0.2-0.2-0.4-0.4-0.4h-1.7
							c-0.2,0-0.4,0.2-0.4,0.4s0.2,0.4,0.4,0.4h1.7C164,47.7,164.2,47.5,164.2,47.2L164.2,47.2z M164.2,49.2c0-0.2-0.2-0.4-0.4-0.4
							l0,0h-1.7c-0.2,0-0.4,0.2-0.4,0.5c0,0.2,0.2,0.4,0.4,0.4h1.7C164,49.7,164.2,49.5,164.2,49.2L164.2,49.2z M164.2,51.2
							c0-0.2-0.2-0.4-0.4-0.4h-1.7c-0.2,0-0.4,0.2-0.4,0.4s0.2,0.4,0.4,0.4h1.7C164,51.7,164.2,51.5,164.2,51.2L164.2,51.2z
							 M164.2,53.2c0-0.2-0.2-0.4-0.4-0.4h-1.7c-0.2,0-0.4,0.2-0.4,0.4s0.2,0.4,0.4,0.4h1.7C164,53.7,164.2,53.5,164.2,53.2
							L164.2,53.2z M164.2,55.2c0-0.2-0.2-0.4-0.4-0.4h-1.7c-0.2,0-0.4,0.2-0.4,0.4s0.2,0.4,0.4,0.4h1.7
							C164,55.7,164.2,55.5,164.2,55.2L164.2,55.2z M170.8,41.3c0-0.2-0.2-0.4-0.4-0.4h-4.6c-0.2,0-0.4,0.2-0.4,0.4s0.2,0.4,0.4,0.4
							l0,0h4.6C170.6,41.7,170.8,41.5,170.8,41.3L170.8,41.3L170.8,41.3z M170.8,43.3c0-0.2-0.2-0.4-0.4-0.4l0,0h-4.6
							c-0.2,0-0.4,0.2-0.4,0.4s0.2,0.4,0.4,0.4l0,0h4.6C170.6,43.7,170.8,43.5,170.8,43.3L170.8,43.3L170.8,43.3z M170.8,45.2
							c0-0.2-0.2-0.4-0.4-0.4h-4.6c-0.2,0-0.4,0.2-0.4,0.5c0,0.2,0.2,0.4,0.4,0.4h4.6C170.6,45.7,170.8,45.5,170.8,45.2L170.8,45.2
							L170.8,45.2z M170.8,47.2c0-0.2-0.2-0.4-0.4-0.4l0,0h-4.6c-0.2,0-0.4,0.2-0.4,0.4s0.2,0.4,0.4,0.4h4.6
							C170.6,47.7,170.8,47.5,170.8,47.2C170.8,47.3,170.8,47.2,170.8,47.2L170.8,47.2z M170.8,49.2c0-0.2-0.2-0.4-0.4-0.4l0,0h-4.6
							c-0.2,0-0.4,0.2-0.4,0.5c0,0.2,0.2,0.4,0.4,0.4h4.6C170.6,49.7,170.8,49.5,170.8,49.2L170.8,49.2z M176.3,51.2
							c0-0.2-0.2-0.4-0.4-0.4h-4.6c-0.2,0-0.4,0.2-0.4,0.4s0.2,0.4,0.4,0.4l0,0h4.6C176.1,51.7,176.3,51.5,176.3,51.2L176.3,51.2
							L176.3,51.2z M176.3,53.2c0-0.2-0.2-0.4-0.4-0.4h-4.6c-0.2,0-0.4,0.2-0.4,0.4s0.2,0.4,0.4,0.4l0,0h4.6
							C176.1,53.7,176.3,53.5,176.3,53.2L176.3,53.2L176.3,53.2z M176.3,55.2c0-0.2-0.2-0.4-0.4-0.4h-4.6c-0.2,0-0.4,0.2-0.4,0.4
							s0.2,0.4,0.4,0.4l0,0h4.6C176.1,55.7,176.3,55.5,176.3,55.2L176.3,55.2L176.3,55.2z M172.8,41.3c0-0.3-0.2-0.5-0.5-0.5
							s-0.5,0.2-0.5,0.5s0.2,0.5,0.5,0.5S172.8,41.5,172.8,41.3L172.8,41.3L172.8,41.3z M174.3,41.3c0-0.3-0.2-0.5-0.5-0.5
							s-0.5,0.2-0.5,0.5s0.2,0.5,0.5,0.5S174.3,41.5,174.3,41.3L174.3,41.3L174.3,41.3z M175.8,41.3c0-0.3-0.2-0.5-0.5-0.5
							s-0.5,0.2-0.5,0.5s0.2,0.5,0.5,0.5S175.8,41.5,175.8,41.3L175.8,41.3L175.8,41.3z M177.3,41.3c0-0.3-0.2-0.5-0.5-0.5
							s-0.5,0.2-0.5,0.5s0.2,0.5,0.5,0.5S177.3,41.5,177.3,41.3L177.3,41.3z M178.8,41.3c0-0.3-0.2-0.5-0.5-0.5s-0.5,0.2-0.5,0.5
							s0.2,0.5,0.5,0.5S178.8,41.5,178.8,41.3L178.8,41.3L178.8,41.3z M180.3,41.3c0-0.3-0.2-0.5-0.5-0.5s-0.5,0.2-0.5,0.5
							s0.2,0.5,0.5,0.5S180.3,41.5,180.3,41.3L180.3,41.3L180.3,41.3z M172.8,45.2c0-0.3-0.2-0.5-0.5-0.5s-0.5,0.2-0.5,0.5
							s0.2,0.5,0.5,0.5C172.6,45.8,172.8,45.5,172.8,45.2L172.8,45.2L172.8,45.2z M174.3,45.2c0-0.3-0.2-0.5-0.5-0.5
							s-0.5,0.2-0.5,0.5s0.2,0.5,0.5,0.5C174.1,45.8,174.3,45.5,174.3,45.2C174.3,45.3,174.3,45.2,174.3,45.2L174.3,45.2z
							 M175.8,45.2c0-0.3-0.2-0.5-0.5-0.5s-0.5,0.2-0.5,0.5s0.2,0.5,0.5,0.5C175.6,45.8,175.8,45.5,175.8,45.2
							C175.8,45.3,175.8,45.2,175.8,45.2L175.8,45.2z M177.3,45.2c0-0.3-0.2-0.5-0.5-0.5s-0.5,0.2-0.5,0.5s0.2,0.5,0.5,0.5
							S177.3,45.5,177.3,45.2L177.3,45.2z M178.8,45.2c0-0.3-0.2-0.5-0.5-0.5s-0.5,0.2-0.5,0.5s0.2,0.5,0.5,0.5
							C178.6,45.8,178.8,45.5,178.8,45.2C178.8,45.3,178.8,45.2,178.8,45.2L178.8,45.2z M180.3,45.2c0-0.3-0.2-0.5-0.5-0.5
							s-0.5,0.2-0.5,0.5s0.2,0.5,0.5,0.5C180.1,45.8,180.3,45.5,180.3,45.2L180.3,45.2L180.3,45.2z M177.9,51c0-0.3-0.2-0.5-0.5-0.5
							s-0.5,0.2-0.5,0.5s0.2,0.5,0.5,0.5l0,0C177.7,51.5,177.9,51.3,177.9,51L177.9,51z M179.4,51c0-0.3-0.2-0.5-0.5-0.5
							s-0.5,0.2-0.5,0.5s0.2,0.5,0.5,0.5l0,0C179.2,51.5,179.4,51.3,179.4,51L179.4,51z M180.9,51c0-0.3-0.2-0.5-0.5-0.5
							s-0.5,0.2-0.5,0.5s0.2,0.5,0.5,0.5l0,0C180.7,51.5,180.9,51.3,180.9,51L180.9,51z M182.4,51c0-0.3-0.2-0.5-0.5-0.5
							s-0.5,0.2-0.5,0.5s0.2,0.5,0.5,0.5l0,0C182.2,51.5,182.4,51.3,182.4,51L182.4,51z M183.9,51c0-0.3-0.2-0.5-0.5-0.5
							s-0.5,0.2-0.5,0.5s0.2,0.5,0.5,0.5l0,0C183.7,51.5,183.9,51.3,183.9,51L183.9,51L183.9,51z M185.4,51c0-0.3-0.2-0.5-0.5-0.5
							s-0.5,0.2-0.5,0.5s0.2,0.5,0.5,0.5l0,0C185.2,51.5,185.4,51.3,185.4,51L185.4,51z M177.9,55.1c0-0.3-0.2-0.5-0.5-0.5
							s-0.5,0.2-0.5,0.5s0.2,0.5,0.5,0.5l0,0C177.7,55.6,177.9,55.4,177.9,55.1L177.9,55.1L177.9,55.1z M179.4,55.1
							c0-0.3-0.2-0.5-0.5-0.5s-0.5,0.2-0.5,0.5s0.2,0.5,0.5,0.5l0,0C179.2,55.6,179.4,55.4,179.4,55.1L179.4,55.1z M180.9,55.1
							c0-0.3-0.2-0.5-0.5-0.5s-0.5,0.2-0.5,0.5s0.2,0.5,0.5,0.5l0,0C180.7,55.6,180.9,55.4,180.9,55.1L180.9,55.1L180.9,55.1z
							 M182.4,55.1c0-0.3-0.2-0.5-0.5-0.5s-0.5,0.2-0.5,0.5s0.2,0.5,0.5,0.5l0,0C182.2,55.6,182.4,55.4,182.4,55.1L182.4,55.1
							L182.4,55.1z M183.9,55.1c0-0.3-0.2-0.5-0.5-0.5s-0.5,0.2-0.5,0.5s0.2,0.5,0.5,0.5l0,0C183.7,55.6,183.9,55.4,183.9,55.1
							L183.9,55.1L183.9,55.1z M185.4,55.1c0-0.3-0.2-0.5-0.5-0.5s-0.5,0.2-0.5,0.5s0.2,0.5,0.5,0.5l0,0
							C185.2,55.6,185.4,55.4,185.4,55.1L185.4,55.1L185.4,55.1z"/>
						<path class="st2" d="M163.8,58.1h-1.7c-0.2,0-0.4-0.2-0.4-0.4s0.2-0.4,0.4-0.4h1.7c0.2,0,0.4,0.2,0.4,0.4
							C164.2,57.9,164.1,58.1,163.8,58.1L163.8,58.1z M164.2,59.6c0-0.2-0.2-0.4-0.4-0.4h-1.7c-0.2,0-0.4,0.2-0.4,0.4
							s0.2,0.4,0.4,0.4h1.7C164,60.1,164.2,59.9,164.2,59.6L164.2,59.6z M164.2,61.6c0-0.2-0.2-0.4-0.4-0.4h-1.7
							c-0.2,0-0.4,0.2-0.4,0.4s0.2,0.4,0.4,0.4h1.7C164,62,164.2,61.9,164.2,61.6L164.2,61.6z M164.2,63.6c0-0.2-0.2-0.4-0.4-0.4
							h-1.7c-0.2,0-0.4,0.2-0.4,0.4s0.2,0.4,0.4,0.4h1.7C164,64,164.2,63.9,164.2,63.6L164.2,63.6z M164.2,65.6
							c0-0.2-0.2-0.4-0.4-0.4h-1.7c-0.2,0-0.4,0.2-0.4,0.4c0,0.2,0.2,0.4,0.4,0.4l0,0h1.7C164,66,164.2,65.9,164.2,65.6L164.2,65.6z
							 M164.2,67.6c0-0.2-0.2-0.4-0.4-0.4h-1.7c-0.2,0-0.4,0.2-0.4,0.4c0,0.2,0.2,0.4,0.4,0.4l0,0h1.7C164,68,164.2,67.9,164.2,67.6
							L164.2,67.6z M164.2,69.6c0-0.2-0.2-0.4-0.4-0.4h-1.7c-0.2,0-0.4,0.2-0.4,0.4c0,0.2,0.2,0.4,0.4,0.4l0,0h1.7
							C164,70,164.2,69.8,164.2,69.6L164.2,69.6z M164.2,71.6c0-0.2-0.2-0.4-0.4-0.4h-1.7c-0.2,0-0.4,0.2-0.4,0.4
							c0,0.2,0.2,0.4,0.4,0.4l0,0h1.7C164,72,164.2,71.8,164.2,71.6L164.2,71.6z M170.8,57.6c0-0.2-0.2-0.4-0.4-0.4l0,0h-4.6
							c-0.2,0-0.4,0.2-0.4,0.4s0.2,0.4,0.4,0.4h4.6C170.6,58.1,170.8,57.9,170.8,57.6C170.8,57.7,170.8,57.7,170.8,57.6z
							 M170.8,59.7c0-0.2-0.2-0.4-0.4-0.4l0,0h-4.6c-0.2,0-0.4,0.2-0.4,0.4s0.2,0.4,0.4,0.4h4.6C170.6,60.1,170.8,59.9,170.8,59.7
							C170.8,59.6,170.8,59.6,170.8,59.7L170.8,59.7z M170.8,61.6c0-0.2-0.2-0.4-0.4-0.4l0,0h-4.6c-0.2,0-0.4,0.2-0.4,0.4
							s0.2,0.4,0.4,0.4h4.6C170.6,62.1,170.8,61.9,170.8,61.6L170.8,61.6L170.8,61.6z M170.8,63.6c0-0.2-0.2-0.4-0.4-0.4l0,0h-4.6
							c-0.2,0-0.4,0.2-0.4,0.4s0.2,0.4,0.4,0.4h4.6C170.6,64.1,170.8,63.9,170.8,63.6L170.8,63.6L170.8,63.6z M170.8,65.6
							c0-0.2-0.2-0.4-0.4-0.4l0,0h-4.6c-0.2,0-0.4,0.2-0.4,0.4s0.2,0.4,0.4,0.4l0,0h4.6C170.6,66.1,170.8,65.9,170.8,65.6
							L170.8,65.6L170.8,65.6z M176.3,67.6c0-0.2-0.2-0.4-0.4-0.4h-4.6c-0.2,0-0.4,0.2-0.4,0.4c0,0.2,0.2,0.4,0.4,0.4l0,0h4.6
							C176.1,68.1,176.3,67.9,176.3,67.6L176.3,67.6L176.3,67.6z M176.3,69.6c0-0.2-0.2-0.4-0.4-0.4h-4.6c-0.2,0-0.4,0.2-0.4,0.4
							c0,0.2,0.2,0.4,0.4,0.4l0,0h4.6C176.1,70.1,176.3,69.9,176.3,69.6L176.3,69.6L176.3,69.6z M176.3,71.6c0-0.2-0.2-0.4-0.4-0.4
							h-4.6c-0.2,0-0.4,0.2-0.4,0.4c0,0.2,0.2,0.4,0.4,0.4l0,0h4.6C176.1,72.1,176.3,71.9,176.3,71.6L176.3,71.6L176.3,71.6z
							 M172.8,57.6c0-0.3-0.2-0.5-0.5-0.5s-0.5,0.2-0.5,0.5s0.2,0.5,0.5,0.5l0,0C172.6,58.1,172.8,57.9,172.8,57.6z M174.3,57.6
							c0-0.3-0.2-0.5-0.5-0.5s-0.5,0.2-0.5,0.5s0.2,0.5,0.5,0.5l0,0C174.1,58.1,174.3,57.9,174.3,57.6L174.3,57.6L174.3,57.6z
							 M175.8,57.6c0-0.3-0.2-0.5-0.5-0.5s-0.5,0.2-0.5,0.5s0.2,0.5,0.5,0.5l0,0C175.6,58.1,175.8,57.9,175.8,57.6L175.8,57.6
							L175.8,57.6z M177.3,57.6c0-0.3-0.2-0.5-0.5-0.5s-0.5,0.2-0.5,0.5s0.2,0.5,0.5,0.5l0,0C177.1,58.1,177.3,57.9,177.3,57.6
							L177.3,57.6L177.3,57.6z M178.8,57.6c0-0.3-0.2-0.5-0.5-0.5s-0.5,0.2-0.5,0.5s0.2,0.5,0.5,0.5l0,0
							C178.6,58.1,178.8,57.9,178.8,57.6L178.8,57.6L178.8,57.6z M180.3,57.6c0-0.3-0.2-0.5-0.5-0.5s-0.5,0.2-0.5,0.5
							s0.2,0.5,0.5,0.5l0,0C180.1,58.1,180.3,57.9,180.3,57.6L180.3,57.6z M172.8,61.6c0-0.3-0.2-0.5-0.5-0.5s-0.5,0.2-0.5,0.5
							s0.2,0.5,0.5,0.5l0,0C172.6,62.1,172.8,61.9,172.8,61.6L172.8,61.6L172.8,61.6z M174.3,61.6c0-0.3-0.2-0.5-0.5-0.5
							s-0.5,0.2-0.5,0.5s0.2,0.5,0.5,0.5l0,0C174.1,62.1,174.3,61.9,174.3,61.6L174.3,61.6L174.3,61.6z M175.8,61.6
							c0-0.3-0.2-0.5-0.5-0.5s-0.5,0.2-0.5,0.5s0.2,0.5,0.5,0.5l0,0C175.6,62.1,175.8,61.9,175.8,61.6L175.8,61.6L175.8,61.6z
							 M177.3,61.6c0-0.3-0.2-0.5-0.5-0.5s-0.5,0.2-0.5,0.5s0.2,0.5,0.5,0.5l0,0C177.1,62.1,177.3,61.9,177.3,61.6L177.3,61.6
							L177.3,61.6z M178.8,61.6c0-0.3-0.2-0.5-0.5-0.5s-0.5,0.2-0.5,0.5s0.2,0.5,0.5,0.5l0,0C178.6,62.1,178.8,61.9,178.8,61.6
							L178.8,61.6L178.8,61.6z M180.3,61.6c0-0.3-0.2-0.5-0.5-0.5s-0.5,0.2-0.5,0.5s0.2,0.5,0.5,0.5l0,0
							C180.1,62.1,180.3,61.9,180.3,61.6L180.3,61.6L180.3,61.6z M177.9,67.4c0-0.3-0.2-0.5-0.5-0.5s-0.5,0.2-0.5,0.5
							s0.2,0.5,0.5,0.5l0,0C177.7,67.9,177.9,67.7,177.9,67.4L177.9,67.4L177.9,67.4z M179.4,67.4c0-0.3-0.2-0.5-0.5-0.5
							s-0.5,0.2-0.5,0.5s0.2,0.5,0.5,0.5l0,0C179.2,67.9,179.4,67.7,179.4,67.4L179.4,67.4L179.4,67.4z M180.9,67.4
							c0-0.3-0.2-0.5-0.5-0.5s-0.5,0.2-0.5,0.5s0.2,0.5,0.5,0.5l0,0C180.7,67.9,180.9,67.7,180.9,67.4L180.9,67.4L180.9,67.4z
							 M182.4,67.4c0-0.3-0.2-0.5-0.5-0.5s-0.5,0.2-0.5,0.5s0.2,0.5,0.5,0.5l0,0C182.2,67.9,182.4,67.7,182.4,67.4L182.4,67.4
							L182.4,67.4z M183.9,67.4c0-0.3-0.2-0.5-0.5-0.5s-0.5,0.2-0.5,0.5s0.2,0.5,0.5,0.5l0,0C183.7,67.9,183.9,67.7,183.9,67.4
							L183.9,67.4L183.9,67.4z M185.4,67.4c0-0.3-0.2-0.5-0.5-0.5s-0.5,0.2-0.5,0.5s0.2,0.5,0.5,0.5l0,0
							C185.2,67.9,185.4,67.7,185.4,67.4L185.4,67.4L185.4,67.4z M177.9,71.5c0-0.3-0.2-0.5-0.5-0.5s-0.5,0.2-0.5,0.5
							s0.2,0.5,0.5,0.5S177.9,71.8,177.9,71.5L177.9,71.5L177.9,71.5z M179.4,71.5c0-0.3-0.2-0.5-0.5-0.5s-0.5,0.2-0.5,0.5
							s0.2,0.5,0.5,0.5S179.4,71.8,179.4,71.5L179.4,71.5L179.4,71.5z M180.9,71.5c0-0.3-0.2-0.5-0.5-0.5s-0.5,0.2-0.5,0.5
							s0.2,0.5,0.5,0.5S180.9,71.8,180.9,71.5L180.9,71.5L180.9,71.5z M182.4,71.5c0-0.3-0.2-0.5-0.5-0.5s-0.5,0.2-0.5,0.5
							s0.2,0.5,0.5,0.5S182.4,71.8,182.4,71.5L182.4,71.5L182.4,71.5z M183.9,71.5c0-0.3-0.2-0.5-0.5-0.5s-0.5,0.2-0.5,0.5
							s0.2,0.5,0.5,0.5l0,0C183.7,72,183.9,71.8,183.9,71.5L183.9,71.5L183.9,71.5z M185.4,71.5c0-0.3-0.2-0.5-0.5-0.5
							s-0.5,0.2-0.5,0.5s0.2,0.5,0.5,0.5S185.4,71.8,185.4,71.5L185.4,71.5L185.4,71.5z"/>
						<path class="st1" d="M136.4,35.3c0,0.5-0.4,0.8-0.8,0.8c-0.5,0-0.8-0.4-0.8-0.8c0-0.5,0.4-0.8,0.8-0.8l0,0
							C136,34.4,136.4,34.8,136.4,35.3z"/>
						<path class="st1" d="M140.2,35.3c0,0.5-0.4,0.8-0.8,0.8c-0.5,0-0.8-0.4-0.8-0.8c0-0.5,0.4-0.8,0.8-0.8l0,0
							C139.8,34.4,140.1,34.8,140.2,35.3z"/>
						<circle class="st1" cx="143" cy="35.3" r="0.8"/>
						<rect x="186.5" y="63.5" class="st19" width="86.2" height="49.7"/>
						<rect x="185.2" y="62.2" class="st15" width="86.2" height="49.7"/>
						<path class="st1" d="M229.4,90.3l-0.9-0.1c0-0.3,0-0.6-0.1-0.9l0.9-0.2c0.1,0,0.2-0.2,0.2-0.3l0,0l-0.1-0.4
							c0-0.1-0.2-0.2-0.3-0.2l-0.9,0.2c-0.1-0.3-0.2-0.6-0.4-0.8l0.8-0.5c0.1-0.1,0.1-0.2,0.1-0.4l-0.2-0.4
							c-0.1-0.1-0.2-0.1-0.4-0.1l-0.8,0.5c-0.2-0.2-0.4-0.5-0.6-0.7l0.5-0.7c0.1-0.1,0.1-0.3,0-0.4l-0.3-0.3c-0.1-0.1-0.3-0.1-0.4,0
							l-0.5,0.7c-0.3-0.2-0.5-0.3-0.8-0.4l0.3-0.9c0-0.1,0-0.3-0.2-0.3l0,0l-0.4-0.1c-0.1,0-0.3,0-0.3,0.2l0,0l-0.3,0.9
							c-0.3-0.1-0.5-0.1-0.8-0.1v-0.9c0-0.1-0.1-0.3-0.3-0.3h-0.4c-0.1,0-0.3,0.1-0.3,0.3v0.9c-0.3,0-0.6,0.1-0.9,0.1l-0.3-0.9
							c0-0.1-0.2-0.2-0.3-0.2l-0.4,0.1c-0.1,0-0.2,0.2-0.2,0.3l0.3,0.9c-0.3,0.1-0.5,0.3-0.8,0.4l-0.6-0.7c-0.1-0.1-0.3-0.1-0.4,0
							l-0.3,0.3c-0.1,0.1-0.1,0.3,0,0.4l0,0l0.6,0.7c-0.2,0.2-0.4,0.4-0.6,0.7l-0.8-0.5c-0.1-0.1-0.3-0.1-0.4,0.1l0,0l-0.2,0.4
							c-0.1,0.1,0,0.3,0.1,0.4l0.8,0.5c-0.1,0.3-0.3,0.6-0.4,0.8l-0.9-0.2c-0.1,0-0.3,0-0.3,0.2l0,0l-0.1,0.4c0,0.1,0,0.3,0.2,0.3
							l0,0l0.9,0.2c0,0.3-0.1,0.6-0.1,0.9l0,0l-0.9,0.1c-0.1,0-0.2,0.1-0.2,0.3V91c0,0.1,0.1,0.2,0.3,0.2l0,0l0.9-0.1
							c0.1,0.3,0.1,0.6,0.2,0.9l-0.8,0.4c-0.1,0.1-0.2,0.2-0.1,0.3l0,0l0.2,0.4c0.1,0.1,0.2,0.2,0.3,0.1L218,93
							c0.1,0.3,0.3,0.5,0.5,0.8l-0.7,0.6c-0.1,0.1-0.1,0.3,0,0.4l0,0l0.3,0.3c0.1,0.1,0.3,0.1,0.4,0l0,0l0.7-0.6
							c0.2,0.2,0.5,0.4,0.7,0.6l-0.4,0.8c-0.1,0.1,0,0.3,0.1,0.4l0.4,0.2c0.1,0.1,0.3,0,0.4-0.1l0,0l0.4-0.8
							c0.3,0.1,0.6,0.2,0.9,0.3l-0.1,0.9c0,0.1,0.1,0.3,0.2,0.3l0,0l0.4,0.1c0.1,0,0.3-0.1,0.3-0.2l0,0l0.1-0.9h0.4
							c0.2,0,0.3,0,0.5,0l0.2,0.9c0,0.1,0.2,0.2,0.3,0.2l0,0l0.4-0.1c0.1,0,0.2-0.2,0.2-0.3l0,0l-0.2-0.9c0.3-0.1,0.6-0.2,0.9-0.3
							l0.4,0.8c0.1,0.1,0.2,0.2,0.3,0.1l0,0l0.4-0.2c0.1-0.1,0.1-0.2,0.1-0.3l-0.5-1c0.3-0.2,0.5-0.4,0.7-0.6l0.7,0.6
							c0.1,0.1,0.3,0.1,0.4,0l0,0l0.3-0.3c0.1-0.1,0.1-0.3,0-0.4l-0.7-0.6c0.2-0.2,0.3-0.5,0.5-0.8l0.8,0.4c0.1,0.1,0.3,0,0.3-0.1
							l0.2-0.4c0.1-0.1,0-0.3-0.1-0.3l0,0l-0.8-0.4c0.1-0.3,0.2-0.6,0.2-0.9l0.9,0.1c0.1,0,0.3-0.1,0.3-0.2l0,0v-0.4
							C229.6,90.5,229.6,90.4,229.4,90.3L229.4,90.3z M222.9,93.5c-1.7,0-3.1-1.4-3.1-3.1s1.4-3.1,3.1-3.1c1.7,0,3.1,1.4,3.1,3.1
							S224.6,93.5,222.9,93.5L222.9,93.5z"/>
						<circle class="st20" cx="222.9" cy="90.4" r="4.4"/>
						<path class="st1" d="M237.5,94.9h-0.6c0-0.2,0-0.4-0.1-0.6l0.6-0.2c0.1,0,0.1-0.1,0.1-0.2l0,0l-0.1-0.3c0-0.1-0.1-0.1-0.2-0.1
							l0,0l-0.6,0.1c-0.1-0.2-0.2-0.4-0.3-0.5l0.5-0.3c0.1-0.1,0.1-0.2,0-0.2l-0.2-0.2c-0.1-0.1-0.2-0.1-0.2,0l-0.5,0.3
							c-0.1-0.2-0.3-0.3-0.4-0.4l0.4-0.5c0.1-0.1,0-0.2,0-0.2l0,0l-0.2-0.2c-0.1-0.1-0.2-0.1-0.2,0l-0.4,0.5
							c-0.2-0.1-0.4-0.2-0.5-0.3l0.2-0.6c0-0.1,0-0.2-0.1-0.2l0,0l-0.3-0.1c-0.1,0-0.2,0-0.2,0.1l0,0l-0.2,0.6
							c-0.2,0-0.4-0.1-0.5-0.1v-0.6c0-0.1-0.1-0.2-0.2-0.2H233c-0.1,0-0.2,0.1-0.2,0.2v0.6c-0.2,0-0.4,0-0.6,0.1l-0.2-0.6
							c0-0.1-0.1-0.1-0.2-0.1l0,0l-0.3,0.1c-0.1,0-0.1,0.1-0.1,0.2l0.2,0.6c-0.2,0.1-0.4,0.2-0.5,0.3l-0.4-0.5
							c-0.1-0.1-0.2-0.1-0.2,0l-0.2,0.2c-0.1,0.1-0.1,0.2,0,0.2l0,0l0.4,0.5c-0.1,0.1-0.3,0.3-0.4,0.4l-0.5-0.3
							c-0.1-0.1-0.2,0-0.2,0l0,0l-0.2,0.2c-0.1,0.1,0,0.2,0,0.2l0,0l0.5,0.3c-0.1,0.2-0.2,0.4-0.2,0.5l-0.6-0.1
							c-0.1,0-0.2,0-0.2,0.1l-0.1,0.3c0,0.1,0,0.2,0.1,0.2l0.6,0.1c0,0.2,0,0.4,0,0.6l0,0l-0.6,0.1c-0.1,0-0.2,0.1-0.2,0.2l0,0v0.3
							c0,0.1,0.1,0.2,0.2,0.2h0.6c0,0.2,0.1,0.4,0.1,0.6l-0.5,0.2c-0.1,0-0.1,0.1-0.1,0.2l0.1,0.3c0,0.1,0.1,0.1,0.2,0.1l0,0
							l0.5-0.2c0.1,0.2,0.2,0.3,0.3,0.5l-0.4,0.4c-0.1,0.1-0.1,0.2,0,0.2L230,98c0.1,0.1,0.2,0.1,0.2,0l0.4-0.4
							c0.1,0.1,0.3,0.3,0.5,0.4l-0.3,0.5c0,0.1,0,0.2,0.1,0.2l0.2,0.1c0.1,0,0.2,0,0.2-0.1l0,0l0.3-0.5c0.2,0.1,0.4,0.1,0.6,0.2
							l-0.1,0.6c0,0.1,0.1,0.2,0.1,0.2h0.3c0.1,0,0.2-0.1,0.2-0.1l0.1-0.6h0.3h0.3l0.1,0.6c0,0.1,0.1,0.2,0.2,0.1l0,0h0.3
							c0.1,0,0.2-0.1,0.1-0.2l0,0l-0.1-0.6c0.2-0.1,0.4-0.1,0.6-0.2l0.3,0.5c0,0.1,0.2,0.1,0.2,0.1l0.2-0.1c0.1,0,0.1-0.1,0.1-0.2
							l-0.3-0.5c0.2-0.1,0.3-0.2,0.5-0.4L236,98c0.1,0.1,0.2,0.1,0.2,0l0,0l0.2-0.2c0.1-0.1,0.1-0.2,0-0.2l-0.4-0.4
							c0.1-0.2,0.2-0.3,0.3-0.5l0.5,0.2c0.1,0,0.2,0,0.2-0.1l0,0l0.1-0.3c0-0.1,0-0.2-0.1-0.2l-0.5-0.2c0.1-0.2,0.1-0.4,0.1-0.6h0.6
							c0.1,0,0.2-0.1,0.2-0.2L237.5,94.9C237.6,95,237.6,94.9,237.5,94.9z M233.2,97c-1.1,0-2.1-0.9-2.1-2.1c0-1.1,0.9-2.1,2.1-2.1
							c1.1,0,2.1,0.9,2.1,2.1C235.3,96,234.4,97,233.2,97L233.2,97L233.2,97z"/>
						<path class="st20" d="M236.1,94.9c0,1.6-1.3,2.9-2.9,2.9c-1.6,0-2.9-1.3-2.9-2.9s1.3-2.9,2.9-2.9l0,0
							C234.8,92,236.1,93.3,236.1,94.9z"/>
						<path class="st1" d="M190.6,74.6c0-1.5,0.8-2.3,2.2-2.3s2.2,0.8,2.2,2.3v4.7c0,1.5-0.8,2.3-2.2,2.3s-2.2-0.8-2.2-2.3V74.6z
							 M192,79.4c0,0.6,0.3,0.9,0.7,0.9s0.7-0.2,0.7-0.9v-4.9c0-0.6-0.3-0.9-0.7-0.9s-0.7,0.3-0.7,0.9V79.4z"/>
						<path class="st1" d="M200.1,74.6v1.2c0,1.5-0.7,2.3-2.1,2.3h-0.7v3.4h-1.4v-9.1h2.1C199.4,72.4,200.1,73.2,200.1,74.6z
							 M197.3,73.7v3.1h0.7c0.5,0,0.7-0.2,0.7-0.9v-1.4c0-0.7-0.2-0.9-0.7-0.9h-0.7V73.7z"/>
						<path class="st1" d="M202.2,76.2h2v1.3h-2v2.7h2.5v1.3h-3.9v-9.1h3.9v1.3h-2.5V76.2z"/>
						<path class="st1" d="M208.6,81.5c-0.1-0.4-0.2-0.7-0.1-1.1V79c0-0.8-0.3-1.2-0.9-1.2H207v3.7h-1.4v-9.1h2.2
							c1.5,0,2.1,0.7,2.1,2.1v0.7c0,0.9-0.3,1.5-0.9,1.8c0.7,0.3,0.9,1,0.9,1.9v1.4c0,0.4,0,0.8,0.2,1.1L208.6,81.5z M207,73.7v2.8
							h0.6c0.5,0,0.9-0.2,0.9-1v-0.9c0-0.6-0.2-0.9-0.7-0.9H207z"/>
						<path class="st1" d="M215.4,81.5H214l-0.2-1.6H212l-0.2,1.6h-1.3l1.5-9.1h2.1L215.4,81.5z M212.2,78.6h1.4l-0.7-4.6
							L212.2,78.6z"/>
						<path class="st1" d="M215.7,72.4h4.4v1.3h-1.5v7.8h-1.4v-7.8h-1.5V72.4z"/>
						<path class="st1" d="M220.7,72.4h1.4v9.1h-1.4V72.4z"/>
						<path class="st1" d="M224.5,74.9v6.6h-1.3v-9h1.8l1.5,5.4v-5.4h1.3v9.1h-1.5L224.5,74.9z"/>
						<path class="st1" d="M230.9,76.4h2v2.9c0,1.5-0.7,2.3-2.1,2.3c-1.4,0-2.1-0.8-2.1-2.3v-4.7c0-1.5,0.7-2.3,2.1-2.3
							c1.4,0,2.1,0.8,2.1,2.3v0.9h-1.4v-1c0-0.6-0.3-0.9-0.7-0.9c-0.5,0-0.7,0.3-0.7,0.9v4.9c0,0.6,0.3,0.9,0.7,0.9
							c0.5,0,0.7-0.2,0.7-0.9v-1.7h-0.6V76.4z"/>
						<path class="st1" d="M237.7,72.3c1.4,0,2.1,0.8,2.1,2.3v0.3h-1.4v-0.4c0-0.6-0.3-0.9-0.7-0.9s-0.7,0.3-0.7,0.9
							c0,1.8,2.8,2.2,2.8,4.8c0,1.5-0.7,2.3-2.1,2.3c-1.4,0-2.1-0.8-2.1-2.3v-0.6h1.3v0.7c0,0.6,0.3,0.9,0.7,0.9s0.7-0.2,0.7-0.9
							c0-1.8-2.8-2.2-2.8-4.8C235.6,73.1,236.4,72.3,237.7,72.3z"/>
						<path class="st1" d="M241.9,78.5l-1.8-6.1h1.5l1.1,4.1l1.1-4.1h1.4l-1.8,6.1v3H242L241.9,78.5z"/>
						<path class="st1" d="M247.6,72.3c1.4,0,2.1,0.8,2.1,2.3v0.3h-1.4v-0.4c0-0.6-0.3-0.9-0.7-0.9s-0.7,0.3-0.7,0.9
							c0,1.8,2.8,2.2,2.8,4.8c0,1.5-0.7,2.3-2.1,2.3c-1.4,0-2.1-0.8-2.1-2.3v-0.6h1.3v0.7c0,0.6,0.3,0.9,0.7,0.9
							c0.5,0,0.7-0.2,0.7-0.9c0-1.8-2.8-2.2-2.8-4.8C245.5,73.1,246.2,72.3,247.6,72.3z"/>
						<path class="st1" d="M250.1,72.4h4.4v1.3H253v7.8h-1.4v-7.8h-1.5V72.4z"/>
						<path class="st1" d="M256.6,76.2h2v1.3h-2v2.7h2.5v1.3h-3.9v-9.1h3.9v1.3h-2.5V76.2z"/>
						<path class="st1" d="M262.9,78.9l1-6.4h2v9.1h-1.3V75l-1,6.5h-1.4l-1.1-6.4v6.4h-1.2v-9.1h2L262.9,78.9z"/>
						<rect x="185.2" y="62.2" class="st21" width="86.2" height="3.6"/>
						<circle class="st12" cx="188.4" cy="63.7" r="0.8"/>
						<circle class="st12" cx="192.2" cy="63.7" r="0.8"/>
						<path class="st12" d="M196.7,63.7c0,0.5-0.4,0.8-0.8,0.8s-0.8-0.4-0.8-0.8c0-0.5,0.4-0.8,0.8-0.8S196.7,63.2,196.7,63.7
							L196.7,63.7z"/>
						<path class="st15" d="M264.3,103.3H193c-0.5,0-0.9-0.4-0.9-0.9l0,0l0,0c0-0.5,0.4-0.9,0.9-0.9l0,0h71.4c0.5,0,0.9,0.4,0.9,0.9
							l0,0l0,0C265.2,102.9,264.8,103.3,264.3,103.3z"/>
						<path class="st22" d="M243.2,101.5H193c-0.5,0-0.9,0.4-0.9,0.9s0.4,0.9,0.9,0.9h50.2V101.5z"/>
						<polygon class="st1" points="311,42.6 320.1,42.6 319.2,33.6 311.9,33.6 						"/>
						<path class="st17" d="M311.2,42.2h8.8c0.1,0,0.2,0.1,0.2,0.2v1.8c0,0.1-0.1,0.2-0.2,0.2h-8.8c-0.1,0-0.2-0.1-0.2-0.2v-1.8
							C311,42.2,311.1,42.2,311.2,42.2z"/>
						<polygon class="st1" points="311,55.5 320.1,55.5 319.2,46.5 311.9,46.5 						"/>
						<path class="st17" d="M311.3,55h8.6c0.2,0,0.3,0.1,0.3,0.3v1.5c0,0.2-0.1,0.3-0.3,0.3h-8.6c-0.2,0-0.3-0.1-0.3-0.3v-1.5
							C311,55.2,311.1,55,311.3,55z"/>
						<rect x="311.6" y="55.6" class="st1" width="4.1" height="0.8"/>
						<path class="st23" d="M318.8,50.7c0,1.4-1.4,2.5-3.2,2.5s-3.2-1.1-3.2-2.5s1.4-2.5,3.2-2.5S318.8,49.3,318.8,50.7z"/>
						<path class="st2" d="M312,63.5h7.7c0.3,0,0.5,0.2,0.5,0.5v4.9l0,0h-8.7l0,0V64C311.5,63.7,311.7,63.5,312,63.5z"/>
						<path class="st2" d="M313,62.5h3.4c0.1,0,0.2,0.1,0.2,0.2v1.5c0,0.1-0.1,0.2-0.2,0.2H313c-0.1,0-0.2-0.1-0.2-0.2v-1.5
							C312.8,62.6,312.9,62.5,313,62.5z"/>
						<path class="st2" d="M312,76.3h7.7c0.3,0,0.5,0.2,0.5,0.5v4.9l0,0h-8.7l0,0v-4.9C311.5,76.5,311.8,76.3,312,76.3z"/>
						<path class="st2" d="M313,75.3h3.4c0.1,0,0.2,0.1,0.2,0.2V77c0,0.1-0.1,0.2-0.2,0.2H313c-0.1,0-0.2-0.1-0.2-0.2v-1.5
							C312.8,75.4,312.9,75.3,313,75.3z"/>
						<path class="st2" d="M312,89h7.7c0.3,0,0.5,0.2,0.5,0.5v4.9l0,0h-8.7l0,0v-4.9C311.5,89.3,311.7,89,312,89z"/>
						<path class="st2" d="M313,88h3.4c0.1,0,0.2,0.1,0.2,0.2v1.5c0,0.1-0.1,0.2-0.2,0.2H313c-0.1,0-0.2-0.1-0.2-0.2v-1.5
							C312.8,88.1,312.9,88,313,88z"/>
					</g>
				</g>
				<g>
					<defs>
						<rect id="SVGID_9_" x="122.9" y="19.6" width="204.5" height="134.2"/>
					</defs>
					<clipPath id="SVGID_10_">
						<use xlink:href="#SVGID_9_"  style="overflow:visible;"/>
					</clipPath>
					<polygon class="st24" points="152.1,160.4 122.6,160.4 197.5,12.7 227.1,12.7 					"/>
				</g>
				<g>
					<defs>
						<rect id="SVGID_11_" x="122.9" y="19.6" width="204.5" height="134.2"/>
					</defs>
					<clipPath id="SVGID_12_">
						<use xlink:href="#SVGID_11_"  style="overflow:visible;"/>
					</clipPath>
					<polygon class="st25" points="173.3,160.4 161.8,160.4 236.7,12.7 248.2,12.7 					"/>
				</g>
			</g>
		</g>
		<g id="freepik--Hands--inject-2_2_">
			<path class="st5" d="M100.6,343c0,0,22.4-46.9,25.8-55.9s51.6-31.8,54.2-36.2s6-17.6,8.6-23.2s0.4-7.8,2.1-12.5
				s4.7-10.3,0.4-10.3s-9.9,4.7-12.1,12.5S169,231.6,169,231.6l0.4-5.2c0.4-5.2,5.6-21.1,7.7-24.5s15.1-17.2,16.8-17.6
				s5.6,3.4,9.5,3.4s4.7-3,2.6-4.7s-3.9-7.3-9-10.8s-10.8,0-10.8,0c-1.4-2.4-3-4.7-4.7-6.9c-2.2-2.6-6.5-6.9-12.1-8.2
				c-3.3-0.8-6.8,0-9.5,2.1c-2-0.4-4-0.7-6-0.9c-4.3-0.4-7.3,2.1-11.6,9s-11.2,20.2-11.2,20.2s1.7-12.5,1.7-17.6s0.4-10.8-1.7-12.9
				s-4.3,0.4-5.2,8.2s-10.8,34.8-12,42.1S99,255.2,91.6,265.5C84.2,275.8,44.8,321,44.8,321 M162.5,190.7c0,0,6-17.2,7.7-17.2
				s8.2,4.7,8.2,4.7L162.5,190.7z"/>
			<path class="st5" d="M159.9,159.3c0,0-12,20.6-14.6,25s-4.7,8.2-7.8,9.9s-5.2,5.6-4.3,6.9"/>
			<path class="st5" d="M131.1,187.7c-1.3,2.4-3.1,4.6-5.2,6.5c-3.4,3-7.3,5.6-8.2,9c-0.6,2.2-1.6,4.2-3,6"/>
			<path class="st5" d="M162.5,190.7c0,0-8.6,5.6-10.8,7.3s-3,5.6-3,5.6"/>
			<line class="st0" x1="186.2" y1="172.2" x2="178.4" y2="178.2"/>
			<path class="st5" d="M395.4,316c0,0-39.1-38.3-42.1-46s-2.1-9.5-4.7-15s-10.3-15.1-10.8-22s-3.9-23.2-3.9-28.8s-1.3-13.8-3-15
				s-11.2-3.5-11.2-3.5s-5.2-16.3-9-17.2s-11.6,3.4-11.6,3.4s-1.7-3-3.9-7.7s-6-4.7-10.8-3s-14.2,5.6-14.2,5.6s-10.8-8.2-14.2-3
				s-7.7,14.6-8.6,18.1s5.1,3.3,6.4,2.5s6.1-4.4,6.1-4.4s9.4,7.1,11.1,11s5.2,21.9,5.6,25.4s-1.3,14.2-1.3,14.2s-8.2-14.6-12-18.9
				s-9.5-6.9-13.8-6.9s-7.3,4.7-3.9,6.9s7.3,4.7,8.2,7.7s9.5,18.5,10.3,24.1s6.9,16.8,12.5,20.2s26.2,7.7,30.1,11.6
				s31.4,58.5,31.4,58.5 M277.9,174.9h6.9l7.3,14.2L277.9,174.9z"/>
			<path class="st5" d="M299,171.9l6,11.2c0,0,2.5,5.9,4.9,8.3s4.6,4.3,5.6,7.4s1.2,4.6,1.2,4.6"/>
			<line class="st0" x1="319.7" y1="185.7" x2="325.7" y2="198.2"/>
			<line class="st0" x1="270.2" y1="166.8" x2="277.9" y2="174.9"/>
			<path class="st5" d="M327.3,201c0.1,2.6,0.4,5.2,0.9,7.7"/>
			<path class="st5" d="M296.4,193.9c0,0,3.7,2.8,4.3,6.5"/>
			<path class="st5" d="M259.9,179.9c0,0-3.4-1.4-3.4-4.1"/>
			<path class="st5" d="M284.8,174.9c0,0-2.5-1.9-2.5-4.3"/>
		</g>
	</g>
</g>
</svg>
