<svg id="Camada_1" data-name="Camada 1" xmlns="http://www.w3.org/2000/svg" xmlns:xlink="http://www.w3.org/1999/xlink" viewBox="0 0 450 350"><defs><style>.cls-1,.cls-2,.cls-20{fill:none;}.cls-15,.cls-16,.cls-2,.cls-21,.cls-22,.cls-25,.cls-7,.cls-8{stroke:#3c50ff;}.cls-10,.cls-2,.cls-25,.cls-7,.cls-8{stroke-linecap:round;stroke-linejoin:round;}.cls-10,.cls-19,.cls-21,.cls-23,.cls-3,.cls-8{fill:#3c50ff;}.cls-4{fill:#ffb9c8;}.cls-5{clip-path:url(#clip-path);}.cls-12,.cls-15,.cls-6,.cls-7{fill:#f5f5f5;}.cls-6{opacity:0.4;}.cls-19,.cls-24,.cls-26,.cls-6{isolation:isolate;}.cls-22,.cls-9{fill:#d2d7ff;}.cls-10,.cls-20{stroke:#f5f5f5;}.cls-11{clip-path:url(#clip-path-2);}.cls-13{fill:#7a88ff;}.cls-14{fill:#96a0ff;}.cls-15,.cls-16,.cls-20,.cls-21,.cls-22,.cls-23{stroke-miterlimit:10;}.cls-15,.cls-16,.cls-20,.cls-21,.cls-22{stroke-width:0.97px;}.cls-16{fill:#8c98ff;}.cls-17{fill:#d8dcff;}.cls-18{fill:#afb7ff;}.cls-19,.cls-24{opacity:0.3;}.cls-23{stroke:#808dff;stroke-width:0.48px;}.cls-24,.cls-25,.cls-26{fill:#fff;}.cls-26{opacity:0.7;}</style><clipPath id="clip-path"><path class="cls-1" d="M40.68,134.71l4.49,36.44c0,5.84,10.9,10.58,24.35,10.58S93.87,177,93.87,171.15l4.49-36.44Z"/></clipPath><clipPath id="clip-path-2"><rect class="cls-1" x="122.87" y="19.65" width="204.54" height="134.21"/></clipPath></defs><title>Prancheta 1</title><g id="freepik--Desk--inject-2"><line class="cls-2" y1="148.9" x2="367.92" y2="148.9"/></g><g id="freepik--Desk--inject-2-2" data-name="freepik--Desk--inject-2"><line class="cls-2" x1="424.84" y1="148.9" x2="450" y2="148.9"/></g><g id="freepik--Plant--inject-2"><ellipse class="cls-3" cx="59.48" cy="172.36" rx="32.2" ry="11.95"/><path class="cls-4" d="M40.68,134.71l4.49,36.44c0,5.84,10.9,10.58,24.35,10.58S93.87,177,93.87,171.15l4.49-36.44Z"/><g class="cls-5"><path class="cls-4" d="M65.3,134.71H40.68l4.49,36.44c0,5.84,10.9,10.58,24.35,10.58q1.31,0,2.58-.06C64.43,168.08,64.3,148.11,65.3,134.71Z"/><path class="cls-6" d="M65.3,134.71H40.68l4.49,36.44c0,5.84,10.9,10.58,24.35,10.58q1.31,0,2.58-.06C64.43,168.08,64.3,148.11,65.3,134.71Z"/></g><path class="cls-2" d="M40.68,134.71l4.49,36.44c0,5.84,10.9,10.58,24.35,10.58S93.87,177,93.87,171.15l4.49-36.44Z"/><ellipse class="cls-7" cx="69.52" cy="134.71" rx="28.84" ry="12.53"/><ellipse class="cls-8" cx="69.52" cy="134.38" rx="25.77" ry="10.9"/><path class="cls-2" d="M71.48,135.51s-2.3-21.22-16.63-37.28S44,84.15,44,84.15"/><path class="cls-2" d="M97.3,72.42S80.1,89.64,77.23,109.14s-1,22.64-1,22.64"/><path class="cls-2" d="M74.3,134.34s-3.36-12-6.8-36.11-1.72-36.7-1.72-36.7"/><path class="cls-4" d="M45.52,90.7s-4.81,5.22-12.21-5-4.94-22.14-4.94-22.14,3.77,5.75,9.48,8.17S51.9,87.9,45.52,90.7Z"/><path class="cls-4" d="M65.74,67.26S58.86,69,58.29,56.37s8-21.22,8-21.22,0,6.88,3.44,12S72.63,68.41,65.74,67.26Z"/><path class="cls-4" d="M94.13,78.79s-6.7-2.33-.27-13.19S112.2,52.24,112.2,52.24s-3.77,5.76-3.72,12S99.3,83.52,94.13,78.79Z"/><path class="cls-9" d="M73.77,129.37S78.36,108.72,88.11,99A31.32,31.32,0,0,1,109.9,89.8S98.43,94.39,95,103.56s-9.2,29.25-9.2,29.25H57.15S53.7,125.36,44,116.75s-25.81-14.33-25.81-14.33,17.78-6.31,30.4-1.15,21.79,27,21.79,27Z"/><path class="cls-9" d="M75.51,132.18s-8.08-5.54-16.89-4.62-9.55,8.09-9.94,10.16a23.07,23.07,0,0,0-.36,3.7S59.68,138,66.67,136.8,76.61,138.88,75.51,132.18Z"/><path class="cls-9" d="M72.5,132.18s5.08-5.54,10.65-4.62,6,8.09,6.23,10.16a35.33,35.33,0,0,1,.23,3.7,86.71,86.71,0,0,0-11.54-4.62C73.68,135.65,71.81,138.88,72.5,132.18Z"/></g><g id="freepik--Device--inject-2"><path class="cls-8" d="M116.91,7H333.37a8.15,8.15,0,0,1,8.14,8.14h0V166.48H108.77V15.15A8.14,8.14,0,0,1,116.91,7Z"/><polygon class="cls-7" points="376.41 236.97 73.86 236.97 108.77 166.49 341.5 166.49 376.41 236.97"/><polygon class="cls-10" points="215.43 188.81 215.83 180.22 203.54 180.22 202.72 188.81 215.43 188.81"/><polygon class="cls-10" points="240.85 188.81 240.43 180.22 228.13 180.22 228.14 188.81 240.85 188.81"/><polygon class="cls-10" points="307.04 197.99 320.18 197.99 317.1 188.81 304.39 188.81 307.04 197.99"/><polygon class="cls-10" points="202.72 188.81 203.54 180.22 191.24 180.22 190.02 188.81 202.72 188.81"/><polygon class="cls-10" points="177.31 188.81 178.94 180.22 166.65 180.22 164.6 188.81 177.31 188.81"/><polygon class="cls-10" points="291.68 188.81 289.62 180.22 277.32 180.22 278.97 188.81 291.68 188.81"/><polygon class="cls-10" points="304.39 188.81 301.91 180.22 289.62 180.22 291.68 188.81 304.39 188.81"/><polygon class="cls-10" points="164.6 188.81 166.65 180.22 154.35 180.22 151.89 188.81 164.6 188.81"/><polygon class="cls-10" points="253.56 188.81 252.73 180.22 240.43 180.22 240.85 188.81 253.56 188.81"/><polygon class="cls-10" points="317.1 188.81 314.21 180.22 301.91 180.22 304.39 188.81 317.1 188.81"/><polygon class="cls-10" points="278.97 188.81 277.32 180.22 265.02 180.22 266.26 188.81 278.97 188.81"/><polygon class="cls-10" points="266.26 188.81 265.02 180.22 252.73 180.22 253.56 188.81 266.26 188.81"/><polygon class="cls-10" points="228.14 188.81 228.13 180.22 215.83 180.22 215.43 188.81 228.14 188.81"/><polygon class="cls-10" points="139.18 188.81 126.47 188.81 122.96 197.99 136.11 197.99 139.18 188.81"/><polygon class="cls-10" points="142.05 180.22 129.76 180.22 126.47 188.81 139.18 188.81 142.05 180.22"/><polygon class="cls-10" points="151.89 188.81 154.35 180.22 142.05 180.22 139.18 188.81 151.89 188.81"/><polygon class="cls-10" points="119.2 207.82 115.16 218.41 129.29 218.41 132.82 207.82 119.2 207.82"/><polygon class="cls-10" points="136.11 197.99 122.96 197.99 119.2 207.82 132.82 207.82 136.11 197.99"/><polygon class="cls-10" points="132.82 207.82 129.29 218.41 143.42 218.41 146.44 207.82 132.82 207.82"/><polygon class="cls-10" points="190.02 188.81 191.24 180.22 178.94 180.22 177.31 188.81 190.02 188.81"/><polygon class="cls-10" points="188.7 197.99 190.02 188.81 177.31 188.81 175.56 197.99 188.7 197.99"/><polygon class="cls-10" points="175.56 197.99 177.31 188.81 164.6 188.81 162.41 197.99 175.56 197.99"/><polygon class="cls-10" points="201.85 197.99 202.72 188.81 190.02 188.81 188.7 197.99 201.85 197.99"/><polygon class="cls-10" points="151.89 188.81 139.18 188.81 136.11 197.99 149.26 197.99 151.89 188.81"/><polygon class="cls-10" points="309.87 207.82 323.49 207.82 320.18 197.99 307.04 197.99 309.87 207.82"/><polygon class="cls-10" points="162.41 197.99 164.6 188.81 151.89 188.81 149.26 197.99 162.41 197.99"/><polygon class="cls-10" points="136.11 197.99 132.82 207.82 146.44 207.82 149.26 197.99 136.11 197.99"/><polygon class="cls-10" points="280.74 197.99 278.97 188.81 266.26 188.81 267.59 197.99 280.74 197.99"/><polygon class="cls-10" points="267.59 197.99 266.26 188.81 253.56 188.81 254.44 197.99 267.59 197.99"/><polygon class="cls-10" points="307.04 197.99 304.39 188.81 291.68 188.81 293.89 197.99 307.04 197.99"/><polygon class="cls-10" points="228.15 197.99 228.14 188.81 215.43 188.81 215 197.99 228.15 197.99"/><polygon class="cls-10" points="254.44 197.99 253.56 188.81 240.85 188.81 241.3 197.99 254.44 197.99"/><polygon class="cls-10" points="241.3 197.99 240.85 188.81 228.14 188.81 228.15 197.99 241.3 197.99"/><polygon class="cls-10" points="215 197.99 215.43 188.81 202.72 188.81 201.85 197.99 215 197.99"/><polygon class="cls-10" points="254.44 197.99 255.4 207.82 269.01 207.82 267.59 197.99 254.44 197.99"/><polygon class="cls-10" points="267.59 197.99 269.01 207.82 282.63 207.82 280.74 197.99 267.59 197.99"/><polygon class="cls-10" points="149.26 197.99 146.44 207.82 160.06 207.82 162.41 197.99 149.26 197.99"/><polygon class="cls-10" points="280.74 197.99 282.63 207.82 296.25 207.82 293.89 197.99 280.74 197.99"/><polygon class="cls-10" points="228.15 197.99 228.16 207.82 241.78 207.82 241.3 197.99 228.15 197.99"/><polygon class="cls-10" points="293.89 197.99 296.25 207.82 309.87 207.82 307.04 197.99 293.89 197.99"/><polygon class="cls-10" points="241.3 197.99 241.78 207.82 255.4 207.82 254.44 197.99 241.3 197.99"/><polygon class="cls-10" points="175.56 197.99 173.68 207.82 187.3 207.82 188.7 197.99 175.56 197.99"/><polygon class="cls-10" points="162.41 197.99 160.06 207.82 173.68 207.82 175.56 197.99 162.41 197.99"/><polygon class="cls-10" points="215 197.99 214.54 207.82 228.16 207.82 228.15 197.99 215 197.99"/><polygon class="cls-10" points="201.85 197.99 200.92 207.82 214.54 207.82 215 197.99 201.85 197.99"/><polygon class="cls-10" points="188.7 197.99 187.3 207.82 200.92 207.82 201.85 197.99 188.7 197.99"/><polygon class="cls-10" points="293.89 197.99 291.68 188.81 278.97 188.81 280.74 197.99 293.89 197.99"/><polygon class="cls-10" points="142.05 180.22 144.99 171.41 133.11 171.41 129.76 180.22 142.05 180.22"/><polygon class="cls-10" points="129.76 180.22 118.4 180.22 114.74 188.81 126.47 188.81 129.76 180.22"/><polygon class="cls-10" points="133.11 171.41 122.15 171.41 118.4 180.22 129.76 180.22 133.11 171.41"/><polygon class="cls-10" points="126.47 188.81 114.74 188.81 110.83 197.99 122.96 197.99 126.47 188.81"/><polygon class="cls-10" points="122.96 197.99 110.83 197.99 106.63 207.82 119.2 207.82 122.96 197.99"/><polygon class="cls-10" points="119.2 207.82 106.63 207.82 102.12 218.41 115.16 218.41 119.2 207.82"/><polygon class="cls-10" points="329.8 188.81 333.33 197.99 344.96 197.99 341.05 188.81 329.8 188.81"/><polygon class="cls-10" points="337.11 207.82 349.16 207.82 344.96 197.99 333.33 197.99 337.11 207.82"/><polygon class="cls-10" points="341.17 218.41 353.67 218.41 349.16 207.82 337.11 207.82 341.17 218.41"/><polygon class="cls-10" points="240.43 180.22 240 171.41 228.12 171.41 228.13 180.22 240.43 180.22"/><polygon class="cls-10" points="329.8 188.81 341.05 188.81 337.39 180.22 326.51 180.22 329.8 188.81"/><polygon class="cls-10" points="323.49 207.82 337.11 207.82 333.33 197.99 320.18 197.99 323.49 207.82"/><polygon class="cls-10" points="154.35 180.22 156.87 171.41 144.99 171.41 142.05 180.22 154.35 180.22"/><polygon class="cls-10" points="314.21 180.22 317.1 188.81 329.8 188.81 326.51 180.22 314.21 180.22"/><polygon class="cls-10" points="337.39 180.22 333.64 171.41 323.13 171.41 326.51 180.22 337.39 180.22"/><polygon class="cls-10" points="326.51 180.22 323.13 171.41 311.26 171.41 314.21 180.22 326.51 180.22"/><polygon class="cls-10" points="282.63 207.82 284.67 218.41 298.79 218.41 296.25 207.82 282.63 207.82"/><polygon class="cls-10" points="327.04 218.41 341.17 218.41 337.11 207.82 323.49 207.82 327.04 218.41"/><polygon class="cls-10" points="314.21 180.22 311.26 171.41 299.38 171.41 301.91 180.22 314.21 180.22"/><polygon class="cls-10" points="309.87 207.82 312.92 218.41 327.04 218.41 323.49 207.82 309.87 207.82"/><polygon class="cls-10" points="296.25 207.82 298.79 218.41 312.92 218.41 309.87 207.82 296.25 207.82"/><polygon class="cls-10" points="320.18 197.99 333.33 197.99 329.8 188.81 317.1 188.81 320.18 197.99"/><polygon class="cls-10" points="203.54 180.22 204.37 171.41 192.49 171.41 191.24 180.22 203.54 180.22"/><polygon class="cls-10" points="301.91 180.22 299.38 171.41 287.5 171.41 289.62 180.22 301.91 180.22"/><polygon class="cls-10" points="191.24 180.22 192.49 171.41 180.62 171.41 178.94 180.22 191.24 180.22"/><polygon class="cls-10" points="228.13 180.22 228.12 171.41 216.25 171.41 215.83 180.22 228.13 180.22"/><polygon class="cls-10" points="178.94 180.22 180.62 171.41 168.74 171.41 166.65 180.22 178.94 180.22"/><polygon class="cls-10" points="166.65 180.22 168.74 171.41 156.87 171.41 154.35 180.22 166.65 180.22"/><polygon class="cls-10" points="215.83 180.22 216.25 171.41 204.37 171.41 203.54 180.22 215.83 180.22"/><polygon class="cls-10" points="289.62 180.22 287.5 171.41 275.63 171.41 277.32 180.22 289.62 180.22"/><polygon class="cls-10" points="277.32 180.22 275.63 171.41 263.75 171.41 265.02 180.22 277.32 180.22"/><polygon class="cls-10" points="252.73 180.22 251.87 171.41 240 171.41 240.43 180.22 252.73 180.22"/><polygon class="cls-10" points="282.63 207.82 269.01 207.82 255.4 207.82 241.78 207.82 228.16 207.82 214.54 207.82 200.92 207.82 187.3 207.82 173.68 207.82 160.06 207.82 146.44 207.82 143.42 218.41 157.54 218.41 171.67 218.41 185.79 218.41 199.92 218.41 214.04 218.41 228.17 218.41 242.29 218.41 256.42 218.41 270.54 218.41 284.67 218.41 282.63 207.82"/><polygon class="cls-10" points="265.02 180.22 263.75 171.41 251.87 171.41 252.73 180.22 265.02 180.22"/><rect class="cls-8" x="73.86" y="236.98" width="302.69" height="4.3"/><g class="cls-11"><rect class="cls-7" x="57.01" y="-8.47" width="347.5" height="212.5"/><rect class="cls-12" x="131.72" y="101.43" width="66.41" height="27.78"/><path class="cls-3" d="M197.88,101.68V129H132V101.68h65.91m.5-.5H131.47v28.28h66.91V101.18Z"/><rect class="cls-3" x="131.47" y="99.59" width="66.91" height="4.78"/><path class="cls-9" d="M134.4,102a.75.75,0,0,1-.75.76.76.76,0,0,1-.76-.75.75.75,0,0,1,.75-.75h0a.75.75,0,0,1,.75.74Z"/><path class="cls-9" d="M137.77,102a.75.75,0,1,1-1.5,0,.74.74,0,0,1,.74-.75h0A.75.75,0,0,1,137.77,102Z"/><circle class="cls-9" cx="140.37" cy="102.01" r="0.74"/><rect class="cls-4" x="139.44" y="107.88" width="14.34" height="5.98"/><rect class="cls-13" x="135.05" y="112.06" width="23.1" height="11.95"/><rect class="cls-14" x="139.44" y="112.06" width="14.34" height="3.98"/><rect class="cls-3" x="139.44" y="118.04" width="14.34" height="5.98"/><rect class="cls-4" x="139.44" y="121.42" width="14.34" height="5.98"/><rect class="cls-4" x="162.54" y="117.64" width="14.74" height="5.18"/><rect class="cls-4" x="179.66" y="117.64" width="14.74" height="5.18"/><path class="cls-3" d="M163.31,109.72c.65,0,.9.41.9,1v.46c0,.67-.3,1-1,1h-.53v1.72h-.27v-4.19Zm-.06,2.22c.48,0,.69-.22.69-.73v-.49c0-.45-.16-.75-.61-.75h-.62v2Z"/><path class="cls-3" d="M165.5,109.72a.83.83,0,0,1,.9,1V111a.92.92,0,0,0-.55,1.18.89.89,0,0,0,.55.54v.66a.87.87,0,0,0,.1.5h-.29a1.08,1.08,0,0,1-.09-.5v-.66c0-.56-.3-.72-.78-.72h-.44v1.88h-.27v-4.19Zm-.15,2.1c.49,0,.77-.14.77-.7v-.4c0-.45-.17-.72-.61-.72h-.62v1.82Z"/><path class="cls-3" d="M167.21,109.72v4.19h-.27v-4.19Z"/><path class="cls-3" d="M167.93,113.91h-.25v-4.19H168l1.26,3.54v-3.54h.24v4.19h-.3l-1.31-3.74Z"/><path class="cls-3" d="M170.74,113.91V110h-.85v-.25h2V110H171v3.94Z"/><path class="cls-3" d="M173.62,111.66v.25h-1.13v1.76h1.37v.25h-1.62v-4.19h1.65V110h-1.4v1.69Z"/><path class="cls-3" d="M175.18,109.72c.62,0,.9.36.9,1V111a.92.92,0,0,0-.55,1.18.94.94,0,0,0,.55.54v.66a.88.88,0,0,0,.11.5h-.29a1,1,0,0,1-.1-.5v-.66c0-.56-.3-.72-.78-.72h-.44v1.88h-.27v-4.19Zm-.15,2.07c.49,0,.77-.14.77-.7v-.4c0-.45-.17-.72-.61-.72h-.62v1.85Z"/><rect class="cls-3" x="213.92" y="34.07" width="86.24" height="53.58"/><rect class="cls-12" x="214.17" y="34.32" width="85.74" height="49.24"/><path class="cls-3" d="M299.66,34.57V83.32H214.42V34.57h85.24m.5-.5H213.92V83.82h86.24V34.07Z"/><rect class="cls-4" x="213.92" y="34.07" width="20.16" height="49.74"/><rect class="cls-3" x="213.92" y="32.97" width="86.24" height="13.95"/><path class="cls-9" d="M218.25,35.61a.84.84,0,1,1-.83-.83.83.83,0,0,1,.83.83Z"/><circle class="cls-9" cx="221.15" cy="35.61" r="0.83"/><circle class="cls-9" cx="224.88" cy="35.61" r="0.83"/><path class="cls-15" d="M295.23,42.2H277.12a2.41,2.41,0,0,1-2.4-2.4h0a2.41,2.41,0,0,1,2.4-2.4h18.11a2.39,2.39,0,0,1,2.4,2.4h0a2.4,2.4,0,0,1-2.4,2.4Z"/><rect class="cls-16" x="264.75" y="37.77" width="5.17" height="3.69"/><rect class="cls-16" x="254.45" y="37.77" width="5.17" height="3.69"/><rect class="cls-16" x="215.97" y="37.77" width="5.17" height="3.69"/><rect class="cls-16" x="221.52" y="37.77" width="5.17" height="3.69"/><path class="cls-4" d="M237.74,52.17h7.75a.47.47,0,0,1,.47.47v4.88h-8.69V52.64A.47.47,0,0,1,237.74,52.17Z"/><rect class="cls-4" x="238.53" y="51.15" width="3.86" height="2.01" rx="0.23" ry="0.23"/><path class="cls-4" d="M256.31,52.17H264a.47.47,0,0,1,.47.47v4.88h-8.68V52.64a.47.47,0,0,1,.48-.47Z"/><rect class="cls-4" x="257.09" y="51.15" width="3.86" height="2.01" rx="0.23" ry="0.23"/><path class="cls-4" d="M274.87,52.17h7.73a.48.48,0,0,1,.48.47v4.88h-8.66V52.64A.47.47,0,0,1,274.87,52.17Z"/><rect class="cls-4" x="275.66" y="51.15" width="3.86" height="2.01" rx="0.23" ry="0.23"/><path class="cls-17" d="M237.74,64.36h7.75a.47.47,0,0,1,.47.47v4.88h-8.69V64.83A.47.47,0,0,1,237.74,64.36Z"/><rect class="cls-17" x="238.53" y="63.34" width="3.86" height="2.01" rx="0.23" ry="0.23"/><path class="cls-17" d="M256.31,64.36H264a.47.47,0,0,1,.47.47v4.88h-8.68V64.83a.47.47,0,0,1,.48-.47Z"/><rect class="cls-17" x="257.09" y="63.34" width="3.86" height="2.01" rx="0.23" ry="0.23"/><path class="cls-9" d="M294.81,85.89H279.57a.41.41,0,0,1-.41-.41h0a.41.41,0,0,1,.41-.42h15.24a.42.42,0,0,1,.42.42h0A.41.41,0,0,1,294.81,85.89Z"/><path class="cls-3" d="M282.93,85.47a.55.55,0,0,1-.54.55.56.56,0,0,1-.56-.54.56.56,0,0,1,.54-.56h0a.55.55,0,0,1,.54.55Z"/><rect class="cls-3" x="236.71" y="100.87" width="85.03" height="41.01"/><rect class="cls-12" x="236.96" y="101.12" width="84.53" height="36.73"/><path class="cls-3" d="M321.23,101.37V137.6h-84V101.37h84m.5-.5h-85V138.1h85V100.87Z"/><rect class="cls-3" x="236.71" y="99.78" width="85.03" height="13.76"/><path class="cls-9" d="M241,102.39a.82.82,0,1,1-.82-.82h0A.82.82,0,0,1,241,102.39Z"/><path class="cls-9" d="M244.65,102.39a.82.82,0,1,1-.82-.82h0A.82.82,0,0,1,244.65,102.39Z"/><path class="cls-9" d="M248.33,102.39a.82.82,0,1,1-.81-.82h0A.82.82,0,0,1,248.33,102.39Z"/><rect class="cls-15" x="296.66" y="104.15" width="22.58" height="4.73" rx="2.2" ry="2.2"/><rect class="cls-16" x="238.73" y="104.52" width="5.1" height="3.64"/><rect class="cls-16" x="244.2" y="104.52" width="5.1" height="3.64"/><rect class="cls-16" x="250.21" y="104.52" width="9.58" height="3.64"/><polygon class="cls-18" points="259.17 134.71 251.79 134.71 253.3 132.5 253.3 130.48 257.67 130.48 257.67 132.57 259.17 134.71"/><rect class="cls-17" x="244.76" y="114.82" width="21.44" height="17.22"/><rect class="cls-3" x="244.76" y="114.82" width="21.44" height="14.16"/><rect class="cls-4" x="246.04" y="116.35" width="18.89" height="11.1"/><rect class="cls-18" x="274.48" y="121.19" width="41.53" height="1.64" rx="0.76" ry="0.76"/><circle class="cls-4" cx="308.91" cy="122.02" r="2.19"/><rect class="cls-3" x="131.47" y="32.53" width="59.86" height="62.07"/><rect class="cls-12" x="131.72" y="32.78" width="59.36" height="4.47"/><path class="cls-3" d="M190.83,33v4H132V33h58.86m.5-.5H131.47v5h59.86v-5Z"/><path class="cls-4" d="M137,41.68h-1.74a.43.43,0,0,1,0-.86H137a.43.43,0,1,1,0,.86Zm.44,1.57a.43.43,0,0,0-.43-.43h-1.75a.43.43,0,0,0,0,.86H137a.42.42,0,0,0,.44-.42Zm0,2a.44.44,0,0,0-.44-.43h-1.74a.43.43,0,0,0-.1.86H137a.43.43,0,0,0,.44-.43Zm0,2a.43.43,0,0,0-.43-.43h-1.75a.43.43,0,0,0-.43.43.43.43,0,0,0,.43.43H137a.44.44,0,0,0,.44-.43Zm0,2a.44.44,0,0,0-.44-.44h-1.74a.43.43,0,0,0-.48.38.44.44,0,0,0,.38.49H137A.44.44,0,0,0,137.41,49.25Zm0,2a.43.43,0,0,0-.43-.43h-1.75a.43.43,0,0,0,0,.86H137a.42.42,0,0,0,.44-.42Zm0,2a.43.43,0,0,0-.43-.43h-1.75a.43.43,0,0,0,0,.86H137a.44.44,0,0,0,.44-.43Zm0,2a.43.43,0,0,0-.43-.43h-1.75a.43.43,0,0,0-.43.43.43.43,0,0,0,.43.43H137a.44.44,0,0,0,.44-.43Zm6.51-14a.43.43,0,0,0-.43-.43H138.9a.43.43,0,1,0,0,.86h4.59A.43.43,0,0,0,143.92,41.25Zm0,2a.43.43,0,0,0-.43-.43H138.9a.43.43,0,1,0,0,.86h4.59A.43.43,0,0,0,143.92,43.25Zm0,2a.43.43,0,0,0-.43-.43H138.9a.43.43,0,0,0,0,.86h4.59a.43.43,0,0,0,.43-.43Zm0,2a.43.43,0,0,0-.43-.43H138.9a.43.43,0,0,0-.43.43.43.43,0,0,0,.43.43h4.59A.43.43,0,0,0,143.92,47.25Zm0,2a.42.42,0,0,0-.42-.44h-4.6a.44.44,0,0,0,0,.87h4.59A.43.43,0,0,0,143.92,49.25Zm5.49,2a.43.43,0,0,0-.43-.43H144.4a.43.43,0,0,0-.43.43.43.43,0,0,0,.43.43H149a.43.43,0,0,0,.48-.38v0Zm0,2a.43.43,0,0,0-.43-.43H144.4a.43.43,0,0,0-.43.43.43.43,0,0,0,.43.43H149a.43.43,0,0,0,.48-.38v0Zm0,2a.43.43,0,0,0-.43-.43H144.4a.43.43,0,0,0-.43.43.43.43,0,0,0,.43.43H149a.44.44,0,0,0,.48-.38v0Zm-3.47-14a.5.5,0,0,0-.5-.49.49.49,0,0,0-.49.5.49.49,0,0,0,.49.5.51.51,0,0,0,.53-.48v0Zm1.5,0a.5.5,0,1,0-.5.51.5.5,0,0,0,.52-.48v0Zm1.5,0a.51.51,0,0,0-1,0,.51.51,0,0,0,.51.51h0a.5.5,0,0,0,.52-.49v0Zm1.5,0a.51.51,0,0,0-.51-.49.5.5,0,1,0,.53.52v0Zm1.49,0a.5.5,0,1,0-1,0,.49.49,0,0,0,.49.5.5.5,0,0,0,.5-.5Zm1.5,0a.5.5,0,0,0-.5-.49.49.49,0,0,0-.49.5.5.5,0,0,0,.5.5.51.51,0,0,0,.52-.48v0Zm-7.49,4a.5.5,0,0,0-.5-.5.5.5,0,0,0,0,1,.51.51,0,0,0,.53-.47v0Zm1.5,0a.5.5,0,1,0-.5.5.49.49,0,0,0,.52-.47v0Zm1.5,0a.51.51,0,1,0-1,0,.5.5,0,0,0,.51.5h0a.5.5,0,0,0,.52-.48v0Zm1.5,0a.5.5,0,1,0-1,0,.49.49,0,0,0,.5.49.5.5,0,0,0,.52-.47v0Zm1.49,0a.5.5,0,1,0-.5.5.5.5,0,0,0,.5-.5Zm1.5,0a.5.5,0,0,0-.5-.5.5.5,0,0,0,0,1,.51.51,0,0,0,.52-.47v0ZM151.06,51a.5.5,0,0,0-.5-.5.5.5,0,1,0,0,1h0a.5.5,0,0,0,.52-.48h0Zm1.5,0a.5.5,0,0,0-.5-.5.5.5,0,1,0,0,1h0a.5.5,0,0,0,.52-.48h0Zm1.5,0a.5.5,0,0,0-.5-.5.5.5,0,1,0,0,1h0a.5.5,0,0,0,.52-.48h0Zm1.5,0a.52.52,0,0,0-.5-.52.51.51,0,0,0,0,1h0a.5.5,0,0,0,.52-.48h0Zm1.49,0a.5.5,0,1,0-.49.49h0a.5.5,0,0,0,.52-.48h0Zm1.5,0a.5.5,0,0,0-.5-.5.5.5,0,1,0,0,1h0a.5.5,0,0,0,.52-.48h0Zm-7.49,4.11a.51.51,0,0,0-.5-.5.5.5,0,0,0-.5.5.5.5,0,0,0,.5.5h0a.49.49,0,0,0,.52-.47v0Zm1.5,0a.5.5,0,0,0-.5-.5.51.51,0,0,0-.5.5.5.5,0,0,0,.5.5h0a.49.49,0,0,0,.52-.47v0Zm1.5,0a.51.51,0,0,0-.5-.5.5.5,0,0,0-.5.5.5.5,0,0,0,.5.5h0a.49.49,0,0,0,.52-.47v0Zm1.5,0a.51.51,0,0,0-.5-.51.51.51,0,1,0,0,1h0a.49.49,0,0,0,.52-.47v0Zm1.49,0a.5.5,0,1,0-.49.5h0a.5.5,0,0,0,.52-.47v0Zm1.5,0a.5.5,0,0,0-.5-.5.51.51,0,0,0-.5.5.5.5,0,0,0,.5.5h0a.49.49,0,0,0,.52-.47v0Z"/><path class="cls-4" d="M137,57.65h-1.74a.43.43,0,0,1,0-.86H137a.43.43,0,1,1,0,.86Zm.44,1.57a.43.43,0,0,0-.43-.43h-1.75a.43.43,0,0,0,0,.86H137a.43.43,0,0,0,.44-.41Zm0,2a.44.44,0,0,0-.44-.43h-1.74a.43.43,0,0,0,0,.86H137a.42.42,0,0,0,.44-.41Zm0,2a.43.43,0,0,0-.43-.43h-1.75a.43.43,0,0,0-.43.43.44.44,0,0,0,.43.44H137a.43.43,0,0,0,.44-.42Zm0,2a.44.44,0,0,0-.44-.43h-1.74a.43.43,0,1,0,0,.86H137a.43.43,0,0,0,.44-.41Zm0,2a.43.43,0,0,0-.43-.43h-1.75a.43.43,0,1,0,0,.86H137a.43.43,0,0,0,.44-.41Zm0,2a.44.44,0,0,0-.44-.44h-1.74a.44.44,0,0,0-.1.87H137a.43.43,0,0,0,.44-.41Zm0,2a.43.43,0,0,0-.43-.43h-1.75a.43.43,0,0,0-.43.43.44.44,0,0,0,.43.44H137a.43.43,0,0,0,.44-.42Zm6.51-14a.43.43,0,0,0-.43-.43H138.9a.43.43,0,1,0,0,.86h4.59A.43.43,0,0,0,143.92,57.24Zm0,2a.43.43,0,0,0-.43-.43H138.9a.43.43,0,1,0,0,.86h4.59A.43.43,0,0,0,143.92,59.24Zm0,2a.43.43,0,0,0-.43-.43H138.9a.43.43,0,0,0-.43.43.43.43,0,0,0,.43.43h4.59A.43.43,0,0,0,143.92,61.23Zm0,2a.43.43,0,0,0-.43-.43H138.9a.43.43,0,0,0-.43.43.43.43,0,0,0,.43.43h4.59A.43.43,0,0,0,143.92,63.23Zm0,2a.43.43,0,0,0-.43-.43H138.9a.43.43,0,0,0,0,.86h4.59a.43.43,0,0,0,.43-.43Zm5.49,2a.43.43,0,0,0-.43-.43H144.4a.43.43,0,0,0,0,.86H149a.43.43,0,0,0,.48-.38v0Zm0,2a.42.42,0,0,0-.42-.44H144.4a.44.44,0,0,0-.38.49.43.43,0,0,0,.38.38H149a.43.43,0,0,0,.48-.38v0Zm0,2a.43.43,0,0,0-.43-.43H144.4a.43.43,0,0,0-.43.43.43.43,0,0,0,.43.43H149a.43.43,0,0,0,.48-.38v0Zm-3.47-14a.5.5,0,1,0-.5.5h0a.51.51,0,0,0,.53-.48v0Zm1.5,0a.5.5,0,0,0-1,0,.5.5,0,0,0,.5.5h0a.5.5,0,0,0,.52-.48v0Zm1.5,0a.5.5,0,0,0-.5-.51.5.5,0,0,0-.51.5.52.52,0,0,0,.5.51h0a.52.52,0,0,0,.53-.49h0Zm1.5,0a.5.5,0,0,0-.5-.5.5.5,0,0,0-.5.5.5.5,0,0,0,.5.5h0a.5.5,0,0,0,.52-.48v0Zm1.49,0a.5.5,0,1,0-.5.5h0a.51.51,0,0,0,.53-.48v0Zm1.5,0a.5.5,0,1,0-1,0,.5.5,0,0,0,.5.5h0a.51.51,0,0,0,.52-.48v0Zm-7.49,4a.5.5,0,0,0-.5-.49.49.49,0,0,0-.49.5.49.49,0,0,0,.49.5.51.51,0,0,0,.53-.48v0Zm1.5,0a.5.5,0,1,0-.5.51.5.5,0,0,0,.52-.48v0Zm1.5,0a.51.51,0,0,0-1,0,.51.51,0,0,0,.51.51h0a.5.5,0,0,0,.52-.49v0Zm1.5,0a.51.51,0,0,0-.51-.49.5.5,0,1,0,.53.52v0Zm1.49,0a.5.5,0,1,0-1,0,.49.49,0,0,0,.49.5.5.5,0,0,0,.5-.5Zm1.5,0a.5.5,0,0,0-.5-.49.49.49,0,0,0-.49.5.5.5,0,0,0,.5.5.51.51,0,0,0,.52-.48v0ZM151.06,67a.5.5,0,0,0-.5-.5.5.5,0,0,0-.5.5.5.5,0,1,0,1,0Zm1.5,0a.5.5,0,0,0-.5-.5.5.5,0,1,0,0,1,.49.49,0,0,0,.52-.47v0Zm1.5,0a.5.5,0,1,0-1,0,.49.49,0,0,0,.5.49.5.5,0,0,0,.52-.47v0Zm1.5,0a.51.51,0,0,0-.51-.51.51.51,0,0,0,0,1h0a.5.5,0,0,0,.52-.49h0Zm1.49,0a.5.5,0,0,0-.5-.5.5.5,0,0,0,0,1,.51.51,0,0,0,.52-.47v0Zm1.5,0a.5.5,0,0,0-1,0h0a.51.51,0,0,0,.5.5.5.5,0,0,0,.5-.5Zm-7.49,4.12a.5.5,0,0,0-.5-.5.5.5,0,0,0-.5.5.5.5,0,0,0,.5.5h0a.5.5,0,0,0,.52-.48v0Zm1.5,0a.5.5,0,0,0-.5-.5.5.5,0,0,0-.5.5.51.51,0,0,0,.5.5h0a.5.5,0,0,0,.52-.48v0Zm1.5,0a.5.5,0,0,0-.5-.5.5.5,0,0,0-.5.5.5.5,0,0,0,.5.5h0a.5.5,0,0,0,.52-.48v0Zm1.5,0a.51.51,0,1,0-1,0,.51.51,0,0,0,.5.51h0a.5.5,0,0,0,.52-.48v0Zm1.49,0a.5.5,0,1,0-1,0,.5.5,0,0,0,.5.5h0a.51.51,0,0,0,.52-.48v0Zm1.5,0a.5.5,0,0,0-.5-.5.5.5,0,0,0-.5.5.51.51,0,0,0,.5.5h0a.5.5,0,0,0,.52-.48v0Z"/><path class="cls-4" d="M137,74h-1.74a.43.43,0,1,1,0-.86H137a.43.43,0,1,1,0,.86Zm.44,1.57a.44.44,0,0,0-.44-.44h-1.74a.44.44,0,0,0,0,.87H137a.44.44,0,0,0,.44-.43Zm0,2a.43.43,0,0,0-.43-.43h-1.75a.42.42,0,0,0-.43.42.44.44,0,0,0,.43.44H137a.44.44,0,0,0,.44-.43Zm0,2a.44.44,0,0,0-.44-.44h-1.74a.43.43,0,0,0-.48.38.44.44,0,0,0,.38.49H137A.44.44,0,0,0,137.41,79.61Zm0,2a.43.43,0,0,0-.43-.43h-1.75a.43.43,0,1,0,0,.86H137a.42.42,0,0,0,.44-.42Zm0,2a.43.43,0,0,0-.43-.43h-1.75a.43.43,0,1,0,0,.86H137A.44.44,0,0,0,137.41,83.6Zm0,2a.44.44,0,0,0-.43-.44h-1.75a.44.44,0,0,0,0,.87H137a.44.44,0,0,0,.44-.43Zm0,2a.43.43,0,0,0-.43-.43h-1.75a.42.42,0,0,0-.43.43.43.43,0,0,0,.43.43H137a.44.44,0,0,0,.44-.43Zm6.51-14a.43.43,0,0,0-.43-.43H138.9a.43.43,0,0,0,0,.86h4.59A.43.43,0,0,0,143.92,73.61Zm0,2a.44.44,0,0,0-.43-.44H138.9a.44.44,0,0,0-.43.44.43.43,0,0,0,.43.43h4.59A.43.43,0,0,0,143.92,75.61Zm0,2a.43.43,0,0,0-.43-.43H138.9a.43.43,0,0,0-.43.43.43.43,0,0,0,.43.43h4.59A.43.43,0,0,0,143.92,77.61Zm0,2a.42.42,0,0,0-.42-.44h-4.6a.44.44,0,0,0,0,.87h4.59A.43.43,0,0,0,143.92,79.61Zm0,2a.43.43,0,0,0-.43-.43H138.9a.43.43,0,1,0,0,.86h4.59A.43.43,0,0,0,143.92,81.6Zm5.49,2a.43.43,0,0,0-.43-.43H144.4a.43.43,0,1,0,0,.86H149a.43.43,0,0,0,.48-.38V83.6Zm0,2a.44.44,0,0,0-.43-.44H144.4a.44.44,0,0,0-.43.44.43.43,0,0,0,.43.43H149a.44.44,0,0,0,.48-.38V85.6Zm0,2a.43.43,0,0,0-.43-.43H144.4a.43.43,0,0,0-.43.43.43.43,0,0,0,.43.43H149a.44.44,0,0,0,.48-.38V87.6Zm-3.47-14a.5.5,0,1,0-1,0,.49.49,0,0,0,.49.5h0a.51.51,0,0,0,.53-.47v0Zm1.5,0a.5.5,0,0,0-1,0,.5.5,0,0,0,.5.5h0a.49.49,0,0,0,.52-.47v0Zm1.5,0a.51.51,0,1,0-.51.5h0a.49.49,0,0,0,.52-.47,0,0,0,0,0,0,0Zm1.5,0a.51.51,0,0,0-.5-.5.5.5,0,0,0-.5.5.5.5,0,0,0,.5.5h0a.5.5,0,0,0,.52-.47v0Zm1.49,0a.5.5,0,1,0-1,0,.49.49,0,0,0,.49.5h0a.51.51,0,0,0,.53-.47v0Zm1.5,0a.5.5,0,1,0-.49.5h0a.51.51,0,0,0,.52-.47v0Zm-7.49,4a.5.5,0,1,0-.5.49h0a.5.5,0,0,0,.53-.47v0Zm1.5,0a.5.5,0,1,0-.5.49h0a.48.48,0,0,0,.52-.47v0Zm1.5,0a.5.5,0,0,0-.5-.51.49.49,0,0,0-.51.49.5.5,0,0,0,.5.51h0a.48.48,0,0,0,.52-.47,0,0,0,0,0,0,0Zm1.5,0a.5.5,0,0,0-.5-.5.5.5,0,1,0,0,1h0a.49.49,0,0,0,.52-.47v0Zm1.49,0a.5.5,0,1,0-.5.49h0a.5.5,0,0,0,.53-.47v0Zm1.5,0a.5.5,0,1,0-.49.49h0a.49.49,0,0,0,.52-.47v0Zm-2.37,5.74a.5.5,0,0,0-.5-.5.5.5,0,0,0-.5.5.5.5,0,0,0,.5.5h0a.5.5,0,0,0,.52-.48v0Zm1.5,0a.5.5,0,0,0-.5-.5.5.5,0,0,0-.5.5.51.51,0,0,0,.5.5h0a.5.5,0,0,0,.52-.48v0Zm1.5,0a.5.5,0,0,0-.5-.5.5.5,0,0,0-.5.5.5.5,0,0,0,.5.5h0a.5.5,0,0,0,.52-.48v0Zm1.5,0a.5.5,0,0,0-.5-.51.5.5,0,0,0-.51.5.51.51,0,0,0,.5.51h0a.5.5,0,0,0,.52-.48v0Zm1.49,0a.5.5,0,1,0-1,0,.5.5,0,0,0,.5.5h0a.51.51,0,0,0,.52-.48v0Zm1.5,0a.5.5,0,0,0-.5-.5.5.5,0,0,0-.5.5.51.51,0,0,0,.5.5h0a.5.5,0,0,0,.52-.48v0Zm-7.49,4.12a.5.5,0,0,0-.5-.5.5.5,0,0,0-.5.5.5.5,0,0,0,.5.5h0a.5.5,0,0,0,.52-.48v0Zm1.5,0a.5.5,0,0,0-.5-.5.5.5,0,0,0-.5.5.51.51,0,0,0,.5.5h0a.5.5,0,0,0,.52-.48v0Zm1.5,0a.5.5,0,0,0-.5-.5.5.5,0,0,0-.5.5.5.5,0,0,0,.5.5h0a.5.5,0,0,0,.52-.48v0Zm1.5,0a.5.5,0,0,0-.5-.51.5.5,0,0,0-.51.49.52.52,0,0,0,.5.52h0a.5.5,0,0,0,.52-.49h0Zm1.49,0a.5.5,0,1,0-1,0,.5.5,0,0,0,.5.5h0a.51.51,0,0,0,.52-.48v0Zm1.5,0a.5.5,0,0,0-.5-.5.5.5,0,0,0-.5.5.51.51,0,0,0,.5.5h0a.5.5,0,0,0,.52-.48v0Z"/><path class="cls-4" d="M163.81,41.68h-1.75a.43.43,0,0,1-.43-.43.43.43,0,0,1,.43-.43h1.75a.43.43,0,0,1,.43.43.42.42,0,0,1-.42.43Zm.43,1.57a.43.43,0,0,0-.43-.43h-1.75a.43.43,0,0,0-.43.43.43.43,0,0,0,.43.43h1.75a.43.43,0,0,0,.43-.43Zm0,2a.43.43,0,0,0-.43-.43h-1.75a.42.42,0,0,0-.38.48.44.44,0,0,0,.38.38h1.75a.43.43,0,0,0,.43-.43Zm0,2a.43.43,0,0,0-.43-.43h-1.75a.43.43,0,0,0-.43.43.44.44,0,0,0,.43.43h1.75a.44.44,0,0,0,.43-.43Zm0,2a.42.42,0,0,0-.42-.44h-1.76a.44.44,0,0,0-.38.49.45.45,0,0,0,.38.38h1.75a.44.44,0,0,0,.43-.43Zm0,2a.43.43,0,0,0-.43-.43h-1.75a.43.43,0,1,0,0,.86h1.75a.43.43,0,0,0,.43-.43Zm0,2a.43.43,0,0,0-.43-.43h-1.75a.43.43,0,1,0,0,.86h1.75a.43.43,0,0,0,.43-.43Zm0,2a.43.43,0,0,0-.43-.43h-1.75a.43.43,0,0,0-.43.43.45.45,0,0,0,.43.43h1.75a.44.44,0,0,0,.43-.43Zm6.55-14a.44.44,0,0,0-.44-.43h-4.59a.43.43,0,0,0-.43.43.43.43,0,0,0,.43.43h4.59a.43.43,0,0,0,.44-.42Zm0,2a.43.43,0,0,0-.43-.43h-4.6a.43.43,0,0,0-.43.43.43.43,0,0,0,.43.43h4.59a.43.43,0,0,0,.44-.42Zm0,2a.44.44,0,0,0-.44-.43h-4.59a.42.42,0,0,0-.38.48.44.44,0,0,0,.38.38h4.59a.44.44,0,0,0,.44-.43Zm0,2a.43.43,0,0,0-.43-.43h-4.6a.43.43,0,0,0,0,.86h4.59a.44.44,0,0,0,.44-.43Zm0,2a.44.44,0,0,0-.44-.44h-4.59a.44.44,0,0,0-.38.49.45.45,0,0,0,.38.38h4.59a.44.44,0,0,0,.44-.43Zm5.49,2a.43.43,0,0,0-.43-.43h-4.59a.43.43,0,0,0,0,.86h4.59a.43.43,0,0,0,.43-.43Zm0,2a.43.43,0,0,0-.43-.43h-4.59a.43.43,0,0,0,0,.86h4.59a.43.43,0,0,0,.43-.43Zm0,2a.43.43,0,0,0-.43-.43h-4.59a.43.43,0,0,0-.43.43.43.43,0,0,0,.43.43h4.59a.44.44,0,0,0,.43-.43Zm-3.47-14a.5.5,0,0,0-.51-.5.5.5,0,0,0-.5.5.5.5,0,0,0,.5.51.51.51,0,0,0,.51-.51Zm1.49,0a.5.5,0,0,0-1,0,.51.51,0,0,0,.5.5.5.5,0,0,0,.5-.5Zm1.5,0a.51.51,0,0,0-.51-.49.5.5,0,0,0,0,1,.51.51,0,0,0,.5-.5Zm1.5,0a.5.5,0,0,0-1,0,.5.5,0,1,0,1,0Zm1.5,0a.51.51,0,0,0-.51-.49.5.5,0,0,0,0,1,.51.51,0,0,0,.5-.5Zm1.5,0a.5.5,0,0,0-.51-.5.5.5,0,0,0-.5.5.5.5,0,0,0,.5.51.51.51,0,0,0,.51-.51Zm-7.49,4a.51.51,0,0,0-.51-.51.5.5,0,0,0-.5.51.5.5,0,0,0,.5.5.5.5,0,0,0,.51-.5Zm1.49,0a.5.5,0,0,0-.5-.5.5.5,0,1,0,0,1,.5.5,0,0,0,.5-.5Zm1.5,0a.5.5,0,1,0-1,0,.5.5,0,0,0,1,0Zm1.5,0a.5.5,0,1,0-.5.5.5.5,0,0,0,.5-.5Zm1.5,0a.51.51,0,0,0-.51-.5.5.5,0,0,0-.49.51.49.49,0,0,0,.5.49.5.5,0,0,0,.5-.5Zm1.5,0a.51.51,0,0,0-.51-.51.5.5,0,0,0-.5.51.5.5,0,0,0,.5.5.5.5,0,0,0,.51-.5ZM177.92,51a.5.5,0,0,0-.5-.5.5.5,0,1,0,0,1h0a.49.49,0,0,0,.5-.49Zm1.5,0a.51.51,0,1,0-1,0,.5.5,0,0,0,.5.51h0a.5.5,0,0,0,.5-.49Zm1.5,0a.5.5,0,1,0-.5.49h0a.5.5,0,0,0,.5-.49Zm1.49,0a.5.5,0,1,0-.49.49h0a.49.49,0,0,0,.49-.49Zm1.51,0a.52.52,0,0,0-.5-.52.5.5,0,0,0-.51.5.5.5,0,0,0,.5.51h0a.49.49,0,0,0,.51-.49h0Zm1.49,0a.5.5,0,1,0-.5.49h0a.49.49,0,0,0,.5-.49Zm-7.49,4.11a.49.49,0,0,0-.5-.49.5.5,0,1,0,0,1h0a.5.5,0,0,0,.5-.5Zm1.5,0a.5.5,0,0,0-.5-.51.52.52,0,0,0-.51.5.5.5,0,0,0,.5.51h0a.5.5,0,0,0,.5-.5Zm1.5,0a.5.5,0,1,0-.5.5h0a.5.5,0,0,0,.5-.5Zm1.49,0a.5.5,0,1,0-.49.5h0a.49.49,0,0,0,.49-.5Zm1.51,0a.51.51,0,0,0-.5-.51.5.5,0,0,0-.51.5.5.5,0,0,0,.5.51h0a.49.49,0,0,0,.51-.48v0Zm1.49,0a.5.5,0,1,0-.5.5h0a.5.5,0,0,0,.5-.5Z"/><path class="cls-4" d="M163.81,58.06h-1.75a.44.44,0,0,1-.43-.44.45.45,0,0,1,.43-.43h1.75a.43.43,0,0,1,.43.43.43.43,0,0,1-.42.44Zm.43,1.57a.44.44,0,0,0-.43-.44h-1.75a.44.44,0,0,0,0,.87h1.75a.44.44,0,0,0,.43-.43Zm0,2a.43.43,0,0,0-.43-.43h-1.75a.43.43,0,0,0-.43.43.44.44,0,0,0,.43.43h1.75a.43.43,0,0,0,.43-.43Zm0,2a.43.43,0,0,0-.43-.43h-1.75a.43.43,0,0,0-.43.43.44.44,0,0,0,.43.43h1.75a.43.43,0,0,0,.43-.43Zm0,2a.43.43,0,0,0-.43-.43h-1.75a.44.44,0,0,0-.43.43.44.44,0,0,0,.43.44h1.75a.44.44,0,0,0,.43-.44Zm0,2a.44.44,0,0,0-.43-.44h-1.75a.44.44,0,0,0-.43.43.44.44,0,0,0,.43.44h1.75a.44.44,0,0,0,.43-.43Zm0,2a.43.43,0,0,0-.43-.43h-1.75a.43.43,0,0,0-.43.43.43.43,0,0,0,.43.43h1.75a.43.43,0,0,0,.43-.43Zm0,2a.43.43,0,0,0-.43-.43h-1.75a.43.43,0,0,0-.43.43.43.43,0,0,0,.43.43h1.75a.43.43,0,0,0,.43-.43Zm6.55-14a.43.43,0,0,0-.43-.43h-4.6a.43.43,0,0,0,0,.86h4.59a.44.44,0,0,0,.44-.42Zm0,2a.43.43,0,0,0-.43-.43h-4.6a.43.43,0,0,0,0,.86h4.59a.44.44,0,0,0,.44-.44h0Zm0,2a.44.44,0,0,0-.43-.43h-4.6a.44.44,0,0,0-.43.44.45.45,0,0,0,.43.43h4.59a.44.44,0,0,0,.44-.43v0Zm0,2a.44.44,0,0,0-.43-.44h-4.6a.44.44,0,0,0,0,.87h4.59a.44.44,0,0,0,.44-.44v0Zm0,2a.43.43,0,0,0-.43-.43h-4.6a.43.43,0,0,0-.43.43.43.43,0,0,0,.43.43h4.59a.44.44,0,0,0,.44-.42v0Zm5.49,2a.43.43,0,0,0-.43-.43h-4.59a.43.43,0,0,0,0,.86h4.59a.43.43,0,0,0,.43-.43v0Zm0,2a.44.44,0,0,0-.43-.43h-4.59a.43.43,0,0,0-.43.43.44.44,0,0,0,.43.44h4.59a.44.44,0,0,0,.43-.43v0Zm0,2a.44.44,0,0,0-.43-.44h-4.59a.44.44,0,0,0,0,.87h4.59a.44.44,0,0,0,.43-.43v0Zm-3.47-14a.51.51,0,1,0-.52.5h0A.51.51,0,0,0,172.81,57.65Zm1.49,0a.5.5,0,0,0-.5-.5.5.5,0,0,0,0,1h0a.5.5,0,0,0,.5-.5Zm1.5,0a.5.5,0,0,0-.5-.5.5.5,0,0,0,0,1h0a.5.5,0,0,0,.5-.5Zm1.5,0a.5.5,0,0,0-.5-.5.5.5,0,0,0,0,1h0a.5.5,0,0,0,.5-.5Zm1.5,0a.5.5,0,0,0-.5-.5.5.5,0,0,0,0,1h0a.5.5,0,0,0,.5-.5Zm1.5,0a.51.51,0,1,0-.51.5h0a.51.51,0,0,0,.51-.5Zm-7.49,4a.52.52,0,0,0-.5-.51.5.5,0,0,0-.51.5.5.5,0,0,0,.49.51h0a.5.5,0,0,0,.51-.5v0Zm1.49,0a.49.49,0,0,0-.5-.49.5.5,0,1,0,0,1h0a.49.49,0,0,0,.5-.49v0Zm1.5,0a.5.5,0,0,0-.5-.49.5.5,0,1,0,0,1h0a.5.5,0,0,0,.5-.49v0Zm1.5,0a.49.49,0,0,0-.5-.49.5.5,0,1,0,0,1h0a.49.49,0,0,0,.5-.49v0Zm1.5,0a.5.5,0,0,0-.5-.49.5.5,0,1,0,0,1h0a.5.5,0,0,0,.5-.49v0Zm1.5,0a.52.52,0,0,0-.5-.51.5.5,0,0,0-.51.5.5.5,0,0,0,.5.51h0a.5.5,0,0,0,.51-.5v0Zm-2.38,5.75a.5.5,0,0,0-.5-.5.5.5,0,0,0-.5.5.51.51,0,0,0,.5.5h0a.5.5,0,0,0,.5-.5v0Zm1.5,0a.5.5,0,0,0-.5-.51.51.51,0,0,0-.51.5.52.52,0,0,0,.5.51h0a.5.5,0,0,0,.5-.51v0Zm1.5,0a.5.5,0,0,0-1,0,.5.5,0,0,0,.5.5h0a.5.5,0,0,0,.5-.5v0Zm1.49,0a.5.5,0,1,0-1,0,.5.5,0,0,0,.5.5h0a.51.51,0,0,0,.5-.5s0,0,0,0Zm1.51,0a.5.5,0,0,0-.5-.51.5.5,0,0,0-.51.5.51.51,0,0,0,.5.51h0a.52.52,0,0,0,.52-.48.09.09,0,0,0,0,0Zm1.49,0a.5.5,0,1,0-.5.5h0a.5.5,0,0,0,.5-.5v0Zm-7.49,4.12a.5.5,0,0,0-.5-.5.5.5,0,1,0,0,1,.5.5,0,0,0,.5-.5v0Zm1.5,0a.5.5,0,0,0-.5-.51.51.51,0,1,0,0,1,.5.5,0,0,0,.5-.5v0Zm1.5,0a.5.5,0,1,0-.5.5.5.5,0,0,0,.5-.5v0Zm1.49,0a.5.5,0,1,0-.49.5.51.51,0,0,0,.5-.5,0,0,0,0,0,0,0Zm1.51,0a.51.51,0,0,0-.51-.51.51.51,0,0,0,0,1h0a.5.5,0,0,0,.52-.49.06.06,0,0,0,0,0Zm1.49,0a.5.5,0,0,0-.5-.5.5.5,0,1,0,.5.5v0Z"/><path class="cls-3" d="M136.41,35.26a.83.83,0,1,1-.83-.83h0A.83.83,0,0,1,136.41,35.26Z"/><path class="cls-3" d="M140.15,35.26a.83.83,0,1,1-.83-.83h0A.83.83,0,0,1,140.15,35.26Z"/><circle class="cls-3" cx="143.05" cy="35.26" r="0.83"/><rect class="cls-19" x="186.53" y="63.48" width="86.24" height="49.74"/><rect class="cls-15" x="185.21" y="62.16" width="86.24" height="49.74"/><path class="cls-3" d="M229.36,90.33l-.9-.06a5.5,5.5,0,0,0-.09-.91l.88-.24a.24.24,0,0,0,.18-.3h0l-.11-.41a.25.25,0,0,0-.31-.18l-.88.23a5.61,5.61,0,0,0-.38-.83l.75-.51a.26.26,0,0,0,.07-.36l-.24-.35a.26.26,0,0,0-.35-.07l-.75.51a6.56,6.56,0,0,0-.62-.67l.55-.72a.27.27,0,0,0,0-.36l-.34-.25a.27.27,0,0,0-.36,0l-.55.72a5.16,5.16,0,0,0-.81-.42l.28-.86a.26.26,0,0,0-.16-.33h0l-.4-.13a.26.26,0,0,0-.32.17h0l-.28.86a7.58,7.58,0,0,0-.81-.13v-.9a.26.26,0,0,0-.26-.26h-.42a.26.26,0,0,0-.26.26v.9a5.64,5.64,0,0,0-.9.15l-.3-.86a.26.26,0,0,0-.32-.16l-.4.14a.26.26,0,0,0-.16.33l.29.86a6.16,6.16,0,0,0-.8.43l-.56-.71a.26.26,0,0,0-.36,0l-.33.25a.26.26,0,0,0,0,.37h0l.56.71a5.68,5.68,0,0,0-.62.68l-.76-.49a.25.25,0,0,0-.35.06h0l-.23.35a.27.27,0,0,0,.08.36l.76.49a5.18,5.18,0,0,0-.36.84l-.88-.22a.27.27,0,0,0-.32.19h0l-.1.41a.25.25,0,0,0,.19.31h0l.88.23a5.26,5.26,0,0,0-.07.89h0l-.91.08a.25.25,0,0,0-.23.27l0,.43a.26.26,0,0,0,.28.23h0l.9-.08a6.8,6.8,0,0,0,.22.89l-.82.37a.24.24,0,0,0-.13.33h0l.17.39a.26.26,0,0,0,.34.12L218,93a4.59,4.59,0,0,0,.51.76l-.67.61a.26.26,0,0,0,0,.36h0l.29.31a.25.25,0,0,0,.36,0h0l.67-.62a5.48,5.48,0,0,0,.72.55l-.43.8a.27.27,0,0,0,.11.35l.37.2a.26.26,0,0,0,.35-.1h0l.42-.8a6.34,6.34,0,0,0,.87.29l-.14.89a.24.24,0,0,0,.21.29h0l.42.07a.27.27,0,0,0,.3-.21h0l.14-.9h.4a4.34,4.34,0,0,0,.51,0l.16.9a.26.26,0,0,0,.3.21h0l.41-.07a.26.26,0,0,0,.21-.3h0l-.15-.9a5.48,5.48,0,0,0,.86-.3l.44.79a.25.25,0,0,0,.34.1h0l.37-.2a.27.27,0,0,0,.06-.31L226,95a7.94,7.94,0,0,0,.72-.58l.67.62a.26.26,0,0,0,.36,0h0l.28-.31a.27.27,0,0,0,0-.37l-.68-.61a5.35,5.35,0,0,0,.49-.78l.84.36a.27.27,0,0,0,.34-.14l.17-.39a.27.27,0,0,0-.14-.34h0l-.83-.35a5.51,5.51,0,0,0,.22-.89l.9.06a.25.25,0,0,0,.27-.23h0l0-.42a.26.26,0,0,0-.19-.31Zm-6.5,3.16A3.14,3.14,0,1,1,226,90.35a3.15,3.15,0,0,1-3.14,3.14Z"/><circle class="cls-20" cx="222.87" cy="90.36" r="4.39"/><path class="cls-3" d="M237.49,94.89l-.62,0a4.32,4.32,0,0,0-.05-.62l.57-.15a.17.17,0,0,0,.12-.2h0l-.07-.27a.16.16,0,0,0-.2-.11h0l-.57.14a4.43,4.43,0,0,0-.26-.54l.5-.33a.17.17,0,0,0,0-.23l-.16-.24a.17.17,0,0,0-.23,0l-.49.33a4.26,4.26,0,0,0-.42-.43l.36-.48a.16.16,0,0,0,0-.23h0l-.22-.17a.17.17,0,0,0-.23,0l-.36.48a3.84,3.84,0,0,0-.53-.28l.18-.57a.15.15,0,0,0-.1-.2h0l-.26-.08a.16.16,0,0,0-.21.1h0l-.19.56a3.08,3.08,0,0,0-.53-.08v-.62a.16.16,0,0,0-.16-.16h-.28a.17.17,0,0,0-.17.16v.62a2.59,2.59,0,0,0-.62.1l-.19-.56a.16.16,0,0,0-.21-.11h0l-.26.09a.16.16,0,0,0-.1.21l.19.56a3.92,3.92,0,0,0-.53.29l-.36-.47a.18.18,0,0,0-.24,0l-.22.18a.17.17,0,0,0,0,.23h0l.37.47a3.31,3.31,0,0,0-.4.44l-.5-.32a.16.16,0,0,0-.23,0h0l-.15.23a.17.17,0,0,0,0,.23h0l.5.33a2.7,2.7,0,0,0-.24.55l-.57-.15a.18.18,0,0,0-.21.13l-.07.27a.17.17,0,0,0,.12.2l.58.14a3.92,3.92,0,0,0-.05.59h0l-.61.05a.17.17,0,0,0-.16.18h0v.27a.17.17,0,0,0,.19.15l.61-.05a5.47,5.47,0,0,0,.15.58l-.54.25a.17.17,0,0,0-.09.22l.12.25a.16.16,0,0,0,.22.09h0l.54-.24a5.39,5.39,0,0,0,.33.5l-.43.4a.16.16,0,0,0,0,.24l.19.2a.18.18,0,0,0,.24,0l.43-.41a4,4,0,0,0,.47.37l-.27.52a.16.16,0,0,0,.06.23l.25.13a.15.15,0,0,0,.22-.06h0l.28-.52a3.47,3.47,0,0,0,.57.19l-.1.58a.18.18,0,0,0,.15.2l.27,0a.17.17,0,0,0,.19-.14l.1-.58h.59l.11.61a.17.17,0,0,0,.19.14h0l.28,0a.16.16,0,0,0,.13-.19h0l-.1-.58a3.73,3.73,0,0,0,.56-.2l.29.52a.18.18,0,0,0,.24.06l.24-.13a.17.17,0,0,0,.06-.23l-.29-.52a4.25,4.25,0,0,0,.47-.37l.45.39a.16.16,0,0,0,.22,0l0,0,.18-.2a.16.16,0,0,0,0-.24l-.44-.4a3.36,3.36,0,0,0,.32-.51l.55.24a.16.16,0,0,0,.22-.09h0l.11-.26a.18.18,0,0,0-.09-.22l-.55-.23a3.77,3.77,0,0,0,.14-.58l.61,0a.19.19,0,0,0,.19-.16V95A.19.19,0,0,0,237.49,94.89ZM233.23,97a2.07,2.07,0,1,1,2.06-2.06A2.06,2.06,0,0,1,233.23,97h0Z"/><path class="cls-20" d="M236.1,94.9a2.88,2.88,0,0,1-5.76,0A2.9,2.9,0,0,1,233.22,92h0A2.88,2.88,0,0,1,236.1,94.9Z"/><path class="cls-3" d="M190.58,74.58a2.17,2.17,0,1,1,4.34,0v4.73a2.17,2.17,0,1,1-4.34,0ZM192,79.4c0,.62.28.9.74.9s.73-.25.73-.9V74.48c0-.65-.28-.9-.73-.9s-.74.25-.74.9Z"/><path class="cls-3" d="M200.08,74.65v1.18c0,1.46-.7,2.25-2.13,2.25h-.68V81.5h-1.42V72.42H198C199.38,72.42,200.08,73.19,200.08,74.65Zm-2.81-1v3.07H198c.46,0,.7-.2.7-.85V74.56c0-.65-.24-.86-.7-.86Z"/><path class="cls-3" d="M202.24,76.23h2v1.3h-2v2.66h2.46V81.5h-3.89V72.42h3.89v1.3h-2.46Z"/><path class="cls-3" d="M208.56,81.5a2.68,2.68,0,0,1-.13-1.12V79c0-.85-.29-1.16-.94-1.16H207v3.69h-1.42V72.42h2.16a1.83,1.83,0,0,1,2.11,2.1v.71a1.83,1.83,0,0,1-.93,1.85c.71.29,1,1,1,1.93v1.4a2.6,2.6,0,0,0,.15,1.11ZM207,73.7v2.79h.56c.54,0,.86-.23.86-1v-.9c0-.64-.22-.93-.73-.93Z"/><path class="cls-3" d="M215.44,81.5H214l-.25-1.65H212l-.25,1.65h-1.31l1.45-9.08H214Zm-3.26-2.89h1.38l-.69-4.6Z"/><path class="cls-3" d="M215.69,72.42h4.41v1.3h-1.49v7.8h-1.44V73.7h-1.49Z"/><path class="cls-3" d="M220.73,72.42h1.42v9.1h-1.42Z"/><path class="cls-3" d="M224.47,74.89v6.58h-1.29v-9H225l1.48,5.45V72.42h1.27v9.1h-1.47Z"/><path class="cls-3" d="M230.89,76.43h2v2.88a2.14,2.14,0,1,1-4.27,0V74.58a2.14,2.14,0,1,1,4.27,0v.88h-1.35v-1c0-.65-.29-.9-.74-.9s-.74.25-.74.9v4.93c0,.61.28.88.74.88s.74-.24.74-.88V77.74h-.65Z"/><path class="cls-3" d="M237.75,72.29c1.39,0,2.1.84,2.1,2.29v.31H238.5v-.38c0-.65-.26-.9-.72-.9s-.71.25-.71.9c0,1.85,2.79,2.22,2.79,4.82,0,1.45-.72,2.28-2.13,2.28a2,2,0,0,1-2.13-2.28v-.56H237v.65c0,.62.29.88.75.88s.74-.23.74-.88c0-1.84-2.8-2.22-2.8-4.82C235.64,73.13,236.36,72.29,237.75,72.29Z"/><path class="cls-3" d="M241.93,78.48l-1.81-6.06h1.5l1.09,4.15,1.09-4.15h1.36l-1.8,6.08v3h-1.43Z"/><path class="cls-3" d="M247.57,72.29c1.39,0,2.11.84,2.11,2.29v.31h-1.36v-.38c0-.65-.26-.9-.71-.9s-.72.25-.72.9c0,1.85,2.8,2.22,2.8,4.82a2.13,2.13,0,1,1-4.26,0v-.56h1.35v.65c0,.62.28.88.74.88s.74-.23.74-.88c0-1.84-2.79-2.22-2.79-4.82C245.49,73.13,246.18,72.29,247.57,72.29Z"/><path class="cls-3" d="M250.09,72.42h4.42v1.3H253v7.8h-1.43V73.7h-1.49Z"/><path class="cls-3" d="M256.57,76.23h2v1.3h-2v2.66H259V81.5h-3.89V72.42H259v1.3h-2.46Z"/><path class="cls-3" d="M262.94,78.86l1-6.44h2v9.1h-1.33V75l-1,6.52h-1.36l-1.06-6.43v6.43h-1.23v-9.1h2Z"/><rect class="cls-21" x="185.21" y="62.16" width="86.24" height="3.61"/><circle class="cls-9" cx="188.42" cy="63.69" r="0.83"/><circle class="cls-9" cx="192.15" cy="63.69" r="0.83"/><path class="cls-9" d="M196.72,63.69a.83.83,0,1,1-.83-.83.83.83,0,0,1,.83.83Z"/><path class="cls-15" d="M264.32,103.31H193a.92.92,0,0,1-.91-.92h0a.92.92,0,0,1,.91-.92h71.37a.92.92,0,0,1,.92.91h0A.92.92,0,0,1,264.32,103.31Z"/><path class="cls-22" d="M243.2,101.47H193a.93.93,0,0,0,0,1.85H243.2Z"/><polygon class="cls-3" points="310.99 42.59 320.13 42.59 319.21 33.59 311.9 33.59 310.99 42.59"/><rect class="cls-17" x="310.99" y="42.15" width="9.14" height="2.1" rx="0.17" ry="0.17"/><polygon class="cls-3" points="310.99 55.46 320.13 55.46 319.21 46.47 311.9 46.47 310.99 55.46"/><rect class="cls-17" x="310.99" y="55.03" width="9.14" height="2.1" rx="0.28" ry="0.28"/><rect class="cls-3" x="311.57" y="55.64" width="4.14" height="0.85"/><path class="cls-23" d="M318.82,50.66c0,1.4-1.41,2.54-3.16,2.54s-3.15-1.14-3.15-2.54,1.41-2.54,3.15-2.54S318.82,49.26,318.82,50.66Z"/><path class="cls-4" d="M312,63.53h7.73a.47.47,0,0,1,.47.47v4.88h-8.68V64A.48.48,0,0,1,312,63.53Z"/><rect class="cls-4" x="312.8" y="62.51" width="3.86" height="2.01" rx="0.23" ry="0.23"/><path class="cls-4" d="M312,76.27h7.73a.47.47,0,0,1,.47.47v4.92h-8.68V76.73A.48.48,0,0,1,312,76.27Z"/><rect class="cls-4" x="312.8" y="75.26" width="3.86" height="2.01" rx="0.23" ry="0.23"/><path class="cls-4" d="M312,89h7.73a.48.48,0,0,1,.47.48V94.4h-8.68V89.52A.49.49,0,0,1,312,89Z"/><rect class="cls-4" x="312.8" y="88.01" width="3.86" height="2.01" rx="0.23" ry="0.23"/><polygon class="cls-24" points="152.12 160.38 122.58 160.38 197.51 12.69 227.05 12.69 152.12 160.38"/><polygon class="cls-24" points="173.31 160.38 161.75 160.38 236.69 12.69 248.24 12.69 173.31 160.38"/></g></g><g id="freepik--Hands--inject-2"><path class="cls-7" d="M100.59,343s22.36-46.89,25.8-55.92S178,255.23,180.58,250.9s6-17.63,8.61-23.22.43-7.75,2.15-12.48,4.73-10.32.43-10.32-9.89,4.73-12.05,12.47S169,231.55,169,231.55l.43-5.16c.43-5.17,5.59-21.08,7.74-24.52s15.06-17.2,16.78-17.63,5.59,3.44,9.46,3.44,4.73-3,2.58-4.73-3.87-7.32-9-10.76-10.75,0-10.75,0a71.67,71.67,0,0,0-4.73-6.88c-2.16-2.58-6.46-6.88-12-8.17a11.24,11.24,0,0,0-9.46,2.15,50.69,50.69,0,0,0-6-.86c-4.3-.43-7.31,2.15-11.61,9s-11.19,20.22-11.19,20.22,1.72-12.48,1.72-17.64.43-10.75-1.72-12.9-4.3.43-5.16,8.17-10.75,34.84-12,42.15S99,255.17,91.64,265.51,44.76,321,44.76,321M162.52,190.73s6-17.21,7.74-17.21,8.17,4.73,8.17,4.73Z"/><path class="cls-7" d="M159.94,159.33s-12,20.65-14.62,24.95-4.73,8.17-7.75,9.89-5.16,5.59-4.3,6.88"/><path class="cls-7" d="M131.12,187.71a23.9,23.9,0,0,1-5.16,6.46c-3.44,3-7.31,5.59-8.17,9a16.94,16.94,0,0,1-3,6"/><path class="cls-7" d="M162.52,190.73s-8.6,5.58-10.75,7.3-3,5.59-3,5.59"/><line class="cls-2" x1="186.18" y1="172.23" x2="178.43" y2="178.24"/><path class="cls-7" d="M395.36,316s-39.14-38.27-42.15-46-2.15-9.46-4.73-15-10.32-15.11-10.75-22-3.87-23.23-3.87-28.82-1.29-13.76-3-15.05-11.19-3.45-11.19-3.45-5.16-16.34-9-17.2S299,171.9,299,171.9s-1.72-3-3.87-7.73-6-4.74-10.75-3-14.2,5.59-14.2,5.59-10.75-8.18-14.19-3-7.74,14.61-8.6,18.05,5.09,3.33,6.38,2.46,6.13-4.42,6.13-4.42,9.42,7.12,11.14,11,5.16,21.93,5.59,25.37-1.29,14.19-1.29,14.19-8.17-14.62-12-18.92-9.46-6.88-13.76-6.88-7.31,4.73-3.87,6.88,7.31,4.73,8.17,7.74,9.46,18.5,10.32,24.09,6.88,16.77,12.47,20.21,26.24,7.74,30.11,11.62,31.4,58.49,31.4,58.49M277.94,174.9h6.89l7.31,14.21Z"/><path class="cls-7" d="M299,171.9l6,11.18s2.45,5.87,4.93,8.34,4.64,4.33,5.57,7.43,1.23,4.64,1.23,4.64"/><line class="cls-2" x1="319.66" y1="185.7" x2="325.69" y2="198.17"/><line class="cls-2" x1="270.2" y1="166.77" x2="277.94" y2="174.95"/><path class="cls-7" d="M327.3,201.05a55.85,55.85,0,0,0,.93,7.73"/><path class="cls-7" d="M296.36,193.9s3.71,2.78,4.33,6.49"/><path class="cls-7" d="M259.92,179.9s-3.4-1.35-3.4-4.07"/><path class="cls-7" d="M284.83,174.9s-2.46-1.89-2.46-4.26"/></g><g id="freepik--Coffee--inject-78"><g id="freepik--coffee--inject-78-2" data-name="freepik--coffee--inject-78"><path class="cls-2" d="M422.37,139.16c0,5-12.18,9.08-27.23,9.08s-27.22-4.07-27.22-9.08,12.19-9,27.22-9S422.37,134.17,422.37,139.16Z"/><path class="cls-2" d="M367.92,139.16s1,18.48,5.37,29.91,23.33,15.35,33.63,10.77c7.64-3.39,11.5-13.76,13.51-23.16"/><path class="cls-25" d="M411.86,170.75c1.39,3.56,6.43,3.61,9.56,3.25a11.25,11.25,0,0,0,10.64-11,19.68,19.68,0,0,0-3.31-12.26,10.87,10.87,0,0,0-8.57-4.26A5.55,5.55,0,0,0,414.6,152a5.14,5.14,0,0,0,.1,1,3.29,3.29,0,0,0,.81,1.75c1.38,1.5,3.36.63,5,1.27a5.53,5.53,0,0,1,3,3.82c.64,2.34,1,4.5-.54,6.51a4.74,4.74,0,0,1-4.51,1.6c-1.5-.2-2.76-1.51-4.32-1.51a2.57,2.57,0,0,0-2.57,2.55c0,.07,0,.14,0,.22A4.16,4.16,0,0,0,411.86,170.75Z"/><ellipse class="cls-3" cx="395.28" cy="141.5" rx="24.81" ry="6.32"/><path class="cls-3" d="M388.27,125.31a9.33,9.33,0,0,1-.39-5.18c.7-3,3.18-5.24,5.78-6.88a54.34,54.34,0,0,0,7.75-5c2.26-2.06,3.9-5.24,3-8.19a34,34,0,0,0-2.6-4.83,8.39,8.39,0,0,1,1-8.89,7.15,7.15,0,0,1,8.59-1.64,6.23,6.23,0,0,1,2.39,8.17c-1,1.68-2.72,2.75-3.83,4.34a7,7,0,0,0,0,7.63c1.14,1.66,3,2.87,3.64,4.8a5.22,5.22,0,0,1-2.05,5.32,10.82,10.82,0,0,1-5.63,1.91,29,29,0,0,0-6,.79,9.25,9.25,0,0,0-4.5,14.6c1.13,1.43.09.62-1.68-.39A12.45,12.45,0,0,1,388.27,125.31Z"/><path class="cls-26" d="M388.28,125.3a9.26,9.26,0,0,1-.39-5.18c.71-3,3.18-5.25,5.78-6.88a56.71,56.71,0,0,0,7.74-5c2.28-2.06,3.9-5.24,3-8.18a30.44,30.44,0,0,0-2.6-4.84,8.36,8.36,0,0,1,1-8.89,7.11,7.11,0,0,1,8.59-1.64,6.25,6.25,0,0,1,2.39,8.17c-1,1.69-2.74,2.75-3.83,4.34a6.88,6.88,0,0,0,0,7.63c1.14,1.67,3,2.87,3.62,4.81a5.17,5.17,0,0,1-2,5.3,10.73,10.73,0,0,1-5.65,1.92,30.54,30.54,0,0,0-6,.78,9.29,9.29,0,0,0-6.08,11.63,9.18,9.18,0,0,0,1.58,3c1.14,1.43.09.62-1.68-.4A12.47,12.47,0,0,1,388.28,125.3Z"/></g></g></svg>