<?xml version="1.0" encoding="utf-8"?>
<!-- Generator: Adobe Illustrator 22.0.1, SVG Export Plug-In . SVG Version: 6.00 Build 0)  -->
<svg version="1.1" id="Camada_1" xmlns="http://www.w3.org/2000/svg" xmlns:xlink="http://www.w3.org/1999/xlink" x="0px" y="0px"
	 viewBox="0 0 425.2 368.5" style="enable-background:new 0 0 425.2 368.5;" xml:space="preserve">
<style type="text/css">
	.st0{fill:#87EBC8;}
	.st1{opacity:0.7;fill:#FFFFFF;enable-background:new    ;}
	.st2{fill:#FFFFFF;stroke:#27303F;stroke-width:1.0335;stroke-linecap:round;stroke-linejoin:round;}
	.st3{fill:#87EBC8;stroke:#27303F;stroke-width:1.0335;stroke-linecap:round;stroke-linejoin:round;}
	.st4{fill:#27303F;}
	.st5{fill:none;stroke:#27303F;stroke-width:1.049;stroke-miterlimit:10;}
	.st6{fill:none;stroke:#27303F;stroke-width:1.0475;stroke-miterlimit:10;}
	.st7{fill:none;stroke:#27303F;stroke-width:1.0335;stroke-miterlimit:10;}
	.st8{fill:none;stroke:#27303F;stroke-width:1.287;stroke-miterlimit:10;}
	.st9{fill:#87EBC8;stroke:#27303F;stroke-width:1.0475;stroke-miterlimit:10;}
	.st10{fill:#87EBC8;stroke:#27303F;stroke-width:1.049;stroke-miterlimit:10;}
</style>
<g id="freepik--background-simple--inject-2">
	<path class="st0" d="M133.3,22.7c0,0-72.3,33.6-108.4,85.4S-8.4,226.5,35.5,276s127.6,42.9,197.8,74.3s147.6,24.9,180.7-41.5
		s-16.8-91.2-25.5-168S304-48.6,133.3,22.7z"/>
	<path class="st1" d="M133.3,22.7c0,0-72.3,33.6-108.4,85.4S-8.4,226.5,35.5,276s127.6,42.9,197.8,74.3s147.6,24.9,180.7-41.5
		s-16.8-91.2-25.5-168S304-48.6,133.3,22.7z"/>
</g>
<g id="freepik--Window--inject-2">
	<path class="st2" d="M53,36.9h319.2c3.9,0,7.1,3.2,7.1,7.1v280.6c0,3.9-3.2,7.1-7.1,7.1H53c-3.9,0-7.1-3.2-7.1-7.1V44
		C45.9,40,49.1,36.9,53,36.9z"/>
	<path class="st3" d="M372.4,36.9H52.8c-3.8,0-6.9,3.1-6.9,6.9V56h333.4V43.8C379.3,40,376.2,36.9,372.4,36.9z"/>
	<path class="st2" d="M60.4,46.1c0,1.6-1.3,2.9-2.8,2.9c-1.6,0-2.9-1.3-2.9-2.8c0-1.6,1.3-2.9,2.8-2.9l0,0
		C59.1,43.3,60.4,44.5,60.4,46.1z"/>
	<path class="st2" d="M72.4,46.1c0,1.6-1.3,2.9-2.8,2.9c-1.6,0-2.9-1.3-2.9-2.8c0-1.6,1.3-2.9,2.8-2.9l0,0
		C71.1,43.3,72.4,44.5,72.4,46.1z"/>
	<path class="st2" d="M84.3,46.1c0,1.6-1.3,2.9-2.8,2.9c-1.6,0-2.9-1.3-2.9-2.8c0-1.6,1.3-2.9,2.8-2.9l0,0
		C83,43.3,84.3,44.5,84.3,46.1z"/>
	<path class="st4" d="M232.5,90.8V71.4h-4v-2.2h10.3v2.2h-4v19.4H232.5z"/>
	<path class="st4" d="M240.4,74.5c0-3.3,1.6-5.4,4.9-5.4s5,2.1,5,5.4v11.1c0,3.3-1.6,5.4-5,5.4s-4.9-2.1-4.9-5.4V74.5z M242.8,85.7
		c0,2,0.8,3.1,2.6,3.1s2.6-1.1,2.6-3.1V74.3c0-1.9-0.8-3.1-2.6-3.1s-2.6,1.2-2.6,3.1V85.7z"/>
	<path class="st4" d="M257.6,69.3c3.3,0,4.9,2.1,4.9,5.4v10.9c0,3.3-1.5,5.3-4.9,5.3h-5V69.3H257.6z M257.6,88.6c1.7,0,2.6-1,2.6-3
		V74.5c0-2-0.8-3-2.6-3H255v17.2L257.6,88.6L257.6,88.6z"/>
	<path class="st4" d="M267.1,86.4l-0.8,4.3h-2.2l4.1-21.5h3.5l4.1,21.5h-2.4l-0.8-4.3H267.1z M267.4,84.4h4.8L269.8,72L267.4,84.4z"
		/>
	<path class="st4" d="M280,83.1l-4.6-13.8h2.5l3.4,10.6l3.4-10.6h2.3l-4.6,13.8v7.7H280V83.1z"/>
	<path class="st4" d="M64.8,69.8v0.3h-1.2v-0.4c0-1-0.4-1.6-1.3-1.6c-0.9,0-1.3,0.6-1.3,1.6c0,2.6,3.8,2.8,3.8,6
		c0,1.7-0.8,2.9-2.6,2.9s-2.6-1.1-2.6-2.9V75h1.2v0.8c0,1,0.4,1.6,1.3,1.6s1.3-0.6,1.3-1.6c0-2.5-3.8-2.8-3.8-6
		c0-1.8,0.8-2.9,2.5-2.9C63.9,67,64.8,68.1,64.8,69.8z"/>
	<path class="st4" d="M70.9,69.9v1h-1.2v-1.1c0-1-0.4-1.7-1.3-1.7s-1.3,0.6-1.3,1.7v6c0,1,0.4,1.6,1.3,1.6s1.3-0.6,1.3-1.6v-1.5h1.2
		v1.4c0,1.7-0.8,2.9-2.6,2.9s-2.6-1.1-2.6-2.9v-5.9c0-1.7,0.8-2.9,2.6-2.9S70.9,68.1,70.9,69.9z"/>
	<path class="st4" d="M73.4,73.4v5.2h-1.3V67.1h1.3v5.2h2.8v-5.2h1.3v11.4h-1.3v-5.2L73.4,73.4z"/>
	<path class="st4" d="M82.8,72.2v1.1H80v4.1h3.4v1.2h-4.7V67.1h4.7v1.2H80v3.9H82.8z"/>
	<path class="st4" d="M87.3,67.1c1.8,0,2.6,1,2.6,2.8v5.8c0,1.7-0.8,2.8-2.6,2.8h-2.7V67.1H87.3z M87.3,77.4c0.9,0,1.4-0.6,1.4-1.6
		v-5.9c0-1-0.4-1.6-1.4-1.6h-1.4v9.1H87.3z"/>
	<path class="st4" d="M92.4,75.8c0,1,0.4,1.6,1.3,1.6s1.3-0.6,1.3-1.6v-8.7h1.2v8.7c0,1.7-0.8,2.9-2.6,2.9S91,77.5,91,75.8v-8.7h1.3
		L92.4,75.8L92.4,75.8z"/>
	<path class="st4" d="M97.4,78.5V67.1h1.3v10.3h3.3v1.2L97.4,78.5L97.4,78.5z"/>
	<path class="st4" d="M107,72.2v1.1h-2.8v4.1h3.4v1.2h-4.7V67.1h4.7v1.2h-3.4v3.9H107z"/>
	<path class="st4" d="M169.1,104.2v0.3c0.1,0.9-0.4,1.8-1.2,2.2c0.9,0.4,1.4,1.3,1.2,2.3v0.8c0,1.4-1.2,2.6-2.6,2.6
		c-1.4,0-2.6-1.2-2.6-2.6V109c-0.1-1,0.4-1.9,1.3-2.3c-0.9-0.4-1.4-1.3-1.3-2.2v-0.3c0-1.4,1.2-2.6,2.6-2.6
		C167.9,101.6,169.1,102.7,169.1,104.2z M165.2,104.2v0.5c0,1,0.5,1.5,1.4,1.5s1.4-0.5,1.4-1.5v-0.5c0-1.1-0.5-1.6-1.4-1.6
		C165.7,102.5,165.2,103.1,165.2,104.2L165.2,104.2z M165.2,108.9v0.9c0,1.1,0.5,1.6,1.4,1.6s1.4-0.5,1.4-1.6v-0.9
		c0-1-0.5-1.6-1.4-1.6S165.2,107.8,165.2,108.9L165.2,108.9z"/>
	<path class="st4" d="M171.3,105v1.5h-1.2V105H171.3z M171.3,110.9v1.5h-1.2v-1.5H171.3z"/>
	<path class="st4" d="M172.5,104.2c0-1.7,0.8-2.7,2.5-2.7s2.5,1,2.5,2.7v5.6c0,1.7-0.8,2.7-2.5,2.7s-2.5-1.1-2.5-2.7V104.2z
		 M173.7,109.9c0,1,0.4,1.6,1.3,1.6c0.9,0,1.3-0.6,1.3-1.6v-5.7c0-1-0.4-1.6-1.3-1.6c-0.9,0-1.3,0.6-1.3,1.6V109.9z"/>
	<path class="st4" d="M178.5,104.2c0-1.7,0.8-2.7,2.5-2.7s2.5,1,2.5,2.7v5.6c0,1.7-0.8,2.7-2.5,2.7s-2.5-1.1-2.5-2.7V104.2z
		 M179.7,109.9c0,1,0.4,1.6,1.3,1.6s1.3-0.6,1.3-1.6v-5.7c0-1-0.4-1.6-1.3-1.6s-1.3,0.6-1.3,1.6V109.9z"/>
	<path class="st4" d="M196.2,103.6c-0.5,0.3-1,0.4-1.5,0.5v-1c0.9,0,1.7-0.6,1.9-1.4h0.9v10.9h-1.2L196.2,103.6z"/>
	<path class="st4" d="M199.1,104.2c0-1.7,0.8-2.7,2.5-2.7s2.5,1,2.5,2.7v5.6c0,1.7-0.8,2.7-2.5,2.7s-2.5-1.1-2.5-2.7V104.2z
		 M200.3,109.9c0,1,0.4,1.6,1.3,1.6s1.3-0.6,1.3-1.6v-5.7c0-1-0.4-1.6-1.3-1.6s-1.3,0.6-1.3,1.6V109.9z"/>
	<path class="st4" d="M206.4,105v1.5h-1.2V105H206.4z M206.4,110.9v1.5h-1.2v-1.5H206.4z"/>
	<path class="st4" d="M207.5,104.2c0-1.7,0.8-2.7,2.5-2.7s2.5,1,2.5,2.7v5.6c0,1.7-0.8,2.7-2.5,2.7s-2.5-1.1-2.5-2.7V104.2z
		 M208.7,109.9c0,1,0.4,1.6,1.3,1.6c0.9,0,1.3-0.6,1.3-1.6v-5.7c0-1-0.4-1.6-1.3-1.6c-0.9,0-1.3,0.6-1.3,1.6V109.9z"/>
	<path class="st4" d="M213.6,104.2c0-1.7,0.8-2.7,2.5-2.7s2.5,1,2.5,2.7v5.6c0,1.7-0.8,2.7-2.5,2.7s-2.5-1.1-2.5-2.7V104.2z
		 M214.8,109.9c0,1,0.4,1.6,1.3,1.6s1.3-0.6,1.3-1.6v-5.7c0-1-0.4-1.6-1.3-1.6s-1.3,0.6-1.3,1.6V109.9z"/>
	<path class="st4" d="M232,103.6c-0.5,0.3-1,0.4-1.5,0.5v-1c0.9,0,1.7-0.6,1.9-1.4h0.8v10.9H232V103.6z"/>
	<path class="st4" d="M239.9,104.2c0,3.3-3.7,4.5-3.7,7v0.2h3.6v1.1H235v-0.9c0-3.5,3.7-4.2,3.7-7.2c0-1.1-0.4-1.7-1.3-1.7
		s-1.3,0.6-1.3,1.6v1H235v-0.9c0-1.7,0.8-2.8,2.4-2.8S239.9,102.6,239.9,104.2z"/>
	<path class="st4" d="M242.2,105v1.5H241V105H242.2z M242.2,110.9v1.5H241v-1.5H242.2z"/>
	<path class="st4" d="M243.3,104.2c0-1.7,0.8-2.7,2.5-2.7s2.5,1,2.5,2.7v5.6c0,1.7-0.8,2.7-2.5,2.7s-2.5-1.1-2.5-2.7V104.2z
		 M244.5,109.9c0,1,0.4,1.6,1.3,1.6c0.9,0,1.3-0.6,1.3-1.6v-5.7c0-1-0.4-1.6-1.3-1.6c-0.9,0-1.3,0.6-1.3,1.6V109.9z"/>
	<path class="st4" d="M249.4,104.2c0-1.7,0.8-2.7,2.5-2.7s2.5,1,2.5,2.7v5.6c0,1.7-0.8,2.7-2.5,2.7s-2.5-1.1-2.5-2.7V104.2z
		 M250.6,109.9c0,1,0.4,1.6,1.3,1.6s1.3-0.6,1.3-1.6v-5.7c0-1-0.4-1.6-1.3-1.6s-1.3,0.6-1.3,1.6V109.9z"/>
	<path class="st4" d="M271.8,104.2c0,3.3-3.7,4.5-3.7,7v0.2h3.6v1.1h-4.8v-0.9c0-3.5,3.7-4.2,3.7-7.2c0-1.1-0.4-1.7-1.3-1.7
		s-1.3,0.6-1.3,1.6v1h-1.1v-0.9c0-1.7,0.8-2.8,2.4-2.8C271,101.5,271.8,102.6,271.8,104.2z"/>
	<path class="st4" d="M274.1,105v1.5h-1.2V105H274.1z M274.1,110.9v1.5h-1.2v-1.5H274.1z"/>
	<path class="st4" d="M275.2,104.2c0-1.7,0.8-2.7,2.5-2.7s2.5,1,2.5,2.7v5.6c0,1.7-0.8,2.7-2.5,2.7s-2.5-1.1-2.5-2.7V104.2z
		 M276.4,109.9c0,1,0.4,1.6,1.3,1.6s1.3-0.6,1.3-1.6v-5.7c0-1-0.4-1.6-1.3-1.6s-1.3,0.6-1.3,1.6V109.9z"/>
	<path class="st4" d="M281.3,104.2c0-1.7,0.8-2.7,2.5-2.7s2.5,1,2.5,2.7v5.6c0,1.7-0.8,2.7-2.5,2.7s-2.5-1.1-2.5-2.7V104.2z
		 M282.5,109.9c0,1,0.4,1.6,1.3,1.6s1.3-0.6,1.3-1.6v-5.7c0-1-0.4-1.6-1.3-1.6s-1.3,0.6-1.3,1.6V109.9z"/>
	<path class="st4" d="M305.8,110.3v2.2h-1.2v-2.2h-3.5v-1.1l3.4-7.6h1.3v7.6h0.9v1.1H305.8z M302.2,109.2h2.4v-5.4L302.2,109.2z"/>
	<path class="st4" d="M308.8,105v1.5h-1.2V105H308.8z M308.8,110.9v1.5h-1.2v-1.5H308.8z"/>
	<path class="st4" d="M309.9,104.2c0-1.7,0.8-2.7,2.5-2.7s2.5,1,2.5,2.7v5.6c0,1.7-0.8,2.7-2.5,2.7s-2.5-1.1-2.5-2.7V104.2z
		 M311.1,109.9c0,1,0.4,1.6,1.3,1.6s1.3-0.6,1.3-1.6v-5.7c0-1-0.4-1.6-1.3-1.6s-1.3,0.6-1.3,1.6V109.9z"/>
	<path class="st4" d="M316,104.2c0-1.7,0.8-2.7,2.5-2.7s2.5,1,2.5,2.7v5.6c0,1.7-0.8,2.7-2.5,2.7s-2.5-1.1-2.5-2.7V104.2z
		 M317.2,109.9c0,1,0.4,1.6,1.3,1.6s1.3-0.6,1.3-1.6v-5.7c0-1-0.4-1.6-1.3-1.6s-1.3,0.6-1.3,1.6V109.9z"/>
	<path class="st4" d="M342.8,104.2v0.2h-1.1v-0.3c0-1-0.4-1.6-1.3-1.6s-1.3,0.6-1.3,1.7v2.4c0.3-0.7,1-1.2,1.8-1.2c1.4,0,2,1,2,2.6
		v1.6c0,1.7-0.8,2.7-2.5,2.7s-2.5-1.1-2.5-2.7v-5.5c0-1.7,0.8-2.8,2.5-2.8C342,101.5,342.8,102.5,342.8,104.2z M339,108.3v1.6
		c0,1,0.4,1.6,1.3,1.6s1.3-0.6,1.3-1.6v-1.6c0-1-0.4-1.6-1.3-1.6S339,107.3,339,108.3z"/>
	<path class="st4" d="M345.1,105v1.5h-1.2V105H345.1z M345.1,110.9v1.5h-1.2v-1.5H345.1z"/>
	<path class="st4" d="M346.2,104.2c0-1.7,0.8-2.7,2.5-2.7s2.5,1,2.5,2.7v5.6c0,1.7-0.8,2.7-2.5,2.7s-2.5-1.1-2.5-2.7V104.2z
		 M347.4,109.9c0,1,0.4,1.6,1.3,1.6s1.3-0.6,1.3-1.6v-5.7c0-1-0.4-1.6-1.3-1.6s-1.3,0.6-1.3,1.6V109.9z"/>
	<path class="st4" d="M352.3,104.2c0-1.7,0.8-2.7,2.5-2.7s2.5,1,2.5,2.7v5.6c0,1.7-0.8,2.7-2.5,2.7s-2.5-1.1-2.5-2.7V104.2z
		 M353.5,109.9c0,1,0.4,1.6,1.3,1.6s1.3-0.6,1.3-1.6v-5.7c0-1-0.4-1.6-1.3-1.6s-1.3,0.6-1.3,1.6V109.9z"/>
	<rect x="158.6" y="233.6" class="st5" width="34.1" height="31.2"/>
	<rect x="192.7" y="233.6" class="st6" width="34" height="31.2"/>
	<rect x="226.7" y="233.6" class="st5" width="34.1" height="31.2"/>
	<rect x="260.8" y="233.6" class="st5" width="34.1" height="31.2"/>
	<rect x="294.9" y="233.6" class="st5" width="34.1" height="31.2"/>
	<rect x="329" y="233.6" class="st7" width="33.1" height="31.2"/>
	<line class="st8" x1="60" y1="119" x2="143.1" y2="119"/>
	<line class="st8" x1="60" y1="129.2" x2="143.1" y2="129.2"/>
	<line class="st8" x1="60" y1="139.4" x2="143.1" y2="139.4"/>
	<line class="st8" x1="60" y1="149.7" x2="143.1" y2="149.7"/>
	<line class="st8" x1="60" y1="159.9" x2="143.1" y2="159.9"/>
	<line class="st8" x1="60" y1="170.1" x2="143.1" y2="170.1"/>
	<line class="st8" x1="60" y1="180.3" x2="143.1" y2="180.3"/>
	<line class="st8" x1="60" y1="190.6" x2="143.1" y2="190.6"/>
	<line class="st8" x1="60" y1="200.8" x2="143.1" y2="200.8"/>
	<line class="st8" x1="60" y1="211" x2="143.1" y2="211"/>
	<line class="st8" x1="60" y1="221.2" x2="143.1" y2="221.2"/>
	<line class="st8" x1="60" y1="231.4" x2="143.1" y2="231.4"/>
	<line class="st8" x1="60" y1="241.7" x2="143.1" y2="241.7"/>
	<line class="st8" x1="60" y1="251.9" x2="143.1" y2="251.9"/>
	<line class="st8" x1="60" y1="262.1" x2="143.1" y2="262.1"/>
	<line class="st8" x1="60" y1="272.3" x2="143.1" y2="272.3"/>
	<line class="st8" x1="60" y1="282.6" x2="143.1" y2="282.6"/>
	<line class="st8" x1="60" y1="292.8" x2="143.1" y2="292.8"/>
	<line class="st8" x1="60" y1="303" x2="143.1" y2="303"/>
	<rect x="158.6" y="119" class="st5" width="34.1" height="31.2"/>
	<rect x="192.7" y="119" class="st9" width="34" height="31.2"/>
	<rect x="226.7" y="119" class="st10" width="34.1" height="31.2"/>
	<rect x="260.8" y="119" class="st5" width="34.1" height="31.2"/>
	<rect x="294.9" y="119" class="st5" width="34.1" height="31.2"/>
	<rect x="329" y="119" class="st7" width="33.1" height="31.2"/>
	<rect x="158.6" y="157.2" class="st5" width="34.1" height="31.2"/>
	<rect x="192.7" y="157.2" class="st9" width="34" height="31.2"/>
	<rect x="226.7" y="157.2" class="st5" width="34.1" height="31.2"/>
	<rect x="260.8" y="157.2" class="st5" width="34.1" height="31.2"/>
	<rect x="294.9" y="157.2" class="st5" width="34.1" height="31.2"/>
	<rect x="329" y="157.2" class="st7" width="33.1" height="31.2"/>
	<rect x="158.6" y="195.3" class="st5" width="34.1" height="31.2"/>
	<rect x="192.7" y="195.3" class="st6" width="34" height="31.2"/>
	<rect x="226.7" y="195.3" class="st5" width="34.1" height="31.2"/>
	<rect x="260.8" y="195.3" class="st5" width="34.1" height="31.2"/>
	<rect x="294.9" y="195.3" class="st10" width="34.1" height="31.2"/>
	<rect x="329" y="195.3" class="st7" width="33.1" height="31.2"/>
	<rect x="158.6" y="271.8" class="st5" width="34.1" height="31.2"/>
	<rect x="192.7" y="271.8" class="st6" width="34" height="31.2"/>
	<rect x="226.7" y="271.8" class="st10" width="34.1" height="31.2"/>
	<rect x="260.8" y="271.8" class="st10" width="34.1" height="31.2"/>
	<rect x="294.9" y="271.8" class="st10" width="34.1" height="31.2"/>
	<rect x="329" y="271.8" class="st7" width="33.1" height="31.2"/>
</g>
</svg>
