<?xml version="1.0" encoding="utf-8"?>
<!-- Generator: Adobe Illustrator 22.0.1, SVG Export Plug-In . SVG Version: 6.00 Build 0)  -->
<svg version="1.1" id="Camada_1" xmlns="http://www.w3.org/2000/svg" xmlns:xlink="http://www.w3.org/1999/xlink" x="0px" y="0px"
	 viewBox="0 0 425.2 368.5" style="enable-background:new 0 0 425.2 368.5;" xml:space="preserve">
<style type="text/css">
	.st0{fill:#87EBC8;}
	.st1{opacity:0.8;fill:#FFFFFF;enable-background:new    ;}
	.st2{opacity:0.8;fill:#87EBC8;enable-background:new    ;}
	.st3{fill:#27303F;stroke:#27303F;stroke-width:1.0978;stroke-miterlimit:10;}
	.st4{clip-path:url(#SVGID_2_);}
	.st5{opacity:0.1;fill:#27303F;enable-background:new    ;}
	.st6{fill:none;stroke:#27303F;stroke-width:1.0978;stroke-miterlimit:10;}
	.st7{fill:#FFFFFF;}
	.st8{opacity:0.5;fill:#FFFFFF;enable-background:new    ;}
	.st9{fill:#FFFFFF;stroke:#27303F;stroke-width:1.0978;stroke-miterlimit:10;}
</style>
<g id="freepik--background-simple--inject-1--inject-33">
	<path class="st0" d="M340.5,17.3c-55.1-37.7-104-6.7-128.4,26.4s-42.6,66.4-73.3,72.5S61.6,106.8,26.9,136s-34.5,106.7-7.1,150.6
		s98.5,65,180.4,79.1c29.4,5.3,59.4,3.3,88.1-5.8l37.2-16.1c18.2-9.9,33.4-21.1,46.3-30.2c19.6-13.8,26.5-47.6,30.3-72.3
		c5.4-37,5-75-1.4-111.8C392.6,82.9,373.8,40,340.5,17.3z"/>
	<path class="st1" d="M340.5,17.3c-55.1-37.7-104-6.7-128.4,26.4s-42.6,66.4-73.3,72.5S61.6,106.8,26.9,136s-34.5,106.7-7.1,150.6
		s98.5,65,180.4,79.1c29.4,5.3,59.4,3.3,88.1-5.8l37.2-16.1c18.2-9.9,33.4-21.1,46.3-30.2c19.6-13.8,26.5-47.6,30.3-72.3
		c5.4-37,5-75-1.4-111.8C392.6,82.9,373.8,40,340.5,17.3z"/>
	<path class="st2" d="M424.8,63.4c-1.2-24.6-15.3-32.7-24.2-21c-4.3,5.8-5.6,14-3.2,21.3c3.1,10.1,8.5,28,11.7,42.1
		c4.7,20.7,3.1,36.7,8.7,28.3S426.4,94.5,424.8,63.4z"/>
	<path class="st1" d="M424.8,63.4c-1.2-24.6-15.3-32.7-24.2-21c-4.3,5.8-5.6,14-3.2,21.3c3.1,10.1,8.5,28,11.7,42.1
		c4.7,20.7,3.1,36.7,8.7,28.3S426.4,94.5,424.8,63.4z"/>
	<path class="st0" d="M186.9,59.6c8.7-1.9,19.7-26.4,33.9-36.7C234.9,12.5,222.3,5,209,12.5c0,0-10.2,2.8-18.1,21.7
		C183,53,178.2,61.5,186.9,59.6z"/>
	<path class="st1" d="M186.9,59.6c8.7-1.9,19.7-26.4,33.9-36.7C234.9,12.5,222.3,5,209,12.5c0,0-10.2,2.8-18.1,21.7
		C183,53,178.2,61.5,186.9,59.6z"/>
	<path class="st0" d="M172.7,46.4c7-3.4,14.7-26.2,6.7-25.1c-2.1,0.4-3.8,2-4.6,4.3C172.2,32.4,166.4,49.5,172.7,46.4z"/>
	<path class="st1" d="M172.7,46.4c7-3.4,14.7-26.2,6.7-25.1c-2.1,0.4-3.8,2-4.6,4.3C172.2,32.4,166.4,49.5,172.7,46.4z"/>
</g>
<g id="freepik--character-1--inject-1--inject-33">
	<path class="st3" d="M350.8,247.8L69.2,206.6c-1.8-0.3-3.2-2-2.9-3.8l23.4-160c0.3-1.8,2-3.2,3.8-2.9l0,0l5.3,0.7
		c1.4,0.2,2.8-0.4,3.4-1.7l7-12.3c0.2-0.4,0.5-0.7,0.9-1c1.7-1.2,3.7-1.7,5.8-1.4l71,10.4c1.6,0.2,3.1,1,4.3,2
		c0.3,0.3,0.5,0.6,0.7,1.1l6.3,15.7c0.4,1.2,1.5,1.9,2.7,2.1l174.2,25.6c1.8,0.3,3.2,2,2.9,3.8l-23.4,159.9
		C354.4,246.8,352.7,248.1,350.8,247.8z"/>
	<path class="st0" d="M353.8,247.1H74.7c-3.4,0-6.2-2.8-6.2-6.2V84.7c0-3.4,2.8-6.2,6.2-6.2h0.7c2.6,0,4.8-1.5,5.8-3.8L85.4,64
		c0.4-1.3,1.4-2.2,2.5-3c1.2-0.7,2.6-1.1,4-1.1h71.7c1,0,1.9,0.2,2.8,0.5c1.3,0.5,2.3,1.4,3,2.6l7.4,12.5c1.1,1.9,3.1,3.1,5.3,3.1
		h171.7c3.4,0,6.2,2.8,6.2,6.2V241C359.9,244.3,357.2,247.1,353.8,247.1z"/>
	<g>
		<g>
			<g>
				<defs>
					<path id="SVGID_1_" d="M353.8,247.1H74.7c-3.4,0-6.2-2.8-6.2-6.2V84.7c0-3.4,2.8-6.2,6.2-6.2h0.7c2.6,0,4.8-1.5,5.8-3.8
						L85.4,64c0.4-1.3,1.4-2.2,2.5-3c1.2-0.7,2.6-1.1,4-1.1h71.7c1,0,1.9,0.2,2.8,0.5c1.3,0.5,2.3,1.4,3,2.6l7.4,12.5
						c1.1,1.9,3.1,3.1,5.3,3.1h171.7c3.4,0,6.2,2.8,6.2,6.2V241C359.9,244.3,357.2,247.1,353.8,247.1z"/>
				</defs>
				<clipPath id="SVGID_2_">
					<use xlink:href="#SVGID_1_"  style="overflow:visible;"/>
				</clipPath>
				<g class="st4">
					<path class="st5" d="M353.8,247.1H74.7c-3.4,0-6.2-2.8-6.2-6.2V84.7c0-3.4,2.8-6.2,6.2-6.2h0.7c2.6,0,4.8-1.5,5.8-3.8L85.4,64
						c0.4-1.3,1.4-2.2,2.5-3c1.2-0.7,2.6-1.1,4-1.1h71.7c1,0,1.9,0.2,2.8,0.5c1.3,0.5,2.3,1.4,3,2.6l7.4,12.5
						c1.1,1.9,3.1,3.1,5.3,3.1h171.7c3.4,0,6.2,2.8,6.2,6.2V241C359.9,244.3,357.2,247.1,353.8,247.1z"/>
				</g>
			</g>
		</g>
	</g>
	<path class="st6" d="M353.8,247.1H74.7c-3.4,0-6.2-2.8-6.2-6.2V84.7c0-3.4,2.8-6.2,6.2-6.2h0.7c2.6,0,4.8-1.5,5.8-3.8L85.4,64
		c0.4-1.3,1.4-2.2,2.5-3c1.2-0.7,2.6-1.1,4-1.1h71.7c1,0,1.9,0.2,2.8,0.5c1.3,0.5,2.3,1.4,3,2.6l7.4,12.5c1.1,1.9,3.1,3.1,5.3,3.1
		h171.7c3.4,0,6.2,2.8,6.2,6.2V241C359.9,244.3,357.2,247.1,353.8,247.1z"/>
	<path class="st7" d="M147.4,78h-44.6c-2.2,0-4-1.8-4-4l0,0l0,0c0-2.2,1.8-4,4-4l0,0h44.6c2.2,0,4,1.8,4,4l0,0
		C151.5,76.2,149.7,78,147.4,78L147.4,78z"/>
	<path class="st3" d="M353.8,274.3H74.7c-3.4,0-6.2-2.8-6.2-6.2V112c0-3.4,2.8-6.2,6.2-6.2h0.7c2.6,0,4.8-1.5,5.8-3.8l4.3-10.7
		c0.4-1.3,1.4-2.2,2.5-3c1.2-0.7,2.6-1.1,4-1.1h71.7c1,0,1.9,0.2,2.8,0.5c1.3,0.5,2.3,1.4,3,2.6l7.4,12.5c1.1,1.9,3.1,3.1,5.3,3.1
		h171.7c3.4,0,6.2,2.8,6.2,6.2v156.1C359.9,271.6,357.2,274.3,353.8,274.3z"/>
	<path class="st0" d="M168.8,45.8l-44.3-5.5c-2.2-0.3-3.7-2.2-3.5-4.5l0,0c0.3-2.2,2.3-3.7,4.5-3.5l44.3,5.5
		c2.2,0.3,3.7,2.2,3.5,4.5l0,0C173,44.5,171,46.1,168.8,45.8L168.8,45.8z"/>
	<path class="st8" d="M168.8,45.8l-44.3-5.5c-2.2-0.3-3.7-2.2-3.5-4.5l0,0c0.3-2.2,2.3-3.7,4.5-3.5l44.3,5.5
		c2.2,0.3,3.7,2.2,3.5,4.5l0,0C173,44.5,171,46.1,168.8,45.8L168.8,45.8z"/>
	<path class="st0" d="M147.4,105.3h-44.6c-2.2,0-4-1.8-4-4l0,0l0,0c0-2.2,1.8-4,4-4h44.6c2.2,0,4,1.8,4,4l0,0
		C151.5,103.4,149.7,105.3,147.4,105.3z"/>
	<path class="st8" d="M147.4,105.3h-44.6c-2.2,0-4-1.8-4-4l0,0l0,0c0-2.2,1.8-4,4-4h44.6c2.2,0,4,1.8,4,4l0,0
		C151.5,103.4,149.7,105.3,147.4,105.3z"/>
	<path class="st7" d="M65.6,152.8h297.3c3.2,0,5.8,2.6,5.8,5.8v179.9c0,3.2-2.6,5.8-5.8,5.8H65.6c-3.2,0-5.8-2.6-5.8-5.8v-180
		C59.7,155.3,62.4,152.8,65.6,152.8z"/>
	<g>
		<g>
			<g>
				<defs>
					<path id="SVGID_3_" d="M65.6,152.8h297.3c3.2,0,5.8,2.6,5.8,5.8v179.9c0,3.2-2.6,5.8-5.8,5.8H65.6c-3.2,0-5.8-2.6-5.8-5.8v-180
						C59.7,155.3,62.4,152.8,65.6,152.8z"/>
				</defs>
				<clipPath id="SVGID_4_">
					<use xlink:href="#SVGID_3_"  style="overflow:visible;"/>
				</clipPath>
			</g>
		</g>
	</g>
	<path class="st6" d="M65.6,152.8h297.3c3.2,0,5.8,2.6,5.8,5.8v179.9c0,3.2-2.6,5.8-5.8,5.8H65.6c-3.2,0-5.8-2.6-5.8-5.8v-180
		C59.7,155.3,62.4,152.8,65.6,152.8z"/>
	<path class="st6" d="M64.2,169.6v-7.7c0-3.2,2.6-5.8,5.8-5.8h12.7"/>
	<line class="st6" x1="64.2" y1="286.3" x2="64.2" y2="179"/>
	<path class="st6" d="M364.2,322.9V335c0,3.2-2.6,5.8-5.8,5.8l0,0h-10.1"/>
	<line class="st6" x1="364.2" y1="166.8" x2="364.2" y2="313.9"/>
	<path class="st3" d="M168.3,222.8h91.8c1.7,0,3,1.4,3,3v46.9c0,1.7-1.4,3-3,3h-91.8c-1.7,0-3-1.4-3-3v-46.9
		C165.3,224.1,166.7,222.8,168.3,222.8z"/>
	<path class="st9" d="M168.3,222.8h91.8c1.7,0,3,1.4,3,3v10.1c0,1.7-1.4,3-3,3h-91.8c-1.7,0-3-1.4-3-3v-10.1
		C165.3,224.1,166.7,222.8,168.3,222.8z"/>
</g>
</svg>
