<?xml version="1.0" encoding="utf-8"?>
<!-- Generator: Adobe Illustrator 22.0.1, SVG Export Plug-In . SVG Version: 6.00 Build 0)  -->
<svg version="1.1" id="Camada_1" xmlns="http://www.w3.org/2000/svg" xmlns:xlink="http://www.w3.org/1999/xlink" x="0px" y="0px"
	 viewBox="0 0 425.2 368.5" style="enable-background:new 0 0 425.2 368.5;" xml:space="preserve">
<style type="text/css">
	.st0{fill:#87EBC8;}
	.st1{opacity:0.7;enable-background:new    ;}
	.st2{fill:#FFFFFF;}
	.st3{fill:none;stroke:#27303F;stroke-width:0.8396;stroke-miterlimit:10;}
	.st4{fill:#27303F;}
	.st5{fill:none;stroke:#27303F;stroke-miterlimit:10;}
	.st6{fill:#F7F4ED;}
	.st7{clip-path:url(#SVGID_2_);}
	.st8{opacity:0.17;fill:#27303F;enable-background:new    ;}
	.st9{fill:#91EDCC;stroke:#27303F;stroke-width:0.9098;stroke-miterlimit:10;}
	.st10{fill:none;stroke:#27303F;stroke-width:0.9098;stroke-linecap:round;stroke-linejoin:round;}
	.st11{opacity:0.17;}
	.st12{fill:none;stroke:#27303F;stroke-width:0.9098;stroke-miterlimit:10;}
	.st13{fill:none;stroke:#27303F;stroke-width:1.1554;stroke-miterlimit:10;}
	.st14{fill:#27303F;stroke:#27303F;stroke-miterlimit:10;}
	.st15{fill:#F7F4ED;stroke:#27303F;stroke-linecap:round;stroke-linejoin:round;}
	.st16{fill:none;stroke:#27303F;stroke-linecap:round;stroke-linejoin:round;}
</style>
<g id="freepik--background-simple--inject-67">
	<path class="st0" d="M288.3,5.1c0,0-69.9-20.8-138.9,21.3S45.2,146.9,15,209.9S1.5,334.5,53.8,360.4s88.3-17.9,161.9-23.6
		s93.4,3.6,154.7-40s73-139.9,25.3-208.3S288.3,5.1,288.3,5.1z"/>
</g>
<g id="freepik--background-simple--inject-67_1_" class="st1">
	<path class="st2" d="M288.3,5.1c0,0-69.9-20.8-138.9,21.3S45.2,146.9,15,209.9S1.5,334.5,53.8,360.4s88.3-17.9,161.9-23.6
		s93.4,3.6,154.7-40s73-139.9,25.3-208.3S288.3,5.1,288.3,5.1z"/>
</g>
<g id="freepik--Plants--inject-67">
	<path class="st0" d="M695.2,376.3c0,0-22.2-39.1-17.1-49c5.1-9.9,18.3,7.9,18.3,7.9s-11.4-36.4-5.1-52.3c6.3-15.9,17.1,0,17.7,11.3
		c0.6,11.3-2.3,30.5-2.3,30.5s4.6-39.7,15.4-27.8c10.8,11.9-13.7,51.6-13.7,51.6s16.5-9.2,16,2.7c-0.6,11.9-19.9,22.5-19.9,22.5"/>
	<path class="st3" d="M695.4,369c0,0-20.6-19.2-10.5-27.8c10.1-8.6,15.3,9.2,15.3,9.2s-11.1-54.9,6.9-56.9s4.7,47.7,4.7,47.7
		s15.3-21.2,14.3-4S702.4,369,702.4,369"/>
	<line class="st3" x1="705.5" y1="365.5" x2="691.6" y2="350.5"/>
	<line class="st3" x1="702.6" y1="366.7" x2="706.4" y2="322.6"/>
	<line class="st3" x1="702" y1="363.5" x2="714.5" y2="347"/>
	<polygon class="st4" points="720,360.4 681.6,360.4 685.4,405.8 716.2,405.8 	"/>
</g>
<line class="st5" x1="14.6" y1="286.7" x2="410.6" y2="286.7"/>
<g id="freepik--Page--inject-67">
	<polygon class="st4" points="136,66.6 126.8,51.9 45.5,51.9 45.5,66.6 45.5,71.9 45.5,316.6 379.7,316.6 379.7,66.6 	"/>
	<rect x="48" y="73.3" class="st6" width="329.5" height="238"/>
	<g>
		<g>
			<defs>
				<rect id="SVGID_1_" x="48" y="73.3" width="329.5" height="238"/>
			</defs>
			<clipPath id="SVGID_2_">
				<use xlink:href="#SVGID_1_"  style="overflow:visible;"/>
			</clipPath>
			<g class="st7">
				<rect x="371.5" y="71.3" class="st8" width="7.7" height="241.7"/>
				<rect x="371.5" y="217.5" class="st8" width="7.7" height="93.6"/>
				<rect x="46.7" y="70.1" class="st9" width="331.3" height="12.9"/>
			</g>
		</g>
	</g>
	<rect x="48" y="73.3" class="st10" width="329.5" height="238"/>
	<g class="st11">
		<path class="st4" d="M219.6,95.6h-23.1c-1.1,0-2.1-0.9-2.1-2.1l0,0l0,0c0-1.1,0.9-2.1,2.1-2.1h23.1c1.1,0,2.1,0.9,2.1,2.1l0,0l0,0
			C221.7,94.7,220.8,95.6,219.6,95.6C219.8,95.6,219.8,95.6,219.6,95.6z"/>
		<path class="st4" d="M265.8,95.6h-23.1c-1.1,0-2.1-0.9-2.1-2.1l0,0l0,0c0-1.1,0.9-2.1,2.1-2.1l0,0h23.1c1.1,0,2.1,0.9,2.1,2.1l0,0
			l0,0C267.9,94.7,266.9,95.6,265.8,95.6z"/>
		<path class="st4" d="M311.9,95.6h-23.1c-1.1,0-2.1-0.9-2.1-2.1l0,0c0-1.1,0.9-2.1,2.1-2.1l0,0h23.1c1.1,0,2.1,0.9,2.1,2.1l0,0l0,0
			C313.9,94.7,313,95.6,311.9,95.6z"/>
		<path class="st4" d="M358,95.6h-23.1c-1.1,0-2.1-0.9-2.1-2.1l0,0c0-1.1,0.9-2.1,2.1-2.1l0,0H358c1.1,0,2.1,0.9,2.1,2.1l0,0l0,0
			C360.1,94.7,359.1,95.6,358,95.6L358,95.6z"/>
	</g>
	<rect x="57.2" y="105.9" class="st12" width="196.2" height="115.3"/>
	<line class="st13" x1="58.2" y1="233.1" x2="149" y2="233.1"/>
	<line class="st13" x1="58.2" y1="244.9" x2="149" y2="244.9"/>
	<line class="st13" x1="58.2" y1="256.8" x2="149" y2="256.8"/>
	<line class="st13" x1="58.2" y1="268.6" x2="149" y2="268.6"/>
	<line class="st13" x1="162.6" y1="233.1" x2="253.5" y2="233.1"/>
	<line class="st13" x1="162.6" y1="244.9" x2="253.5" y2="244.9"/>
	<line class="st13" x1="162.6" y1="256.8" x2="253.5" y2="256.8"/>
	<line class="st13" x1="162.6" y1="268.6" x2="253.5" y2="268.6"/>
	<path class="st12" d="M67.4,109.9c-3.6,0-6.5,2.9-6.5,6.5c0,3.6,2.9,6.5,6.5,6.5s6.5-2.9,6.5-6.5l0,0
		C73.9,112.8,71,109.9,67.4,109.9z M68.3,117.9l-2.8,1.6V113l2.7,1.6l2.8,1.6L68.3,117.9z"/>
	<rect x="264" y="105.9" class="st12" width="87.3" height="69.9"/>
	<polygon class="st12" points="351.2,155.2 338,141.5 321.2,149.8 289.8,123.3 264,151.5 264,175.7 351.2,175.7 	"/>
	<circle class="st12" cx="322.3" cy="121.6" r="8"/>
	<rect x="264" y="190.4" class="st12" width="87.3" height="69.9"/>
	<polygon class="st12" points="351.2,239.7 338,226 321.2,234.4 289.8,207.8 264,236 264,260.3 351.2,260.3 	"/>
	<ellipse class="st12" cx="322.7" cy="204.9" rx="8" ry="8"/>
</g>
<g>
	<path class="st14" d="M316.8,201.3h65.1c3.7,0,6.8,3,6.8,6.8v128.2c0,3.7-3,6.8-6.8,6.8h-65.1c-3.7,0-6.8-3-6.8-6.8V208.1
		C310.1,204.3,313.1,201.3,316.8,201.3z"/>
	<path class="st6" d="M354.8,209.8H345c-0.6,0-1-0.4-1-1l0,0c0-0.6,0.4-1,1-1h9.8c0.6,0,1,0.4,1,1l0,0
		C355.8,209.3,355.4,209.8,354.8,209.8z"/>
	<path class="st15" d="M383.7,330.3H315V209.9h16.3l1.8,1.5c0.6,0.5,1.4,0.8,2.3,0.8h28.7c0.9,0,1.7-0.3,2.4-0.9l1.6-1.5h15.6
		L383.7,330.3z"/>
	<path class="st6" d="M351.5,334.1c0-0.9-0.7-1.6-1.6-1.6s-1.6,0.7-1.6,1.6c0,0.9,0.7,1.6,1.6,1.6c0,0,0,0,0,0
		C350.8,335.6,351.5,334.9,351.5,334.1C351.5,334.1,351.5,334.1,351.5,334.1z"/>
	<line class="st16" x1="380" y1="306" x2="319" y2="306"/>
	<line class="st16" x1="380" y1="311.2" x2="319" y2="311.2"/>
	<line class="st16" x1="380" y1="316.4" x2="319" y2="316.4"/>
	<line class="st16" x1="380" y1="321.6" x2="319" y2="321.6"/>
	<line class="st16" x1="380" y1="326.8" x2="319" y2="326.8"/>
	<path class="st15" d="M320.8,218.1h57.8c1,0,1.8,0.8,1.8,1.8v9.7c0,1-0.8,1.8-1.8,1.8h-57.8c-1,0-1.8-0.8-1.8-1.8v-9.7
		C319,218.9,319.8,218.1,320.8,218.1z"/>
	<path class="st15" d="M320.3,234.9h58.3c1,0,1.8,0.8,1.8,1.8v9.7c0,1-0.8,1.8-1.8,1.8h-58.3c-1,0-1.8-0.8-1.8-1.8v-9.7
		C318.5,235.7,319.3,234.9,320.3,234.9z"/>
	<path class="st15" d="M320.3,254.1h58.3c1,0,1.8,0.8,1.8,1.8v9.7c0,1-0.8,1.8-1.8,1.8h-58.3c-1,0-1.8-0.8-1.8-1.8v-9.7
		C318.5,254.9,319.3,254.1,320.3,254.1z"/>
	<path class="st15" d="M322,270.7h54.6c1.9,0,3.5,1.6,3.5,3.5v25.1c0,1.9-1.6,3.5-3.5,3.5H322c-1.9,0-3.5-1.6-3.5-3.5v-25.1
		C318.5,272.2,320.1,270.7,322,270.7z"/>
	<path class="st15" d="M356.9,278.8c0-2.5-2-4.6-4.6-4.6c-2.5,0-4.6,2-4.6,4.6c0,2.5,2,4.6,4.6,4.6
		C354.9,283.4,356.9,281.3,356.9,278.8L356.9,278.8z"/>
	<path class="st15" d="M322.1,302.8h54.4c2,0,3.6-1.1,3.6-2.4V289l-17.2-8.3l-12.3,14.2l-10.1-6.9l-20.1,14.5
		C320.9,302.7,321.5,302.8,322.1,302.8z"/>
</g>
</svg>
