<svg id="Camada_1" data-name="Camada 1" xmlns="http://www.w3.org/2000/svg" xmlns:xlink="http://www.w3.org/1999/xlink" viewBox="0 0 450 450"><defs><style>.cls-1,.cls-11,.cls-15,.cls-17,.cls-18,.cls-19,.cls-2{fill:none;}.cls-11,.cls-12,.cls-13,.cls-14,.cls-15,.cls-17,.cls-2,.cls-5,.cls-7{stroke:#3c50ff;}.cls-13,.cls-15,.cls-17,.cls-18,.cls-19,.cls-2,.cls-5{stroke-linecap:round;stroke-linejoin:round;}.cls-11,.cls-12,.cls-13,.cls-14,.cls-15,.cls-18,.cls-19,.cls-2,.cls-5,.cls-7{stroke-width:1.1px;}.cls-2{stroke-dasharray:4.41;}.cls-3,.cls-7{fill:#87ebc8;}.cls-4{fill:#32d7b4;opacity:0.35;}.cls-16,.cls-18,.cls-4{isolation:isolate;}.cls-10,.cls-12,.cls-5{fill:#d8dcff;}.cls-13,.cls-14,.cls-16,.cls-6{fill:#f5f5f5;}.cls-11,.cls-12,.cls-14,.cls-7{stroke-miterlimit:10;}.cls-8{fill:#3c50ff;}.cls-9{clip-path:url(#clip-path);}.cls-16{opacity:0.5;}.cls-17{stroke-width:2.21px;}.cls-18,.cls-19{stroke:#f5f5f5;}.cls-18{opacity:0.2;}</style><clipPath id="clip-path"><path class="cls-1" d="M399.69,97V263.31a20.8,20.8,0,0,1-20.8,20.8h-299a20.8,20.8,0,0,1-20.4-16.76v-.06a21.35,21.35,0,0,1-.38-4V97Z"/></clipPath></defs><title>Prancheta 1</title><g id="freepik--Lines--inject-176"><path class="cls-2" d="M57,181.51H51.59a21.93,21.93,0,0,0-21.93,21.93V323.79a21.93,21.93,0,0,0,21.93,21.93H126a21.93,21.93,0,0,0,21.93-21.93h0"/><path class="cls-2" d="M141.82,68.06V34.56a13.43,13.43,0,0,1,13.4-13.43h96.7a13.43,13.43,0,0,1,13.42,13c0,.15,0,6.91,0,7.06V34.56"/></g><g id="freepik--Shadow--inject-176"><ellipse class="cls-3" cx="228.82" cy="402.1" rx="191.52" ry="26.76"/><ellipse class="cls-4" cx="228.82" cy="402.1" rx="191.52" ry="26.76"/></g><g id="freepik--Window--inject-176"><path class="cls-5" d="M409.36,90.23v180a22.19,22.19,0,0,1-22.19,22.2H70.47a22.19,22.19,0,0,1-22.19-22.2v-180a11.86,11.86,0,0,1,.07-1.56A22.17,22.17,0,0,1,70.47,68h316.7A22.18,22.18,0,0,1,409.29,88.7,15,15,0,0,1,409.36,90.23Z"/><path class="cls-6" d="M59.08,97H399.69V263.31a20.8,20.8,0,0,1-20.8,20.8h-299a20.8,20.8,0,0,1-20.8-20.8V97h0Z"/><path class="cls-6" d="M59.08,97H399.69V263.31a20.8,20.8,0,0,1-20.8,20.8h-299a20.8,20.8,0,0,1-20.8-20.8V97h0Z"/><path class="cls-7" d="M409.29,88.7H48.35A22.19,22.19,0,0,1,70.47,68.06h316.7A22.19,22.19,0,0,1,409.29,88.7Z"/><path class="cls-8" d="M92.7,78.34a3.93,3.93,0,1,1-3.93-3.93,3.92,3.92,0,0,1,3.93,3.93Z"/><path class="cls-8" d="M109.32,78.34a3.93,3.93,0,1,1-3.93-3.93,3.92,3.92,0,0,1,3.93,3.93Z"/><circle class="cls-8" cx="122.01" cy="78.34" r="3.93"/><g class="cls-9"><path class="cls-10" d="M399.37,122.7a21.43,21.43,0,0,0-4.62-1.91l-1.87-8.35h-7.94l-1.85,8.35a20.9,20.9,0,0,0-4.64,1.91l-7.17-4.58-5.61,5.58,4.51,7.17a20.35,20.35,0,0,0-1.91,4.64l-8.35,1.86v7.94l8.35,1.86a20.21,20.21,0,0,0,1.91,4.67l-4.59,7.22,5.62,5.61,7.21-4.59a20.85,20.85,0,0,0,4.63,1.92l1.86,8.34h7.91l1.86-8.34a21.47,21.47,0,0,0,4.62-1.92l.37.24V122.51Zm-10.44,29a10.26,10.26,0,1,1,10.26-10.25h0a10.24,10.24,0,0,1-10.25,10.25Z"/><path class="cls-10" d="M256.27,131.26V114.51l-17.6-3.91a45.63,45.63,0,0,0-4-9.77l2.13-3.35H153.7l2.05,3.26a43.2,43.2,0,0,0-4,9.76l-17.61,3.92V131.2l17.61,3.93a43.43,43.43,0,0,0,4,9.84l-9.67,15.21L157.93,172l15.2-9.68a43.71,43.71,0,0,0,9.77,4L186.82,184h16.7l3.94-17.59a45.13,45.13,0,0,0,9.74-4.05L232.41,172l11.84-11.83-9.61-15.22a45.56,45.56,0,0,0,4-9.75Zm-61,13.25a21.63,21.63,0,1,1,21.63-21.63,21.62,21.62,0,0,1-21.63,21.63Z"/><path class="cls-10" d="M251.42,225.9a27.27,27.27,0,0,0,.81-6.3l9.55-5-2.64-9.69-10.78.5a27.51,27.51,0,0,0-3.87-5l3.19-10.31-8.7-5L231.7,193a29.42,29.42,0,0,0-6.27-.8l-5-9.55-9.68,2.63.51,10.79a28.07,28.07,0,0,0-5,3.87l-10.32-3.19-5,8.69,8,7.27a26.08,26.08,0,0,0-.79,6.27l-9.57,5,2.64,9.68,10.8-.51a25,25,0,0,0,3.85,5l-3.21,10.26,8.71,5,7.24-7.88a25.69,25.69,0,0,0,6.29.79l5,9.56,9.68-2.63-.43-9.22-.07-1.58a26.11,26.11,0,0,0,5.06-3.87l10.31,3.2,4.26-7.44.72-1.26Zm-22.87,5.88a13,13,0,1,1,9.08-16l0,.09a13,13,0,0,1-9.1,15.9Z"/><path class="cls-10" d="M362.14,242.94l2.2-13.3-13.46-5.41a35.15,35.15,0,0,0-1.93-8.3l9.69-10.79-7.84-11-13.36,5.67a35,35,0,0,0-7.22-4.48l-.78-14.49-13.3-2.2L310.69,192a36.73,36.73,0,0,0-8.27,2L291.6,184.3l-11,7.84,5.68,13.35a36.07,36.07,0,0,0-4.05,6.29c-.15.31-.31.62-.45.93l-14.48.8-2.21,13.28,2.18.88,11.28,4.55a35.56,35.56,0,0,0,1.93,8.26l-9.71,10.86,7.85,11L292,256.63a34.38,34.38,0,0,0,7.21,4.52l.75,14.42,13.29,2.21,5.44-13.3a35.63,35.63,0,0,0,8.28-1.94l10.8,9.69,11-7.85L343.11,251a35,35,0,0,0,4.55-7.25Zm-37.3-.6a17.41,17.41,0,1,1,4-24.3h0a17.42,17.42,0,0,1-4,24.3Z"/></g><path class="cls-11" d="M399.69,97V263.31a20.8,20.8,0,0,1-20.8,20.8h-299a20.8,20.8,0,0,1-20.4-16.76v-.06a21.35,21.35,0,0,1-.38-4V97Z"/></g><g id="freepik--Graphics--inject-176"><rect class="cls-12" x="68.73" y="144.48" width="130.8" height="171.01" rx="13.11" ry="13.11"/><path class="cls-13" d="M211.7,170.51V315.29a13.1,13.1,0,0,1-13.1,13.12H94a13.1,13.1,0,0,1-13.1-13.12h0V170.51A13.11,13.11,0,0,1,94,157.4H198.59a13.1,13.1,0,0,1,13.11,13.11Z"/><path class="cls-7" d="M211.7,170.51v7.75H80.91v-7.75A13.11,13.11,0,0,1,94,157.4H198.59a13.1,13.1,0,0,1,13.11,13.11Z"/><rect class="cls-3" x="93.21" y="187.23" width="32.18" height="5.4"/><rect class="cls-3" x="93.21" y="235.63" width="32.18" height="5.4"/><rect class="cls-3" x="93.21" y="279.5" width="32.18" height="5.4"/><rect class="cls-8" x="93.21" y="200.6" width="91.39" height="3.96"/><rect class="cls-8" x="93.21" y="208.17" width="74.91" height="3.86"/><rect class="cls-8" x="93.21" y="215.63" width="84.72" height="3.86"/><rect class="cls-8" x="93.21" y="223.06" width="84.72" height="3.86"/><rect class="cls-8" x="93.21" y="244.48" width="91.39" height="3.96"/><rect class="cls-8" x="93.21" y="252.06" width="74.91" height="3.86"/><rect class="cls-8" x="93.21" y="259.5" width="84.72" height="3.86"/><rect class="cls-8" x="93.21" y="292.66" width="91.39" height="3.96"/><rect class="cls-8" x="93.21" y="300.25" width="74.91" height="3.86"/><rect class="cls-8" x="93.21" y="307.69" width="84.72" height="3.86"/><path class="cls-14" d="M354.59,57v58.52A15.63,15.63,0,0,1,339,131.15H204.17a15.64,15.64,0,0,1-15.64-15.62V57a15.66,15.66,0,0,1,15.64-15.64H339A15.65,15.65,0,0,1,354.59,57Z"/><path class="cls-7" d="M354.59,57v1.34H188.53V57a15.66,15.66,0,0,1,15.64-15.64H339A15.65,15.65,0,0,1,354.59,57Z"/><path class="cls-8" d="M212.93,52.65a2.4,2.4,0,1,1,0-3.4h0A2.41,2.41,0,0,1,212.93,52.65Z"/><path class="cls-8" d="M224.05,52.65a2.4,2.4,0,1,1,0-3.4h0A2.41,2.41,0,0,1,224.05,52.65Z"/><path class="cls-8" d="M235.17,52.65a2.4,2.4,0,1,1,0-3.4h0A2.41,2.41,0,0,1,235.17,52.65Z"/><rect class="cls-2" x="199.12" y="69.09" width="54.28" height="46.92"/><rect class="cls-8" x="261.78" y="69.09" width="62.47" height="3.3"/><rect class="cls-8" x="261.78" y="75.92" width="47.92" height="3.29"/><rect class="cls-8" x="261.78" y="82.72" width="71.35" height="3.33"/><rect class="cls-8" x="261.78" y="89.35" width="60.76" height="3.33"/><rect class="cls-13" x="322.05" y="202.23" width="43.61" height="30.99" rx="6.53" ry="6.53"/><polyline class="cls-15" points="336.12 211.56 327.73 216.81 335.52 223.72"/><polyline class="cls-15" points="351.4 224.22 358.94 217.79 350.24 212.09"/><line class="cls-15" x1="340.2" y1="228.17" x2="346.39" y2="208.76"/></g><g id="freepik--Character--inject-176"><path class="cls-3" d="M275.68,397.17s-29,8.31-33.05,9.75c-3.68,1.3-13.66,4.8-21.15,3.71a14.31,14.31,0,0,1-2.14-.46c-7.59-2.26-11-4.36-12-9.14s2.78-8.29,6.42-10.54,23.38-4.6,23.38-4.6l4.77,1.4h0Z"/><path class="cls-6" d="M221.48,410.63a14.31,14.31,0,0,1-2.14-.46c-7.59-2.26-11-4.36-12-9.14s2.78-8.29,6.42-10.54,23.38-4.6,23.38-4.6l4.77,1.4c-4.32,2-20.4,3.09-23.91,5.11s-5.2,5.82-3.13,11C216,406.1,218.94,408.75,221.48,410.63Z"/><path class="cls-15" d="M271.32,398.35S249.54,404,240.9,407.6s-25.11,5.19-31-2.25-.68-13.85,5.19-15.29,17.74-3.68,24.22-2.77"/><path class="cls-15" d="M221.91,410.25s-11.08-6.08-7.4-14.6c2.72-6.28,17.5-4.93,24.82-8.36"/><path class="cls-3" d="M364,412c-.3,3-1.35,5.81-4.35,7.58-2,1.18-4.84,1.88-8.91,1.84-10.17-.13-29.29-7.4-29.29-7.4l-17.9-9.9,9.31-14.73,2.55-4,6.58,1.48s5.45,3.09,10.93,5.55,18.79,3,23.48,6.77S364.52,407,364,412Z"/><path class="cls-6" d="M364,412c-.3,3-1.35,5.81-4.35,7.58a13.41,13.41,0,0,0-.5-8.94c-2-4.49-8.51-8.45-17.07-9.11s-15.11-4.66-18.54-6.45c-2.68-1.39-8.33-4.43-10.68-5.69l2.55-4,6.58,1.48s5.45,3.09,10.93,5.55,18.79,3,23.48,6.77S364.52,407,364,412Z"/><path class="cls-15" d="M307.53,406.88a112.73,112.73,0,0,0,41.9,14.31c3.26.4,7.05.46,9.23-2a6.81,6.81,0,0,0,1.5-5.1c-.39-4.61-4.26-8.24-8.5-10.08s-8.91-2.25-13.42-3.26a53,53,0,0,1-12.9-4.72c-3.24-1.69-6.37-3.74-9.94-4.5s-7.82.16-9.73,3.28"/><path class="cls-15" d="M357.46,420.44A11.88,11.88,0,0,0,364,412c.65-4.32-1.82-8.69-5.29-11.35s-7.82-3.92-12.11-4.81-8.68-1.48-12.79-3.12c-6.27-2.45-12.46-7.29-19-5.57"/><path class="cls-3" d="M327.73,252l-30.29-11.52-.38-.15s.11-.8.2-2c.19-2.42.29-6.36-.85-7.69-1.69-2-6.47-.32-11.14-2.46s-13.3,1.69-13.3,1.69-6.24-1.15-9,3.35c-1.4,3.63-.92,9-.92,9l-.57.2c-3.61,1.35-23.25,8.74-27.4,11.71-4.59,3.25-9.67,36.62-11.3,46.42s-4.53,18.63-3.06,22,22.57,19.62,34.71,23.81,55.19,3,55.19,3,.7-.19,1.95-.59c7.28-2.34,33.11-12,46.82-34.68C358.41,314.1,345.13,270.56,327.73,252ZM245.89,308.1c-2.23,1.57-1,7.7-1,7.7l-3.79-3.34,9.52-23.41,4.06,18S248.12,306.53,245.89,308.1ZM322.05,323c-1.05.54,3-10.71,1.08-13.27s-7.71-2.3-7.71-2.3l.49-3.08,3.43-17.6,1.14-1.35s11.78,20.19,13.89,27.31C334.37,312.7,321.53,323,322.05,323Z"/><path class="cls-6" d="M270.54,179,254.9,195.56s-2.15,1.91-1.3,6.72,2.85,9,4.36,9.28a23.19,23.19,0,0,0,3.62.32s3.35,7.26,5.73,10.1c0,0,.82,11.21.38,14.33,0,0,5.62,4.91,10.91,5.53s13.46-7.49,13.46-7.49l2-9.92s4.8-7.28,5.12-9.22,2.52-1.44,3.6-2.4,3.57-5.23,4-9.27.44-8.68-4.25-7.32c-4.07-1.09-1.52-9.69-1.52-9.69l-7.15-6.3Z"/><path class="cls-16" d="M297.44,240.44a18.45,18.45,0,0,1-.81,1.81c-2.58,4.86-13.82,14.13-13.82,14.13l-3.4-10.45-1.86,10.45c-3.75-1.64-15.19-11.54-15.19-11.54s-.39-.93-.86-2.39l.57-.2s-.48-5.41.92-9c2.74-4.5,9-3.35,9-3.35s8.63-3.83,13.3-1.69,9.45.48,11.14,2.46.65,9.66.65,9.66Z"/><path class="cls-4" d="M327.73,252l-30.29-11.52-.38-.15s.11-.8.2-2l-.63,3.93-4.48,6.08a123.59,123.59,0,0,1,14,6.16,12.27,12.27,0,0,1,6.4,12.23L307,314.45l-2.29,27.11,6.91,7.17c7.28-2.33,33.11-12,46.82-34.67C358.41,314.1,345.13,270.56,327.73,252Zm-5.68,71c-1.05.54,3-10.71,1.08-13.27s-7.71-2.3-7.71-2.3l.49-3.08,3.43-17.6,1.14-1.35s11.78,20.19,13.89,27.31C334.37,312.7,321.53,323,322.05,323Z"/><path class="cls-4" d="M256.69,309.7,252,294s-8.45-28.81-14.24-35.91l1.52,20.26s-5,24.2-9.57,31.38-5.59,9,0,9,19.2,10.84,19.2,10.84l-1-9Zm-11.87,6.09L241,312.45,250.55,289l4.06,18s-6.52-.48-8.75,1.08S244.82,315.79,244.82,315.79Z"/><path class="cls-15" d="M267.31,222s.86,8.49,0,12.37"/><path class="cls-15" d="M292.93,233.22a36.23,36.23,0,0,1,.94-8.11"/><path class="cls-15" d="M295.2,185.28s5.14,6.45,4.87,11.34-.65,10.66-.52,16.32-9.09,17.51-13.83,18.57-8.82,1.32-11.85-1.71-6.06-7.24-10-12.64-3-17.25-3-17.25"/><path class="cls-15" d="M282.82,204.42a26.78,26.78,0,0,0-.4,5.36,6.06,6.06,0,0,0,1.32,4.2c.57.58,1.39,1.05,1.5,1.86a2,2,0,0,1-1.06,1.75,15,15,0,0,0-1.85,1.1"/><path class="cls-15" d="M274.69,219.31s.59,3.82,5.72,4.63"/><path class="cls-8" d="M275.22,207.34c0,1.11-.48,2-1.07,2s-1.07-.89-1.07-2,.48-2,1.07-2S275.22,206.23,275.22,207.34Z"/><path class="cls-8" d="M290.53,207.81c0,1.11-.48,2-1.07,2s-1.07-.89-1.07-2,.48-2,1.07-2S290.53,206.7,290.53,207.81Z"/><path class="cls-17" d="M287.44,203s5-5,9.19.58"/><path class="cls-17" d="M276.91,203.06s-3.16-3.53-8.14,0"/><path class="cls-8" d="M267.69,226.7s3.05,8.4,9.86,10.8,15.85-10,15.85-10l-.47-1.61s-5.93,7.7-12.52,6.39S267.31,222,267.31,222Z"/><path class="cls-15" d="M261.58,211.56s-4.06,1.42-5.14-1.73-4.78-11.49-1.54-14.27,5.84,3.67,5.84,3.67"/><path class="cls-15" d="M299.54,213.28s3.77.76,4.85-2.4,4.78-11.49,1.54-14.27-5.84,3.67-5.84,3.67"/><path class="cls-8" d="M260.74,207.34a5.66,5.66,0,0,0,3.56-2.11,8.5,8.5,0,0,0,1-3.19,37.51,37.51,0,0,0,.56-6.44,8.87,8.87,0,0,1,.23-2.51,6.52,6.52,0,0,1,1.36-2.22c1.41-1.67,3.12-3.06,4.47-4.78a8,8,0,0,0,2-6,27.46,27.46,0,0,0,22.47,5.81c7.15-1.4,14-7.67,13.17-15.56a6.36,6.36,0,0,0-5-5.47c-3.53-.89-6.7,1-9.9,2.21-5.83,2.2-11.54-1.58-17.43-2.21-5-.56-11.23.08-13.85,5.08,0,0-9,1.06-13,8.5S254,196.18,254,196.18s3-3.67,6.93,3.76Z"/><path class="cls-8" d="M295.82,183.38s-2.34,12.2,3.77,18.11c0,0,1.34-3.67,2.69-4.57a14.14,14.14,0,0,0-1.07-13.54C296.69,176.28,295.82,183.38,295.82,183.38Z"/><path class="cls-18" d="M307,169.51a11.52,11.52,0,0,1-7,7.27c-8.48,3.46-16.71-.37-25.21-1.12-6.93-.62-14.58,5.64-15.07,12.76"/><path class="cls-18" d="M254.45,186.53a14.82,14.82,0,0,1,9-13.08"/><path class="cls-15" d="M265.35,233.22a38.85,38.85,0,0,0,13.21,9s10.15-3,15.31-10"/><circle class="cls-15" cx="271.98" cy="207.32" r="8.98"/><circle class="cls-15" cx="292.03" cy="207.35" r="8.98"/><path class="cls-15" d="M267.31,229.87a7,7,0,0,0-4.33,3.35c-1.59,2.79-.63,11.6-.63,11.6s8.21,8.12,15.2,11.55l2.06-11.59,3.2,11.59s10.82-7.65,13.82-14.12c0,0,1-7.55,0-10a3.49,3.49,0,0,0-3.23-2.37"/><path class="cls-15" d="M254.45,307.41s-3.21-21.5-7.48-30.27"/><path class="cls-15" d="M237.74,258.06a85.92,85.92,0,0,1,6.64,11.1"/><path class="cls-15" d="M322.05,274.1a61.51,61.51,0,0,1,3.53-10.48"/><path class="cls-15" d="M315.42,307.41s2.31-14.74,5.07-26.88"/><path class="cls-15" d="M319.34,286.7a17,17,0,0,1,8.94-6.11"/><path class="cls-15" d="M297.07,240.29s18.63,7.46,30.66,11.68c0,0,14.8,13.91,30.67,62.12,0,0-14.54,24.46-42.2,32.3"/><path class="cls-15" d="M321,323.84l13.37-11.14s7.07-5.36,14.42-1.7"/><path class="cls-15" d="M320.49,285.38s11.05,16.32,13.88,27.32"/><path class="cls-15" d="M245,316.41l-3.91-3.71s-5.8-1-12.38,3.4"/><path class="cls-15" d="M241.06,312.7s4.86-16,9.65-24.19"/><path class="cls-15" d="M262.07,242.25s-26.81,10.06-29.44,13S220,314.44,219.74,320.88c-.23,5.77,20.65,18.69,31,24.15"/><path class="cls-8" d="M282.12,261.26a1.77,1.77,0,1,1-1.77-1.76h0a1.75,1.75,0,0,1,1.77,1.74Z"/><path class="cls-8" d="M313.14,355.48h-61a1.43,1.43,0,0,1-1.43-1.42h0a1.43,1.43,0,0,1,1.43-1.43h61a1.43,1.43,0,0,1,1.43,1.43h0A1.43,1.43,0,0,1,313.14,355.48Z"/><path class="cls-13" d="M315.28,350.7l8.17-38.39a4.09,4.09,0,0,0-3.14-4.85,3.53,3.53,0,0,0-.86-.08h-71.3a4.08,4.08,0,0,0-4.08,4.08,4.43,4.43,0,0,0,.08.8l7.33,37.12a4.1,4.1,0,0,0,3.91,3.29L311.18,354A4.1,4.1,0,0,0,315.28,350.7Z"/><path class="cls-8" d="M289.26,329.53a5.69,5.69,0,1,1-5.69-5.7,5.69,5.69,0,0,1,5.69,5.7Z"/><line class="cls-15" x1="300.45" y1="311.04" x2="308.92" y2="311.04"/><line class="cls-15" x1="260" y1="311.04" x2="292.15" y2="311.04"/><path class="cls-8" d="M315.42,391.47l-6.5,17.06s-16.58-4.18-37.81-8.53c-22.21-4.55-45.4-10.44-57.43-31.55-1.46-2.57-2.44-5.6-1.75-8.48,1.73-7.3,11.22-9.27,17.47-10a111.37,111.37,0,0,1,11.83-.66c2,0,8.65-1.09,10.26.1A47.85,47.85,0,0,0,259.2,354c3.55,1.51,55.37-1.35,55.37-1.35a18.77,18.77,0,0,0,1.63-6.23c8.15-4.15,27-7.65,35-6.09,12.53,2.42,19.84,9.73,18.45,17.39S340.58,385.91,315.42,391.47Z"/><path class="cls-19" d="M315.42,391.47s-15.77-4.18-28.65-12.88-22.94-18.8-40.89-16.71"/><path class="cls-19" d="M283.82,376.54c8.14-2.34,14.11-7.6,20.64-12.66a140,140,0,0,1,22.09-14.51"/><line class="cls-15" x1="280.95" y1="208.76" x2="283.34" y2="208.76"/></g></svg>