<?xml version="1.0" encoding="utf-8"?>
<!-- Generator: Adobe Illustrator 22.0.1, SVG Export Plug-In . SVG Version: 6.00 Build 0)  -->
<svg version="1.1" id="Camada_1" xmlns="http://www.w3.org/2000/svg" xmlns:xlink="http://www.w3.org/1999/xlink" x="0px" y="0px"
	 viewBox="0 0 425.2 368.5" style="enable-background:new 0 0 425.2 368.5;" xml:space="preserve">
<style type="text/css">
	.st0{fill:#87EBC8;}
	.st1{opacity:0.7;fill:#FFFFFF;enable-background:new    ;}
	.st2{fill:#27303F;}
	.st3{fill:#FFFFFF;stroke:#27303F;stroke-width:1.0335;stroke-linecap:round;stroke-linejoin:round;}
	.st4{fill:#87EBC8;stroke:#27303F;stroke-width:1.0335;stroke-linecap:round;stroke-linejoin:round;}
	.st5{fill:none;stroke:#ABAEB4;stroke-width:1.0335;stroke-miterlimit:10;}
	.st6{fill:none;stroke:#ABAEB4;stroke-width:1.287;stroke-miterlimit:10;}
	.st7{fill:#87EBC8;stroke:#ABAEB4;stroke-width:1.0335;stroke-miterlimit:10;}
</style>
<g id="freepik--background-simple--inject-2">
	<path class="st0" d="M133.3,22.7c0,0-72.3,33.6-108.4,85.4S-8.4,226.5,35.5,276s127.6,42.9,197.8,74.3s147.6,24.9,180.7-41.5
		s-16.8-91.2-25.5-168C379.8,64,304-48.6,133.3,22.7z"/>
	<path class="st1" d="M133.3,22.7c0,0-72.3,33.6-108.4,85.4S-8.4,226.5,35.5,276s127.6,42.9,197.8,74.3s147.6,24.9,180.7-41.5
		s-16.8-91.2-25.5-168C379.8,64,304-48.6,133.3,22.7z"/>
</g>
<g>
	<path class="st2" d="M404.9,62.3c-0.9,1.6-1.3,5.7-1.3,5.7c0,0,2.8-0.6,3-0.6c2-0.7,5.4-3.2,5.4-5.6c-0.1-1.5-1.4-2.7-2.9-2.7
		c-0.1,0-0.2,0-0.3,0C407.1,59.5,405.7,61,404.9,62.3z"/>
	<path class="st2" d="M399.4,104c0,0,2.7,1,2.8,1.1c2,0.5,6.3,0.3,7.6-1.7c0.8-1.3,0.3-3-1-3.8c-0.1-0.1-0.2-0.1-0.3-0.1
		c-1.5-0.7-3.5-0.2-4.9,0.5C402,100.8,399.4,104,399.4,104z"/>
	<path class="st2" d="M392.8,62.5c-0.4,1.7,0.2,5.5,0.3,5.8c-2.2,0.4-4.3,0.9-6.4,1.5c-1.2,0.4-2.5,0.8-3.7,1.2
		c0.5-0.3,1-0.6,1.1-0.6c1.7-1.2,4.4-4.5,3.7-6.8c-0.5-1.5-2.1-2.3-3.5-1.8c-0.1,0-0.2,0.1-0.3,0.1c-1.5,0.6-2.5,2.5-2.9,4
		s0.1,4.8,0.2,5.7c-0.5,0.2-0.9,0.3-1.4,0.5c-2.2,0.8-4.4,1.7-6.7,2.4c-0.8,0.3-1.6,0.5-2.3,0.7c0.5-0.3,0.9-0.5,0.9-0.5
		c1.7-1.2,4.4-4.5,3.7-6.8c-0.5-1.5-2.1-2.3-3.5-1.8c-0.1,0-0.2,0.1-0.3,0.1c-1.5,0.6-2.5,2.5-2.9,4c-0.4,1.5,0.1,4.5,0.2,5.5
		c-0.8,0.2-1.6,0.4-2.4,0.6c-0.5,0.1-1.1,0.3-1.6,0.3l-1.6,0.3c-1,0.1-2.1,0.3-3.1,0.4c-0.7,0.1-1.4,0.1-2,0.2
		c0.8-0.3,2.3-0.8,2.4-0.9c1.9-0.9,5-3.8,4.7-6.2c-0.3-1.5-1.7-2.5-3.2-2.3c-0.1,0-0.2,0-0.3,0.1c-1.6,0.4-2.8,2.1-3.4,3.5
		c-0.7,1.6-0.6,5.3-0.6,5.8c-1.1,0.1-2.2,0.2-3.2,0.3c-3,0.2-5.6,0.3-7.5,0.3l-0.2,1.6c2-0.1,4.7-0.2,7.8-0.5
		c1.1-0.1,2.3-0.2,3.6-0.4c0.3,1.2,0.7,2.3,1.1,3.4c-1.4,1.1-3.3,4-3.5,4.4c-1-0.5-1.9-1.1-2.8-1.6c-2.6-1.5-4.7-2.8-6.3-3.8
		l-0.2,1.7c1.6,1,3.6,2.1,5.8,3.4c1,0.5,2.1,1.1,3.2,1.7c-0.1,0.4-1.3,4-1.1,5.7c0.2,1.6,0.8,3.5,2.3,4.4c1.3,0.8,3,0.4,3.9-0.9
		c0.1-0.1,0.1-0.2,0.1-0.3c1-2.1-1.2-5.8-2.7-7.3c-0.1-0.1-1.2-0.9-1.9-1.4c0.5,0.2,0.9,0.5,1.4,0.7c0.9,0.5,1.9,0.9,2.9,1.4
		l1.5,0.6c0.5,0.2,1,0.4,1.6,0.6c1.2,0.4,2.5,0.8,3.8,1.2c-0.4,0.8-1.8,3.7-1.9,5.3c-0.1,1.6,0.3,3.6,1.6,4.7c1.2,1,2.9,0.9,3.9-0.2
		c0.1-0.1,0.1-0.2,0.2-0.2c1.3-2-0.3-5.9-1.6-7.6c-0.1-0.1-1.2-1.2-1.8-1.8c0.8,0.2,1.6,0.4,2.4,0.6c2.3,0.5,4.6,1,7,1.5l2.1,0.5
		c-0.1,0.3-1.9,3.7-1.9,5.5c-0.1,1.6,0.3,3.6,1.6,4.7c1.2,1,2.9,0.9,4-0.3c0.1-0.1,0.1-0.1,0.2-0.2c1.3-2-0.3-5.9-1.6-7.6
		c-0.1-0.1-1.7-1.7-2.1-2c1.6,0.3,3.1,0.7,4.7,1.1c2.1,0.6,4.1,1.3,6.1,2.1c-0.1,0.1-1.9,3.7-2,5.5c-0.1,1.6,0.3,3.6,1.6,4.7
		c1.2,1,2.9,0.9,3.9-0.3c0.1-0.1,0.1-0.2,0.2-0.2c1.3-2-0.3-5.9-1.6-7.6c-0.1-0.1-1.3-1.3-1.9-1.8l0.1-0.1c2,0.9,3.8,1.9,5.6,3.1
		c1,0.6,1.9,1.3,2.8,2c-0.4,0.6-2.2,3.5-2.5,5.2c-0.3,1.6-0.1,3.6,1.1,4.8c1,1.1,2.8,1.2,3.9,0.2c0.1-0.1,0.2-0.1,0.2-0.2
		c1.5-1.8,0.4-5.9-0.7-7.7c-0.1-0.1-0.8-1-1.3-1.7c0.4,0.3,0.8,0.6,1.2,0.9c1.4,1.1,2.6,2.3,3.6,3.3c0.6,0.6,1.1,1.1,1.6,1.6
		c-0.1,0.8-0.3,4.2,0.2,5.7c0.5,1.5,1.6,3.3,3.2,3.8c1.5,0.5,3.1-0.2,3.6-1.7c0-0.1,0.1-0.2,0.1-0.3c0.5-2.3-2.4-5.4-4.2-6.5
		c-0.2-0.1-2.8-1.2-2.8-1.2l0,0c-0.5-0.5-0.9-1-1.5-1.6c-1-1-2.2-2.2-3.5-3.4c-1.4-1.3-3-2.5-4.5-3.6c-1.8-1.3-3.7-2.4-5.7-3.3
		l-0.1,0c0.7,0.1,2.6,0.3,2.8,0.3c2.1,0,6.2-1.3,6.9-3.6c0.4-1.5-0.5-3-2-3.4c-0.1,0-0.2,0-0.3-0.1c-1.6-0.3-3.4,0.7-4.6,1.8
		c-1.3,1.2-2.9,4.7-3,5c-2-0.9-4.1-1.6-6.2-2.3c-1.2-0.4-2.5-0.7-3.7-1c0.6,0.1,1.1,0.1,1.2,0.1c2.1,0,6.2-1.3,6.9-3.6
		c0.4-1.5-0.5-3-2-3.4c-0.1,0-0.2,0-0.3-0.1c-1.6-0.3-3.4,0.7-4.6,1.8c-1.2,1-2.6,4.1-2.9,4.9c-0.5-0.1-1-0.2-1.5-0.4
		c-2.3-0.5-4.7-1.1-6.9-1.7c-0.8-0.2-1.6-0.4-2.4-0.7c0.5,0,1,0.1,1,0.1c2.1,0,6.2-1.4,6.9-3.6c0.4-1.5-0.5-3-2-3.4
		c-0.1,0-0.2,0-0.3-0.1c-1.6-0.3-3.4,0.7-4.6,1.8c-1.2,1-2.4,3.8-2.9,4.7c-0.8-0.3-1.6-0.5-2.3-0.8c-0.5-0.2-1-0.4-1.5-0.6l-1.5-0.7
		c-0.9-0.5-1.9-0.9-2.8-1.4c-0.6-0.3-1.2-0.6-1.8-1c0.8,0.2,2.4,0.6,2.5,0.6c1.9,0.2,3.7-0.1,5.4-0.9c0.2,0,0.4,0,0.6,0
		c1.5,0,2.8-1.3,2.8-2.8c0-0.1,0-0.2,0-0.3c-0.4-2.3-4.2-4.2-6.3-4.6c-0.1,0-1.5-0.1-2.4-0.1c0.5-0.1,1-0.1,1.5-0.2
		c1-0.1,2.1-0.3,3.2-0.5c0.5-0.1,1.1-0.2,1.6-0.3c0.5-0.1,1.1-0.3,1.7-0.4c1.3-0.3,2.6-0.7,3.8-1.1c0.1,0.9,0.6,4.1,1.4,5.5
		s2.3,2.9,3.9,3.1c1.5,0.2,2.9-0.9,3.2-2.4c0-0.1,0-0.2,0-0.3c0-2.4-3.5-4.8-5.5-5.5c-0.1,0-1.6-0.3-2.5-0.5
		c0.8-0.2,1.5-0.5,2.3-0.8c2.2-0.8,4.4-1.7,6.7-2.6c0.7-0.3,1.4-0.5,2-0.8c0,0.3,0.5,4.1,1.4,5.7c0.8,1.3,2.2,2.8,3.9,3
		c1.5,0.2,3-0.9,3.2-2.4c0-0.1,0-0.2,0-0.3c0-2.4-3.5-4.8-5.5-5.5c-0.2-0.1-2.3-0.5-2.9-0.6c1.5-0.6,3-1.1,4.5-1.6
		c2-0.7,4.1-1.2,6.2-1.7c0,0.2,0.5,4.1,1.4,5.7c0.8,1.3,2.2,2.8,3.9,3c1.5,0.2,2.9-0.9,3.2-2.4c0-0.1,0-0.2,0-0.3
		c0-2.4-3.5-4.8-5.5-5.5c-0.1,0-1.8-0.4-2.6-0.5l0-0.1c2.1-0.4,4.3-0.5,6.4-0.5c1.2,0,2.3,0.1,3.4,0.1c0,0.8,0.1,4.2,0.8,5.7
		s1.9,3.1,3.5,3.4c1.5,0.4,3-0.5,3.4-2c0-0.1,0-0.2,0.1-0.3c0.3-2.4-3-5.2-4.9-6c-0.1,0-1.2-0.4-2-0.7c0.5,0,1,0.1,1.5,0.1
		c1.8,0.2,3.4,0.5,4.8,0.8c0.8,0.2,1.5,0.3,2.2,0.5c0.4,0.7,2,3.7,3.3,4.7s3.1,1.8,4.7,1.4c1.5-0.4,2.4-1.9,2.1-3.4
		c0-0.1-0.1-0.2-0.1-0.3c-0.9-2.2-5-3.2-7.1-3.1c-0.2,0-3,0.5-3,0.5l0,0c-0.7-0.2-1.4-0.3-2.1-0.5c-1.4-0.3-3-0.6-4.8-0.9
		c-1.9-0.3-3.8-0.4-5.8-0.5c-2.2-0.1-4.3,0.1-6.5,0.4c0,0,0,0-0.1,0c0.6-0.3,2.3-1.2,2.5-1.3c1.7-1.2,4.4-4.5,3.7-6.8
		c-0.5-1.5-2.1-2.3-3.5-1.8c-0.1,0-0.2,0.1-0.3,0.1C394.1,59.1,393.2,60.9,392.8,62.5z"/>
	<path class="st2" d="M341.7,20c1.4,1.2,5.4,2.3,5.4,2.3s-0.1-2.9-0.1-3c-0.3-2.1-2.2-5.9-4.5-6.3c-1.5-0.2-2.9,0.9-3.1,2.4
		c0,0.1,0,0.2,0,0.3C339.3,17.3,340.5,18.9,341.7,20z"/>
	<path class="st2" d="M381.6,33.1c0,0,1.5-2.4,1.6-2.6c0.9-1.9,1.5-6.1-0.3-7.8c-1.2-1-2.9-0.9-3.9,0.3c-0.1,0.1-0.1,0.2-0.2,0.2
		c-1,1.3-0.9,3.4-0.4,4.9C378.9,29.9,381.6,33.1,381.6,33.1z"/>
	<path class="st2" d="M339.6,31.9c1.6,0.8,5.5,0.8,5.8,0.8c0,2.2,0.1,4.4,0.3,6.6c0.1,1.3,0.3,2.6,0.5,3.8c-0.2-0.6-0.3-1.1-0.4-1.2
		c-0.9-1.9-3.7-5.2-6-4.9c-1.5,0.2-2.6,1.6-2.4,3.2c0,0.1,0,0.2,0.1,0.3c0.3,1.6,2,2.9,3.4,3.6c1.4,0.7,4.7,0.8,5.6,0.8l0.2,1.5
		c0.4,2.4,0.8,4.7,1.2,7c0.1,0.8,0.2,1.6,0.3,2.4c-0.2-0.5-0.3-0.9-0.3-1c-0.9-1.9-3.7-5.2-6-4.9c-1.5,0.2-2.6,1.6-2.4,3.1
		c0,0.1,0,0.2,0.1,0.3c0.3,1.6,2,2.9,3.4,3.6c1.4,0.7,4.4,0.8,5.4,0.8c0.1,0.8,0.2,1.7,0.2,2.5c0,0.6,0,1.1,0,1.6l0,1.6
		c-0.1,1-0.1,2.1-0.2,3.1c-0.1,0.7-0.1,1.4-0.2,2.1c-0.1-0.8-0.4-2.4-0.4-2.5c-0.6-2-2.8-5.7-5.2-5.8c-1.5,0-2.8,1.2-2.8,2.7
		c0,0.1,0,0.2,0,0.3c0.1,1.7,1.5,3.2,2.8,4c1.4,1,5.1,1.6,5.5,1.7c-0.1,1.1-0.2,2.2-0.4,3.2c-0.4,3-0.8,5.5-1.1,7.5l1.5,0.5
		c0.3-2,0.7-4.7,1-7.8c0.1-1.1,0.2-2.3,0.3-3.6c1.2-0.1,2.4-0.3,3.5-0.5c0.8,1.6,3.3,4,3.6,4.3c-0.7,0.9-1.4,1.7-2.1,2.5
		c-1.9,2.2-3.6,4.1-5,5.5l1.7,0.5c1.2-1.4,2.7-3.1,4.4-5.1c0.7-0.9,1.5-1.8,2.2-2.8c0.4,0.2,3.7,2,5.4,2.1c1.6,0.1,3.6-0.2,4.7-1.4
		c1.1-1.1,1-2.9-0.1-4c-0.1-0.1-0.2-0.1-0.2-0.2c-1.9-1.4-5.9,0.1-7.6,1.3c-0.1,0.1-1.1,1-1.7,1.6c0.3-0.4,0.6-0.8,0.9-1.2
		c0.6-0.8,1.2-1.7,1.9-2.6c0.3-0.4,0.6-0.9,0.9-1.4c0.3-0.5,0.6-1,0.9-1.4c0.7-1.1,1.3-2.3,1.9-3.5c0.7,0.6,3.3,2.5,4.9,2.8
		c1.5,0.4,3.6,0.4,4.9-0.7c1.2-0.9,1.4-2.7,0.5-3.9c-0.1-0.1-0.1-0.2-0.2-0.2c-1.7-1.7-5.9-0.8-7.8,0.2c-0.1,0.1-1.4,0.9-2.1,1.4
		c0.4-0.7,0.7-1.5,1.1-2.2c1-2.2,1.9-4.4,2.8-6.6c0.3-0.7,0.6-1.4,0.9-2c0.3,0.2,3.3,2.5,5,2.9c1.5,0.4,3.6,0.4,4.9-0.7
		c1.2-1,1.4-2.7,0.5-3.9c-0.1-0.1-0.1-0.2-0.2-0.2c-1.7-1.6-5.9-0.8-7.8,0.2c-0.1,0.1-1.9,1.3-2.4,1.7c0.6-1.5,1.3-3,2-4.4
		c0.9-1.9,2-3.8,3.1-5.6c0.1,0.1,3.3,2.5,5.1,2.9c1.5,0.4,3.6,0.4,4.9-0.7c1.2-1,1.4-2.7,0.5-3.9c-0.1-0.1-0.1-0.1-0.2-0.2
		c-1.7-1.7-5.9-0.8-7.8,0.2c-0.1,0.1-1.5,1-2.2,1.5l-0.1-0.1c1.2-1.8,2.6-3.4,4.1-5c0.8-0.9,1.7-1.6,2.5-2.3
		c0.6,0.5,3.1,2.8,4.6,3.4c1.6,0.5,3.5,0.8,4.9-0.2c1.3-0.8,1.7-2.5,0.9-3.9c-0.1-0.1-0.1-0.2-0.2-0.3c-1.5-1.8-5.8-1.5-7.7-0.7
		c-0.1,0.1-1.2,0.6-1.9,1c0.4-0.3,0.8-0.7,1.1-1c1.4-1.1,2.7-2.1,3.9-2.9c0.7-0.5,1.3-0.9,1.9-1.3c0.8,0.2,4,1.1,5.6,0.9
		c1.6-0.2,3.5-0.9,4.3-2.4c0.8-1.3,0.4-3-1-3.8c-0.1-0.1-0.2-0.1-0.3-0.1c-2.2-0.9-5.8,1.3-7.2,2.9c-0.1,0.1-1.7,2.5-1.7,2.5l0.1,0
		c-0.6,0.3-1.2,0.7-1.8,1.2c-1.2,0.8-2.6,1.7-4,2.9c-1.5,1.2-3,2.5-4.4,3.8c-1.6,1.5-3,3.1-4.3,4.9l0,0.1c0.2-0.7,0.7-2.5,0.8-2.7
		c0.4-2.1-0.2-6.3-2.3-7.4c-1.4-0.7-3.1-0.1-3.7,1.3c0,0.1-0.1,0.2-0.1,0.3c-0.6,1.6,0.1,3.5,0.9,4.9c0.9,1.5,4.1,3.7,4.4,3.9
		c-1.2,1.8-2.4,3.7-3.4,5.7c-0.6,1.1-1.1,2.3-1.7,3.5c0.2-0.6,0.3-1.1,0.3-1.2c0.4-2.1-0.2-6.3-2.3-7.4c-1.4-0.7-3.1-0.1-3.7,1.3
		c0,0.1-0.1,0.2-0.1,0.3c-0.6,1.6,0.1,3.5,0.9,4.9c0.8,1.4,3.5,3.3,4.2,3.8c-0.2,0.5-0.4,0.9-0.6,1.4c-1,2.2-1.9,4.4-2.9,6.5
		c-0.3,0.7-0.7,1.5-1.1,2.2l0.3-1c0.4-2.1-0.2-6.3-2.3-7.4c-1.4-0.7-3.1-0.1-3.7,1.3c0,0.1-0.1,0.2-0.1,0.3
		c-0.6,1.6,0.1,3.5,0.9,4.9c0.8,1.4,3.3,3.1,4.1,3.7c-0.4,0.7-0.8,1.5-1.2,2.2c-0.3,0.5-0.6,0.9-0.9,1.4s-0.6,0.9-0.9,1.3
		c-0.6,0.8-1.3,1.7-1.9,2.5c-0.4,0.6-0.9,1.1-1.3,1.6c0.4-0.7,1.1-2.2,1.1-2.3c0.5-1.8,0.6-3.7,0.1-5.5c0.1-0.2,0.1-0.4,0.1-0.6
		c0.3-1.5-0.8-3-2.3-3.2c-0.1,0-0.2,0-0.3,0c-2.4-0.1-4.9,3.3-5.6,5.3c0,0.1-0.4,1.4-0.5,2.3c0-0.5,0.1-1,0.1-1.5
		c0.1-1,0.1-2.1,0.1-3.2l0-1.6c0-0.5,0-1.1-0.1-1.7c-0.1-1.3-0.2-2.6-0.4-4c0.9,0.1,4.1,0.2,5.6-0.4c1.5-0.6,3.2-1.7,3.7-3.3
		c0.5-1.5-0.3-3.1-1.8-3.6c-0.1,0-0.2-0.1-0.3-0.1c-2.3-0.4-5.4,2.6-6.4,4.4c-0.1,0.1-0.7,1.5-0.9,2.3c-0.1-0.8-0.2-1.6-0.3-2.4
		c-0.4-2.3-0.9-4.7-1.3-7l-0.4-2.1c0.3,0,4.2,0.3,5.8-0.3c1.5-0.6,3.2-1.7,3.7-3.3c0.5-1.5-0.3-3.1-1.8-3.6c-0.1,0-0.2-0.1-0.3-0.1
		c-2.3-0.4-5.4,2.6-6.4,4.4c-0.1,0.1-0.9,2.2-1.1,2.7c-0.3-1.6-0.6-3.2-0.8-4.7c-0.3-2.1-0.5-4.2-0.5-6.4c0.2,0,4.2,0.3,5.9-0.3
		c1.5-0.6,3.2-1.7,3.7-3.3c0.5-1.5-0.3-3.1-1.8-3.6c-0.1,0-0.2-0.1-0.3-0.1c-2.3-0.4-5.4,2.6-6.4,4.4c-0.1,0.1-0.7,1.7-1,2.4l-0.1,0
		c0-2.1,0.3-4.3,0.7-6.4c0.2-1.2,0.5-2.3,0.8-3.3c0.7,0.1,4.1,0.7,5.7,0.3s3.4-1.3,4-2.9c0.6-1.4,0-3.1-1.4-3.7
		c-0.1,0-0.2-0.1-0.3-0.1c-2.3-0.7-5.6,2-6.8,3.7c-0.1,0.1-0.6,1.1-1,1.9c0.1-0.5,0.3-1,0.4-1.4c0.5-1.7,1.1-3.3,1.6-4.6
		c0.3-0.8,0.6-1.5,0.9-2.1c0.8-0.2,4-1.3,5.2-2.4c1.2-1.1,2.4-2.7,2.3-4.4c-0.1-1.5-1.4-2.7-3-2.7c-0.2,0-0.3,0-0.5,0.1
		c-2.3,0.4-4.1,4.3-4.4,6.4c0,0.2-0.1,3.1,0,3s0,0,0,0c-0.3,0.6-0.6,1.3-0.9,2c-0.6,1.3-1.2,2.9-1.7,4.6c-0.6,1.8-1.2,3.7-1.6,5.6
		c-0.5,2.1-0.7,4.3-0.8,6.4l0,0.1c-0.2-0.7-0.8-2.5-0.8-2.7c-0.9-1.9-3.7-5.2-6-4.9c-1.5,0.2-2.6,1.6-2.4,3.2c0,0.1,0,0.2,0.1,0.3
		C336.5,30,338.2,31.3,339.6,31.9z"/>
</g>
<g>
	<path class="st2" d="M16.1,314.9c1.4,0.9,3.3,4,3.3,4s-2.4,0.7-2.6,0.7c-1.8,0.3-5.5-0.3-6.4-2.2c-0.5-1.3,0-2.7,1.3-3.3
		c0.1,0,0.1-0.1,0.2-0.1C13.2,313.5,14.9,314.1,16.1,314.9z"/>
	<path class="st2" d="M37.1,345.3c0,0-1.7,1.9-1.8,2c-1.4,1.2-4.8,2.8-6.6,1.7c-1.1-0.7-1.5-2.3-0.7-3.4c0-0.1,0.1-0.1,0.1-0.2
		c0.9-1.2,2.6-1.6,4-1.6C33.7,343.8,37.1,345.3,37.1,345.3z"/>
	<path class="st2" d="M25.6,310.2c1,1.2,2,4.4,2.1,4.7c1.9-0.6,3.7-1,5.7-1.4c1.1-0.2,2.2-0.4,3.4-0.5c-0.5,0-1,0-1.1,0
		c-1.8-0.2-5.3-1.8-5.6-3.8c-0.2-1.4,0.7-2.6,2.1-2.8c0.1,0,0.1,0,0.2,0c1.5-0.1,2.9,0.9,3.9,2s1.8,3.8,2.1,4.5l1.3-0.2
		c2.1-0.2,4.2-0.5,6.2-0.8c0.7-0.1,1.4-0.2,2.1-0.3l-0.9,0c-1.8-0.2-5.3-1.8-5.6-3.8c-0.2-1.4,0.7-2.6,2.1-2.8c0.1,0,0.1,0,0.2,0
		c1.5-0.1,2.9,0.9,3.8,2c0.9,1,1.8,3.5,2,4.4c0.7-0.2,1.4-0.3,2.1-0.5c0.5-0.1,0.9-0.2,1.4-0.4l1.4-0.4c0.9-0.3,1.8-0.6,2.6-0.9
		l1.7-0.7c-0.7,0.1-2.1,0.3-2.2,0.3c-1.9,0-5.5-1-6.1-2.9c-0.4-1.3,0.3-2.7,1.6-3.1c0.1,0,0.2,0,0.2-0.1c1.4-0.3,3,0.5,4.1,1.4
		c1.1,0.9,2.6,3.9,2.8,4.3c0.9-0.4,1.8-0.7,2.6-1.1c2.4-1,4.4-2,6-2.8l0.8,1.2c-1.6,0.8-3.8,1.7-6.3,2.8c-0.9,0.4-1.9,0.8-2.9,1.2
		c0.2,1,0.4,2.1,0.4,3.1c1.6,0.4,3.1,1.1,4.5,2c0.6-0.8,1.1-1.6,1.6-2.4c1.4-2.2,2.6-4.1,3.4-5.5l0.8,1.3c-0.9,1.4-1.9,3.1-3.2,5
		c-0.6,0.8-1.2,1.7-1.8,2.6c0.3,0.3,2.6,2.6,3.1,4s0.8,3.1,0,4.3c-0.7,1.2-2.2,1.6-3.4,0.9c-0.1,0-0.1-0.1-0.2-0.1
		c-1.6-1.3-1.4-5-0.8-6.8c0-0.1,0.6-1.2,0.9-1.8c-0.3,0.4-0.5,0.7-0.8,1.1c-0.5,0.7-1.1,1.4-1.7,2.2c-0.3,0.4-0.6,0.7-0.9,1.1
		c-0.3,0.4-0.7,0.7-1,1.1c-0.8,0.8-1.6,1.7-2.5,2.5c0.6,0.5,2.9,2.2,3.6,3.4c0.7,1.2,1.2,2.9,0.6,4.3c-0.5,1.3-2,1.9-3.2,1.4
		c-0.1,0-0.1-0.1-0.2-0.1c-1.8-1-2.2-4.7-1.8-6.6c0-0.1,0.4-1.4,0.7-2.1c-0.5,0.5-1.1,0.9-1.6,1.4c-1.6,1.3-3.2,2.7-4.9,4
		c-0.5,0.4-1,0.8-1.5,1.2c0.2,0.2,3,2.2,3.7,3.5c0.7,1.2,1.2,2.9,0.6,4.3c-0.5,1.3-2,1.9-3.2,1.4c-0.1,0-0.1-0.1-0.2-0.1
		c-1.8-1-2.2-4.7-1.8-6.6c0-0.1,0.6-2,0.8-2.4c-1.1,0.9-2.1,1.8-3.2,2.7c-1.4,1.3-2.7,2.6-3.9,4c0.1,0.1,3,2.2,3.7,3.5
		c0.7,1.2,1.2,2.9,0.6,4.3c-0.5,1.3-2,1.9-3.2,1.4c-0.1,0-0.1-0.1-0.2-0.1c-1.8-1-2.2-4.8-1.8-6.6c0-0.1,0.5-1.5,0.7-2.2l-0.1,0
		c-1.2,1.5-2.2,3-3.1,4.7c-0.5,0.9-1,1.8-1.4,2.7c0.6,0.3,3.2,1.9,4,3s1.5,2.8,1.1,4.2c-0.4,1.3-1.7,2.1-3.1,1.7
		c-0.1,0-0.2,0-0.2-0.1c-1.9-0.8-2.7-4.5-2.5-6.3c0-0.1,0.2-1.1,0.4-1.9c-0.2,0.4-0.4,0.8-0.5,1.2c-0.6,1.5-1.1,2.8-1.5,4
		c-0.2,0.7-0.4,1.3-0.6,1.9c0.4,0.6,1.9,3.1,2.1,4.5c0.2,1.4,0.1,3.2-1,4.2c-0.9,1-2.5,1-3.5,0.1c-0.1-0.1-0.1-0.1-0.2-0.2
		c-1.3-1.6-0.3-5.2,0.7-6.8c0.1-0.1,1.7-2.1,1.7-2.1l0,0c0.1-0.6,0.3-1.2,0.5-1.8c0.4-1.2,0.8-2.6,1.4-4.1c0.6-1.6,1.3-3.1,2.1-4.6
		c0.9-1.7,1.9-3.3,3.1-4.8c0,0,0,0,0-0.1c-0.5,0.3-1.9,1.3-2,1.3c-1.7,0.8-5.4,1.4-6.8-0.1c-0.9-1-0.8-2.6,0.2-3.5
		c0.1-0.1,0.1-0.1,0.2-0.2c1.2-0.9,3-0.8,4.3-0.5c1.5,0.4,4.1,2.6,4.3,2.7c1.2-1.5,2.5-2.9,3.9-4.3c0.8-0.8,1.7-1.5,2.5-2.3
		c-0.4,0.3-0.8,0.5-0.9,0.6c-1.7,0.8-5.4,1.4-6.8-0.1c-0.9-1-0.8-2.6,0.2-3.5c0.1-0.1,0.1-0.1,0.2-0.2c1.2-0.9,3-0.8,4.3-0.5
		s3.6,2.1,4.2,2.6l1-0.8c1.6-1.4,3.2-2.7,4.8-4.1c0.5-0.5,1.1-1,1.6-1.5c-0.4,0.3-0.7,0.5-0.8,0.5c-1.7,0.8-5.4,1.4-6.8-0.1
		c-0.9-1-0.8-2.6,0.2-3.5c0.1-0.1,0.1-0.1,0.2-0.1c1.2-0.9,3-0.8,4.3-0.5c1.3,0.4,3.4,2,4.1,2.5c0.5-0.5,1-1,1.5-1.6
		c0.3-0.4,0.6-0.7,0.9-1.1c0.3-0.4,0.6-0.8,0.9-1.1c0.5-0.7,1.1-1.5,1.6-2.2c0.4-0.5,0.7-1,1-1.5c-0.5,0.5-1.6,1.4-1.7,1.5
		c-1.4,0.9-2.9,1.4-4.6,1.5c-0.2,0.1-0.3,0.2-0.5,0.3c-1.2,0.6-2.7,0.1-3.3-1.1c0-0.1-0.1-0.1-0.1-0.2c-0.7-2,1.6-5,3.1-6.1
		c0.1-0.1,1.1-0.7,1.8-1c-0.4,0.2-0.8,0.3-1.3,0.5c-0.9,0.3-1.7,0.6-2.6,0.9l-1.4,0.4c-0.5,0.2-1,0.2-1.4,0.4
		c-1.1,0.3-2.3,0.5-3.4,0.7c0.3,0.8,1.2,3.4,1.1,4.8c-0.1,1.4-0.6,3.1-1.8,3.9c-1.1,0.8-2.7,0.5-3.4-0.6c0-0.1-0.1-0.1-0.1-0.2
		c-0.9-1.8,0.8-5.2,2.1-6.5c0.1-0.1,1.1-0.9,1.7-1.4c-0.7,0.1-1.4,0.2-2.1,0.3c-2.1,0.3-4.2,0.4-6.2,0.6c-0.6,0.1-1.3,0.1-1.9,0.2
		c0.1,0.3,1.3,3.4,1.2,5c-0.1,1.4-0.6,3.1-1.8,3.9c-1.1,0.8-2.7,0.5-3.4-0.6c0-0.1-0.1-0.1-0.1-0.2c-0.9-1.9,0.8-5.2,2.1-6.5
		c0.1-0.1,1.6-1.3,2-1.6c-1.4,0.2-2.8,0.3-4.2,0.5c-1.9,0.3-3.7,0.7-5.5,1.2c0,0.1,1.3,3.4,1.2,5c-0.1,1.4-0.6,3.1-1.8,3.9
		c-1.1,0.8-2.7,0.5-3.4-0.6c0-0.1-0.1-0.1-0.1-0.2c-0.9-1.9,0.8-5.2,2.1-6.5c0.1-0.1,1.2-1,1.8-1.4l-0.1-0.1
		c-1.8,0.6-3.5,1.3-5.2,2.2c-0.9,0.5-1.8,1-2.6,1.5c0.3,0.6,1.6,3.3,1.7,4.7c0.1,1.4-0.3,3.2-1.4,4.1c-1,0.9-2.6,0.8-3.5-0.2
		c-0.1-0.1-0.1-0.1-0.1-0.2c-1.1-1.7,0.2-5.2,1.4-6.7c0.1-0.1,0.8-0.8,1.3-1.4c-0.4,0.2-0.8,0.5-1.1,0.7c-1.3,0.9-2.5,1.7-3.5,2.5
		c-0.6,0.4-1.1,0.9-1.5,1.3c0,0.7-0.1,3.7-0.7,4.9s-1.7,2.7-3.1,3c-1.3,0.3-2.7-0.5-3-1.8c0-0.1,0-0.1,0-0.2
		c-0.2-2.1,2.6-4.5,4.3-5.3c0.2-0.1,2.6-0.8,2.6-0.8l0,0c0.4-0.4,0.9-0.8,1.5-1.2c1-0.8,2.1-1.7,3.4-2.6c1.4-1,2.8-1.9,4.3-2.7
		c1.6-0.9,3.3-1.6,5.1-2.2l0.1,0c-0.6,0-2.3,0-2.4,0c-1.8-0.2-5.3-1.8-5.6-3.8c-0.2-1.4,0.7-2.6,2.1-2.8c0.1,0,0.1,0,0.2,0
		C23.2,308,24.7,309.1,25.6,310.2z"/>
	<path class="st2" d="M61.7,338.4c1.6-0.2,5.1,0.9,5.1,0.9s-1.4,2.1-1.5,2.2c-1.2,1.4-4.4,3.3-6.3,2.5c-1.2-0.6-1.7-2.1-1.1-3.3
		c0-0.1,0.1-0.1,0.1-0.2C58.6,339.2,60.4,338.6,61.7,338.4z"/>
	<path class="st2" d="M97.4,347.9c0,0,0,2.5-0.1,2.7c-0.3,1.8-1.8,5.2-3.9,5.6c-1.4,0.2-2.6-0.8-2.8-2.1c0-0.1,0-0.2,0-0.2
		c-0.1-1.5,1-2.9,2-3.8C93.9,348.9,97.4,347.9,97.4,347.9z"/>
	<path class="st2" d="M65.9,328.6c1.6,0.2,4.4,2,4.6,2.2c1-1.6,2.2-3.2,3.4-4.7c0.7-0.9,1.5-1.7,2.2-2.6c-0.4,0.3-0.8,0.7-0.8,0.6
		c-1.6,1-5.2,2.1-6.8,0.7c-1-0.9-1.1-2.5-0.2-3.5c0.1-0.1,0.1-0.1,0.2-0.2c1-1,2.8-1.2,4.2-1c1.4,0.2,3.9,1.7,4.5,2.1l0.9-1
		c1.4-1.5,2.9-3.1,4.2-4.6c0.5-0.5,0.9-1.1,1.4-1.7c-0.4,0.3-0.7,0.5-0.7,0.6c-1.6,1-5.2,2.1-6.8,0.7c-1-0.9-1.1-2.5-0.2-3.5
		c0.1-0.1,0.1-0.1,0.2-0.2c1-1,2.8-1.2,4.2-1c1.4,0.2,3.6,1.5,4.4,2c0.4-0.6,0.9-1.2,1.3-1.8c0.3-0.4,0.6-0.8,0.8-1.2
		c0.2-0.4,0.5-0.8,0.8-1.2c0.5-0.8,0.9-1.6,1.3-2.4c0.3-0.5,0.6-1.1,0.8-1.6c-0.5,0.5-1.4,1.6-1.5,1.7c-1.4,1.2-4.8,2.8-6.6,1.8
		c-1.2-0.7-1.5-2.3-0.8-3.4c0-0.1,0.1-0.1,0.1-0.2c0.9-1.2,2.6-1.6,4-1.6c1.5,0,4.5,1.3,4.9,1.4c0.5-0.9,0.9-1.7,1.3-2.5
		c1.2-2.4,2.1-4.4,2.8-6l1.3,0.4c-0.7,1.6-1.7,3.7-3,6.2c-0.5,0.9-1,1.8-1.5,2.8c0.8,0.6,1.6,1.3,2.4,2.1c1.5-0.7,3.1-1.1,4.7-1.4
		c-0.1-1-0.2-1.9-0.3-2.8c-0.3-2.6-0.7-4.7-1-6.4l1.5,0.4c0.3,1.6,0.5,3.6,0.8,5.9c0.1,1,0.2,2.1,0.3,3.2c0.4,0,3.7,0.3,5,1
		c1.2,0.7,2.6,1.9,2.8,3.3c0.2,1.3-0.7,2.6-2,2.9c-0.1,0-0.2,0-0.2,0c-2.1,0.1-4.4-2.9-5-4.6c0-0.1-0.3-1.3-0.5-2
		c0,0.4,0.1,0.9,0.1,1.3c0.1,0.9,0.1,1.8,0.2,2.8c0,0.5,0,1,0,1.4c0,0.5,0,1,0,1.5c-0.1,1.2-0.2,2.3-0.3,3.5
		c0.8-0.1,3.6-0.2,4.9,0.3s2.8,1.4,3.3,2.9c0.4,1.3-0.3,2.7-1.6,3.1c-0.1,0-0.1,0-0.2,0.1c-2,0.4-4.7-2.2-5.6-3.8
		c-0.1-0.1-0.6-1.3-0.8-2c-0.1,0.7-0.2,1.4-0.3,2.1c-0.3,2.1-0.7,4.1-1.1,6.2c-0.2,0.6-0.2,1.3-0.3,1.9c0.3,0,3.7-0.3,5.1,0.3
		c1.3,0.5,2.8,1.4,3.3,2.8c0.4,1.3-0.3,2.7-1.6,3.1c-0.1,0-0.2,0-0.2,0.1c-2,0.4-4.7-2.2-5.6-3.8c-0.1-0.1-0.8-1.9-1-2.4
		c-0.2,1.4-0.5,2.8-0.7,4.2c-0.2,1.9-0.4,3.7-0.4,5.6c0.1,0,3.7-0.3,5.1,0.3c1.3,0.5,2.8,1.4,3.3,2.8c0.4,1.3-0.3,2.7-1.6,3.1
		c-0.1,0-0.2,0-0.2,0.1c-2,0.4-4.7-2.2-5.6-3.8c-0.1-0.1-0.6-1.5-0.9-2.1l-0.1,0c0,1.9,0.3,3.8,0.7,5.6c0.2,1,0.4,2,0.7,2.9
		c0.7-0.1,3.6-0.6,5-0.3c1.4,0.3,3,1.1,3.5,2.5c0.6,1.2,0,2.7-1.2,3.3c-0.1,0-0.1,0.1-0.2,0.1c-2,0.6-4.9-1.7-6-3.2
		c-0.1-0.1-0.6-1-0.9-1.6c0.1,0.4,0.2,0.9,0.4,1.3c0.5,1.5,1,2.8,1.5,4c0.3,0.7,0.5,1.3,0.8,1.8c0.7,0.2,3.5,1.1,4.6,2.1
		c1.1,0.9,2.1,2.4,2,3.8c-0.1,1.4-1.2,2.4-2.6,2.4c-0.1,0-0.2,0-0.2,0c-2-0.4-3.6-3.8-3.9-5.6c0-0.2-0.1-2.7,0-2.7l0,0
		c-0.3-0.5-0.5-1.1-0.8-1.7c-0.5-1.2-1.1-2.5-1.6-4c-0.6-1.6-1-3.2-1.4-4.9c-0.4-1.9-0.7-3.7-0.8-5.7c0,0,0,0,0-0.1
		c-0.1,0.6-0.7,2.2-0.7,2.4c-0.7,1.7-3.2,4.6-5.2,4.4c-1.4-0.2-2.3-1.4-2.1-2.8c0-0.1,0-0.2,0-0.2c0.3-1.4,1.7-2.6,3-3.2
		c1.4-0.7,4.8-0.7,5.1-0.8c0-1.9,0-3.9,0.2-5.8c0.1-1.1,0.3-2.3,0.4-3.4c-0.1,0.5-0.3,1-0.3,1c-0.7,1.7-3.2,4.6-5.2,4.4
		c-1.4-0.2-2.3-1.4-2.2-2.7c0-0.1,0-0.2,0.1-0.3c0.3-1.4,1.7-2.5,3-3.2s4.2-0.7,4.9-0.7c0.1-0.4,0.1-0.9,0.2-1.3
		c0.3-2.1,0.7-4.1,1-6.2c0.1-0.7,0.2-1.4,0.2-2.1c-0.1,0.4-0.2,0.8-0.3,0.9c-0.7,1.7-3.2,4.6-5.2,4.4c-1.4-0.2-2.3-1.4-2.1-2.8
		c0-0.1,0-0.2,0-0.2c0.3-1.4,1.7-2.5,3-3.1c1.2-0.6,3.9-0.7,4.8-0.8c0.1-0.7,0.1-1.5,0.1-2.2c0-0.5,0-1,0-1.4l-0.1-1.4
		c-0.1-0.9-0.1-1.9-0.2-2.7c-0.1-0.6-0.1-1.2-0.2-1.8c-0.1,0.7-0.3,2.1-0.3,2.2c-0.5,1.6-1.3,3-2.5,4.1c0,0.2-0.1,0.4-0.2,0.5
		c-0.5,1.3-2,1.8-3.3,1.3c-0.1,0-0.1-0.1-0.2-0.1c-1.8-1.1-2-4.8-1.6-6.6c0-0.1,0.4-1.2,0.7-1.9c-0.2,0.4-0.4,0.7-0.7,1.2
		c-0.4,0.8-0.9,1.6-1.5,2.4c-0.3,0.4-0.5,0.8-0.8,1.2c-0.3,0.4-0.6,0.8-0.9,1.2c-0.7,0.9-1.4,1.8-2.2,2.8c0.7,0.4,3.1,1.8,4,3
		c0.8,1.1,1.6,2.8,1.1,4.2c-0.3,1.3-1.7,2.1-3,1.8c-0.1,0-0.2,0-0.2-0.1c-1.9-0.8-2.7-4.4-2.6-6.3c0-0.1,0.3-1.4,0.4-2.2
		c-0.5,0.5-0.9,1.1-1.4,1.6c-1.4,1.5-2.9,3-4.3,4.5l-1.3,1.4c0.2,0.1,3.2,1.8,4.1,3c0.9,1.2,1.6,2.8,1.2,4.2c-0.4,1.3-1.7,2.1-3,1.8
		c-0.1,0-0.2,0-0.2-0.1c-1.9-0.8-2.7-4.4-2.6-6.3c0-0.1,0.4-2,0.5-2.5c-1,1-1.9,2.1-2.8,3.1c-1.2,1.4-2.4,2.9-3.4,4.5
		c0.1,0,3.2,1.8,4.2,3c0.8,1.1,1.6,2.8,1.1,4.2c-0.4,1.3-1.7,2.1-3,1.8c-0.1,0-0.1,0-0.2-0.1c-1.9-0.8-2.7-4.4-2.6-6.3
		c0-0.1,0.3-1.6,0.4-2.2l-0.1,0c-1,1.6-1.9,3.3-2.5,5c-0.4,1-0.7,1.9-1,2.8c0.6,0.3,3.4,1.5,4.4,2.5c1,1.1,1.9,2.6,1.6,4
		c-0.2,1.4-1.5,2.3-2.8,2.1c-0.1,0-0.2,0-0.2,0c-2-0.6-3.2-4.1-3.3-6c0-0.1,0.1-1.1,0.1-1.9c-0.1,0.4-0.3,0.9-0.4,1.2
		c-0.4,1.5-0.7,2.9-1,4.2c-0.2,0.7-0.3,1.4-0.4,2c0.5,0.6,2.3,2.9,2.7,4.2c0.4,1.4,0.5,3.1-0.4,4.3c-0.8,1.1-2.4,1.4-3.5,0.5
		c-0.1,0-0.1-0.1-0.2-0.1c-1.5-1.4-0.9-5.1-0.1-6.8c0-0.2,1.4-2.3,1.4-2.3l0,0c0.1-0.6,0.2-1.2,0.3-1.9c0.2-1.3,0.5-2.7,0.9-4.2
		c0.4-1.7,0.9-3.3,1.5-4.9c0.7-1.8,1.5-3.5,2.5-5.1l0-0.1c-0.5,0.4-1.8,1.5-1.9,1.6c-1.6,1-5.2,2.1-6.8,0.7c-1-0.9-1.1-2.5-0.2-3.5
		c0.1-0.1,0.1-0.1,0.2-0.2C62.7,328.6,64.5,328.4,65.9,328.6z"/>
</g>
<g id="freepik--Window--inject-2">
	<path class="st3" d="M53,36.9h319.2c3.9,0,7.1,3.2,7.1,7.1v280.6c0,3.9-3.2,7.1-7.1,7.1H53c-3.9,0-7.1-3.2-7.1-7.1V44
		C45.9,40,49.1,36.9,53,36.9z"/>
	<path class="st4" d="M372.4,36.9H52.8c-3.8,0-6.9,3.1-6.9,6.9V56h333.4V43.8C379.3,40,376.2,36.9,372.4,36.9z"/>
	<path class="st3" d="M60.4,46.1c0,1.6-1.3,2.9-2.8,2.9c-1.6,0-2.9-1.3-2.9-2.8c0-1.6,1.3-2.9,2.8-2.9c0,0,0,0,0,0
		C59.1,43.3,60.4,44.5,60.4,46.1z"/>
	<path class="st3" d="M72.4,46.1c0,1.6-1.3,2.9-2.8,2.9c-1.6,0-2.9-1.3-2.9-2.8c0-1.6,1.3-2.9,2.8-2.9c0,0,0,0,0,0
		C71.1,43.3,72.4,44.5,72.4,46.1z"/>
	<path class="st3" d="M84.3,46.1c0,1.6-1.3,2.9-2.8,2.9c-1.6,0-2.9-1.3-2.9-2.8c0-1.6,1.3-2.9,2.8-2.9c0,0,0,0,0,0
		C83,43.3,84.3,44.5,84.3,46.1z"/>
	<path class="st2" d="M232.5,90.8V71.4h-4v-2.2h10.3v2.2h-4v19.4L232.5,90.8z"/>
	<path class="st2" d="M240.4,74.5c0-3.3,1.6-5.4,4.9-5.4s5,2.1,5,5.4v11.1c0,3.3-1.6,5.4-5,5.4s-4.9-2.1-4.9-5.4V74.5z M242.8,85.7
		c0,2,0.8,3.1,2.6,3.1s2.6-1.1,2.6-3.1V74.3c0-1.9-0.8-3.1-2.6-3.1c-1.8,0-2.6,1.2-2.6,3.1V85.7z"/>
	<path class="st2" d="M257.6,69.3c3.3,0,4.9,2.1,4.9,5.4v10.9c0,3.3-1.5,5.3-4.9,5.3h-5V69.3H257.6z M257.6,88.6c1.7,0,2.6-1,2.6-3
		V74.5c0-2-0.8-3-2.6-3H255v17.2H257.6z"/>
	<path class="st2" d="M267.1,86.4l-0.8,4.3h-2.2l4.1-21.5h3.5l4.1,21.5h-2.4l-0.8-4.3H267.1z M267.4,84.4h4.8L269.8,72L267.4,84.4z"
		/>
	<path class="st2" d="M280,83.1l-4.6-13.8h2.5l3.4,10.6l3.4-10.6h2.3l-4.6,13.8v7.7H280V83.1z"/>
	<path class="st2" d="M64.8,69.8v0.3h-1.2v-0.4c0-1-0.4-1.6-1.3-1.6c-0.9,0-1.3,0.6-1.3,1.6c0,2.6,3.8,2.8,3.8,6
		c0,1.7-0.8,2.9-2.6,2.9s-2.6-1.1-2.6-2.9v-0.7h1.2v0.8c0,1,0.4,1.6,1.3,1.6s1.3-0.6,1.3-1.6c0-2.5-3.8-2.8-3.8-6
		c0-1.8,0.8-2.9,2.5-2.9C63.9,67,64.8,68.1,64.8,69.8z"/>
	<path class="st2" d="M70.9,69.9v1h-1.2v-1.1c0-1-0.4-1.7-1.3-1.7s-1.3,0.6-1.3,1.7v6c0,1,0.4,1.6,1.3,1.6s1.3-0.6,1.3-1.6v-1.5h1.2
		v1.4c0,1.7-0.8,2.9-2.6,2.9s-2.6-1.1-2.6-2.9v-5.9c0-1.7,0.8-2.9,2.6-2.9S70.9,68.1,70.9,69.9z"/>
	<path class="st2" d="M73.4,73.4v5.2h-1.3V67.1h1.3v5.2h2.8v-5.2h1.3v11.4h-1.3v-5.2L73.4,73.4z"/>
	<path class="st2" d="M82.8,72.2v1.1H80v4.1h3.4v1.2h-4.7V67.1h4.7v1.2H80v3.9H82.8z"/>
	<path class="st2" d="M87.3,67.1c1.8,0,2.6,1,2.6,2.8v5.8c0,1.7-0.8,2.8-2.6,2.8h-2.7V67.1H87.3z M87.3,77.4c0.9,0,1.4-0.6,1.4-1.6
		v-5.9c0-1-0.4-1.6-1.4-1.6h-1.4v9.1H87.3z"/>
	<path class="st2" d="M92.4,75.8c0,1,0.4,1.6,1.3,1.6c0.9,0,1.3-0.6,1.3-1.6v-8.7h1.2v8.7c0,1.7-0.8,2.9-2.6,2.9s-2.6-1.2-2.6-2.9
		v-8.7h1.3V75.8z"/>
	<path class="st2" d="M97.4,78.5V67.1h1.3v10.3h3.3v1.2H97.4z"/>
	<path class="st2" d="M107,72.2v1.1h-2.8v4.1h3.4v1.2h-4.7V67.1h4.7v1.2h-3.4v3.9H107z"/>
	<path class="st2" d="M169.1,104.2v0.3c0.1,0.9-0.4,1.8-1.2,2.2c0.9,0.4,1.4,1.3,1.2,2.3v0.8c0,1.4-1.2,2.6-2.6,2.6
		c-1.4,0-2.6-1.2-2.6-2.6V109c-0.1-1,0.4-1.9,1.3-2.3c-0.9-0.4-1.4-1.3-1.3-2.2v-0.3c0-1.4,1.2-2.6,2.6-2.6
		C167.9,101.6,169.1,102.7,169.1,104.2z M165.2,104.2v0.5c0,1,0.5,1.5,1.4,1.5c0.9,0,1.4-0.5,1.4-1.5v-0.5c0-1.1-0.5-1.6-1.4-1.6
		C165.7,102.5,165.2,103.1,165.2,104.2L165.2,104.2z M165.2,108.9v0.9c0,1.1,0.5,1.6,1.4,1.6c0.9,0,1.4-0.5,1.4-1.6v-0.9
		c0-1-0.5-1.6-1.4-1.6S165.2,107.8,165.2,108.9L165.2,108.9z"/>
	<path class="st2" d="M171.3,105v1.5h-1.2V105H171.3z M171.3,110.9v1.5h-1.2v-1.5H171.3z"/>
	<path class="st2" d="M172.5,104.2c0-1.7,0.8-2.7,2.5-2.7c1.7,0,2.5,1,2.5,2.7v5.6c0,1.7-0.8,2.7-2.5,2.7c-1.7,0-2.5-1.1-2.5-2.7
		V104.2z M173.7,109.9c0,1,0.4,1.6,1.3,1.6c0.9,0,1.3-0.6,1.3-1.6v-5.7c0-1-0.4-1.6-1.3-1.6c-0.9,0-1.3,0.6-1.3,1.6V109.9z"/>
	<path class="st2" d="M178.5,104.2c0-1.7,0.8-2.7,2.5-2.7s2.5,1,2.5,2.7v5.6c0,1.7-0.8,2.7-2.5,2.7s-2.5-1.1-2.5-2.7V104.2z
		 M179.7,109.9c0,1,0.4,1.6,1.3,1.6s1.3-0.6,1.3-1.6v-5.7c0-1-0.4-1.6-1.3-1.6s-1.3,0.6-1.3,1.6V109.9z"/>
	<path class="st2" d="M196.2,103.6c-0.5,0.3-1,0.4-1.5,0.5v-1c0.9,0,1.7-0.6,1.9-1.4h0.9v10.9h-1.2L196.2,103.6z"/>
	<path class="st2" d="M199.1,104.2c0-1.7,0.8-2.7,2.5-2.7s2.5,1,2.5,2.7v5.6c0,1.7-0.8,2.7-2.5,2.7s-2.5-1.1-2.5-2.7V104.2z
		 M200.3,109.9c0,1,0.4,1.6,1.3,1.6s1.3-0.6,1.3-1.6v-5.7c0-1-0.4-1.6-1.3-1.6s-1.3,0.6-1.3,1.6V109.9z"/>
	<path class="st2" d="M206.4,105v1.5h-1.2V105H206.4z M206.4,110.9v1.5h-1.2v-1.5H206.4z"/>
	<path class="st2" d="M207.5,104.2c0-1.7,0.8-2.7,2.5-2.7s2.5,1,2.5,2.7v5.6c0,1.7-0.8,2.7-2.5,2.7s-2.5-1.1-2.5-2.7V104.2z
		 M208.7,109.9c0,1,0.4,1.6,1.3,1.6c0.9,0,1.3-0.6,1.3-1.6v-5.7c0-1-0.4-1.6-1.3-1.6c-0.9,0-1.3,0.6-1.3,1.6V109.9z"/>
	<path class="st2" d="M213.6,104.2c0-1.7,0.8-2.7,2.5-2.7s2.5,1,2.5,2.7v5.6c0,1.7-0.8,2.7-2.5,2.7s-2.5-1.1-2.5-2.7V104.2z
		 M214.8,109.9c0,1,0.4,1.6,1.3,1.6s1.3-0.6,1.3-1.6v-5.7c0-1-0.4-1.6-1.3-1.6s-1.3,0.6-1.3,1.6V109.9z"/>
	<path class="st2" d="M232,103.6c-0.5,0.3-1,0.4-1.5,0.5v-1c0.9,0,1.7-0.6,1.9-1.4h0.8v10.9H232V103.6z"/>
	<path class="st2" d="M239.9,104.2c0,3.3-3.7,4.5-3.7,7v0.2h3.6v1.1H235v-0.9c0-3.5,3.7-4.2,3.7-7.2c0-1.1-0.4-1.7-1.3-1.7
		s-1.3,0.6-1.3,1.6v1H235v-0.9c0-1.7,0.8-2.8,2.4-2.8S239.9,102.6,239.9,104.2z"/>
	<path class="st2" d="M242.2,105v1.5H241V105H242.2z M242.2,110.9v1.5H241v-1.5H242.2z"/>
	<path class="st2" d="M243.3,104.2c0-1.7,0.8-2.7,2.5-2.7s2.5,1,2.5,2.7v5.6c0,1.7-0.8,2.7-2.5,2.7s-2.5-1.1-2.5-2.7V104.2z
		 M244.5,109.9c0,1,0.4,1.6,1.3,1.6c0.9,0,1.3-0.6,1.3-1.6v-5.7c0-1-0.4-1.6-1.3-1.6c-0.9,0-1.3,0.6-1.3,1.6V109.9z"/>
	<path class="st2" d="M249.4,104.2c0-1.7,0.8-2.7,2.5-2.7s2.5,1,2.5,2.7v5.6c0,1.7-0.8,2.7-2.5,2.7s-2.5-1.1-2.5-2.7V104.2z
		 M250.6,109.9c0,1,0.4,1.6,1.3,1.6s1.3-0.6,1.3-1.6v-5.7c0-1-0.4-1.6-1.3-1.6s-1.3,0.6-1.3,1.6V109.9z"/>
	<path class="st2" d="M271.8,104.2c0,3.3-3.7,4.5-3.7,7v0.2h3.6v1.1h-4.8v-0.9c0-3.5,3.7-4.2,3.7-7.2c0-1.1-0.4-1.7-1.3-1.7
		s-1.3,0.6-1.3,1.6v1h-1.1v-0.9c0-1.7,0.8-2.8,2.4-2.8C271,101.5,271.8,102.6,271.8,104.2z"/>
	<path class="st2" d="M274.1,105v1.5h-1.2V105H274.1z M274.1,110.9v1.5h-1.2v-1.5H274.1z"/>
	<path class="st2" d="M275.2,104.2c0-1.7,0.8-2.7,2.5-2.7c1.7,0,2.5,1,2.5,2.7v5.6c0,1.7-0.8,2.7-2.5,2.7c-1.7,0-2.5-1.1-2.5-2.7
		V104.2z M276.4,109.9c0,1,0.4,1.6,1.3,1.6s1.3-0.6,1.3-1.6v-5.7c0-1-0.4-1.6-1.3-1.6s-1.3,0.6-1.3,1.6V109.9z"/>
	<path class="st2" d="M281.3,104.2c0-1.7,0.8-2.7,2.5-2.7c1.7,0,2.5,1,2.5,2.7v5.6c0,1.7-0.8,2.7-2.5,2.7c-1.7,0-2.5-1.1-2.5-2.7
		V104.2z M282.5,109.9c0,1,0.4,1.6,1.3,1.6s1.3-0.6,1.3-1.6v-5.7c0-1-0.4-1.6-1.3-1.6s-1.3,0.6-1.3,1.6V109.9z"/>
	<path class="st2" d="M305.8,110.3v2.2h-1.2v-2.2h-3.5v-1.1l3.4-7.6h1.3v7.6h0.9v1.1H305.8z M302.2,109.2h2.4v-5.4L302.2,109.2z"/>
	<path class="st2" d="M308.8,105v1.5h-1.2V105H308.8z M308.8,110.9v1.5h-1.2v-1.5H308.8z"/>
	<path class="st2" d="M309.9,104.2c0-1.7,0.8-2.7,2.5-2.7c1.7,0,2.5,1,2.5,2.7v5.6c0,1.7-0.8,2.7-2.5,2.7c-1.7,0-2.5-1.1-2.5-2.7
		V104.2z M311.1,109.9c0,1,0.4,1.6,1.3,1.6c0.9,0,1.3-0.6,1.3-1.6v-5.7c0-1-0.4-1.6-1.3-1.6c-0.9,0-1.3,0.6-1.3,1.6V109.9z"/>
	<path class="st2" d="M316,104.2c0-1.7,0.8-2.7,2.5-2.7c1.7,0,2.5,1,2.5,2.7v5.6c0,1.7-0.8,2.7-2.5,2.7c-1.7,0-2.5-1.1-2.5-2.7
		V104.2z M317.2,109.9c0,1,0.4,1.6,1.3,1.6c0.9,0,1.3-0.6,1.3-1.6v-5.7c0-1-0.4-1.6-1.3-1.6c-0.9,0-1.3,0.6-1.3,1.6V109.9z"/>
	<path class="st2" d="M342.8,104.2v0.2h-1.1v-0.3c0-1-0.4-1.6-1.3-1.6s-1.3,0.6-1.3,1.7v2.4c0.3-0.7,1-1.2,1.8-1.2c1.4,0,2,1,2,2.6
		v1.6c0,1.7-0.8,2.7-2.5,2.7c-1.7,0-2.5-1.1-2.5-2.7v-5.5c0-1.7,0.8-2.8,2.5-2.8C342,101.5,342.8,102.5,342.8,104.2z M339,108.3v1.6
		c0,1,0.4,1.6,1.3,1.6s1.3-0.6,1.3-1.6v-1.6c0-1-0.4-1.6-1.3-1.6S339,107.3,339,108.3z"/>
	<path class="st2" d="M345.1,105v1.5h-1.2V105H345.1z M345.1,110.9v1.5h-1.2v-1.5H345.1z"/>
	<path class="st2" d="M346.2,104.2c0-1.7,0.8-2.7,2.5-2.7c1.7,0,2.5,1,2.5,2.7v5.6c0,1.7-0.8,2.7-2.5,2.7c-1.7,0-2.5-1.1-2.5-2.7
		V104.2z M347.4,109.9c0,1,0.4,1.6,1.3,1.6s1.3-0.6,1.3-1.6v-5.7c0-1-0.4-1.6-1.3-1.6s-1.3,0.6-1.3,1.6V109.9z"/>
	<path class="st2" d="M352.3,104.2c0-1.7,0.8-2.7,2.5-2.7c1.7,0,2.5,1,2.5,2.7v5.6c0,1.7-0.8,2.7-2.5,2.7c-1.7,0-2.5-1.1-2.5-2.7
		V104.2z M353.5,109.9c0,1,0.4,1.6,1.3,1.6s1.3-0.6,1.3-1.6v-5.7c0-1-0.4-1.6-1.3-1.6s-1.3,0.6-1.3,1.6V109.9z"/>
	<rect x="158.6" y="233.6" class="st5" width="33.1" height="31.2"/>
	<rect x="192.7" y="233.6" class="st5" width="33.1" height="31.2"/>
	<rect x="226.7" y="233.6" class="st5" width="33.1" height="31.2"/>
	<rect x="260.8" y="233.6" class="st5" width="33.1" height="31.2"/>
	<rect x="294.9" y="233.6" class="st5" width="33.1" height="31.2"/>
	<rect x="329" y="233.6" class="st5" width="33.1" height="31.2"/>
	<line class="st6" x1="60" y1="119" x2="143.1" y2="119"/>
	<line class="st6" x1="60" y1="126.4" x2="143.1" y2="126.4"/>
	<line class="st6" x1="60" y1="133.7" x2="143.1" y2="133.7"/>
	<line class="st6" x1="60" y1="141.1" x2="143.1" y2="141.1"/>
	<line class="st6" x1="60" y1="148.4" x2="143.1" y2="148.4"/>
	<line class="st6" x1="60" y1="155.8" x2="143.1" y2="155.8"/>
	<line class="st6" x1="60" y1="163.1" x2="143.1" y2="163.1"/>
	<line class="st6" x1="60" y1="170.5" x2="143.1" y2="170.5"/>
	<line class="st6" x1="60" y1="177.9" x2="143.1" y2="177.9"/>
	<line class="st6" x1="60" y1="185.2" x2="143.1" y2="185.2"/>
	<line class="st6" x1="60" y1="192.6" x2="143.1" y2="192.6"/>
	<line class="st6" x1="60" y1="199.9" x2="143.1" y2="199.9"/>
	<line class="st6" x1="60" y1="207.3" x2="143.1" y2="207.3"/>
	<line class="st6" x1="60" y1="214.7" x2="143.1" y2="214.7"/>
	<line class="st6" x1="60" y1="222" x2="143.1" y2="222"/>
	<line class="st6" x1="60" y1="229.4" x2="143.1" y2="229.4"/>
	<line class="st6" x1="60" y1="236.7" x2="143.1" y2="236.7"/>
	<line class="st6" x1="60" y1="244.1" x2="143.1" y2="244.1"/>
	<line class="st6" x1="60" y1="251.5" x2="143.1" y2="251.5"/>
	<line class="st6" x1="60" y1="258.8" x2="143.1" y2="258.8"/>
	<line class="st6" x1="60" y1="266.2" x2="143.1" y2="266.2"/>
	<line class="st6" x1="60" y1="273.5" x2="143.1" y2="273.5"/>
	<line class="st6" x1="60" y1="280.9" x2="143.1" y2="280.9"/>
	<line class="st6" x1="60" y1="288.3" x2="143.1" y2="288.3"/>
	<line class="st6" x1="60" y1="295.6" x2="143.1" y2="295.6"/>
	<line class="st6" x1="60" y1="303" x2="143.1" y2="303"/>
	<rect x="158.6" y="119" class="st5" width="33.1" height="31.2"/>
	<rect x="192.7" y="119" class="st7" width="33.1" height="31.2"/>
	<rect x="226.7" y="119" class="st7" width="33.1" height="31.2"/>
	<rect x="260.8" y="119" class="st5" width="33.1" height="31.2"/>
	<rect x="294.9" y="119" class="st5" width="33.1" height="31.2"/>
	<rect x="329" y="119" class="st5" width="33.1" height="31.2"/>
	<line class="st5" x1="198.5" y1="127.9" x2="221.6" y2="127.9"/>
	<line class="st5" x1="198.5" y1="131.4" x2="221.6" y2="131.4"/>
	<line class="st5" x1="198.5" y1="135" x2="221.6" y2="135"/>
	<line class="st5" x1="198.5" y1="138.5" x2="221.6" y2="138.5"/>
	<line class="st5" x1="198.5" y1="142" x2="221.6" y2="142"/>
	<rect x="158.6" y="157.2" class="st5" width="33.1" height="31.2"/>
	<rect x="192.7" y="157.2" class="st7" width="33.1" height="31.2"/>
	<rect x="226.7" y="157.2" class="st5" width="33.1" height="31.2"/>
	<rect x="260.8" y="157.2" class="st5" width="33.1" height="31.2"/>
	<rect x="294.9" y="157.2" class="st5" width="33.1" height="31.2"/>
	<rect x="329" y="157.2" class="st5" width="33.1" height="31.2"/>
	<line class="st5" x1="198.5" y1="165.6" x2="221.6" y2="165.6"/>
	<line class="st5" x1="198.5" y1="169.2" x2="221.6" y2="169.2"/>
	<line class="st5" x1="198.5" y1="172.7" x2="221.6" y2="172.7"/>
	<line class="st5" x1="198.5" y1="176.2" x2="221.6" y2="176.2"/>
	<line class="st5" x1="198.5" y1="179.7" x2="221.6" y2="179.7"/>
	<rect x="158.6" y="195.3" class="st5" width="33.1" height="31.2"/>
	<rect x="192.7" y="195.3" class="st5" width="33.1" height="31.2"/>
	<rect x="226.7" y="195.3" class="st5" width="33.1" height="31.2"/>
	<rect x="260.8" y="195.3" class="st5" width="33.1" height="31.2"/>
	<rect x="294.9" y="195.3" class="st7" width="33.1" height="31.2"/>
	<rect x="329" y="195.3" class="st5" width="33.1" height="31.2"/>
	<line class="st5" x1="301.1" y1="203.9" x2="324.2" y2="203.9"/>
	<line class="st5" x1="301.1" y1="207.4" x2="324.2" y2="207.4"/>
	<line class="st5" x1="301.1" y1="210.9" x2="324.2" y2="210.9"/>
	<line class="st5" x1="301.1" y1="214.4" x2="324.2" y2="214.4"/>
	<line class="st5" x1="301.1" y1="218" x2="324.2" y2="218"/>
	<rect x="158.6" y="271.8" class="st5" width="33.1" height="31.2"/>
	<rect x="192.7" y="271.8" class="st5" width="33.1" height="31.2"/>
	<rect x="226.7" y="271.8" class="st7" width="33.1" height="31.2"/>
	<rect x="260.8" y="271.8" class="st7" width="33.1" height="31.2"/>
	<rect x="294.9" y="271.8" class="st7" width="33.1" height="31.2"/>
	<rect x="329" y="271.8" class="st5" width="33.1" height="31.2"/>
	<line class="st5" x1="232.2" y1="280.3" x2="255.3" y2="280.3"/>
	<line class="st5" x1="232.2" y1="283.9" x2="255.3" y2="283.9"/>
	<line class="st5" x1="232.2" y1="287.4" x2="255.3" y2="287.4"/>
	<line class="st5" x1="232.2" y1="290.9" x2="255.3" y2="290.9"/>
	<line class="st5" x1="232.2" y1="294.4" x2="255.3" y2="294.4"/>
	<line class="st5" x1="265.9" y1="280.3" x2="289" y2="280.3"/>
	<line class="st5" x1="265.9" y1="283.9" x2="289" y2="283.9"/>
	<line class="st5" x1="265.9" y1="287.4" x2="289" y2="287.4"/>
	<line class="st5" x1="265.9" y1="290.9" x2="289" y2="290.9"/>
	<line class="st5" x1="265.9" y1="294.4" x2="289" y2="294.4"/>
	<line class="st5" x1="299.6" y1="280.3" x2="322.7" y2="280.3"/>
	<line class="st5" x1="299.6" y1="283.9" x2="322.7" y2="283.9"/>
	<line class="st5" x1="299.6" y1="287.4" x2="322.7" y2="287.4"/>
	<line class="st5" x1="299.6" y1="290.9" x2="322.7" y2="290.9"/>
	<line class="st5" x1="299.6" y1="294.4" x2="322.7" y2="294.4"/>
</g>
</svg>
