<?xml version="1.0" encoding="utf-8"?>
<!-- Generator: Adobe Illustrator 22.0.1, SVG Export Plug-In . SVG Version: 6.00 Build 0)  -->
<svg version="1.1" id="Camada_1" xmlns="http://www.w3.org/2000/svg" xmlns:xlink="http://www.w3.org/1999/xlink" x="0px" y="0px"
	 viewBox="0 0 300 310" style="enable-background:new 0 0 300 310;" xml:space="preserve">
<style type="text/css">
	.st0{fill:#B7F3DE;}
	.st1{fill:#FFFFFF;stroke:#27303F;stroke-linecap:round;stroke-linejoin:round;}
	.st2{fill:#87EBC8;stroke:#27303F;stroke-linecap:round;stroke-linejoin:round;}
	.st3{fill:#27303F;stroke:#27303F;stroke-linecap:round;stroke-linejoin:round;}
	.st4{fill:none;stroke:#27303F;stroke-linecap:round;stroke-linejoin:round;}
	.st5{fill:none;stroke:#FFFFFF;stroke-width:0.75;stroke-linecap:round;stroke-linejoin:round;}
	.st6{fill:#27303F;}
	.st7{fill:none;stroke:#FFFFFF;stroke-linecap:round;stroke-linejoin:round;}
</style>
<g>
	<g id="freepik--character-2--inject-311">
		<ellipse class="st0" cx="126.7" cy="246.9" rx="50.7" ry="16.3"/>
		<path class="st1" d="M243.1,72.7h1.7c1.7,0,4.3-1,2.2-1.9s-8.7-1.2-9.4-0.5s-6.7,2.9-6.7,2.9v0.1c-4.1-0.2-14.9-0.9-20.1-1.3
			c-4.4-0.3-8.8-0.2-13.2,0.3l-5.2-2.6L186,81.1c0,0,3.5,3.7,6.3,3.7s10.9-0.9,18.9-1.7s22.1-4.9,22.1-4.9v-0.1
			c3.2,0.6,6.3,0.9,9.5,1c6.5,0.2,6.5-0.7,7-1.7c0.3-0.5,0.4-1,0.5-1.5L243.1,72.7z"/>
		<path class="st1" d="M243.1,72.7c0,0-4.3,2.1-5.1,2.6c-1,0.3-2,0.5-3,0.5"/>
		<path class="st2" d="M100.1,230.3l-4.7,10.6c-2.4,5.3-2.4,14.5,3,13.9s5.3-15.3,6.2-18.9s1.2-4.7,1.2-4.7L100.1,230.3z"/>
		<path class="st1" d="M103.2,246.1c-4,7-5.3,6.9-7.2,4c-0.9-1.5-1.2-4.5-1.3-7.3c-1.6,5.3-1.1,12.5,3.6,12
			C101,254.5,102.4,250.5,103.2,246.1z"/>
		<path class="st2" d="M148.5,230.3c0,0-4.4,6.2-3.8,9.1s3.5,2.1,6.8,4.4s3.2,3.5,6.8,5.9c3.5,2.4,8.9,2.4,7.1-2.1
			s-8.3-10.9-8.5-12.1c-0.3-1.1-0.7-2.2-1.2-3.2L148.5,230.3z"/>
		<path class="st1" d="M151.5,241c-2-1.6-4.2-2.9-6.5-4.1c-0.3,0.8-0.4,1.7-0.3,2.5c0.6,3,3.5,2.1,6.8,4.4s3.2,3.5,6.8,5.9
			s8.9,2.4,7.1-2.1C159.8,251.3,156.7,244.9,151.5,241z"/>
		<path class="st3" d="M129.3,130.3c0,0-2.1,15-5.3,25.9c-3.3,10.9-5.9,20.6-7.1,23.9s-8.6,14.2-10,22.4s-6.2,26.5-6.8,27.7
			s3,5.3,5.9,5.3s23.6-38.3,26.5-43.4s15.2-36.1,17.6-39.4c1.3-1.8,3.1-3.2,5.2-4c0,0,3.5,23,3.5,29.5s-3.2,6.2-5.6,13.9
			s-4.7,37.2-4.7,38s1.5,2.7,3.5,3.5c1.4,0.5,2.9,0.7,4.4,0.6c0,0,8.9-26.8,12.4-35.1s8-18.9,8.3-25.1s2.9-32.1-3.5-48.4
			C173.6,125.9,150,136.2,129.3,130.3z"/>
		<path class="st2" d="M145.9,48.4c0,0-10,6-16.1,12.1c-5.8,5.8-5.2,15.2-4.3,21.8s4,33.3,4,35s-0.6,15.2-0.6,15.2
			c5.8,3.2,12.3,4.9,18.9,4.9c11.2,0,27-8.9,27-8.9s-3.7-21.2-3.7-27.3s2.6-33.3,2.6-33.3s4.3,8.3,6.3,10.3l5.7,5.7l10.3-14
			c0,0-12.6-12.6-18.7-17.8s-7.9-7.7-16.7-7.3C155.6,45.1,150.5,46.3,145.9,48.4z"/>
		<polyline class="st4" points="173.5,57.6 173.7,67.9 177,60.3 		"/>
		<path class="st4" d="M169.3,86.5c0,0-10.4,15.4-15.4,18.9"/>
		<path class="st1" d="M154.9,71.8c6.1,1.5,7.6-5,7.6-13c-0.1-4.7-0.8-9.4-2.1-13.9c-5.1,0.2-10,1.4-14.6,3.5c0,0-0.8,0.5-2.1,1.3
			c-0.5,1.8-0.5,3.8,0.1,5.6C145.8,61.4,148.8,70.2,154.9,71.8z"/>
		<path class="st1" d="M137.6,97.7c3.6,3.5,6.9,7.2,10,11.2c4.1,5.6,12.4,11.8,12.4,11.8c2.9-0.6,5.9-1.1,8.8-1.3
			c2.6,0,12.4,8.2,12.4,8.2s-0.6,2.3-2.7,2.3s-10.6-1.3-11.5-1.3s-5,1.3-8.3,0s-6.8-4.9-6.8-4.9s-15.9-9.2-20.9-13.8
			c-2.9-2.6-5.1-5.9-6.5-9.5l-0.3-4.3L137.6,97.7z"/>
		<path class="st2" d="M129.8,60.5c-3,1.5-5.2,4.2-6,7.5c-1.4,5.4-0.3,12.3-0.3,15.5s1.1,15.2,1.1,15.2c2.4,1.4,5.2,2.2,8,2.3
			c2.9-0.2,5.8-1,8.3-2.6l0.3-23.5"/>
		<path class="st1" d="M145.9,50.5c1,4.1,2.3,8.2,4,12.1c2.6,5.9,6.9,6.6,8.3,3.3c1.4-3.3,1.7-9.9,1.7-9.9s-4,2.1-7.6-0.5
			S145.9,50.5,145.9,50.5z"/>
		<path class="st3" d="M165.2,36.3c0,0,3.6-1.9,4.3-4.5s-0.7-3.8-0.7-3.8s4.5-2.4,2.8-6.4S159,11.1,150,11.9s-8.3,7.1-8.3,7.1
			s-4.5,1.2-4.5,5s0.7,9.7,3.3,13.3s5-0.7,6.4-2.8s1.7-4.5,5.2-2.6s11.4,2.1,11.4,2.1L165.2,36.3z"/>
		<path class="st5" d="M168.7,22.8c-0.4-0.6-1-1.2-1.6-1.7"/>
		<path class="st5" d="M144.7,21.7c0,0,11.6,8.8,17.1,8.3c3.9-0.4,7.6-2.3,7.6-5"/>
		<path class="st5" d="M143.2,22.9c0,0,4.3,3,2.5,5.8s-5.5,2.5-5.5,2.5"/>
		<path class="st1" d="M143,33.9c0,0-0.2,3.6-0.9,3.1s-2.4-3.8-2.9-5.9S136.6,32,137,37c0.3,2.9,2.4,5.3,5.2,5.9
			c0,0,4.5,11.1,9,14.4s7.8,0.9,9.9-2.8s4.7-23.4,4.7-23.4c-3.7,0.9-7.6,0.8-11.1-0.5c-3.3-1.3-6.3-3.1-9-5.4c0,0,3.3,4.3,0.9,6.1
			C145.6,32.3,144.3,33.1,143,33.9z"/>
		<path class="st4" d="M157.9,40c0,0,1.9,5.9,0.7,6.6s-3.3,0-3.3,0"/>
		<path class="st4" d="M151.7,49c0,0,1.6,3.1,6.4,1.7"/>
		<path class="st6" d="M153.4,39.9c0,1-0.4,1.8-0.8,1.8s-0.8-0.8-0.8-1.8s0.4-1.8,0.8-1.8S153.4,38.9,153.4,39.9z"/>
		<path class="st6" d="M161.3,39.6c0,1-0.4,1.8-0.8,1.8s-0.8-0.8-0.8-1.8s0.4-1.8,0.8-1.8S161.3,38.6,161.3,39.6z"/>
		<path class="st4" d="M149.1,36c1.1-1.3,2.9-1.8,4.5-1.4"/>
		<path class="st4" d="M159,35.1c0,0,3.3-1.2,3.8,2.4"/>
	</g>
	<g id="freepik--character-1--inject-311">
		<ellipse class="st0" cx="52.4" cy="291.9" rx="50.6" ry="16.3"/>
		<path class="st1" d="M97.6,46.4c-0.1,1.4-0.3,2.8-0.6,4.2c-0.7,1.7-1.5,3.3-2.5,4.8l8,9.9c0,0,2.3-4.6,3.5-5.2
			c1.2-0.4,2.4-0.6,3.7-0.6c-1.2-3.6-2.9-7.1-4.9-10.3C101.6,44.1,98.8,44.1,97.6,46.4z"/>
		<path class="st3" d="M118.8,28.4c0,0,2.6,0,5.1-4.5s-1.7-9.2-11.6-10.6s-22,1.7-25.6,10.5s2.6,20,6.5,22.8s6.6,1.2,8,0.3
			s1.2-3.2,1.7-3.4s2,2.3,4.5,0.5s0.3-5.4,2.6-7.1s4.3-1.9,4.2-4.6c0-1.2-0.2-2.4-0.5-3.5L118.8,28.4z"/>
		<path class="st5" d="M89.7,33.9c-0.5,0.7-0.8,1.5-1,2.4"/>
		<path class="st5" d="M117.4,18.9c0,0,3.8-0.5,1,3s-7,3.8-13.8,3.8c-4.5,0-9.9,2.9-13,6.1"/>
		<path class="st5" d="M106.3,31c0,0-12.1,1.5-15.8,7.3"/>
		<path class="st1" d="M94,51.5c0,0,3.2,3.1,7.4,7.4s9.4,10,9.4,10s-6.3,1.5-6.8,1.7S89.6,55.1,89.6,55.1L94,51.5z"/>
		<path class="st2" d="M24.8,254.8c0,0-8.5,2.4-9.9,4.5s1.6,10.5,1.3,15.7s-1,7,0.5,8.5s7.3,4.8,10.7,3.8s-0.3-4.8-0.5-6.9
			s3-16,3.3-16.8S26.7,256.4,24.8,254.8z"/>
		<path class="st1" d="M23.9,282c-0.5-1.3,2.2-14.5,0.2-20.1c-0.8-2.3-2.4-4.1-4.5-5.3c-2,0.8-4,1.8-4.7,2.7
			c-1.4,2.1,1.6,10.5,1.3,15.7s-1,7,0.5,8.5s7.3,4.8,10.7,3.8c0.4-0.1,0.7-0.3,1-0.5C27.1,285.6,24.2,283,23.9,282z"/>
		<path class="st1" d="M27.6,287.2c-2-0.8-4.7-2.5-5.3-4.2c-0.8-2.2,1.1-13-0.5-19.7c-1-4-3-5.3-4.6-5.6c-0.9,0.4-1.7,0.9-2.3,1.7
			c-1.4,2.1,1.6,10.5,1.3,15.7s-1,7,0.5,8.5s7.3,4.8,10.7,3.8L27.6,287.2z"/>
		<path class="st3" d="M79.9,155.3c0,0-0.9,26.6-2.8,37s-7.8,20.1-9.7,23.5S38.7,252.5,36,256.4s-5.7,7.3-5.7,7.3l-5.3-8.8
			c0,0,10.7-20.7,14.2-29.9s15.3-31.8,15.3-31.8s-0.2-21.3,0.6-24s-2.3-11.9-0.4-19.1s9.6-10.7,9.6-10.7"/>
		<path class="st2" d="M90.9,280.1c0,0,0.8,0.5,9,1.1s10.9-1.9,10.6,0.5s-5.7,7.1-10.1,9s-12.3,2.5-15.6,4.1s-6.5,1.6-6.5-2.2
			s3.3-11.2,3.3-11.2S88.7,283.1,90.9,280.1z"/>
		<path class="st1" d="M105.9,285.1c-4.6,3.3-11.7,4.4-18.5,6.8c-2.9,1.1-6.1,1.1-9-0.1c0,0.3,0,0.6,0,0.9c0,3.8,3.3,3.8,6.5,2.2
			s11.2-2.2,15.6-4.1s9.8-6.5,10.1-9c0.1-0.7-0.1-1-0.5-1.1C108.9,282.5,107.5,283.9,105.9,285.1z"/>
		<path class="st3" d="M98,141.3c0,0,2.8,40.2,5.5,54.8s-7,43.3-8.5,52.1c-1.5,8.8-3.3,33.2-3.3,33.2s-1.5,3.8-3.8,4.6
			s-6.5,1.1-6.5-1.5s-0.9-20.1-0.9-24.7s0.8-44.5,0.8-52.2s-9.2-45.5-9.6-53.6s0-13.8,4.2-15.3S98,141.3,98,141.3z"/>
		<path class="st1" d="M103.6,100.7c0,0-3.8,21.2-4,27.5s1.3,14.7-2.3,16.5c-3.1,1.4-6.7,1.7-9.9,0.8c-2.1-0.8-3.6-0.2-3.4-5.4
			S100.4,98,103.6,100.7z"/>
		<path class="st2" d="M79,61.5c0,0-22.4,16.4-28.1,20.4s-6.6,9.8-5.7,13.2s12.6,31.3,12.6,31.3l6.6-10.9c0,0-4.9-19.2-4.6-21.8
			s8.6-6.9,8.6-6.9L79,61.5z"/>
		<path class="st1" d="M160.3,122.2l3.6,0.3c0,0,6-5.2,8-6.9s11.6,3.8,11.6,3.8s1.6,0.4-0.1,1.1s-6.6,1.3-6.9,1.8s-6.3,6.7-8.4,7.7
			s-11.4-1.9-11.4-1.9L160.3,122.2z"/>
		<path class="st2" d="M88.6,55.1c0,0,9.9,8.6,15.9,14s28.6,32.6,40.1,41.2s15.7,11.9,15.7,11.9l-1.6,5.7c0,0-1.9,1.6-12.6-2.6
			c-10.6-4.3-20.9-10.7-28.4-15.9s-13-9.8-13-9.8s-11.9,27.1-14.7,38s-5.7,24.6-6.9,27.7s-3.5,5.4-6.5,5.4s-7.4-2.1-15.7-8
			s-13.2-9.5-14-10.8s12.8-35.9,15.7-51.1C65.6,85.6,68,64.6,88.6,55.1z"/>
		<polyline class="st4" points="92.9,94.3 104.7,99.4 84,101.6 		"/>
		<path class="st4" d="M102.6,69.2c-4.2-1-8.6,0.3-11.6,3.5"/>
		<path class="st2" d="M93.5,126.9c0,0-7.6,18.4-12.8,25.1c-5.2,6.7-8.4,10.7-8.4,10.7s10.5,2.5,8.6,5.7c0,0,1.5-1.1,4.6-11.5
			S93.5,126.9,93.5,126.9z"/>
		<path class="st1" d="M104.7,41.4c0,0-0.6-5.1-3.9-6S97,43.1,98.5,46c0.9,1.7,2.7,2.9,4.6,3.2c0,0,3.5,8.5,6.5,10.8s4,0.2,5.7-1.4
			s3.6-11.7,3.6-11.7s4.3-0.9,4-2.6s-3.4-4.1-2.9-5.7s1.5-2.9,1.5-4.2c-0.4-2.4-1-4.8-2-7.1c-0.6-1.1-7.5-1.1-9.9,0.2s2,2.5,1.4,4.5
			s-4.3,2.8-4.6,4S107.7,43.5,104.7,41.4z"/>
		<path class="st1" d="M120.4,35.4c0,0-0.9-2.4-3.3,0.3"/>
		<path class="st1" d="M112.3,48.5c0.7,1.2,2,2,3.4,2"/>
		<ellipse class="st6" cx="117.7" cy="39.3" rx="0.8" ry="1.8"/>
		<polyline class="st5" points="77.1,189.9 67.3,171.9 60,169.3 		"/>
	</g>
	<g id="freepik--character-3--inject-311">
		<ellipse class="st0" cx="239.5" cy="266.5" rx="50.6" ry="16.3"/>
		<path class="st3" d="M216,22.5c-7.9,2.6-15.2,7.8-17.8,14.6c-3.4,8.9,13.3,11.7,17.8,18.4s-3.3,11.7-2.8,21.7s19.5,4.5,28.4,14.5
			s0.6,13.4,11.7,22.3c11.1,8.9,18.4,10,25.1-0.6s11.7-23.4,1.7-34S252.2,66,253.4,58.2s9.5-18.4-0.5-27.3
			c-6.1-5.2-13.5-8.7-21.4-10.1C226.9,20.1,221.3,20.7,216,22.5z"/>
		<path class="st5" d="M214.3,35.4c0,0-7-0.5-6.8-5.4s16.7-6.7,22.9-6.7"/>
		<path class="st5" d="M212.7,32.2c6,0,11.7,2.2,16.2,6.2c7.5,6.7,18.1,9.2,25.1,7"/>
		<path class="st5" d="M211.9,38.4c0,0-12.4,0.8-10,4.9S210,47,210,47"/>
		<path class="st1" d="M223,70.5c0,0-6.9,3.5-8.1,5.5s-10.6,24-10.6,24s-7.5,5.3-15.2,11.9c-2.6,2.1-5.5,3.6-8.7,4.6
			c0,0-7.5,1.7-9.4,2.4s-4.8,6.6-5.3,9s1.7,3.4,3.6,3.6s7.3-6.3,7.8-6.8c0.4-0.3,1-0.4,1.5-0.3c0,0-4.3,4.6-4.3,5.1s0.5,1.9,1.9,0.9
			s2.6-2.7,4.9-4.9s5.8-5.4,7-6.6s11.8-6,16.2-8.7c2.8-1.6,5.4-3.6,7.7-6c1-1.2,10-17.2,10-17.2L223,70.5z"/>
		<path class="st4" d="M166.3,129c0,0,3.3-6.1,4.4-7.2"/>
		<path class="st4" d="M167.3,130.8c0,0,4.7-7.9,5.5-8.3"/>
		<path class="st4" d="M168.7,131.4c0,0,5.1-8.1,6.2-8.6"/>
		<path class="st2" d="M206.7,94.7c2.6,2,5.2,3.8,8,5.5c3-5.1,7.6-13.3,7.6-13.3l0.8-16.4c0,0-6.9,3.5-8.1,5.5
			C214.2,77.4,209.6,88.1,206.7,94.7z"/>
		<path class="st1" d="M245.8,192.8c0,0,10.9,37.8,14.3,46.3s3.8,22.1,3.4,26.2s-3.6,10.7-4.6,13.3s3.1,2.6,5.3,1s8.7-3.9,10.2-9
			s0-11.3,0.3-13.6s3.1-2.4,0.3-6.5s-6.8-7.8-7.3-10s-3.1-12.1-1.7-21.8s-2.2-20.5-3.1-23.5c-0.3-1.3-0.7-2.6-1.4-3.8
			C261.7,191.5,250.6,193.8,245.8,192.8z"/>
		<path class="st2" d="M275.1,250.5c-0.9-1.3-1.9-2.6-2.9-3.8v4c0,3.6-0.3,13.3-3.1,16.4c-2,2.3-4.8,1.6-6.2,1.2
			c-1.1,3.5-2.5,7-4,10.4c-1,2.6,3.1,2.6,5.3,1s8.7-3.9,10.2-9s0-11.3,0.3-13.6S277.8,254.6,275.1,250.5z"/>
		<path class="st1" d="M222.3,188.3c0,0-2.4,29-4.3,39.9s-4.1,21.5-5.8,23.9s-9.9,8.9-11.4,10.1s0,2.7,1,3.2s7.2,1.2,11.6-2.5
			s5.1-6,6.8-6.6s3.1-0.9,3.6-4.9s-2.4-6.1-0.9-10.4c1.7-4.9,3.7-9.7,6-14.3c3.4-7.2,6.8-14.7,6.8-20.1S235,195.4,235,194
			c0.1-1.5,0.4-3,0.7-4.4l-13.5-2L222.3,188.3z"/>
		<path class="st2" d="M223.4,247.2c-0.4,0.5-0.7,1.1-1,1.6c-1.2,2.5-6.9,9.5-9.9,9.2c-1.7-0.2-3.4-0.7-5-1.4
			c-2.7,2.4-5.7,4.7-6.6,5.4c-1.5,1.2,0,2.7,1,3.2s7.2,1.2,11.6-2.5s5.1-6,6.8-6.6s3.1-0.9,3.6-4.9
			C224,249.9,223.8,248.5,223.4,247.2z"/>
		<path class="st3" d="M230.3,67.2c0,0-4.6,2.2-6.7,3s-3.2,5.9-2.4,8.9s-0.3,14.1,0.9,18.4s8.9,8.9,10.6,10.7c1.1,1.4,2,3,2.5,4.8
			l-10.4,18.1c-3.9,6.8-20.6,44.6-20.6,44.6s4.8,12.4,30.2,17.7s52.1-3.6,55.9-6c2.9-2,5.5-4.2,8-6.6c0,0-10.9-26.8-18.8-41.6
			s-19.4-29-19.4-29l-0.7-11.9c0,0-2-17.2-3.6-20.6c-1.6-3.4-9.5-7.7-13.8-8.7S233.7,67,230.3,67.2z"/>
		<path class="st5" d="M226.6,92.4c0,0,7.7,2.6,13.8,2.1"/>
		<path class="st5" d="M237.8,114.8c0,0-10.8,26.6-13.3,34.3"/>
		<line class="st5" x1="241.2" y1="116.9" x2="238.7" y2="131.1"/>
		<path class="st5" d="M255,118.2c0,0,3.9,25.3,4.7,35.2"/>
		<line class="st5" x1="257.6" y1="119.1" x2="267.5" y2="140.5"/>
		<path class="st2" d="M242,69.1c-4.3-1-8.4-2-11.8-1.9c0,0-2.5,1.2-5.1,2.4c-0.5,1.6-0.8,3.2-1,4.8c-0.5,3.9,1.4,10.1,1.4,10.1
			l15.9,2.2c0,0,0.5-4.6,1.5-9.5c0.4-2.4,1.4-4.7,2.7-6.8C244.5,69.8,243.3,69.4,242,69.1z"/>
		<path class="st2" d="M255.2,101.4c1.4,0.6,3.1,0.5,4.4-0.3l-0.2-2.8c0,0-2-17.2-3.6-20.6c-0.9-2-4.1-4.4-7.5-6.1
			c-1.5,4.3-2.2,8.9-2.2,13.4C246.2,93.1,249.9,99,255.2,101.4z"/>
		<path class="st1" d="M228.3,66.8c-1.2,3.7-1.9,7.5-2,11.4c0,5.1,1.2,4.4,2.9,3.6c1.6-1,3-2.2,4.3-3.6c0,0,4.1,5.6,5.1,5
			s2.7-10.7,1.9-15s-3.8-5.6-6.3-5.6S229.5,64.3,228.3,66.8z"/>
		<path class="st1" d="M225.7,66.2c0,0,3.1,4.8,3.6,6.8s2.9,6,4.1,5.3s2.7-8,2.7-11.2c0-3.2-2.7-9.9-2.7-9.9S226.7,66.3,225.7,66.2z
			"/>
		<path class="st1" d="M211.2,47.1c0,0-1-3.2-2.6-0.2s2.9,6.6,2.9,6.6L211.2,47.1z"/>
		<path class="st1" d="M238.1,45.4c-0.8,0.1-1.6,0.5-2.2,1c-1,1.1-1.9,2-1.9,2c-3.2-3.1-6.1-6.6-8.6-10.3c-2.4-3.8-6-4-10.1-3.5
			c-1.8,1.1-3.2,2.8-3.9,4.8c-1.2,4.6-0.2,14.3,0.2,16.5s8.5,12.8,13.1,12.1s9.5-11.8,9.5-11.8s6.8-2.6,7.5-5.1S240.5,45,238.1,45.4
			z"/>
		<path class="st4" d="M218.6,48.8c0,0,0.9,0.5,0,1.7s-2.9,2.7-2,3.4c0.7,0.5,1.4,0.7,2.2,0.9"/>
		<path class="st4" d="M220,57.8c0,0,3.8,1.7,6.1-1.2"/>
		<path class="st6" d="M223.7,48.5c0,1.1-0.4,2-0.9,2s-0.9-0.9-0.9-2s0.4-2.1,0.9-2.1S223.7,47.4,223.7,48.5z"/>
		<ellipse class="st6" cx="215.6" cy="47.9" rx="0.9" ry="2"/>
		<path class="st4" d="M222,43.8c0,0,2.2-2.2,4.8,1"/>
		<path class="st4" d="M217.9,43.8c0,0-2.4-3.1-4.1,0"/>
		<path class="st2" d="M249.2,72.8c0,0,4.6-0.5,6.6,2.2c2,2.7,15.2,22.6,15.2,22.6l-8.8,7.5l-11.4-12.2"/>
		<path class="st1" d="M278,107.7c0.2-1.1-3.4-5.7-6.9-10.2c-4,0.9-7.3,3.7-8.8,7.5c2,2.7,3.6,5,3.6,5s-3.4,9.4-5.1,16.2
			c-1.2,4.8-5.3,11.2-7.7,14.6l0,0c-0.8,0.9-2.2,2.3-3.2,2.6c-1.5,0.3-1.8-0.3-3.4,1.1s-4.1,3.7-5.2,4.6c-1.1,0.8,0.6,1.5,1.6,1.7
			s3.6-2.1,3.6-2.1h1.8l-5.2,8.3c0,0-0.8,1.3,0.6,1.3s4.6-4.5,4.6-4.5h1.5c0,0-3.7,5.2-3.7,5.9s1.1,1,1.8,0.6s4.2-5.2,4.2-5.2
			l-2.4,5.5c0,0,0.3,0.8,1.5,0.5s3.4-5.4,3.4-5.4s-1.1,4.2-0.2,4.4s2.1-5.2,2.1-5.2l1.6-9.9l1.6-2.2c2.6-3.2,8.4-10.2,11.3-14.5
			C274.8,122.6,277.7,109.8,278,107.7z"/>
	</g>
	<g id="freepik--Lines--inject-311">
		<line class="st4" x1="193.3" y1="142.1" x2="194.7" y2="143.6"/>
		<line class="st4" x1="186.2" y1="134.1" x2="191.7" y2="140.3"/>
		<line class="st4" x1="197.3" y1="122.5" x2="203.6" y2="123.6"/>
		<line class="st4" x1="177.8" y1="104.6" x2="182" y2="96.7"/>
		<line class="st4" x1="127.2" y1="127.5" x2="136.1" y2="126.2"/>
		<line class="st4" x1="121.3" y1="128.3" x2="123.6" y2="128"/>
		<line class="st7" x1="162.7" y1="151.5" x2="162" y2="154.2"/>
		<line class="st7" x1="166.2" y1="138.4" x2="163.6" y2="148.1"/>
		<line class="st7" x1="146.1" y1="132.6" x2="133.5" y2="139.9"/>
	</g>
</g>
</svg>
