<?xml version="1.0" encoding="utf-8"?>
<!-- Generator: Adobe Illustrator 22.0.1, SVG Export Plug-In . SVG Version: 6.00 Build 0)  -->
<svg version="1.1" id="Camada_1" xmlns="http://www.w3.org/2000/svg" xmlns:xlink="http://www.w3.org/1999/xlink" x="0px" y="0px"
	 viewBox="0 0 425.2 368.5" style="enable-background:new 0 0 425.2 368.5;" xml:space="preserve">
<style type="text/css">
	.st0{fill:#87EBC8;}
	.st1{opacity:0.7;fill:#FFFFFF;enable-background:new    ;}
	.st2{fill:#27303F;}
	.st3{fill:#FFFFFF;}
	.st4{clip-path:url(#SVGID_2_);}
	.st5{opacity:0.17;fill:#27303F;enable-background:new    ;}
	.st6{fill:#87EBC8;stroke:#27303F;stroke-width:0.8396;stroke-miterlimit:10;}
	.st7{fill:none;stroke:#27303F;stroke-width:0.8396;stroke-linecap:round;stroke-linejoin:round;}
	.st8{opacity:0.17;}
	.st9{fill:none;stroke:#27303F;stroke-width:0.8396;stroke-miterlimit:10;}
	.st10{fill:none;stroke:#27303F;stroke-width:1.0663;stroke-miterlimit:10;}
	.st11{fill:#FFFFFF;stroke:#27303F;stroke-width:0.8396;stroke-miterlimit:10;}
	.st12{fill:#27303F;stroke:#27303F;stroke-width:0.8396;stroke-miterlimit:10;}
</style>
<g id="freepik--background-simple--inject-67">
	<path class="st0" d="M288.3,5.1c0,0-69.9-20.8-138.9,21.3S45.2,146.9,15,209.9S1.5,334.5,53.8,360.4
		c52.3,25.9,88.3-17.9,161.9-23.6c73.6-5.7,93.4,3.6,154.7-40s73-139.9,25.3-208.3S288.3,5.1,288.3,5.1z"/>
	<path class="st1" d="M288.3,5.1c0,0-69.9-20.8-138.9,21.3S45.2,146.9,15,209.9S1.5,334.5,53.8,360.4
		c52.3,25.9,88.3-17.9,161.9-23.6c73.6-5.7,93.4,3.6,154.7-40s73-139.9,25.3-208.3S288.3,5.1,288.3,5.1z"/>
</g>
<g id="freepik--Page--inject-67">
	<polygon class="st2" points="139.3,53.2 130.8,39.6 55.8,39.6 55.8,53.2 55.8,58.1 55.8,283.9 364.2,283.9 364.2,53.2 	"/>
	<rect x="58.1" y="59.4" class="st3" width="304.1" height="219.6"/>
	<g>
		<defs>
			<rect id="SVGID_1_" x="58.1" y="59.4" width="304.1" height="219.6"/>
		</defs>
		<clipPath id="SVGID_2_">
			<use xlink:href="#SVGID_1_"  style="overflow:visible;"/>
		</clipPath>
		<g class="st4">
			<rect x="356.6" y="57.5" class="st5" width="7.1" height="223.1"/>
			<rect x="356.6" y="192.4" class="st5" width="7.1" height="86.4"/>
			<rect x="56.9" y="56.4" class="st6" width="305.7" height="11.9"/>
		</g>
	</g>
	<rect x="58.1" y="59.4" class="st7" width="304.1" height="219.6"/>
	<g class="st8">
		<path class="st2" d="M216.5,79.9h-21.3c-1,0-1.9-0.8-1.9-1.9c0,0,0,0,0,0l0,0c0-1,0.8-1.9,1.9-1.9h21.3c1,0,1.9,0.8,1.9,1.9
			c0,0,0,0,0,0l0,0C218.4,79.1,217.6,79.9,216.5,79.9C216.6,79.9,216.6,79.9,216.5,79.9z"/>
		<path class="st2" d="M259.1,79.9h-21.3c-1,0-1.9-0.8-1.9-1.9c0,0,0,0,0,0l0,0c0-1,0.8-1.9,1.9-1.9l0,0h21.3c1,0,1.9,0.8,1.9,1.9
			c0,0,0,0,0,0l0,0C261,79.1,260.1,79.9,259.1,79.9z"/>
		<path class="st2" d="M301.6,79.9h-21.3c-1,0-1.9-0.8-1.9-1.9l0,0c0-1,0.8-1.9,1.9-1.9c0,0,0,0,0,0h21.3c1,0,1.9,0.8,1.9,1.9
			c0,0,0,0,0,0l0,0C303.5,79.1,302.7,79.9,301.6,79.9z"/>
		<path class="st2" d="M344.2,79.9h-21.3c-1,0-1.9-0.8-1.9-1.9l0,0c0-1,0.8-1.9,1.9-1.9c0,0,0,0,0,0h21.3c1,0,1.9,0.8,1.9,1.9
			c0,0,0,0,0,0l0,0C346.1,79.1,345.2,79.9,344.2,79.9C344.2,79.9,344.2,79.9,344.2,79.9z"/>
	</g>
	<rect x="66.6" y="89.4" class="st9" width="181.1" height="106.4"/>
	<line class="st10" x1="67.5" y1="206.8" x2="151.3" y2="206.8"/>
	<line class="st10" x1="67.5" y1="217.7" x2="151.3" y2="217.7"/>
	<line class="st10" x1="67.5" y1="228.7" x2="151.3" y2="228.7"/>
	<line class="st10" x1="67.5" y1="239.6" x2="151.3" y2="239.6"/>
	<line class="st10" x1="163.9" y1="206.8" x2="247.7" y2="206.8"/>
	<line class="st10" x1="163.9" y1="217.7" x2="247.7" y2="217.7"/>
	<line class="st10" x1="163.9" y1="228.7" x2="247.7" y2="228.7"/>
	<line class="st10" x1="163.9" y1="239.6" x2="247.7" y2="239.6"/>
	<path class="st9" d="M76,93.1c-3.3,0-6,2.7-6,6c0,3.3,2.7,6,6,6s6-2.7,6-6l0,0C82,95.8,79.3,93.1,76,93.1z M76.8,100.5l-2.6,1.5v-6
		l2.5,1.5l2.6,1.5L76.8,100.5z"/>
	<rect x="257.4" y="89.4" class="st9" width="80.6" height="64.5"/>
	<polygon class="st9" points="337.9,134.9 325.7,122.3 310.2,130 281.2,105.5 257.4,131.5 257.4,153.9 337.9,153.9 	"/>
	<circle class="st9" cx="311.2" cy="103.9" r="7.4"/>
	<rect x="257.4" y="167.4" class="st9" width="80.6" height="64.5"/>
	<polygon class="st9" points="337.9,212.9 325.7,200.3 310.2,208 281.2,183.5 257.4,209.5 257.4,231.9 337.9,231.9 	"/>
	<ellipse transform="matrix(0.1595 -0.9872 0.9872 0.1595 83.2823 459.594)" class="st9" cx="311.6" cy="180.9" rx="7.4" ry="7.4"/>
</g>
<g id="freepik--Plants--inject-67">
	<path class="st0" d="M67.2,294.6c0,0-22.2-39.1-17.1-49c5.1-9.9,18.3,7.9,18.3,7.9s-11.4-36.4-5.1-52.3s17.1,0,17.7,11.3
		c0.6,11.3-2.3,30.5-2.3,30.5s4.6-39.7,15.4-27.8c10.8,11.9-13.7,51.6-13.7,51.6s16.5-9.2,16,2.7c-0.6,11.9-19.9,22.5-19.9,22.5"/>
	<path class="st9" d="M67.4,287.3c0,0-20.6-19.2-10.5-27.8c10.1-8.6,15.3,9.2,15.3,9.2s-11.1-54.9,6.9-56.9c18-2,4.7,47.7,4.7,47.7
		s15.3-21.2,14.3-4s-23.7,31.8-23.7,31.8"/>
	<line class="st9" x1="77.5" y1="283.8" x2="63.6" y2="268.8"/>
	<line class="st9" x1="74.6" y1="285" x2="78.4" y2="240.9"/>
	<line class="st9" x1="74" y1="281.8" x2="86.5" y2="265.3"/>
	<polygon class="st2" points="92,278.7 53.6,278.7 57.4,324.1 88.2,324.1 	"/>
</g>
<g id="freepik--Boxes--inject-67">
	<polygon class="st6" points="291.5,263.1 302.2,290.5 279.7,290.5 270.4,263.1 	"/>
	<rect x="242.7" y="246.4" class="st11" width="35.5" height="32.6"/>
	<rect x="236.6" y="253.7" class="st11" width="35.5" height="32.6"/>
	<rect x="227.4" y="260.1" class="st11" width="35.5" height="32.6"/>
	<rect x="211.7" y="265.7" class="st11" width="35.5" height="32.6"/>
	<rect x="210.6" y="263.1" class="st6" width="81" height="61"/>
	<rect x="231.6" y="263.1" class="st6" width="59.9" height="61"/>
	<polygon class="st6" points="231.6,263.1 222.8,290.5 200.4,290.5 210.6,263.1 	"/>
	<rect x="241.8" y="274.6" class="st11" width="36.9" height="37.9"/>
	<polygon class="st12" points="278.7,302.4 271.8,295.2 265.7,298.7 255.1,288.5 241.9,299 241.8,299.3 241.8,312.5 278.7,312.5 	
		"/>
	<path class="st12" d="M270,284.8c0,2.4-2,4.4-4.4,4.4c-2.4,0-4.4-2-4.4-4.4c0-2.4,2-4.4,4.4-4.4S270,282.4,270,284.8
		C270,284.8,270,284.8,270,284.8z"/>
	<rect x="336.7" y="246.4" class="st11" width="35.5" height="32.6"/>
	<rect x="330.7" y="253.7" class="st11" width="35.5" height="32.6"/>
	<rect x="321.5" y="260.1" class="st11" width="35.5" height="32.6"/>
	<rect x="305.7" y="265.7" class="st11" width="35.5" height="32.6"/>
	<rect x="304.6" y="263.1" class="st6" width="81" height="61"/>
	<rect x="325.7" y="263.1" class="st6" width="59.9" height="61"/>
	<path class="st2" d="M353.2,268.9v0.5c-0.4,0-0.8,0.1-1.1,0.3c-0.4,0.2-0.6,0.5-0.8,0.9c-0.3,0.7-0.6,1.4-0.8,2.2l-4.9,14.2H345
		l-4-11.2l-4,11.2h-0.5l-5.2-14.6c-0.4-1.1-0.6-1.7-0.7-1.9c-0.2-0.3-0.4-0.6-0.7-0.7c-0.4-0.2-0.8-0.3-1.2-0.2v-0.5h6.5v0.5h-0.3
		c-0.4,0-0.8,0.1-1,0.3c-0.2,0.2-0.4,0.5-0.4,0.7c0.1,0.7,0.3,1.4,0.6,2.1l3.5,9.9l2.9-8.4l-0.5-1.5l-0.4-1.2
		c-0.2-0.4-0.4-0.8-0.6-1.1c-0.1-0.2-0.3-0.3-0.4-0.4c-0.2-0.1-0.4-0.3-0.6-0.3c-0.3-0.1-0.5-0.1-0.8-0.1v-0.5h6.9v0.5h-0.5
		c-0.4,0-0.8,0.1-1.1,0.3c-0.2,0.2-0.3,0.5-0.3,0.8c0.1,0.8,0.3,1.6,0.6,2.3l3.4,9.6l3.4-9.7c0.3-0.7,0.5-1.5,0.6-2.2
		c0-0.2-0.1-0.4-0.2-0.6c-0.1-0.2-0.3-0.3-0.5-0.4c-0.4-0.1-0.8-0.2-1.3-0.2v-0.5L353.2,268.9z"/>
	<line class="st9" x1="354.6" y1="272.2" x2="375.7" y2="272.2"/>
	<line class="st9" x1="354.6" y1="277.1" x2="375.7" y2="277.1"/>
	<line class="st9" x1="354.6" y1="282" x2="375.7" y2="282"/>
	<line class="st9" x1="354.6" y1="286.8" x2="375.7" y2="286.8"/>
	<rect x="305.7" y="204.7" class="st11" width="35.5" height="32.6"/>
	<rect x="304.6" y="202" class="st6" width="81" height="61"/>
	<rect x="325.7" y="202" class="st6" width="59.9" height="61"/>
	<rect x="335.8" y="213.5" class="st11" width="36.9" height="37.9"/>
	<polygon class="st12" points="372.8,241.4 365.9,234.2 359.8,237.7 349.1,227.5 335.9,238 335.8,238.3 335.8,251.4 372.8,251.4 	
		"/>
	<path class="st12" d="M364,223.8c0,2.4-2,4.4-4.4,4.4c-2.4,0-4.4-2-4.4-4.4c0-2.4,2-4.4,4.4-4.4C362.1,219.4,364,221.4,364,223.8
		C364,223.8,364,223.8,364,223.8z"/>
</g>
<g id="freepik--Floor--inject-67">
	<line class="st9" x1="403.6" y1="324.1" x2="40.8" y2="324.1"/>
</g>
</svg>
