<?xml version="1.0" encoding="utf-8"?>
<!-- Generator: Adobe Illustrator 22.0.1, SVG Export Plug-In . SVG Version: 6.00 Build 0)  -->
<svg version="1.1" id="Camada_1" xmlns="http://www.w3.org/2000/svg" xmlns:xlink="http://www.w3.org/1999/xlink" x="0px" y="0px"
	 viewBox="0 0 450 450" style="enable-background:new 0 0 450 450;" xml:space="preserve">
<style type="text/css">
	.st0{fill:none;stroke:#27303F;stroke-width:1.1031;stroke-linecap:round;stroke-linejoin:round;stroke-dasharray:4.4124;}
	.st1{fill:#87EBC8;}
	.st2{opacity:0.5;fill:#F7F4ED;enable-background:new    ;}
	.st3{fill:#F7F4ED;stroke:#27303F;stroke-width:1.1031;stroke-linecap:round;stroke-linejoin:round;}
	.st4{opacity:0.2;fill:#F7F4ED;enable-background:new    ;}
	.st5{fill:#87EBC8;stroke:#27303F;stroke-width:1.1031;stroke-miterlimit:10;}
	.st6{fill:#27303F;}
	.st7{fill:none;stroke:#27303F;stroke-width:1.1031;stroke-miterlimit:10;}
	.st8{opacity:0.2;fill:#27303F;enable-background:new    ;}
	.st9{fill:#F7F4ED;stroke:#27303F;stroke-width:1.1031;stroke-miterlimit:10;}
	.st10{fill:none;stroke:#27303F;stroke-width:1.1031;stroke-linecap:round;stroke-linejoin:round;}
	.st11{fill:#F7F4ED;}
	.st12{fill:none;stroke:#27303F;stroke-width:2.2062;stroke-linecap:round;stroke-linejoin:round;}
	
		.st13{opacity:0.2;fill:none;stroke:#F7F4ED;stroke-width:1.1031;stroke-linecap:round;stroke-linejoin:round;enable-background:new    ;}
	.st14{fill:none;stroke:#F7F4ED;stroke-width:1.1031;stroke-linecap:round;stroke-linejoin:round;}
</style>
<g>
	<g id="freepik--Lines--inject-176">
		<path class="st0" d="M57,171.9h-5.4c-12.1,0-21.9,9.8-21.9,21.9v120.3c0,12.1,9.8,21.9,21.9,21.9h74.4c12.1,0,21.9-9.8,21.9-21.9
			l0,0"/>
		<path class="st0" d="M141.8,68V34.6c0-7.4,6-13.4,13.4-13.4h96.7c7,0,12.7,5.3,13.4,12.1c0,0.4,0.1,7.7,0.1,8.1v-6.8"/>
	</g>
	<g id="freepik--Shadow--inject-176">
		<ellipse class="st1" cx="228.8" cy="402.1" rx="191.5" ry="26.8"/>
		<ellipse class="st2" cx="228.8" cy="402.1" rx="191.5" ry="26.8"/>
	</g>
	<g id="freepik--Window--inject-176">
		<path class="st3" d="M409.4,90.2v180.1c0,12.3-9.9,22.2-22.2,22.2H70.5c-12.3,0-22.2-9.9-22.2-22.2V90.2c0-0.5,0-1,0.1-1.6
			C49.2,77,58.8,68,70.5,68h316.7c11.7,0,21.3,9,22.1,20.7C409.3,89.2,409.4,89.7,409.4,90.2z"/>
		<path class="st1" d="M59.1,97h340.6l0,0v166.3c0,11.5-9.3,20.8-20.8,20.8h-299c-11.5,0-20.8-9.3-20.8-20.8L59.1,97L59.1,97
			L59.1,97z"/>
		<path class="st4" d="M399.7,97v166.3c0.1,11.4-9.1,20.7-20.6,20.8H79.6c-11.4-0.1-20.6-9.4-20.6-20.8V97H399.7z"/>
		<path class="st5" d="M409.3,88.7H48.3c0.8-11.6,10.5-20.6,22.1-20.6h316.7C398.8,68.1,408.5,77.1,409.3,88.7z"/>
		<path class="st6" d="M92.7,78.3c0,2.2-1.8,3.9-3.9,3.9s-3.9-1.8-3.9-3.9c0-2.2,1.8-3.9,3.9-3.9S92.7,76.2,92.7,78.3L92.7,78.3z"/>
		<path class="st6" d="M109.3,78.3c0,2.2-1.8,3.9-3.9,3.9s-3.9-1.8-3.9-3.9c0-2.2,1.8-3.9,3.9-3.9S109.3,76.2,109.3,78.3L109.3,78.3
			z"/>
		<circle class="st6" cx="122" cy="78.3" r="3.9"/>
		<path class="st7" d="M399.7,97v166.3c0,11.5-9.3,20.8-20.8,20.8h-299c-9.9,0-18.5-7-20.4-16.8v-0.1c-0.3-1.3-0.4-2.7-0.4-4V97
			H399.7z"/>
		<path class="st1" d="M398.9,122.7c-1.5-0.8-3-1.5-4.6-1.9l-1.9-8.4h-7.9l-1.9,8.4c-1.6,0.4-3.2,1.1-4.6,1.9l-7.2-4.6l-5.6,5.6
			l4.5,7.2c-0.8,1.5-1.5,3-1.9,4.6l-8.4,1.9v7.9l8.4,1.9c0.4,1.6,1.1,3.2,1.9,4.7l-4.6,7.2l5.6,5.6l7.2-4.6c1.5,0.8,3,1.5,4.6,1.9
			l1.9,8.3h7.9l1.9-8.3c1.6-0.5,3.2-1.1,4.6-1.9l0.4,0.2v-37.8L398.9,122.7z M388.9,151.7c-5.7,0-10.3-4.6-10.3-10.3
			s4.6-10.3,10.3-10.3c5.7,0,10.3,4.6,10.3,10.3c0,0,0,0,0,0C399.2,147.1,394.6,151.7,388.9,151.7
			C388.9,151.7,388.9,151.7,388.9,151.7z"/>
		<path class="st1" d="M256.3,131.4v-16.7l-17.6-3.9c-0.9-3.4-2.3-6.7-4-9.8l2.1-3.4h-83.1l2.1,3.3c-1.7,3.1-3.1,6.4-4,9.8
			l-17.6,3.9v16.8l17.6,3.9c0.9,3.4,2.3,6.7,4,9.8l-9.7,15.2l11.9,11.8l15.2-9.7c3.1,1.7,6.4,3.1,9.8,4.1l3.9,17.6h16.7l3.9-17.6
			c3.4-1,6.7-2.3,9.7-4.1l15.2,9.7l11.8-11.8l-9.6-15.2c1.7-3.1,3-6.4,4-9.8L256.3,131.4z M195.3,144.6c-11.9,0-21.6-9.7-21.6-21.6
			s9.7-21.6,21.6-21.6c11.9,0,21.6,9.7,21.6,21.6C216.9,135,207.2,144.6,195.3,144.6C195.3,144.6,195.3,144.6,195.3,144.6
			L195.3,144.6z"/>
		<path class="st1" d="M251.4,225.9c0.5-2.1,0.8-4.2,0.8-6.3l9.5-5l-2.6-9.7l-10.8,0.5c-1.1-1.8-2.4-3.5-3.9-5l3.2-10.3l-8.7-5
			l-7.3,7.9c-2.1-0.5-4.2-0.8-6.3-0.8l-5-9.6l-9.7,2.6l0.5,10.8c-1.8,1.1-3.5,2.4-5,3.9l-10.3-3.2l-5,8.7l8,7.3
			c-0.5,2.1-0.8,4.2-0.8,6.3l-9.6,5l2.6,9.7l10.8-0.5c1.1,1.8,2.4,3.5,3.9,5l-3.2,10.3l8.7,5l7.2-7.9c2.1,0.5,4.2,0.8,6.3,0.8l5,9.6
			l9.7-2.6l-0.4-9.2l-0.1-1.6c1.8-1.1,3.5-2.4,5.1-3.9l10.3,3.2l4.3-7.4l0.7-1.3L251.4,225.9z M228.6,231.8
			c-6.9,1.9-14.1-2.2-16-9.1c-1.9-6.9,2.2-14.1,9.1-16c6.9-1.9,14.1,2.2,16,9.1c0,0,0,0.1,0,0.1
			C239.5,222.8,235.4,229.9,228.6,231.8L228.6,231.8z"/>
		<path class="st1" d="M362.1,242.9l2.2-13.3l-13.5-5.4c-0.3-2.8-1-5.6-1.9-8.3l9.7-10.8l-7.8-11l-13.4,5.7
			c-2.2-1.8-4.6-3.3-7.2-4.5l-0.8-14.5l-13.3-2.2l-5.5,13.4c-2.8,0.3-5.6,1-8.3,1.9l-10.8-9.7l-11,7.8l5.7,13.4
			c-1.6,2-2.9,4.1-4,6.3c-0.1,0.3-0.3,0.6-0.5,0.9l-14.5,0.8l-2.2,13.3l2.2,0.9l11.3,4.5c0.3,2.8,1,5.6,1.9,8.3l-9.7,10.9l7.8,11
			l13.4-5.7c2.2,1.8,4.6,3.3,7.2,4.5l0.8,14.4l13.3,2.2l5.4-13.3c2.8-0.3,5.6-1,8.3-1.9l10.8,9.7l11-7.9l-5.7-13.4
			c1.8-2.2,3.3-4.7,4.5-7.3L362.1,242.9z M324.8,242.3c-7.8,5.6-18.7,3.8-24.3-4c-5.6-7.8-3.8-18.7,4-24.3c7.8-5.6,18.7-3.8,24.3,4
			c0,0,0,0,0,0C334.4,225.9,332.6,236.7,324.8,242.3L324.8,242.3z"/>
	</g>
	<g id="freepik--Graphics--inject-176">
		<path class="st5" d="M77.3,144.5h104.6c7.2,0,13.1,5.9,13.1,13.1v144.8c0,7.2-5.9,13.1-13.1,13.1H77.3c-7.2,0-13.1-5.9-13.1-13.1
			V157.6C64.2,150.3,70.1,144.5,77.3,144.5z"/>
		<path class="st8" d="M77.3,144.5h104.6c7.2,0,13.1,5.9,13.1,13.1v144.8c0,7.2-5.9,13.1-13.1,13.1H77.3c-7.2,0-13.1-5.9-13.1-13.1
			V157.6C64.2,150.3,70.1,144.5,77.3,144.5z"/>
		<path class="st3" d="M207.2,170.5v144.8c0,7.2-5.9,13.1-13.1,13.1c0,0,0,0,0,0H89.5c-7.2,0-13.1-5.9-13.1-13.1l0,0V170.5
			c0-7.2,5.9-13.1,13.1-13.1h104.6C201.3,157.4,207.2,163.3,207.2,170.5L207.2,170.5z"/>
		<path class="st5" d="M207.2,170.5v7.8H76.4v-7.8c0-7.2,5.9-13.1,13.1-13.1h104.6C201.3,157.4,207.2,163.3,207.2,170.5L207.2,170.5
			z"/>
		<rect x="88.7" y="187.2" class="st1" width="32.2" height="5.4"/>
		<rect x="88.7" y="235.6" class="st1" width="32.2" height="5.4"/>
		<rect x="88.7" y="279.5" class="st1" width="32.2" height="5.4"/>
		<rect x="88.7" y="200.6" class="st6" width="91.4" height="4"/>
		<rect x="88.7" y="208.2" class="st6" width="74.9" height="3.9"/>
		<rect x="88.7" y="215.6" class="st6" width="84.7" height="3.9"/>
		<rect x="88.7" y="223.1" class="st6" width="84.7" height="3.9"/>
		<rect x="88.7" y="244.5" class="st6" width="91.4" height="4"/>
		<rect x="88.7" y="252.1" class="st6" width="74.9" height="3.9"/>
		<rect x="88.7" y="259.5" class="st6" width="84.7" height="3.9"/>
		<rect x="88.7" y="292.7" class="st6" width="91.4" height="4"/>
		<rect x="88.7" y="300.2" class="st6" width="74.9" height="3.9"/>
		<rect x="88.7" y="307.7" class="st6" width="84.7" height="3.9"/>
		<path class="st9" d="M354.6,57v58.5c0,8.6-7,15.6-15.6,15.6c0,0,0,0,0,0H204.2c-8.6,0-15.6-7-15.6-15.6c0,0,0,0,0,0V57
			c0-8.6,7-15.6,15.6-15.6H339C347.6,41.4,354.6,48.4,354.6,57z"/>
		<path class="st5" d="M354.6,57v1.3H188.5V57c0-8.6,7-15.6,15.6-15.6H339C347.6,41.4,354.6,48.4,354.6,57z"/>
		<path class="st6" d="M212.9,52.6c-0.9,0.9-2.5,0.9-3.4,0c-0.9-0.9-0.9-2.5,0-3.4s2.5-0.9,3.4,0c0,0,0,0,0,0
			C213.9,50.2,213.9,51.7,212.9,52.6z"/>
		<path class="st6" d="M224,52.6c-0.9,0.9-2.5,0.9-3.4,0c-0.9-0.9-0.9-2.5,0-3.4s2.5-0.9,3.4,0c0,0,0,0,0,0
			C225,50.2,225,51.7,224,52.6z"/>
		<path class="st6" d="M235.2,52.6c-0.9,0.9-2.5,0.9-3.4,0c-0.9-0.9-0.9-2.5,0-3.4s2.5-0.9,3.4,0c0,0,0,0,0,0
			C236.1,50.2,236.1,51.7,235.2,52.6z"/>
		<rect x="199.1" y="69.1" class="st0" width="54.3" height="46.9"/>
		<rect x="261.8" y="69.1" class="st6" width="62.5" height="3.3"/>
		<rect x="261.8" y="75.9" class="st6" width="47.9" height="3.3"/>
		<rect x="261.8" y="82.7" class="st6" width="71.4" height="3.3"/>
		<rect x="261.8" y="89.4" class="st6" width="60.8" height="3.3"/>
		<path class="st3" d="M328.6,202.2h30.5c3.6,0,6.5,2.9,6.5,6.5v17.9c0,3.6-2.9,6.5-6.5,6.5h-30.5c-3.6,0-6.5-2.9-6.5-6.5v-17.9
			C322,205.2,325,202.2,328.6,202.2z"/>
		<polyline class="st10" points="336.1,211.6 327.7,216.8 335.5,223.7 		"/>
		<polyline class="st10" points="351.4,224.2 358.9,217.8 350.2,212.1 		"/>
		<line class="st10" x1="340.2" y1="228.2" x2="346.4" y2="208.8"/>
	</g>
	<g id="freepik--Character--inject-176">
		<path class="st1" d="M275.7,397.2c0,0-29,8.3-33.1,9.8c-3.7,1.3-13.7,4.8-21.1,3.7c-0.7-0.1-1.4-0.3-2.1-0.5
			c-7.6-2.3-11-4.4-12-9.1s2.8-8.3,6.4-10.5s23.4-4.6,23.4-4.6l4.8,1.4l0,0L275.7,397.2z"/>
		<path class="st11" d="M221.5,410.6c-0.7-0.1-1.4-0.3-2.1-0.5c-7.6-2.3-11-4.4-12-9.1s2.8-8.3,6.4-10.5s23.4-4.6,23.4-4.6l4.8,1.4
			c-4.3,2-20.4,3.1-23.9,5.1s-5.2,5.8-3.1,11C216,406.1,218.9,408.8,221.5,410.6z"/>
		<path class="st10" d="M271.3,398.4c0,0-21.8,5.6-30.4,9.3s-25.1,5.2-31-2.3s-0.7-13.9,5.2-15.3s17.7-3.7,24.2-2.8"/>
		<path class="st10" d="M221.9,410.2c0,0-11.1-6.1-7.4-14.6c2.7-6.3,17.5-4.9,24.8-8.4"/>
		<path class="st1" d="M364,412c-0.3,3-1.4,5.8-4.4,7.6c-2,1.2-4.8,1.9-8.9,1.8c-10.2-0.1-29.3-7.4-29.3-7.4l-17.9-9.9l9.3-14.7
			l2.5-4l6.6,1.5c0,0,5.5,3.1,10.9,5.5s18.8,3,23.5,6.8S364.5,407,364,412z"/>
		<path class="st11" d="M364,412c-0.3,3-1.4,5.8-4.4,7.6c0.9-2.9,0.7-6.1-0.5-8.9c-2-4.5-8.5-8.5-17.1-9.1s-15.1-4.7-18.5-6.5
			c-2.7-1.4-8.3-4.4-10.7-5.7l2.5-4l6.6,1.5c0,0,5.5,3.1,10.9,5.5s18.8,3,23.5,6.8S364.5,407,364,412z"/>
		<path class="st10" d="M307.5,406.9c12.9,7.5,27.1,12.4,41.9,14.3c3.3,0.4,7,0.5,9.2-2c1.2-1.4,1.7-3.3,1.5-5.1
			c-0.4-4.6-4.3-8.2-8.5-10.1s-8.9-2.3-13.4-3.3c-4.5-1-8.8-2.6-12.9-4.7c-3.2-1.7-6.4-3.7-9.9-4.5s-7.8,0.2-9.7,3.3"/>
		<path class="st10" d="M357.5,420.4c3.4-1.6,5.8-4.8,6.5-8.5c0.6-4.3-1.8-8.7-5.3-11.4c-3.5-2.7-7.8-3.9-12.1-4.8
			s-8.7-1.5-12.8-3.1c-6.3-2.5-12.5-7.3-19-5.6"/>
		<path class="st1" d="M327.7,252l-30.3-11.5l-0.4-0.1c0,0,0.1-0.8,0.2-2c0.2-2.4,0.3-6.4-0.9-7.7c-1.7-2-6.5-0.3-11.1-2.5
			c-4.7-2.1-13.3,1.7-13.3,1.7s-6.2-1.1-9,3.4c-1.4,3.6-0.9,9-0.9,9l-0.6,0.2c-3.6,1.4-23.3,8.7-27.4,11.7
			c-4.6,3.2-9.7,36.6-11.3,46.4s-4.5,18.6-3.1,22s22.6,19.6,34.7,23.8c12.1,4.2,55.2,3,55.2,3s0.7-0.2,2-0.6
			c7.3-2.3,33.1-12,46.8-34.7C358.4,314.1,345.1,270.6,327.7,252z M245.9,308.1c-2.2,1.6-1,7.7-1,7.7l-3.8-3.3l9.5-23.4l4.1,18
			C254.7,307,248.1,306.5,245.9,308.1z M322,323c-1,0.5,3-10.7,1.1-13.3c-1.9-2.6-7.7-2.3-7.7-2.3l0.5-3.1l3.4-17.6l1.1-1.4
			c0,0,11.8,20.2,13.9,27.3C334.4,312.7,321.5,323,322,323z"/>
		<path class="st11" d="M270.5,179l-15.6,16.6c0,0-2.1,1.9-1.3,6.7s2.9,9,4.4,9.3c1.2,0.2,2.4,0.3,3.6,0.3c0,0,3.4,7.3,5.7,10.1
			c0,0,0.8,11.2,0.4,14.3c0,0,5.6,4.9,10.9,5.5c5.3,0.6,13.5-7.5,13.5-7.5l2-9.9c0,0,4.8-7.3,5.1-9.2s2.5-1.4,3.6-2.4s3.6-5.2,4-9.3
			s0.4-8.7-4.3-7.3c-4.1-1.1-1.5-9.7-1.5-9.7l-7.2-6.3L270.5,179z"/>
		<path class="st2" d="M297.4,240.4c-0.2,0.6-0.5,1.2-0.8,1.8c-2.6,4.9-13.8,14.1-13.8,14.1l-3.4-10.4l-1.9,10.4
			c-3.8-1.6-15.2-11.5-15.2-11.5s-0.4-0.9-0.9-2.4l0.6-0.2c0,0-0.5-5.4,0.9-9c2.7-4.5,9-3.4,9-3.4s8.6-3.8,13.3-1.7
			s9.5,0.5,11.1,2.5s0.6,9.7,0.6,9.7L297.4,240.4z"/>
		<path class="st8" d="M327.7,252l-30.3-11.5l-0.4-0.1c0,0,0.1-0.8,0.2-2l-0.6,3.9l-4.5,6.1c4.8,1.8,9.5,3.8,14,6.2
			c4.4,2.4,7,7.2,6.4,12.2l-5.6,47.8l-2.3,27.1l6.9,7.2c7.3-2.3,33.1-12,46.8-34.7C358.4,314.1,345.1,270.6,327.7,252z M322,323
			c-1,0.5,3-10.7,1.1-13.3c-1.9-2.6-7.7-2.3-7.7-2.3l0.5-3.1l3.4-17.6l1.1-1.4c0,0,11.8,20.2,13.9,27.3
			C334.4,312.7,321.5,323,322,323z"/>
		<path class="st8" d="M256.7,309.7L252,294c0,0-8.5-28.8-14.2-35.9l1.5,20.3c0,0-5,24.2-9.6,31.4s-5.6,9,0,9s19.2,10.8,19.2,10.8
			l-1-9L256.7,309.7z M244.8,315.8l-3.8-3.3l9.5-23.4l4.1,18c0,0-6.5-0.5-8.8,1.1S244.8,315.8,244.8,315.8z"/>
		<path class="st10" d="M267.3,222c0,0,0.9,8.5,0,12.4"/>
		<path class="st10" d="M292.9,233.2c0-2.7,0.3-5.5,0.9-8.1"/>
		<path class="st10" d="M295.2,185.3c0,0,5.1,6.4,4.9,11.3s-0.7,10.7-0.5,16.3s-9.1,17.5-13.8,18.6s-8.8,1.3-11.9-1.7
			c-3-3-6.1-7.2-10-12.6s-3-17.3-3-17.3"/>
		<path class="st10" d="M282.8,204.4c-0.3,1.8-0.4,3.6-0.4,5.4c-0.1,1.5,0.4,3,1.3,4.2c0.6,0.6,1.4,1,1.5,1.9c0,0.7-0.4,1.4-1.1,1.8
			c-0.6,0.3-1.3,0.7-1.8,1.1"/>
		<path class="st10" d="M274.7,219.3c0,0,0.6,3.8,5.7,4.6"/>
		<path class="st6" d="M275.2,207.3c0,1.1-0.5,2-1.1,2c-0.6,0-1.1-0.9-1.1-2s0.5-2,1.1-2C274.7,205.3,275.2,206.2,275.2,207.3z"/>
		<path class="st6" d="M290.5,207.8c0,1.1-0.5,2-1.1,2c-0.6,0-1.1-0.9-1.1-2s0.5-2,1.1-2C290,205.8,290.5,206.7,290.5,207.8z"/>
		<path class="st12" d="M287.4,203c0,0,5-5,9.2,0.6"/>
		<path class="st12" d="M276.9,203.1c0,0-3.2-3.5-8.1,0"/>
		<path class="st6" d="M267.7,226.7c0,0,3,8.4,9.9,10.8s15.8-10,15.8-10l-0.5-1.6c0,0-5.9,7.7-12.5,6.4
			c-6.6-1.3-13.1-10.3-13.1-10.3L267.7,226.7z"/>
		<path class="st10" d="M261.6,211.6c0,0-4.1,1.4-5.1-1.7c-1.1-3.2-4.8-11.5-1.5-14.3c3.2-2.8,5.8,3.7,5.8,3.7"/>
		<path class="st10" d="M299.5,213.3c0,0,3.8,0.8,4.9-2.4s4.8-11.5,1.5-14.3s-5.8,3.7-5.8,3.7"/>
		<path class="st6" d="M260.7,207.3c1.4-0.2,2.7-1,3.6-2.1c0.5-1,0.9-2.1,1-3.2c0.4-2.1,0.6-4.3,0.6-6.4c0-0.8,0-1.7,0.2-2.5
			c0.3-0.8,0.8-1.6,1.4-2.2c1.4-1.7,3.1-3.1,4.5-4.8c1.5-1.6,2.2-3.8,2-6c6.3,5.2,14.5,7.3,22.5,5.8c7.1-1.4,14-7.7,13.2-15.6
			c-0.3-2.7-2.3-4.9-5-5.5c-3.5-0.9-6.7,1-9.9,2.2c-5.8,2.2-11.5-1.6-17.4-2.2c-5-0.6-11.2,0.1-13.9,5.1c0,0-9,1.1-13,8.5
			s3.6,17.7,3.6,17.7s3-3.7,6.9,3.8L260.7,207.3z"/>
		<path class="st6" d="M295.8,183.4c0,0-2.3,12.2,3.8,18.1c0,0,1.3-3.7,2.7-4.6c2-4.4,1.6-9.5-1.1-13.5
			C296.7,176.3,295.8,183.4,295.8,183.4z"/>
		<path class="st13" d="M307,169.5c-1.1,3.4-3.7,6.1-7,7.3c-8.5,3.5-16.7-0.4-25.2-1.1c-6.9-0.6-14.6,5.6-15.1,12.8"/>
		<path class="st13" d="M254.4,186.5c0.2-5.7,3.7-10.8,9-13.1"/>
		<path class="st10" d="M265.3,233.2c3.7,3.9,8.2,7,13.2,9c0,0,10.1-3,15.3-10"/>
		<circle class="st10" cx="272" cy="207.3" r="9"/>
		<circle class="st10" cx="292" cy="207.4" r="9"/>
		<path class="st10" d="M267.3,229.9c-1.8,0.5-3.4,1.7-4.3,3.4c-1.6,2.8-0.6,11.6-0.6,11.6s8.2,8.1,15.2,11.5l2.1-11.6l3.2,11.6
			c0,0,10.8-7.6,13.8-14.1c0,0,1-7.5,0-10c-0.5-1.4-1.8-2.3-3.2-2.4"/>
		<path class="st10" d="M254.4,307.4c0,0-3.2-21.5-7.5-30.3"/>
		<path class="st10" d="M237.7,258.1c2.5,3.5,4.7,7.2,6.6,11.1"/>
		<path class="st10" d="M322,274.1c0.9-3.6,2-7.1,3.5-10.5"/>
		<path class="st10" d="M315.4,307.4c0,0,2.3-14.7,5.1-26.9"/>
		<path class="st10" d="M319.3,286.7c2.2-3,5.4-5.1,8.9-6.1"/>
		<path class="st10" d="M297.1,240.3c0,0,18.6,7.5,30.7,11.7c0,0,14.8,13.9,30.7,62.1c0,0-14.5,24.5-42.2,32.3"/>
		<path class="st10" d="M321,323.8l13.4-11.1c0,0,7.1-5.4,14.4-1.7"/>
		<path class="st10" d="M320.5,285.4c0,0,11,16.3,13.9,27.3"/>
		<path class="st10" d="M245,316.4l-3.9-3.7c0,0-5.8-1-12.4,3.4"/>
		<path class="st10" d="M241.1,312.7c0,0,4.9-16,9.6-24.2"/>
		<path class="st10" d="M262.1,242.3c0,0-26.8,10.1-29.4,13c-2.6,2.9-12.6,59.2-12.9,65.6c-0.2,5.8,20.7,18.7,31,24.1"/>
		<path class="st6" d="M282.1,261.3c0,1-0.8,1.8-1.8,1.8s-1.8-0.8-1.8-1.8s0.8-1.8,1.8-1.8c0,0,0,0,0,0
			C281.3,259.5,282.1,260.3,282.1,261.3C282.1,261.3,282.1,261.3,282.1,261.3z"/>
		<path class="st6" d="M313.1,355.5h-61c-0.8,0-1.4-0.6-1.4-1.4l0,0c0-0.8,0.6-1.4,1.4-1.4h61c0.8,0,1.4,0.6,1.4,1.4l0,0
			C314.6,354.8,313.9,355.5,313.1,355.5z"/>
		<path class="st3" d="M315.3,350.7l8.2-38.4c0.5-2.2-0.9-4.4-3.1-4.8c-0.3-0.1-0.6-0.1-0.9-0.1h-71.3c-2.3,0-4.1,1.8-4.1,4.1
			c0,0.3,0,0.5,0.1,0.8l7.3,37.1c0.4,1.9,2,3.2,3.9,3.3l55.8,1.3C313.1,354,314.9,352.6,315.3,350.7z"/>
		<path class="st6" d="M289.3,329.5c0,3.1-2.6,5.7-5.7,5.7c-3.1,0-5.7-2.6-5.7-5.7c0-3.1,2.6-5.7,5.7-5.7
			C286.7,323.8,289.3,326.4,289.3,329.5C289.3,329.5,289.3,329.5,289.3,329.5z"/>
		<line class="st10" x1="300.5" y1="311" x2="308.9" y2="311"/>
		<line class="st10" x1="260" y1="311" x2="292.1" y2="311"/>
		<path class="st6" d="M315.4,391.5l-6.5,17.1c0,0-16.6-4.2-37.8-8.5c-22.2-4.5-45.4-10.4-57.4-31.5c-1.5-2.6-2.4-5.6-1.8-8.5
			c1.7-7.3,11.2-9.3,17.5-10c3.9-0.4,7.9-0.6,11.8-0.7c2,0,8.6-1.1,10.3,0.1c2.4,1.8,5,3.3,7.7,4.6c3.5,1.5,55.4-1.4,55.4-1.4
			c0.9-2,1.5-4.1,1.6-6.2c8.1-4.1,27-7.6,35-6.1c12.5,2.4,19.8,9.7,18.5,17.4C368.3,365.4,340.6,385.9,315.4,391.5z"/>
		<path class="st14" d="M315.4,391.5c0,0-15.8-4.2-28.6-12.9s-22.9-18.8-40.9-16.7"/>
		<path class="st14" d="M283.8,376.5c8.1-2.3,14.1-7.6,20.6-12.7c6.9-5.5,14.3-10.4,22.1-14.5"/>
		<line class="st10" x1="281" y1="208.8" x2="283.3" y2="208.8"/>
	</g>
</g>
</svg>
